<svg xmlns="http://www.w3.org/2000/svg"  viewBox="0 0 512 512" version="1.1">
  <path d="M 257.03906 4.8535156 C 249.95841 4.8535156 242.87673 7.5646766 237.45117 12.990234 L 13.128906 237.31445 C 2.2777877 248.16557 2.2777878 265.63716 13.128906 276.48828 L 237.45117 500.81055 C 248.30229 511.66167 265.77388 511.66167 276.625 500.81055 L 500.94922 276.48828 C 511.80034 265.63716 511.80034 248.16557 500.94922 237.31445 L 276.625 12.990234 C 271.19944 7.5646766 264.11971 4.8535156 257.03906 4.8535156 z M 186.43945 130.94922 A 30.29 30.29 0 0 1 209 140.68945 C 215.99 148.10945 220.41063 159.5293 222.14062 174.5293 A 107 107 0 0 1 222.81055 193.5293 L 196.65039 193.55078 C 197.22039 183.56078 195.45992 164.51039 189.91992 158.65039 A 4.17 4.17 0 0 0 186.43945 157.15039 A 13.100585 13.100585 0 0 1 186.43945 130.94922 z M 332.07031 130.94922 A 13.100585 13.100585 0 0 1 332.07031 157.15039 A 4.17 4.17 0 0 0 328.58984 158.65039 C 323.04984 164.51039 321.29935 183.56078 321.85938 193.55078 L 295.69922 193.5293 A 109.18 109.18 0 0 1 296.36914 174.5293 C 298.09914 159.5293 302.51977 148.10945 309.50977 140.68945 A 30.29 30.29 0 0 1 332.07031 130.94922 z M 161.69922 216.24023 L 352.38086 216.24023 A 13.1 13.1 0 1 1 352.38086 242.43945 L 161.69922 242.43945 A 13.1 13.1 0 1 1 161.69922 216.24023 z M 185 272.66992 L 330.55078 272.66992 A 13.1 13.1 0 1 1 330.55078 298.86914 L 185 298.86914 A 13.1 13.1 0 0 1 185 272.66992 z M 209.73047 329.09961 L 307.25977 329.09961 A 13.100585 13.100585 0 1 1 307.25977 355.30078 L 209.73047 355.30078 A 13.100585 13.100585 0 0 1 209.73047 329.09961 z M 234.48047 385.5293 L 284 385.5293 A 13.1 13.1 0 0 1 284 411.73047 L 234.48047 411.73047 A 13.1 13.1 0 1 1 234.48047 385.5293 z"/>
</svg>