<svg xmlns="http://www.w3.org/2000/svg"><defs><font id="RobotoSlab" horiz-adv-x="1239"><font-face font-family="Roboto Slab Light" units-per-em="2048" ascent="2146" descent="-555" alphabetic="0"/><glyph horiz-adv-x="499"/><glyph unicode="!" horiz-adv-x="458" d="M154 478v978h120V478H154zM143 0v166h142V0H143z"/><glyph unicode="&quot;" horiz-adv-x="680" d="M166 1091l8 283v186h103v-194l-39-275h-72zm241 0l8 283v186h103v-194l-39-275h-72z"/><glyph unicode="#" horiz-adv-x="1246" d="M241 0l76 410H63v93h273l82 442H139v95h298l78 416h100l-79-416h314l79 416h100l-79-416h229v-95H932l-83-442h255v-93H831L754 0H654l77 410H417L340 0h-99zm195 503h313l83 442H518l-82-442z"/><glyph unicode="$" horiz-adv-x="1097" d="M497-208v189q-120 8-215 56T134 179 83 413l2 5h112q0-118 46-192t125-108 174-34q98 0 170 35t111 98 39 142q0 74-30 129t-102 99-194 88q-139 44-229 99T172 906t-44 189q0 163 100 264t272 115v203h103v-203q174-17 271-131t95-312l-7-2H853q0 152-80 247t-224 96q-148 0-224-77t-77-197q0-77 28-132t100-99 201-87q138-47 228-101t133-131 44-187q0-166-103-265T599-19v-189H497z"/><glyph unicode="%" horiz-adv-x="1458" d="M404 121l-75 48 711 1138 75-48L404 121zm692-142q-86 0-150 40T845 127t-36 152v78q0 83 36 151t100 108 149 41q85 0 149-40t101-108 36-152v-78q0-84-36-152T1244 19t-148-40zm0 86q89 0 138 62t49 152v78q0 91-49 152t-140 62q-90 0-139-61t-49-153v-78q0-89 49-151t141-63zM364 800q-86 0-150 40T113 947t-36 152v77q0 84 35 152t100 109 150 40q85 0 149-40t100-108 36-153v-77q0-84-35-151T512 840t-148-40zm0 86q89 0 137 62t49 151v77q0 88-49 151t-139 64q-90 0-139-64t-49-151v-77q0-88 49-150t141-63z"/><glyph unicode="&amp;" horiz-adv-x="1270" d="M526-21q-139 0-240 48T130 164 74 370q0 117 67 211t196 191q8 7 16 13t16 12q-80 101-118 182t-39 169q0 105 40 178t114 112 179 39q96 0 166-37t108-101 39-146q0-91-45-155T683 909L524 785l412-480q48 71 75 159t27 187h111q0-128-36-235t-106-194L1192 5l-2-5h-138L929 142Q851 72 752 26T526-21zm0 100q93 0 179 37t157 106L435 717l-46-35q-116-95-155-170t-40-142q0-124 85-207t247-84zm-66 781l176 134q59 44 83 93t25 106q0 79-52 131t-147 52q-102 0-157-65t-56-161q0-67 31-139t97-151z"/><glyph unicode="'" horiz-adv-x="439" d="M166 1091l8 283v186h103v-194l-39-275h-72z"/><glyph unicode="(" horiz-adv-x="637" d="M563-463q-87 50-167 148T252-81 151 221t-37 352v15q0 182 37 348t101 303 144 238 167 148h6l26-73q-73-53-138-146t-115-221-79-277-29-317v-20q0-166 28-316t79-278 115-222 139-149l-26-69h-6z"/><glyph unicode=")" horiz-adv-x="629" d="M37-463l-26 69q72 52 137 146T263-26t79 279 30 318v20q0 164-30 315t-80 279-115 223-136 148l26 69h6q85-48 165-148t145-237 101-304 38-348v-15q0-186-37-352T354-81 210-315 43-463h-6z"/><glyph unicode="*" horiz-adv-x="953" d="M684 638L470 944 266 640l-85 60 217 301-332 108 32 100 332-123-4 370h104l-8-373 325 127 33-100-334-115 223-295-85-62z"/><glyph unicode="+" horiz-adv-x="1145" d="M507 146v483H73v110h434v467h120V739h444V629H627V146H507z"/><glyph unicode="," horiz-adv-x="393" d="M131-281l-71 52q47 66 69 131t23 143v143h120V48q0-93-37-180T131-281z"/><glyph unicode="-" horiz-adv-x="793" d="M154 571v100h479V571H154z"/><glyph unicode="." horiz-adv-x="467" d="M145 0v163h137V0H145z"/><glyph unicode="/" horiz-adv-x="798" d="M0-125l608 1581h108L109-125H0z"/><glyph unicode="0" horiz-adv-x="1158" d="M575-21q-213 0-333 152T121 565v325q0 282 119 434t333 153q213 0 333-152t120-435V565q0-282-119-434T575-21zm0 100q162 0 246 122t85 347v362q0 224-85 345t-248 121q-162 0-247-121t-85-345V548q0-223 86-346T575 79z"/><glyph unicode="1" horiz-adv-x="832" d="M114 0v87l262 13v1232l-288-43v84l408 87V100l261-13V0H114z"/><glyph unicode="2" horiz-adv-x="1116" d="M102 0v91l477 541q88 101 141 177t76 141 24 126q0 136-77 218t-226 82q-155 0-241-92t-86-247H78l-2 6q-3 122 50 220t155 156 239 58q129 0 223-49t146-138 52-210q0-81-33-161t-98-169-155-190L254 105l2-5h637l7 206h106V0H102z"/><glyph unicode="3" horiz-adv-x="1102" d="M535-21q-128 0-234 49T134 168 75 389l2 6h112q0-93 44-164t122-112 180-40q154 0 241 81t87 231q0 154-91 227t-259 74H374v101h139q106 0 177 36t108 100 37 148q0 137-77 218t-228 81q-94 0-166-37t-113-105-41-159H98l-2 6q-3 114 52 203t155 141 227 52q194 0 309-107t116-297q0-103-64-193T710 746q137-39 205-131t68-220q0-130-57-223T768 29 535-21z"/><glyph unicode="4" horiz-adv-x="1178" d="M582 0v87l163 13v269H63v67l671 1020h131V469h228V369H865V100l163-13V0H582zM205 469h540v816l-6 2-51-94-483-724z"/><glyph unicode="5" horiz-adv-x="1070" d="M512-21q-121 0-216 45T148 157 97 377l2 6h107q0-147 83-225t223-79q162 0 242 98t81 285q0 164-81 262t-225 99q-140 0-213-45T210 643l-98 17 81 796h731v-236h-97l-9 127H296l-54-522q36 33 76 56t94 37 129 15q124 2 217-55t146-163 52-251q0-148-49-256T759 39 512-21z"/><glyph unicode="6" horiz-adv-x="1124" d="M582-21q-135 0-239 68T180 246t-59 316v267q0 211 63 355t176 219 256 74q75 0 148-16t129-49l-29-96q-57 31-113 45t-135 15q-165 0-267-125T244 870l2-96q51 83 144 135t210 53q130 0 225-61t147-172 51-255q0-144-55-255T813 43 582-21zm0 100q97 0 169 52t112 143 40 200q0 175-85 283T576 865q-86 0-158-34t-119-93-58-130v-56q0-226 95-349T582 79z"/><glyph unicode="7" horiz-adv-x="1115" d="M372 0l11 121q28 248 96 463t175 405 253 366H190l-7-205H76v306h955v-101q-119-139-208-277T670 792 566 479t-63-358L492 0H372z"/><glyph unicode="8" horiz-adv-x="1127" d="M561-21q-140 0-245 47T151 164 92 386q0 128 79 224t214 137q-116 39-184 127t-68 207q0 126 54 214t150 135 222 47q125 0 221-47t152-135 56-214q0-118-70-206T733 747q133-41 214-137t82-224q0-131-60-222T804 26 561-21zm0 100q101 0 179 37t124 105 45 164q0 92-46 162T738 657t-179 40q-101 0-179-39T257 548t-45-163q0-144 97-225t252-81zm0 718q89 0 158 35t109 100 40 150q0 85-41 151t-111 105-157 38q-135 0-220-80t-86-214q0-130 86-207t222-78z"/><glyph unicode="9" horiz-adv-x="1138" d="M506-21q-77 0-156 15T200 40l22 100q69-32 134-46t150-15q166 0 261 124t97 381l-2 69q-49-90-137-140t-199-50q-133 0-232 62T139 700 84 958q0 147 58 264t158 186 227 69q142 0 246-61t161-186 58-312V612q0-212-60-352T763 49 506-21zm20 584q130 0 217 67t124 166v131q0 227-89 338t-246 111q-94 0-167-56t-115-151-42-211q0-113 39-202t110-141 169-52z"/><glyph unicode=":" horiz-adv-x="389" d="M386 0v163h137V0H386zM130 917v163h137V917H130z"/><glyph unicode=";" horiz-adv-x="392" d="M135 919v163h137V919H135zm1-1200l-71 52q47 66 69 131t23 143v143h120V48q0-93-37-180T136-281z"/><glyph unicode="&lt;" horiz-adv-x="1022" d="M903 123L76 502v95l827 378V851L289 578l-103-28v-6l103-28 614-269V123z"/><glyph unicode="=" horiz-adv-x="1127" d="M147 834v105h834V834H147zm0-411v104h834V423H147z"/><glyph unicode="&gt;" horiz-adv-x="1056" d="M125 114v122l631 275 103 28v6l-103 29-631 271v122l845-378v-96L125 114z"/><glyph unicode="?" horiz-adv-x="925" d="M361 405q0 65 4 107t18 74 41 63 74 74q76 71 121 128t65 117 20 134q0 128-68 199t-193 71q-119 0-190-68t-73-188H68l-3 6q-1 110 47 190t134 122 197 43q179 0 280-101t101-272q0-91-28-164t-84-143-143-151q-39-37-58-68t-24-70-6-103H361zM358 0v153h139V0H358z"/><glyph unicode="@" horiz-adv-x="1809" d="M860-453q-251 0-428 113T164-19 86 478q12 283 122 495t300 329 440 118q258 0 433-109t260-312 74-486q-6-144-56-265T1516 53t-231-74q-78 0-130 52t-69 145Q981-21 774-21 643-21 575 98t-49 318q15 170 74 296t150 195 203 70q93 0 150-26t127-82v-16l-49-560q-6-88 10-138t47-70 68-21q142 0 225 125t92 324q19 390-151 606t-528 217q-220 0-386-107T294 928 184 478q-13-254 63-444t233-297 385-106q94 0 182 21t150 57l31-73q-65-41-168-65t-200-24zM801 76q87 0 158 47t122 173v18q0 9 2 21l44 496q-31 27-70 41t-88 15q-134 0-221-118T636 416q-15-155 27-247t138-93z"/><glyph unicode="A" horiz-adv-x="1500" d="M62 0v87l107 7 517 1362h114L1313 94l107-7V0h-359v87l128 9-121 329H415L293 96l128-9V0H62zm392 530h575l-263 715-20 59h-6l-21-59-265-715z"/><glyph unicode="B" horiz-adv-x="1282" d="M76 0v87l163 13v1255l-163 13v88h583q227 0 354-95t127-288q0-114-64-197T898 763q90-15 158-66t107-126 39-165q0-196-126-301T738 0H76zm283 100h379q161 0 252 80t92 224q0 87-37 154T935 664t-178 38H359V100zm0 703h335q156 0 240 70t85 204q0 139-91 208t-269 70H359V803z"/><glyph unicode="C" horiz-adv-x="1321" d="M769-21q-216 0-363 94T183 335t-76 383v19q0 218 78 384t223 261 338 95q150 0 258-42t193-115v-283h-102l-10 232q-44 33-92 56t-108 35-139 13q-159 0-275-80t-180-223-64-331v-21q0-194 64-337t186-221 293-78q92 0 177 23t145 61l10 220h101V96q-89-58-200-87T769-21z"/><glyph unicode="D" horiz-adv-x="1372" d="M76 0v87l163 13v1255l-163 13v88h563q186 0 327-92t221-254 81-370v-24q0-207-79-368T970 93 644 0H76zm283 100h280q152 0 266 81t178 221 65 314v26q0 176-64 314t-179 219-266 80H359V100z"/><glyph unicode="E" horiz-adv-x="1287" d="M76 0v87l163 13v1255l-163 13v88h1046v-319h-102l-10 220H359V806h587V706H359V97h682l10 222h101V0H76z"/><glyph unicode="F" horiz-adv-x="1251" d="M76 0v87l163 13v1255l-163 13v88h1078v-319h-102l-10 219H359V784h593V683H359V100l163-13V0H76z"/><glyph unicode="G" horiz-adv-x="1384" d="M755-21q-200 0-345 93T186 332t-79 386v32q0 216 80 379t222 256 320 92q161 0 273-40t200-109v-271h-103l-10 218q-63 46-145 72t-206 26q-145 0-260-78t-183-218-68-325v-34q0-189 62-332t180-224 285-80q118 0 208 26t156 62v386l-299 4v97h419V123q-78-57-195-100T755-21z"/><glyph unicode="H" horiz-adv-x="1539" d="M76 0v87l163 13v1255l-163 13v88h446v-88l-163-13V772h822v583l-163 13v88h446v-88l-163-13V100l163-13V0h-446v87l163 13v571H359V100l163-13V0H76z"/><glyph unicode="I" horiz-adv-x="597" d="M76 0v87l163 13v1255l-163 13v88h446v-88l-163-13V100l163-13V0H76z"/><glyph unicode="J" horiz-adv-x="1152" d="M486-21q-128 0-225 47T109 169 52 404l2 6h112q2-163 83-246t235-83q94 0 161 41t104 118 37 178v937l-189 12v89h472v-88l-163-13V418q0-133-50-231T711 34 486-21z"/><glyph unicode="K" horiz-adv-x="1440" d="M342 405l-59 90 772 862 1 5-141 6v88h410v-88l-125-11-858-952zM76 0v87l163 13v1255l-163 13v88h446v-88l-163-13V100l163-13V0H76zm879 0v87l143 7 1 3-478 658 78 88 549-744 126-12V0H955z"/><glyph unicode="L" horiz-adv-x="1184" d="M76 0v87l163 13v1255l-163 13v88h446v-88l-163-13V99h611l11 235h98V0H76z"/><glyph unicode="M" horiz-adv-x="1897" d="M82 0v87l163 13v1255l-163 13v88h325L945 208h6l531 1248h333v-88l-163-13V100l163-13V0h-446v87l167 13v1181l-5 1L991 24h-84L361 1278l-6-2 4-541V100l169-13V0H82z"/><glyph unicode="N" horiz-adv-x="1552" d="M77 0v87l163 13v1255l-163 13v88h284l832-1252 6 2v1149l-170 13v88h446v-88l-163-13V0h-112L359 1257l-6-2V100l170-13V0H77z"/><glyph unicode="O" horiz-adv-x="1425" d="M710-21q-138 0-250 53T268 183 145 416t-43 302v19q0 166 42 301t123 234 192 152 250 53q141 0 253-53t192-151 121-234 42-302v-19q0-166-41-301t-121-234T964 32 710-21zm0 105q158 0 266 79t165 222 56 333v21q0 190-56 332t-166 221-266 80q-151 0-260-79t-167-222-59-332v-21q0-190 58-333t168-222 261-79z"/><glyph unicode="P" horiz-adv-x="1274" d="M76 0v87l163 13v1255l-163 13v88h614q154 0 261-53t163-148 56-224q0-129-56-224T951 659t-261-53H359V100l163-13V0H76zm283 706h331q180 0 270 92t90 231q0 141-89 233t-271 93H359V706z"/><glyph unicode="Q" horiz-adv-x="1431" d="M1275-224L936 21Q883 0 826-10T710-21q-138 0-250 53T268 183 145 417t-43 301v19q0 166 42 301t123 234 191 152 250 53q141 0 253-53t192-151 121-234 42-302v-19q0-216-66-382T1044 79l301-213-70-90zM710 84q156 0 264 79t165 222 57 333v21q0 190-56 332t-166 221-266 80q-150 0-259-79t-167-222-59-332v-21q0-190 58-333t168-222 261-79z"/><glyph unicode="R" horiz-adv-x="1374" d="M76-1v88l163 13v1255l-163 13v87h614q156 0 264-46t164-134 57-217q0-125-58-211T953 717t-248-46l-346-3V100l163-13V-1H76zm979 0L742 722l120 1 278-627 119-8V-1h-204zM359 768h319q195 0 286 80t91 211q0 141-91 218t-274 78H359V768z"/><glyph unicode="S" horiz-adv-x="1194" d="M597-21q-125 0-249 38T107 135v282h100l15-227q88-55 183-82t192-27q115 0 200 35t133 99 48 147q0 80-38 140T815 609t-235 84q-159 41-259 96T173 921t-48 185q0 109 58 192t162 131 244 48q147 0 262-44t196-113v-260h-99l-15 206q-63 51-149 80t-195 29q-107 0-184-35t-118-96-42-136q0-73 33-128t114-98 227-82q237-61 358-164t121-272q0-116-63-202T858 27 597-21z"/><glyph unicode="T" horiz-adv-x="1337" d="M444 0v87l163 13v1258H198l-13-222H87v320h1159v-320h-97l-14 222H727V100l163-13V0H444z"/><glyph unicode="U" horiz-adv-x="1478" d="M737-21q-150 0-264 57T293 203t-65 266v886l-163 13v88h446v-88l-163-13V469q0-124 49-210t138-132 203-46q115 0 204 45t139 131 50 212v886l-163 13v88h446v-88l-163-13V469q0-159-64-268T1006 36 737-21z"/><glyph unicode="V" horiz-adv-x="1468" d="M678 0L171 1361l-111 7v88h384v-88l-144-9L703 253l30-96h6l30 96 409 1106-151 9v88h384v-88l-112-7L792 0H678z"/><glyph unicode="W" horiz-adv-x="2060" d="M525 0L175 1361l-111 7v88h390v-88l-156-10 233-947 54-210h6l61 209 331 1046h112l332-1046 59-214h6l59 214 230 948-161 10v88h386v-88l-107-7L1556 0h-119l-351 1119-45 146h-6l-43-146L639 0H525z"/><glyph unicode="X" horiz-adv-x="1451" d="M68 0v87l120 10 470 644-444 617-121 10v88h405v-88l-152-6 381-539 374 539-153 6v88h406v-88l-123-10-433-617 464-644 121-10V0H976v87l154 6-404 567L323 93l151-6V0H68z"/><glyph unicode="Y" horiz-adv-x="1444" d="M500 0v87l163 13v442l-484 818-119 8v88h407v-88l-153-8 385-671 23-45 1 2 24 43 392 671-155 8v88h402v-88l-123-8-480-811V100l163-13V0H500z"/><glyph unicode="Z" horiz-adv-x="1209" d="M91 0v92l850 1264H230l-8-216H120v316h966v-87L234 100h774l9 224h101V0H91z"/><glyph unicode="[" horiz-adv-x="548" d="M157-312v1976h330v-101H277V-211h210v-101H157z"/><glyph unicode="\" horiz-adv-x="810" d="M644-125L36 1456h117L761-125H644z"/><glyph unicode="]" horiz-adv-x="527" d="M23-312v101h210v1774H23v101h330V-312H23z"/><glyph unicode="^" horiz-adv-x="845" d="M71 729l299 727h90l298-727H642l-197 486-29 93h-6l-30-93-193-486H71z"/><glyph unicode="_" horiz-adv-x="1150" d="M119-100V0h881v-100H119z"/><glyph unicode="`" horiz-adv-x="404" d="M364 1310l-5-3h-88L40 1555l2 5h141l181-250z"/><glyph unicode="a" horiz-adv-x="1123" d="M420-21q-154 0-241 82T92 283q0 100 58 175t164 118 253 42h224v124q0 117-69 188t-210 72q-79 0-141-25t-109-65l-10-165h-99v226q70 60 159 94t202 35q191 0 294-96t103-266V218q0-32 2-63t7-63l129-5V0H813q-12 59-16 95t-6 81Q732 89 635 34T420-21zm14 105q111 0 210 58t147 156v228H566q-166 0-260-71t-94-176q0-87 60-141t162-54z"/><glyph unicode="b" horiz-adv-x="1114" d="M611-21q-119 0-205 47T266 157L254 0H151v1459l-163 13v88h283V917q53 87 137 136t201 49q130 0 223-70t142-199 50-301v-21q0-162-49-281T833 45 611-21zM588 82q156 0 235 116t80 313v21q0 139-35 244T762 940t-176 59q-127 0-202-63T271 775V287q38-94 118-149t199-56z"/><glyph unicode="c" horiz-adv-x="1075" d="M551-21q-135 0-238 68T151 237 92 520v42q0 158 56 280t160 191 242 69q126 0 224-47t164-123l2-245H840l-16 202q-50 53-117 82t-154 30q-102 0-179-57T255 788t-43-226v-42q0-132 42-231t118-155 180-55q121 0 202 63t98 188h107l2-6q-9-102-60-180T761 23 551-21z"/><glyph unicode="d" horiz-adv-x="1211" d="M505-21q-129 0-222 66T141 230 92 511v21q0 173 49 301t142 198 224 71q113 0 196-48t138-134v539l-163 13v88h283V100l163-13V0H854l-9 153Q792 71 706 25T505-21zm22 103q117 0 195 53t119 144v505q-39 94-114 154t-198 61q-105 0-175-59T249 776t-36-244v-21q0-196 78-312T527 82z"/><glyph unicode="e" horiz-adv-x="1072" d="M565-21q-139 0-245 67T154 233 94 509v55q0 155 60 276t162 192 229 70q133 0 227-57t145-160 51-244V539H218l-2-44q1-120 44-214t122-148 183-54q102 0 179 32t137 89l51-82q-63-60-152-99T565-21zM226 639h622v30q0 95-36 170T708 958t-163 43q-86 0-155-46T278 828t-54-183l2-6z"/><glyph unicode="f" horiz-adv-x="723" d="M94 0v87l163 13v885H77v97h180v159q0 162 81 251t229 89q34 0 69-4t72-15l-16-97q-25 6-52 9t-61 4q-98 0-150-62t-52-175v-159h263v-97H377V100l173-13V0H94z"/><glyph unicode="g" horiz-adv-x="1156" d="M536-437q-79 0-167 19t-154 51l32 100q64-31 135-48t152-17q154 0 231 91t78 255v132Q789 67 705 23T508-21q-130 0-223 66T142 230 92 511v21q0 173 50 301t143 198 225 71q116 0 201-50t138-140l13 170h101V14q0-139-50-240T766-382t-230-55zm-6 519q118 0 195 54t118 148v495q-38 95-112 157t-199 63q-105 0-176-59T249 775t-36-243v-21q0-196 79-312T530 82zm409 897l-39 103h202v-87l-163-16z"/><glyph unicode="h" horiz-adv-x="1295" d="M56 0v87l163 13v1359l-163 13v88h283V893q53 99 142 154t211 55q171 0 262-105t92-330V100l163-13V0H763v87l163 13v569q0 177-69 253t-192 77q-132 0-212-74T339 733V100l163-13V0H56z"/><glyph unicode="i" horiz-adv-x="629" d="M79 0v87l163 13v881L79 994v88h283V100l163-13V0H79zm149 1387v173h134v-173H228z"/><glyph unicode="j" horiz-adv-x="545" d="M84-437q-31 0-57 5t-55 14l13 97q16-5 46-10t53-5q86 0 134 65t49 182V981l-163 13v88h283V-89q0-167-80-257T84-437zm166 1824v173h134v-173H250z"/><glyph unicode="k" horiz-adv-x="1215" d="M63 0v87l163 13v1359l-163 13v88h283V100l163-13V0H63zm697 0v87l119 6-1 5-359 485 68 91 436-576 135-11V0H760zM334 331l-43 100 533 551 1 6-118 6v88h388v-88l-130-12-631-651z"/><glyph unicode="l" horiz-adv-x="614" d="M74 0v87l163 13v1359l-163 13v88h283V100l163-13V0H74z"/><glyph unicode="m" horiz-adv-x="1979" d="M82 0v87l163 13v881L82 994v88h270l10-185q50 97 137 151t209 54q125 0 208-61t119-189q46 117 137 184t222 67q173 0 267-115t95-357V101l163-13V1h-447v87l163 13v532q0 201-70 284t-196 83q-141 0-217-89t-91-227V100l163-13V0H777v87l163 13v533q0 197-71 281t-197 85q-132 0-205-70T366 743V100l163-13V0H82z"/><glyph unicode="n" horiz-adv-x="1331" d="M82 0v87l163 13v881L82 994v88h269l10-194q52 102 140 158t210 56q176 0 268-107t92-337V100l163-13V0H788v87l163 13v557q0 188-69 265t-197 77q-134 0-212-75T365 728V100l163-13V0H82z"/><glyph unicode="o" horiz-adv-x="1141" d="M572-21q-146 0-253 69T152 241 92 524v33q0 159 59 282t167 193 252 70q145 0 252-70t167-192 60-283v-33q0-160-59-283T823 49 572-21zm0 100q111 0 191 59t123 160 43 226v33q0 124-43 225T763 942t-193 59q-112 0-192-59T255 782t-43-225v-33q0-126 42-226t123-160 195-59z"/><glyph unicode="p" horiz-adv-x="1178" d="M55-416v88l159 13V981L51 994v88h263l15-165q54 88 139 136t202 49q130 0 223-70t143-199 50-301v-21q0-162-49-281T895 45 673-21q-115 0-200 43T334 142v-457l167-13v-88H55zM645 79q157 0 238 118t82 314v21q0 138-37 243T820 939t-177 60q-123 0-197-60T334 787V271q38-89 116-140t195-52z"/><glyph unicode="q" horiz-adv-x="1137" d="M673-416v88l163 13v454Q783 63 699 21T505-21q-129 0-222 66T141 230 92 511v21q0 173 49 301t142 198 224 71q112 0 196-47t138-133l10 160h105V-315l158-13v-88H673zM527 79q115 0 192 52t117 142v516q-39 90-113 151t-194 61q-105 0-175-59T249 777t-36-245v-21q0-196 78-314T527 79z"/><glyph unicode="r" horiz-adv-x="837" d="M81 0v87l163 13v881L81 994v88h268l13-165 1-29q46 101 125 157t189 57q27 0 57-4t45-10l-15-110-111 7q-115 3-188-66T364 736V100l163-13V0H81z"/><glyph unicode="s" horiz-adv-x="1015" d="M499-21Q385-21 288 9T104 98l-1 222h98l17-159q58-45 129-65t152-20q136 0 207 59t71 140q0 76-63 134t-226 95q-194 42-280 112t-87 195q0 82 46 148t130 104 199 39q119 0 207-34t151-93l5-222h-98l-14 160q-45 43-105 66t-146 24q-122 0-188-56t-66-132q0-49 20-85t79-66 171-55q203-46 294-124t91-204q0-132-102-217T499-21z"/><glyph unicode="t" horiz-adv-x="724" d="M473-19q-114 0-177 70t-63 228v706H46v97h187v278h120v-278h252v-97H353V279q0-108 38-155t103-48q34 0 67 4t68 10l18-86q-36-11-82-17t-92-6z"/><glyph unicode="u" horiz-adv-x="1222" d="M541-21Q371-21 277 95t-95 360v526L48 994v88h254V453q0-198 65-284t188-87q139 0 217 64t107 174v661l-154 13v88h275V100l145-13V0H894l-10 178Q833 83 748 31T541-21z"/><glyph unicode="v" horiz-adv-x="1184" d="M548 0L155 987l-115 7v88h381v-88l-142-9 280-714 40-119h6l43 119 271 714-144 9v88h381v-88l-117-7L656 0H548z"/><glyph unicode="w" horiz-adv-x="1804" d="M476 0L174 988l-122 6v88h385v-88l-141-10 186-634 50-178h6l58 178 247 732h106l246-731 62-190 6 1 58 189 186 634-142 9v88h381v-88l-122-8L1323 0h-116L954 738l-55 178-6-1-54-177L584 0H476z"/><glyph unicode="x" horiz-adv-x="1197" d="M64 0v87l123 11 343 453-329 433-117 10v88h366v-88l-116-5 268-357 264 357-120 5v88h363v-88l-118-10-319-431 350-455 119-11V0H759v87l127 5-286 378L317 92l121-5V0H64z"/><glyph unicode="y" horiz-adv-x="1188" d="M295-437q-21 0-50 4t-45 9l14 99q14-2 39-4t38-3q78 0 124 51t84 147l56 147-397 974-117 7v88h381v-88l-137-9 278-698 45-123h6l309 821-141 9v88h378v-88l-115-7L601-174q-30-76-68-136t-95-93-143-34z"/><glyph unicode="z" horiz-adv-x="1056" d="M105 0v87l655 895H221l-12-212h-97v312h800v-88L254 98h599l12 213h97V0H105z"/><glyph unicode="{" horiz-adv-x="697" d="M632-405q-184 55-261 173T294 57v227q0 123-56 191T63 543v103q118 0 174 67t57 191v228q0 171 77 290t261 175l26-78q-128-41-186-142t-58-245V904q0-113-47-194T222 594q97-35 144-116t48-194V57q0-143 59-241t188-142l-29-79z"/><glyph unicode="|" horiz-adv-x="426" d="M150-270v1726h102V-270H150z"/><glyph unicode="}" horiz-adv-x="696" d="M56-405l-29 79q127 43 186 141t60 242v227q0 113 48 195t151 115q-102 33-150 114t-49 196v228q0 144-58 245T30 1519l26 78q182-55 259-174t78-291V904q0-123 56-190t175-68V543q-118 0-174-68t-57-191V57q0-170-77-288T56-405z"/><glyph unicode="~" horiz-adv-x="1376" d="M952 424q-88 0-160 35T631 574q-64 54-119 81t-110 27q-79 0-131-61t-53-162l-97 15q0 88 36 159t99 112 146 42q87 0 160-37t163-113q63-57 116-82t111-26q77 0 131 64t54 162l98-15q0-86-37-158t-101-115-145-43z"/><glyph unicode="¡" horiz-adv-x="458" d="M184 604v-978h120v978H184zm-11 478V916h142v166H173z"/><glyph unicode="¢" horiz-adv-x="1088" d="M526-245v230Q397-2 308 69T171 256t-47 264v42q0 147 47 262t137 187 218 85v222h120v-219q105-11 192-56t145-116l4-236H886l-20 193q-47 53-119 85t-162 32q-116 0-191-56T281 789t-37-227v-42q0-129 36-228t113-156 193-57q79 0 148 31t111 88 42 139h107l2-6q3-90-44-164T825 45 646-17v-228H526z"/><glyph unicode="£" horiz-adv-x="1164" d="M132 0v100h10q46 10 77 67t46 137 16 162l-7 177H68v101h202l-10 296q0 204 106 320t284 117q186 0 280-103t91-279l-2-5H907q0 149-69 217t-188 69q-125 0-197-88t-73-248l10-296h451V643H394l7-177q0-109-26-206t-76-160h661l7 206h106V0H132z"/><glyph unicode="¤" horiz-adv-x="1461" d="M1273-27l-158 161q-80-74-180-114T725-20q-112 0-211 39T334 132L179-26 94 59l160 162q-60 81-92 179t-33 208q0 113 34 214t100 184L94 1179l85 85 167-171q78 67 175 104t204 37q106 0 202-37t176-106l170 174 87-86-173-176q63-82 97-183t35-212q0-108-32-205t-91-178l164-166-87-86zM725 89q99 0 185 40t153 112 104 166 38 201q0 107-37 200t-104 165-153 111-186 40q-100 0-187-40T384 973 280 809t-37-201q0-107 37-201t103-165 154-112 188-41z"/><glyph unicode="¥" horiz-adv-x="1383" d="M468 0v87l163 13v226H216v86h415v206H216v87h370l-398 654-129 9v88h374v-88l-110-7 346-579 23-46 4 3 21 43 345 579-109 7v88h374v-88l-129-9-399-654h372v-87H751V412h420v-86H751V100l163-13V0H468z"/><glyph unicode="¦" horiz-adv-x="462" d="M150-270v770h120v-770H150zm0 968v758h120V698H150z"/><glyph unicode="§" horiz-adv-x="1214" d="M587-495q-142 0-255 45T153-311 90-69l2 5 112 2q0-115 52-188t139-109 192-35q163 0 256 70t93 183q0 71-32 120T791 67t-225 80q-161 40-266 91T142 365 90 551q0 100 62 171t176 101q-97 49-145 120t-48 178q0 108 58 188t163 124 249 44q223 0 347-111t120-314l-2-6H958q0 95-42 169t-121 118-190 43q-173 0-261-71t-89-182q0-75 30-125t111-89 231-81q166-44 270-94t154-121 49-182q0-100-66-170T852 161q103-51 153-121t51-179q0-166-127-261t-342-95zm136 711q121 10 189 68t69 144q0 72-36 122t-124 93-244 87q-38 9-71 19t-64 22q-115-13-173-72t-59-146q0-78 32-128t119-89 250-86q34-9 61-17t51-17z"/><glyph unicode="¨" horiz-adv-x="582" d="M408 1388v172h134v-172H408zm-368 0v172h135v-172H40z"/><glyph unicode="©" horiz-adv-x="1596" d="M802-21q-147 0-276 57T300 196 147 434 92 729q0 158 55 293t152 238 226 159 277 57q147 0 276-57t226-159 153-237 55-294q0-158-55-294t-152-239-227-159-276-58zm0 85q129 0 241 51t199 142 135 212 49 260q0 138-48 258t-135 211-199 141-242 51q-129 0-242-50t-200-141-134-211-48-259q0-139 48-259t134-212 199-143 243-51zm-10 218q-152 0-243 106t-91 281v119q0 172 91 279t243 108q147 0 230-79t80-228l-3-6h-91q0 113-55 168t-161 56q-110 0-172-83t-62-214V669q0-132 61-214t173-83q106 0 160 54t55 170h91l3-6q3-150-79-229t-230-79z"/><glyph unicode="ª" horiz-adv-x="876" d="M355 692q-119 0-184 61t-65 167q0 105 78 163t230 58h182v61q0 86-41 132t-120 47q-92 0-142-37t-50-110l-100 9-2 6q-5 98 77 163t217 65q123 0 197-71t74-205V887q0-49 6-93t20-88H620q-10 25-15 52t-7 56q-37-52-98-87t-145-35zm20 94q47 0 93 18t81 47 47 61v146H415q-96 0-148-39t-53-95q0-66 39-102t122-36z"/><glyph unicode="«" horiz-adv-x="919" d="M378 389L83 767v19l295 379h106L208 776l276-387H378zm309-256L392 511v19l295 379h106L517 520l276-387H687z"/><glyph unicode="¬" horiz-adv-x="1112" d="M813 386v285H121v105h812V386H813z"/><glyph unicode="­" horiz-adv-x="793" d="M154 571v100h479V571H154z"/><glyph unicode="®" horiz-adv-x="1595" d="M802-21q-148 0-277 57T299 196 147 434 92 729q0 158 55 293t152 238 226 159 277 57q147 0 276-57t226-159 153-237 55-294q0-158-55-294t-152-239-227-159-276-58zm0 85q129 0 241 51t199 142 135 212 49 260q0 138-48 258t-135 211-199 141-242 51q-129 0-242-50t-200-141-134-211-49-259q0-139 48-259t135-212 199-143 243-51zM541 316v850h258q147 0 226-63t79-185q0-67-36-117t-105-80q68-24 98-77t31-129v-56q0-39 3-72t14-55v-16h-103q-9 21-11 61t-2 83v54q0 84-38 121t-128 37H640V316h-99zm99 446h180q79 1 133 41t54 113q0 86-46 123t-162 37H640V762z"/><glyph unicode="¯" horiz-adv-x="750" d="M40 1388v96h670v-96H40z"/><glyph unicode="°" horiz-adv-x="747" d="M369 981q-68 0-123 33t-89 88-33 125q0 68 33 124t89 91 123 35q66 0 121-34t88-91 33-125q0-69-33-124t-88-89-121-33zm0 90q65 0 108 44t44 113q0 68-43 113t-109 46q-66 0-110-46t-45-114q0-68 44-112t111-44z"/><glyph unicode="±" horiz-adv-x="1082" d="M499 289v439H85v101h414v438h111V829h391V728H610V289H499zM129 50v100h835V50H129z"/><glyph unicode="²" horiz-adv-x="816" d="M683 667v90H261l-2 6 213 188q69 65 112 112t64 89 21 93q0 113-71 173t-195 61q-88 0-153-31t-99-85-31-119l2-6h100q0 66 47 108t134 43q79 0 117-39t39-104q0-47-27-92t-103-115L113 757v-90h570z"/><glyph unicode="³" horiz-adv-x="837" d="M398 1119H275v-89h123q93 0 139-34t47-110q0-65-50-103t-141-38q-84 0-135 40t-51 103H106l-1-6q-4-73 35-124t105-77 148-26q134 0 217 61t83 170q0 145-149 190 64 25 100 72t36 105q0 108-77 166t-210 59q-120 0-200-60t-75-154l2-6h100q0 59 49 94t124 36q88 0 133-37t45-97q0-135-173-135z"/><glyph unicode="´" horiz-adv-x="404" d="M40 1310l182 250h140l2-5-231-248H45l-5 3z"/><glyph unicode="µ" horiz-adv-x="1297" d="M229-416V981L66 994v88h281V449q0-207 71-288t192-82q145 0 218 67t98 191v644l-163 13v88h283V100l163-13V0H942l-10 161Q886 72 808 26T619-21q-89 0-158 32T347 114v-530H229z"/><glyph unicode="¶" horiz-adv-x="1065" d="M513 0v87l163 13v420H570q-156 0-266 59T136 743 78 988q0 138 58 243t169 165 265 60h389v-88l-163-13V100l163-13V0H513z"/><glyph unicode="·" horiz-adv-x="497" d="M169 633v163h137V633H169z"/><glyph unicode="¸" horiz-adv-x="470" d="M47-435l-7 77q90 0 151 30t61 89q0 57-41 78T66-130L98 15h93l-15-83q80-9 128-48t48-121q0-90-79-144T47-435z"/><glyph unicode="¹" horiz-adv-x="506" d="M349 665v812l-258-23v-92l148 8V665h110z"/><glyph unicode="º" horiz-adv-x="921" d="M446 691q-149 0-237 92t-88 242v117q0 148 87 241t236 94q148 0 236-93t88-242v-117q0-149-87-241t-235-93zm0 94q103 0 158 67t55 173v117q0 104-55 171t-160 68q-104 0-159-67t-56-172v-117q0-108 54-174t163-66z"/><glyph unicode="»" horiz-adv-x="916" d="M105 162l275 388-275 394h106l294-384v-19L211 162H105zm315 0l275 388-275 394h106l294-384v-19L526 162H420z"/><glyph unicode="¼" horiz-adv-x="1491" d="M313 664v705l-148-8v92l257 23V664H313zm68-535l-75 48 711 1138 75-48L381 129zM1199 0v170H769l-4 67 428 564h114V260h153v-90h-153V0h-108zM894 260h305v402l-6 2-25-43-274-361z"/><glyph unicode="½" horiz-adv-x="1462" d="M393 129l-75 48 711 1138 75-48L393 129zm-80 535v705l-148-8v92l257 23V664H313zM907 0v90l316 282q76 70 103 115t27 92q0 65-38 104t-118 39q-87 0-134-42t-47-109H916l-2 6q-4 65 30 118t100 85 153 32q124 0 195-60t71-174q0-50-20-92t-64-90-113-112L1053 96l2-6h422V0H907z"/><glyph unicode="¾" horiz-adv-x="1670" d="M588 129l-75 48 711 1138 75-48L588 129zM1408 0v170H978l-4 67 428 564h114V260h153v-90h-153V0h-108zm-305 260h305v402l-6 2-25-43-274-361zM418 656q-81 0-147 26t-106 77-35 124l1 6h101q0-63 51-103t135-40q90 0 140 38t51 103q0 75-46 109t-140 35H300v89h123q173 0 173 135 0 59-45 96t-133 38q-75 0-124-35t-49-95H145l-2 6q-6 94 74 154t201 60q133 0 210-58t77-167q0-58-36-105t-100-72q149-45 149-190 0-109-83-170t-217-61z"/><glyph unicode="¿" horiz-adv-x="863" d="M521 678q0-65-4-107t-18-74-41-63-74-74q-76-71-121-128t-65-117-20-134q0-128 68-199t193-71q119 0 190 68t73 188h112l3-6q1-110-47-190T636-351t-197-43q-179 0-280 101T58-21q0 91 28 164t84 143 143 151q39 37 58 68t24 70 6 103h120zm3 405V930H385v153h139z"/><glyph unicode="À" horiz-adv-x="1500" d="M62 0v87l107 7 517 1362h114L1313 94l107-7V0h-359v87l128 9-121 329H415L293 96l128-9V0H62zm392 530h575l-263 715-20 59h-6l-21-59-265-715zm376 1057l-5-3h-88l-231 248 2 5h141l181-250z"/><glyph unicode="Á" horiz-adv-x="1500" d="M62 0v87l107 7 517 1362h114L1313 94l107-7V0h-359v87l128 9-121 329H415L293 96l128-9V0H62zm392 530h575l-263 715-20 59h-6l-21-59-265-715zm200 1057l182 250h140l2-5-231-248h-88l-5 3z"/><glyph unicode="Â" horiz-adv-x="1500" d="M62 0v87l107 7 517 1362h114L1313 94l107-7V0h-359v87l128 9-121 329H415L293 96l128-9V0H62zm392 530h575l-263 715-20 59h-6l-21-59-265-715zm11 1066v21l231 220h90l233-223v-18H913l-173 168-169-168H465z"/><glyph unicode="Ã" horiz-adv-x="1500" d="M62 0v87l107 7 517 1362h114L1313 94l107-7V0h-359v87l128 9-121 329H415L293 96l128-9V0H62zm392 530h575l-263 715-20 59h-6l-21-59-265-715zm34 1088l-78 10q0 59 25 105t67 74 93 28q52 0 105-28t101-57 89-29q41 0 73 33t33 90l78-13q0-59-25-105t-66-73-92-27q-53 0-106 28t-101 56-90 29q-42 0-74-32t-32-89z"/><glyph unicode="Ä" horiz-adv-x="1500" d="M62 0v87l107 7 517 1362h114L1313 94l107-7V0h-359v87l128 9-121 329H415L293 96l128-9V0H62zm392 530h575l-263 715-20 59h-6l-21-59-265-715zm405 1135v172h134v-172H859zm-368 0v172h135v-172H491z"/><glyph unicode="Å" horiz-adv-x="1500" d="M62 0v87l107 7 517 1362h114L1313 94l107-7V0h-359v87l128 9-121 329H415L293 96l128-9V0H62zm392 530h575l-263 715-20 59h-6l-21-59-265-715zm289 965q-79 0-133 51t-55 130q0 79 54 132t134 53q78 0 132-53t55-132q0-79-54-130t-133-51zm0 71q47 0 78 30t32 80q0 49-31 81t-79 33q-48 0-79-32t-32-82q0-48 32-79t79-31z"/><glyph unicode="Æ" horiz-adv-x="2058" d="M51 0v87l129 9 823 1360h864v-306h-106l-7 205h-580l23-546h589V708h-585l25-608h589l8 206h106V0H948v87l158 13-12 290H500L324 94l108-7V0H51zm513 502h526l-35 825-5 1-35-63-451-763z"/><glyph unicode="Ç" horiz-adv-x="1321" d="M769-21q-216 0-363 94T183 335t-76 383v19q0 218 78 384t223 261 338 95q150 0 258-42t193-115v-283h-102l-10 232q-44 33-92 56t-108 35-139 13q-159 0-275-80t-180-223-64-331v-21q0-194 64-337t186-221 293-78q92 0 177 23t145 61l10 220h101V96q-89-58-200-87T769-21zM622-435l-7 77q90 0 151 30t61 89q0 57-41 78t-145 31l32 145h93l-15-83q80-9 128-48t48-121q0-90-79-144t-226-54z"/><glyph unicode="È" horiz-adv-x="1287" d="M76 0v87l163 13v1255l-163 13v88h1046v-319h-102l-10 220H359V806h587V706H359V97h682l10 222h101V0H76zm655 1587l-5-3h-88l-231 248 2 5h141l181-250z"/><glyph unicode="É" horiz-adv-x="1287" d="M76 0v87l163 13v1255l-163 13v88h1046v-319h-102l-10 220H359V806h587V706H359V97h682l10 222h101V0H76zm479 1587l182 250h140l2-5-231-248h-88l-5 3z"/><glyph unicode="Ê" horiz-adv-x="1287" d="M76 0v87l163 13v1255l-163 13v88h1046v-319h-102l-10 220H359V806h587V706H359V97h682l10 222h101V0H76zm290 1596v21l231 220h90l233-223v-18H814l-173 168-169-168H366z"/><glyph unicode="Ë" horiz-adv-x="1287" d="M76 0v87l163 13v1255l-163 13v88h1046v-319h-102l-10 220H359V806h587V706H359V97h682l10 222h101V0H76zm684 1665v172h134v-172H760zm-368 0v172h135v-172H392z"/><glyph unicode="Ì" horiz-adv-x="597" d="M76 0v87l163 13v1255l-163 13v88h446v-88l-163-13V100l163-13V0H76zm310 1587l-5-3h-88L62 1832l2 5h141l181-250z"/><glyph unicode="Í" horiz-adv-x="597" d="M76 0v87l163 13v1255l-163 13v88h446v-88l-163-13V100l163-13V0H76zm134 1587l182 250h140l2-5-231-248h-88l-5 3z"/><glyph unicode="Î" horiz-adv-x="597" d="M76 0v87l163 13v1255l-163 13v88h446v-88l-163-13V100l163-13V0H76zM21 1596v21l231 220h90l233-223v-18H469l-173 168-169-168H21z"/><glyph unicode="Ï" horiz-adv-x="597" d="M76 0v87l163 13v1255l-163 13v88h446v-88l-163-13V100l163-13V0H76zm339 1665v172h134v-172H415zm-368 0v172h135v-172H47z"/><glyph unicode="Ð" horiz-adv-x="1372" d="M76 0v87l163 13v1255l-163 13v88h563q186 0 327-92t221-254 81-370v-24q0-207-79-368T970 93 644 0H76zm283 100h280q152 0 266 81t178 221 65 314v26q0 176-64 314t-179 219-266 80H359V100zM76 943v101h559V943H76z"/><glyph unicode="Ñ" horiz-adv-x="1552" d="M77 0v87l163 13v1255l-163 13v88h284l832-1252 6 2v1149l-170 13v88h446v-88l-163-13V0h-112L359 1257l-6-2V100l170-13V0H77zm445 1618l-78 10q0 59 25 105t67 74 93 28q52 0 105-28t101-57 89-29q41 0 73 33t33 90l78-13q0-59-25-105t-66-73-92-27q-53 0-106 28t-101 56-90 29q-42 0-74-32t-32-89z"/><glyph unicode="Ò" horiz-adv-x="1425" d="M710-21q-138 0-250 53T268 183 145 416t-43 302v19q0 166 42 301t123 234 192 152 250 53q141 0 253-53t192-151 121-234 42-302v-19q0-166-41-301t-121-234T964 32 710-21zm0 105q158 0 266 79t165 222 56 333v21q0 190-56 332t-166 221-266 80q-151 0-260-79t-167-222-59-332v-21q0-190 58-333t168-222 261-79zm87 1503l-5-3h-88l-231 248 2 5h141l181-250z"/><glyph unicode="Ó" horiz-adv-x="1425" d="M710-21q-138 0-250 53T268 183 145 416t-43 302v19q0 166 42 301t123 234 192 152 250 53q141 0 253-53t192-151 121-234 42-302v-19q0-166-41-301t-121-234T964 32 710-21zm0 105q158 0 266 79t165 222 56 333v21q0 190-56 332t-166 221-266 80q-151 0-260-79t-167-222-59-332v-21q0-190 58-333t168-222 261-79zm-89 1503l182 250h140l2-5-231-248h-88l-5 3z"/><glyph unicode="Ô" horiz-adv-x="1425" d="M710-21q-138 0-250 53T268 183 145 416t-43 302v19q0 166 42 301t123 234 192 152 250 53q141 0 253-53t192-151 121-234 42-302v-19q0-166-41-301t-121-234T964 32 710-21zm0 105q158 0 266 79t165 222 56 333v21q0 190-56 332t-166 221-266 80q-151 0-260-79t-167-222-59-332v-21q0-190 58-333t168-222 261-79zM432 1596v21l231 220h90l233-223v-18H880l-173 168-169-168H432z"/><glyph unicode="Õ" horiz-adv-x="1425" d="M710-21q-138 0-250 53T268 183 145 416t-43 302v19q0 166 42 301t123 234 192 152 250 53q141 0 253-53t192-151 121-234 42-302v-19q0-166-41-301t-121-234T964 32 710-21zm0 105q158 0 266 79t165 222 56 333v21q0 190-56 332t-166 221-266 80q-151 0-260-79t-167-222-59-332v-21q0-190 58-333t168-222 261-79zM455 1618l-78 10q0 59 25 105t67 74 93 28q52 0 105-28t101-57 89-29q41 0 73 33t33 90l78-13q0-59-25-105t-66-73-92-27q-53 0-106 28t-101 56-90 29q-42 0-74-32t-32-89z"/><glyph unicode="Ö" horiz-adv-x="1425" d="M710-21q-138 0-250 53T268 183 145 416t-43 302v19q0 166 42 301t123 234 192 152 250 53q141 0 253-53t192-151 121-234 42-302v-19q0-166-41-301t-121-234T964 32 710-21zm0 105q158 0 266 79t165 222 56 333v21q0 190-56 332t-166 221-266 80q-151 0-260-79t-167-222-59-332v-21q0-190 58-333t168-222 261-79zm116 1581v172h134v-172H826zm-368 0v172h135v-172H458z"/><glyph unicode="×" horiz-adv-x="1056" d="M158 240l-79 78 358 365-343 351 79 79 342-350 343 350 79-79-343-351 358-365-79-78-358 363-357-363z"/><glyph unicode="Ø" horiz-adv-x="1425" d="M710-21q-138 0-250 53T268 183 145 416t-43 302v19q0 166 42 301t123 234 192 152 250 53q141 0 253-53t192-151 121-234 42-302v-19q0-166-41-301t-121-234T964 32 710-21zm0 105q158 0 266 79t165 222 56 333v21q0 190-56 332t-166 221-266 80q-151 0-260-79t-167-222-59-332v-21q0-190 58-333t168-222 261-79zM171-74l978 1589h104L275-74H171z"/><glyph unicode="Ù" horiz-adv-x="1478" d="M737-21q-150 0-264 57T293 203t-65 266v886l-163 13v88h446v-88l-163-13V469q0-124 49-210t138-132 203-46q115 0 204 45t139 131 50 212v886l-163 13v88h446v-88l-163-13V469q0-159-64-268T1006 36 737-21zm90 1608l-5-3h-88l-231 248 2 5h141l181-250z"/><glyph unicode="Ú" horiz-adv-x="1478" d="M737-21q-150 0-264 57T293 203t-65 266v886l-163 13v88h446v-88l-163-13V469q0-124 49-210t138-132 203-46q115 0 204 45t139 131 50 212v886l-163 13v88h446v-88l-163-13V469q0-159-64-268T1006 36 737-21zm-86 1608l182 250h140l2-5-231-248h-88l-5 3z"/><glyph unicode="Û" horiz-adv-x="1478" d="M737-21q-150 0-264 57T293 203t-65 266v886l-163 13v88h446v-88l-163-13V469q0-124 49-210t138-132 203-46q115 0 204 45t139 131 50 212v886l-163 13v88h446v-88l-163-13V469q0-159-64-268T1006 36 737-21zM462 1596v21l231 220h90l233-223v-18H910l-173 168-169-168H462z"/><glyph unicode="Ü" horiz-adv-x="1478" d="M737-21q-150 0-264 57T293 203t-65 266v886l-163 13v88h446v-88l-163-13V469q0-124 49-210t138-132 203-46q115 0 204 45t139 131 50 212v886l-163 13v88h446v-88l-163-13V469q0-159-64-268T1006 36 737-21zm119 1686v172h134v-172H856zm-368 0v172h135v-172H488z"/><glyph unicode="Ý" horiz-adv-x="1444" d="M500 0v87l163 13v442l-484 818-119 8v88h407v-88l-153-8 385-671 23-45 1 2 24 43 392 671-155 8v88h402v-88l-123-8-480-811V100l163-13V0H500zm134 1587l182 250h140l2-5-231-248h-88l-5 3z"/><glyph unicode="Þ" horiz-adv-x="1257" d="M70 0v87l163 13v1255l-163 13v88h446v-88l-163-13v-203h324q221 0 345-115t124-299q0-185-124-299T677 324H353V100l163-13V0H70zm283 424h324q115 0 192 42t117 114 40 156q0 87-39 159t-117 114-193 43H353V424z"/><glyph unicode="ß" horiz-adv-x="1264" d="M802-21q-57 0-118 11T573 19t-77 41l34 99q42-31 115-55t143-25q119 0 186 60t68 156q0 66-37 120t-92 104-109 99-92 108-37 129q0 50 19 102t45 106 45 110 19 110q0 86-57 142t-153 56q-115 0-185-84t-70-239V0H55v87l163 13v1058q0 135 46 229t128 144 196 50q96 0 170-35t117-102 43-161q0-69-19-128t-43-112-44-98-19-89q0-55 37-103t93-94 110-99 92-117 37-148q0-101-48-171T985 16 802-21z"/><glyph unicode="à" horiz-adv-x="1123" d="M420-21q-154 0-241 82T92 283q0 100 58 175t164 118 253 42h224v124q0 117-69 188t-210 72q-79 0-141-25t-109-65l-10-165h-99v226q70 60 159 94t202 35q191 0 294-96t103-266V218q0-32 2-63t7-63l129-5V0H813q-12 59-16 95t-6 81Q732 89 635 34T420-21zm14 105q111 0 210 58t147 156v228H566q-166 0-260-71t-94-176q0-87 60-141t162-54zm177 1226l-5-3h-88l-231 248 2 5h141l181-250z"/><glyph unicode="á" horiz-adv-x="1123" d="M420-21q-154 0-241 82T92 283q0 100 58 175t164 118 253 42h224v124q0 117-69 188t-210 72q-79 0-141-25t-109-65l-10-165h-99v226q70 60 159 94t202 35q191 0 294-96t103-266V218q0-32 2-63t7-63l129-5V0H813q-12 59-16 95t-6 81Q732 89 635 34T420-21zm14 105q111 0 210 58t147 156v228H566q-166 0-260-71t-94-176q0-87 60-141t162-54zm2 1226l182 250h140l2-5-231-248h-88l-5 3z"/><glyph unicode="â" horiz-adv-x="1123" d="M420-21q-154 0-241 82T92 283q0 100 58 175t164 118 253 42h224v124q0 117-69 188t-210 72q-79 0-141-25t-109-65l-10-165h-99v226q70 60 159 94t202 35q191 0 294-96t103-266V218q0-32 2-63t7-63l129-5V0H813q-12 59-16 95t-6 81Q732 89 635 34T420-21zm14 105q111 0 210 58t147 156v228H566q-166 0-260-71t-94-176q0-87 60-141t162-54zM246 1319v21l231 220h90l233-223v-18H694l-173 168-169-168H246z"/><glyph unicode="ã" horiz-adv-x="1123" d="M420-21q-154 0-241 82T92 283q0 100 58 175t164 118 253 42h224v124q0 117-69 188t-210 72q-79 0-141-25t-109-65l-10-165h-99v226q70 60 159 94t202 35q191 0 294-96t103-266V218q0-32 2-63t7-63l129-5V0H813q-12 59-16 95t-6 81Q732 89 635 34T420-21zm14 105q111 0 210 58t147 156v228H566q-166 0-260-71t-94-176q0-87 60-141t162-54zM269 1341l-78 10q0 59 25 105t67 74 93 28q52 0 105-28t101-57 89-29q41 0 73 33t33 90l78-13q0-59-25-105t-66-73-92-27q-53 0-106 28t-101 56-90 29q-42 0-74-32t-32-89z"/><glyph unicode="ä" horiz-adv-x="1123" d="M420-21q-154 0-241 82T92 283q0 100 58 175t164 118 253 42h224v124q0 117-69 188t-210 72q-79 0-141-25t-109-65l-10-165h-99v226q70 60 159 94t202 35q191 0 294-96t103-266V218q0-32 2-63t7-63l129-5V0H813q-12 59-16 95t-6 81Q732 89 635 34T420-21zm14 105q111 0 210 58t147 156v228H566q-166 0-260-71t-94-176q0-87 60-141t162-54zm206 1304v172h134v-172H640zm-368 0v172h135v-172H272z"/><glyph unicode="å" horiz-adv-x="1123" d="M420-21q-154 0-241 82T92 283q0 100 58 175t164 118 253 42h224v124q0 117-69 188t-210 72q-79 0-141-25t-109-65l-10-165h-99v226q70 60 159 94t202 35q191 0 294-96t103-266V218q0-32 2-63t7-63l129-5V0H813q-12 59-16 95t-6 81Q732 89 635 34T420-21zm14 105q111 0 210 58t147 156v228H566q-166 0-260-71t-94-176q0-87 60-141t162-54zm90 1134q-79 0-133 51t-55 130q0 79 54 132t134 53q78 0 132-53t55-132q0-79-54-130t-133-51zm0 71q47 0 78 30t32 80q0 49-31 81t-79 33q-48 0-79-32t-32-82q0-48 32-79t79-31z"/><glyph unicode="æ" horiz-adv-x="1768" d="M425-21q-157 0-245 85T92 294q0 102 58 179t164 120 254 43h223v106q0 117-69 188t-210 72q-78 0-140-25t-110-65l-9-165H153v226q70 60 159 94t202 35q145 0 236-58t123-165q35 67 91 117t127 78 149 28q134 0 228-56t145-159 50-248V539H912l-1-44q0-185 90-300t269-116q103 0 179 31t144 89l48-87q-60-56-148-94t-223-39q-281 0-418 242-70-113-179-177T425-21zm9 105q77 0 149 30t130 84 91 126q-6 48-9 90t-4 89v41H566q-165 0-259-73t-95-181q0-87 60-146t162-60zm480 552h629v31q0 147-77 240t-226 94q-93 0-164-46T963 827t-51-186l2-5z"/><glyph unicode="ç" horiz-adv-x="1075" d="M551-21q-135 0-238 68T151 237 92 520v42q0 158 56 280t160 191 242 69q126 0 224-47t164-123l2-245H840l-16 202q-50 53-117 82t-154 30q-102 0-179-57T255 788t-43-226v-42q0-132 42-231t118-155 180-55q121 0 202 63t98 188h107l2-6q-9-102-60-180T761 23 551-21zM441-435l-7 77q90 0 151 30t61 89q0 57-41 78t-145 31l32 145h93l-15-83q80-9 128-48t48-121q0-90-79-144t-226-54z"/><glyph unicode="è" horiz-adv-x="1072" d="M565-21q-139 0-245 67T154 233 94 509v55q0 155 60 276t162 192 229 70q133 0 227-57t145-160 51-244V539H218l-2-44q1-120 44-214t122-148 183-54q102 0 179 32t137 89l51-82q-63-60-152-99T565-21zM226 639h622v30q0 95-36 170T708 958t-163 43q-86 0-155-46T278 828t-54-183l2-6zm407 671l-5-3h-88l-231 248 2 5h141l181-250z"/><glyph unicode="é" horiz-adv-x="1072" d="M565-21q-139 0-245 67T154 233 94 509v55q0 155 60 276t162 192 229 70q133 0 227-57t145-160 51-244V539H218l-2-44q1-120 44-214t122-148 183-54q102 0 179 32t137 89l51-82q-63-60-152-99T565-21zM226 639h622v30q0 95-36 170T708 958t-163 43q-86 0-155-46T278 828t-54-183l2-6zm231 671l182 250h140l2-5-231-248h-88l-5 3z"/><glyph unicode="ê" horiz-adv-x="1072" d="M565-21q-139 0-245 67T154 233 94 509v55q0 155 60 276t162 192 229 70q133 0 227-57t145-160 51-244V539H218l-2-44q1-120 44-214t122-148 183-54q102 0 179 32t137 89l51-82q-63-60-152-99T565-21zM226 639h622v30q0 95-36 170T708 958t-163 43q-86 0-155-46T278 828t-54-183l2-6zm42 680v21l231 220h90l233-223v-18H716l-173 168-169-168H268z"/><glyph unicode="ë" horiz-adv-x="1072" d="M565-21q-139 0-245 67T154 233 94 509v55q0 155 60 276t162 192 229 70q133 0 227-57t145-160 51-244V539H218l-2-44q1-120 44-214t122-148 183-54q102 0 179 32t137 89l51-82q-63-60-152-99T565-21zM226 639h622v30q0 95-36 170T708 958t-163 43q-86 0-155-46T278 828t-54-183l2-6zm436 749v172h134v-172H662zm-368 0v172h135v-172H294z"/><glyph unicode="ì" horiz-adv-x="629" d="M79 0v87l163 13v881L79 994v88h283V100l163-13V0H79zm304 1310l-5-3h-88L59 1555l2 5h141l181-250z"/><glyph unicode="í" horiz-adv-x="629" d="M79 0v87l163 13v881L79 994v88h283V100l163-13V0H79zm128 1310l182 250h140l2-5-231-248h-88l-5 3z"/><glyph unicode="î" horiz-adv-x="629" d="M79 0v87l163 13v881L79 994v88h283V100l163-13V0H79zm195 1319v21l231 220h90l233-223v-18H722l-173 168-169-168H274z"/><glyph unicode="ï" horiz-adv-x="629" d="M79 0v87l163 13v881L79 994v88h283V100l163-13V0H79zm333 1388v172h134v-172H412zm-368 0v172h135v-172H44z"/><glyph unicode="ð" horiz-adv-x="1180" d="M553-21q-139 0-246 63T139 212 78 455q0 157 59 271t166 176 253 63q105 0 194-40t141-108l5 5q-18 133-68 236t-126 182l-308-176-50 73 287 164q-44 33-93 60t-105 53l38 103q77-30 143-68t125-86l258 148 51-73-242-139q112-121 170-288t58-388v-88q0-163-63-288T800 50 553-21zm4 102q105 0 185 58t126 161 46 235v145q-38 76-128 129t-230 53q-115 0-195-52T240 665t-41-210q0-99 43-184t124-138 191-52z"/><glyph unicode="ñ" horiz-adv-x="1331" d="M82 0v87l163 13v881L82 994v88h269l10-194q52 102 140 158t210 56q176 0 268-107t92-337V100l163-13V0H788v87l163 13v557q0 188-69 265t-197 77q-134 0-212-75T365 728V100l163-13V0H82zm330 1341l-78 10q0 59 25 105t67 74 93 28q52 0 105-28t101-57 89-29q41 0 73 33t33 90l78-13q0-59-25-105t-66-73-92-27q-53 0-106 28t-101 56-90 29q-42 0-74-32t-32-89z"/><glyph unicode="ò" horiz-adv-x="1141" d="M572-21q-146 0-253 69T152 241 92 524v33q0 159 59 282t167 193 252 70q145 0 252-70t167-192 60-283v-33q0-160-59-283T823 49 572-21zm0 100q111 0 191 59t123 160 43 226v33q0 124-43 225T763 942t-193 59q-112 0-192-59T255 782t-43-225v-33q0-126 42-226t123-160 195-59zm86 1231l-5-3h-88l-231 248 2 5h141l181-250z"/><glyph unicode="ó" horiz-adv-x="1141" d="M572-21q-146 0-253 69T152 241 92 524v33q0 159 59 282t167 193 252 70q145 0 252-70t167-192 60-283v-33q0-160-59-283T823 49 572-21zm0 100q111 0 191 59t123 160 43 226v33q0 124-43 225T763 942t-193 59q-112 0-192-59T255 782t-43-225v-33q0-126 42-226t123-160 195-59zm-90 1231l182 250h140l2-5-231-248h-88l-5 3z"/><glyph unicode="ô" horiz-adv-x="1141" d="M572-21q-146 0-253 69T152 241 92 524v33q0 159 59 282t167 193 252 70q145 0 252-70t167-192 60-283v-33q0-160-59-283T823 49 572-21zm0 100q111 0 191 59t123 160 43 226v33q0 124-43 225T763 942t-193 59q-112 0-192-59T255 782t-43-225v-33q0-126 42-226t123-160 195-59zM293 1319v21l231 220h90l233-223v-18H741l-173 168-169-168H293z"/><glyph unicode="õ" horiz-adv-x="1141" d="M572-21q-146 0-253 69T152 241 92 524v33q0 159 59 282t167 193 252 70q145 0 252-70t167-192 60-283v-33q0-160-59-283T823 49 572-21zm0 100q111 0 191 59t123 160 43 226v33q0 124-43 225T763 942t-193 59q-112 0-192-59T255 782t-43-225v-33q0-126 42-226t123-160 195-59zM316 1341l-78 10q0 59 25 105t67 74 93 28q52 0 105-28t101-57 89-29q41 0 73 33t33 90l78-13q0-59-25-105t-66-73-92-27q-53 0-106 28t-101 56-90 29q-42 0-74-32t-32-89z"/><glyph unicode="ö" horiz-adv-x="1141" d="M572-21q-146 0-253 69T152 241 92 524v33q0 159 59 282t167 193 252 70q145 0 252-70t167-192 60-283v-33q0-160-59-283T823 49 572-21zm0 100q111 0 191 59t123 160 43 226v33q0 124-43 225T763 942t-193 59q-112 0-192-59T255 782t-43-225v-33q0-126 42-226t123-160 195-59zm115 1309v172h134v-172H687zm-368 0v172h135v-172H319z"/><glyph unicode="÷" horiz-adv-x="1148" d="M74 645v115h998V645H74zm434-432v159h143V213H508zm0 797v160h143v-160H508z"/><glyph unicode="ø" horiz-adv-x="1141" d="M572-21q-146 0-253 69T152 241 92 524v33q0 159 59 282t167 193 252 70q145 0 252-70t167-192 60-283v-33q0-160-59-283T823 49 572-21zm0 100q111 0 191 59t123 160 43 226v33q0 124-43 225T763 942t-193 59q-112 0-192-59T255 782t-43-225v-33q0-126 42-226t123-160 195-59zM176-136l696 1354h93L269-136h-93z"/><glyph unicode="ù" horiz-adv-x="1222" d="M541-21Q371-21 277 95t-95 360v526L48 994v88h254V453q0-198 65-284t188-87q139 0 217 64t107 174v661l-154 13v88h275V100l145-13V0H894l-10 178Q833 83 748 31T541-21zm150 1331l-5-3h-88l-231 248 2 5h141l181-250z"/><glyph unicode="ú" horiz-adv-x="1222" d="M541-21Q371-21 277 95t-95 360v526L48 994v88h254V453q0-198 65-284t188-87q139 0 217 64t107 174v661l-154 13v88h275V100l145-13V0H894l-10 178Q833 83 748 31T541-21zm-26 1331l182 250h140l2-5-231-248h-88l-5 3z"/><glyph unicode="û" horiz-adv-x="1222" d="M541-21Q371-21 277 95t-95 360v526L48 994v88h254V453q0-198 65-284t188-87q139 0 217 64t107 174v661l-154 13v88h275V100l145-13V0H894l-10 178Q833 83 748 31T541-21zM326 1319v21l231 220h90l233-223v-18H774l-173 168-169-168H326z"/><glyph unicode="ü" horiz-adv-x="1222" d="M541-21Q371-21 277 95t-95 360v526L48 994v88h254V453q0-198 65-284t188-87q139 0 217 64t107 174v661l-154 13v88h275V100l145-13V0H894l-10 178Q833 83 748 31T541-21zm179 1409v172h134v-172H720zm-368 0v172h135v-172H352z"/><glyph unicode="ý" horiz-adv-x="1188" d="M295-437q-21 0-50 4t-45 9l14 99q14-2 39-4t38-3q78 0 124 51t84 147l56 147-397 974-117 7v88h381v-88l-137-9 278-698 45-123h6l309 821-141 9v88h378v-88l-115-7L601-174q-30-76-68-136t-95-93-143-34zm211 1747l182 250h140l2-5-231-248h-88l-5 3z"/><glyph unicode="þ" horiz-adv-x="1173" d="M47-416v88l163 13v1774l-163 13v88h283V923q53 84 138 131t199 48q129 0 222-70t143-199 49-301v-21q0-162-49-281T891 45 669-21q-115 0-200 43T330 143v-458l163-13v-88H47zM641 79q157 0 238 118t82 314v21q0 138-36 243T817 939t-178 60q-123 0-197-60T330 786V272q38-89 116-141t195-52z"/><glyph unicode="ÿ" horiz-adv-x="1188" d="M295-437q-21 0-50 4t-45 9l14 99q14-2 39-4t38-3q78 0 124 51t84 147l56 147-397 974-117 7v88h381v-88l-137-9 278-698 45-123h6l309 821-141 9v88h378v-88l-115-7L601-174q-30-76-68-136t-95-93-143-34zm416 1825v172h134v-172H711zm-368 0v172h135v-172H343z"/><glyph unicode="–" horiz-adv-x="1406" d="M417 687v101h1086V687H417z"/><glyph unicode="—" horiz-adv-x="1645" d="M165 687v101h1336V687H165z"/><glyph unicode="‘" horiz-adv-x="365" d="M99 1078v172q0 62 16 122t48 112 76 94l71-50q-47-67-69-132t-22-144v-174H99z"/><glyph unicode="’" horiz-adv-x="365" d="M134 1057l-72 51q47 65 69 130t23 145v177h120v-175q0-63-17-123t-48-112-75-93z"/><glyph unicode="‚" horiz-adv-x="393" d="M131-281l-71 52q47 66 69 131t23 143v143h120V48q0-93-37-180T131-281z"/><glyph unicode="“" horiz-adv-x="613" d="M99 1078v172q0 62 16 122t48 112 76 94l71-50q-47-67-69-132t-22-144v-174H99zm247 0v172q0 62 16 122t48 112 76 94l71-50q-47-67-69-132t-22-144v-174H346z"/><glyph unicode="”" horiz-adv-x="617" d="M140 1057l-72 51q47 65 69 130t23 145v177h120v-175q0-63-17-123t-48-112-75-93zm245 0l-72 51q47 65 69 130t23 145v177h120v-175q0-63-17-123t-48-112-75-93z"/><glyph unicode="„" horiz-adv-x="626" d="M131-281l-71 52q47 66 69 131t23 143v143h120V48q0-93-37-180T131-281zm233 0l-71 52q47 66 69 131t23 143v143h120V48q0-93-37-180T364-281z"/><glyph unicode="•" horiz-adv-x="672" d="M320 540q-85 0-135 49t-50 128v65q0 79 50 129t134 50q85 0 136-50t51-129v-65q0-79-50-128t-136-49z"/><glyph unicode="‹" horiz-adv-x="575" d="M363 168L68 546v19l295 379h106L193 555l276-387H363z"/><glyph unicode="›" horiz-adv-x="574" d="M83 162l275 388L83 944h106l294-384v-19L189 162H83z"/></font>
</defs>
</svg>
