<svg xmlns="http://www.w3.org/2000/svg"><defs><font id="LibreFranklin" horiz-adv-x="608"><font-face font-family="Libre Franklin ExtraBold" panose-1="0 0 9 0 0 0 0 0 0 0" ascent="966" descent="-246" alphabetic="0"/><glyph glyph-name="space" horiz-adv-x="203"/><glyph unicode="!" glyph-name="exclam" horiz-adv-x="271" d="M192 275q-1-14-7-19t-22-6h-62q-13 0-17 5t-6 17L33 721v4q0 8 4 12t13 5h169q8 0 12-5t4-14l-43-448zm36-248q0-15-6-21t-24-6H63Q50 0 44 5t-6 18v138q0 9 5 14t13 6h156q16 0 16-19V27z"/><glyph unicode="&quot;" glyph-name="quotedbl" horiz-adv-x="490" d="M415 456q-2-15-8-20t-22-6h-39q-13 0-17 5t-7 18l-37 269v4q0 8 5 12t12 4h134q8 0 12-4t4-14l-37-268zm-240 0q-2-15-8-20t-22-6h-39q-13 0-17 5t-7 18L45 722v4q0 8 5 12t12 4h134q8 0 12-4t4-14l-37-268z"/><glyph unicode="#" glyph-name="numbersign" horiz-adv-x="603" d="M584 524l4-5 5-13v-45q0-13-7-19t-23-6h-95l-18-122h93q8 0 12-5t5-13v-45q0-13-7-19t-23-6h-93L408 28q-2-18-7-24t-21-4l-37 5q-15 3-20 6t-5 15l29 200H216L187 28q-2-18-7-24t-22-4l-36 5q-16 3-21 6t-4 15l29 200H34q-13 0-18 5t-6 17v45q0 21 18 21h111l18 122H67q-13 0-18 5t-6 17v45q0 21 18 21h109l29 196q2 12 6 17t11 5l56-6q19-2 16-18l-28-194h131l29 196q5 23 17 22l56-6q19-2 16-18l-28-194h95q8 0 12-5zm-206-88H247l-18-122h131l18 122z"/><glyph unicode="$" glyph-name="dollar" horiz-adv-x="671" d="M638 133l-61-62L411-2q-13-1-16-4t-3-15v-29q0-14-6-20t-22-6h-61q-13 0-18 5t-6 18v34q0 10-3 13t-13 4q-69 4-122 25T39 83q-17 12-17 24 0 6 6 12l68 76q9 10 17 10t16-8q58-59 135-73l7-1q10 0 10 11l1 146q0 8-3 12t-11 6Q42 339 42 521q0 80 56 137t162 78q8 2 14 7t7 13v34q0 7 4 11t10 4h77q10 0 15-4t5-17v-36q0-4 3-6t12-5q100-23 168-71 10-5 10-14 0-6-5-13l-61-78q-7-9-14-9t-17 9q-34 32-84 48l-4 1q-9 0-9-9V460q0-5 3-8t10-4l61-16q77-21 125-77t48-130q0-92-61-154zM281 602q0 16-13 13-39-9-59-28t-21-45q0-28 17-46t56-28h5q15 0 15 20v114zm110-482l14 3q40 6 62 26t23 47q0 63-87 81h-4q-8 0-8-11V130q0-10 14-7z"/><glyph unicode="%" glyph-name="percent" horiz-adv-x="954" d="M282 753l44-29 69-78 26-105q0-56-25-104t-69-76-98-28q-54 0-98 28t-70 76-26 104q0 56 26 105t70 78 98 29q53 0 97-29zm1-746q-5-6-11-8t-16-3l-47 1q-9 0-13 4t-5 12q0 7 5 15l472 710q5 8 11 10t15 2h60q12 0 12-8 0-4-3-10L283 7zm-21 415l14 29 15 89q0 62-15 93t-48 32q-63 0-63-125 0-59 15-88t48-30q34 0 48 29zm518-12l44-29 69-78 26-105q0-56-25-104t-69-76-98-28q-54 0-98 28t-70 76-26 104q0 56 26 105t70 78 98 29q53 0 97-29zM760 79l14 29 15 89q0 62-15 93t-48 32q-63 0-63-125 0-58 15-88t48-30q34 0 48 29z"/><glyph unicode="&amp;" glyph-name="ampersand" horiz-adv-x="859" d="M457 753l54-20 84-57 30-84q0-48-40-100t-104-83q-8-4-8-8t5-9l89-94q6-6 11-6t12 9q45 53 65 106 6 12 17 12 3 0 9-2l89-28q10-3 14-12t2-18q-16-36-38-70t-61-84q-2-2-4-6t-3-6q0-3 9-9 43-29 112-34 12-1 17-5t5-15V27q0-13-6-20t-17-7Q655 0 558 68q-10 5-14 5-5 0-14-6-51-37-108-54T291-5Q171-5 105 47T39 194q0 59 41 109t131 100q10 6 10 11t-8 14q-29 32-45 69t-17 73q0 52 30 94t85 65 122 24q69 0 123-20zm-92-105l-19-18-20-44q0-22 23-49l35-42q4-4 11-4 4 0 10 2 66 35 66 89 0 30-20 48t-54 18q-32 0-51-18zm-54-334h-6q-5 0-12-5-29-17-45-42t-17-51q0-36 29-63t70-28q24 0 52 9t45 25q9 7 9 13 0 5-6 12L320 305q-9 9-15 9z"/><glyph unicode="'" glyph-name="quotesingle" horiz-adv-x="251" d="M175 456q-2-15-8-20t-22-6h-39q-13 0-17 5t-7 18L45 722v4q0 8 5 12t12 4h134q8 0 12-4t4-14l-37-268z"/><glyph unicode="(" glyph-name="parenleft" horiz-adv-x="323" d="M312 742l-6-14q-52-103-81-216t-29-228q0-109 26-212t82-221q2-4 2-7 0-9-12-9h-95q-7 0-11 2t-9 10Q110-34 76 66T41 285q0 120 36 233t102 211q10 13 26 13h91q16 0 10-14z"/><glyph unicode=")" glyph-name="parenright" horiz-adv-x="323" d="M118 742q16 0 26-13 65-98 101-211t37-233q0-119-34-219T144-153q-5-7-9-9t-11-3H29q-8 0-10 5t0 11Q74-32 100 71t27 213q0 115-29 228T17 728q-1 2-1 6 0 8 11 8h91z"/><glyph unicode="*" glyph-name="asterisk" horiz-adv-x="494" d="M254 442q-2 3-5 3t-6-3l-74-126q-4-6-12-6t-13 4l-62 44q-8 5-8 11t5 11l92 108q2 4 2 5 0 6-8 8L35 536q-10 3-10 14 0 2 2 10l25 67q5 15 19 9l123-56q2-1 5-1 9 0 7 8l-12 141q0 5 3 9t11 5h82q7 0 11-4t3-10l-13-142v-2q0-9 9-5l126 56 8 2q11 0 14-14l21-65 2-8q0-12-13-14l-127-36q-5-1-5-5t3-8l88-104q4-4 4-10 0-10-12-17l-54-37q-9-6-16-6-9 0-12 6l-73 123z"/><glyph unicode="+" glyph-name="plus" horiz-adv-x="592" d="M540 437l4-5 5-13v-84q0-13-7-19t-22-6H361V138q0-8-5-12t-13-5h-84q-13 0-19 7t-6 23v159H68q-13 0-18 5t-6 17v84q0 21 17 21h173v166q0 13 5 18t17 5h84q21 0 21-17V437h172q7 0 11-5z"/><glyph unicode="," glyph-name="comma" horiz-adv-x="266" d="M46-161l-4 7-1 16L90-29q5 12 5 17Q95 0 81 0H61Q48 0 43 5t-6 18v139q0 10 4 15t13 5h156q16 0 16-18V30q0-8-4-15L116-140q-6-10-18-15t-23-6H55q-9 0-13 7z"/><glyph unicode="-" glyph-name="hyphen" horiz-adv-x="380" d="M335 226q0-14-7-20t-23-6H69q-14 0-19 5t-5 18v83q0 20 17 20l257 1q7 0 11-5t5-14v-82z"/><glyph unicode="." glyph-name="period" horiz-adv-x="266" d="M226 27q0-15-7-21t-24-6H61Q47 0 42 5t-6 18v141q0 20 17 20h156q17 0 17-18V27z"/><glyph unicode="/" glyph-name="slash" horiz-adv-x="373" d="M-2-8L3 9l249 717q6 16 24 16h76q10 0 14-3t4-11q0-7-3-16L125 15q-4-13-11-18T93-8H18Q-2-8 3 9z"/><glyph unicode="0" glyph-name="zero" horiz-adv-x="716" d="M450 753l73-49 114-136 41-199q0-111-40-196T525 40 359-8q-94 0-167 47T79 172 38 369q0 111 41 198t115 137 165 49q91 0 164-49zm-31-621l27 54 27 182q0 131-27 188t-88 58q-60 0-87-57t-28-189q0-127 27-181t88-55q61 0 88 54z"/><glyph unicode="1" glyph-name="one" horiz-adv-x="523" d="M493 147V20q0-9-6-14t-17-6H59Q38 0 38 19v111q0 9 5 13t15 4h96q4 0 7 2t4 7v375q0 8-3 11t-12 1l-89-24-7-1q-17 0-17 22v76q0 11 3 16t13 10l174 87q17 8 25 10t21 3h78q16 0 16-19V158q0-11 10-11h95q21 0 21-17z"/><glyph unicode="2" glyph-name="two" horiz-adv-x="659" d="M262 325q68 57 100 89t44 56 12 50q0 39-27 63t-71 24q-41 0-73-24t-64-84q-5-8-14-8-6 0-16 5L48 549q-13 6-13 19 0 8 5 16 54 86 125 127t166 41q85 0 149-28t99-81 35-122q0-60-31-109T477 308L297 177q-6-4-6-8t12-4h297q21 0 21-17V20q0-9-5-14t-17-6H58Q44 0 39 5t-6 18v88q0 9 9 21t44 40l176 153z"/><glyph unicode="3" glyph-name="three" horiz-adv-x="677" d="M57 629v4q0 5 5 13 38 47 111 76t157 30q89 0 154-24t101-69 35-103q0-48-30-90t-85-59q-12-4-12-10 0-7 11-10 64-21 101-66t38-103q0-112-81-170T318-10q-89 0-167 36T31 120q-5 8-5 14 0 12 12 19l90 63q9 6 15 6 7 0 10-5 48-48 85-67t91-20q53 0 84 23t31 61q0 42-34 67t-88 28l-85 1q-19 0-19 16v108q0 13 19 16l68 3q53 3 85 27t33 63q0 30-28 51t-68 21q-44 0-80-16t-77-56q-7-7-12-7t-11 6l-85 80q-5 7-5 11z"/><glyph unicode="4" glyph-name="four" horiz-adv-x="703" d="M366 734l8 4 27 4h146q8 0 13-5t5-14V314q0-11 10-11h78q20 0 20-18v-98q0-20-22-20h-75q-11 0-11-13V26q0-14-7-20t-23-6H383q-13 0-18 5t-6 18l1 134q0 10-13 10H54q-11 0-17 5t-6 15v94q0 10 6 21t24 34l294 384q11 14 19 18zm-13-431q4 0 6 2t3 5v219q0 15-3 15t-11-11L191 316q-4-6-4-8 0-5 11-5h155z"/><glyph unicode="5" glyph-name="five" horiz-adv-x="683" d="M568 742q19 0 23-5t4-21l-6-114q-1-12-6-16t-19-5H257q-19 0-19-17l-10-95v-4q0-7 4-9t11-1q47 14 74 20t61 6q79 0 140-28t97-82 35-129q0-78-38-135T504 20 342-10q-101 0-183 34T37 116q-9 14-9 22 0 9 11 16l96 66q8 5 13 5 8 0 17-9 38-44 71-65t84-21q62 0 96 30t35 76q0 45-32 74t-90 29q-27 0-52-7t-62-26q-8-4-12-4-3 0-15 6L82 365q-7 4-10 9t-3 13q0 8 1 13l29 315q2 16 9 21t31 6h429z"/><glyph unicode="6" glyph-name="six" horiz-adv-x="693" d="M439 750l54-23 88-58 43-67q1-3 1-10 0-11-11-15l-127-38q-2-1-5-1-6 0-10 4t-6 9q-20 31-40 46t-54 15q-62 0-98-45t-36-122q0-13 2-18t8-6q2 0 14 4 40 17 69 25t69 8q76 0 135-28t93-79 33-114q0-70-39-126T514 24 361-8q-98 0-171 44T78 163 38 354q0 122 42 211t117 137 175 48q67 0 121-23zM330 328l-30-9-48-21q-8-5-10-11t-2-20q0-63 31-104t84-41q45 0 76 30t31 77q0 46-30 72t-76 27q-26 0-56-9z"/><glyph unicode="7" glyph-name="seven" horiz-adv-x="626" d="M564 742q16 0 24-7t8-18l-3-61q-1-9-10-29t-19-34q-56-85-102-190t-74-205-33-168q-1-16-6-23t-17-7H146q-20 0-20 17 0 2 2 10 35 122 90 242t165 295q4 8 4 10 0 7-13 7H54q-26 0-24 23l12 122q1 16 27 16h495z"/><glyph unicode="8" glyph-name="eight" horiz-adv-x="688" d="M418 752l65-27 103-74 37-106q0-41-24-74t-71-58q-9-5-9-10 0-4 8-10 72-41 100-82t29-96q0-70-41-121T501 17 332-10q-134 0-216 50T34 182q0 51 26 89t90 72q9 5 9 8 0 2-7 8-47 35-72 69t-26 91q0 64 34 117t99 84 151 32q80 0 145-27zM299 621l-28-21-28-56q0-24 15-42t43-26l71-23q8-2 11-2 26 0 48 28t23 59q0 35-30 59t-83 24q-42 0-70-21zm98-500l29 20 29 57q0 27-16 45t-57 32l-82 26q-7 3-16 3-19 0-37-12t-31-33-12-45q0-93 141-93 52 0 81 20z"/><glyph unicode="9" glyph-name="nine" horiz-adv-x="693" d="M254-8l-54 23-89 58-43 67q-1 3-1 9 0 12 12 16l126 38q2 1 5 1 8 0 11-5t5-7q20-31 40-46t55-16q62 0 98 45t36 122q0 13-2 18t-8 6q-2 0-14-4-40-17-69-25t-69-8q-76 0-135 28t-93 79-33 114q0 70 39 126t108 87 153 32q98 0 171-44t112-127 40-191q0-122-42-211T496 40 321-8q-67 0-121 23zm110 422l30 9 47 22q8 5 10 11t2 20q0 63-31 103t-83 41q-45 0-76-30t-31-77q0-46 30-72t75-27q27 0 57 9z"/><glyph unicode=":" glyph-name="colon" horiz-adv-x="266" d="M226 367q0-14-7-20t-24-6H61q-14 0-19 6t-6 18v136q0 10 4 15t13 6h156q17 0 17-19V367zm0-337q0-14-7-20t-24-7H61Q47 3 42 9t-6 18v137q0 10 4 15t13 5h156q17 0 17-19V30z"/><glyph unicode=";" glyph-name="semicolon" horiz-adv-x="270" d="M47 335l-5 5-6 18v141q0 20 17 20h156q17 0 17-18V361q0-14-7-20t-24-6H61q-14 0-19 5zm-1-499l-4 7-1 16L90-29q4 9 4 17Q94 0 81 0H61Q48 0 43 5t-6 18v139q0 10 4 15t13 5h156q16 0 16-18V30q0-8-4-15L116-144q-6-9-18-14t-23-6H55q-9 0-13 7z"/><glyph unicode="&lt;" glyph-name="less" horiz-adv-x="589" d="M531 125q0-26-21-26-7 0-14 3L64 269q-26 9-26 30v101q0 24 26 32l433 168q4 2 11 2 10 0 16-7t7-18v-86q0-15-9-24t-31-18L229 349l262-97q22-8 31-16t9-25v-86z"/><glyph unicode="=" glyph-name="equal" horiz-adv-x="592" d="M549 432q0-13-7-19t-22-6l-452-1q-13 0-18 5t-6 18v83q0 21 17 21h472q7 0 11-5t5-13v-83zm0-238q0-26-29-26H68q-13 0-18 5t-6 18v83q0 21 17 21h472q7 0 11-5t5-13v-83z"/><glyph unicode="&gt;" glyph-name="greater" horiz-adv-x="589" d="M57 226l9 9 32 17 262 97L98 449q-22 9-31 18t-10 24v86q0 11 6 18t17 7q7 0 11-2l434-168q25-8 25-32V299q0-21-25-30L92 102q-7-3-14-3-9 0-15 6t-6 20v86q0 15 9 24z"/><glyph unicode="?" glyph-name="question" horiz-adv-x="542" d="M0 572v12q0 4 2 10 32 77 99 117t163 41q74 0 131-23t89-63 32-87q0-36-13-64t-34-49-53-48q-47-37-70-67t-24-77q0-8-6-14t-17-7h-94q-11 0-17 6t-6 20q0 46 14 82t35 61 51 55q31 31 45 50t14 42q0 29-22 47t-57 18q-35 0-66-21t-47-59q-3-7-6-9t-8-3q-6 0-9 1L11 569q-11 3-11 15zM346 27q0-15-7-21t-24-6H180q-13 0-18 5t-6 18v138q0 20 17 20h156q8 0 12-5t5-14V27z"/><glyph unicode="@" glyph-name="at" horiz-adv-x="834" d="M631-74l-63-19-139-20q-120 0-209 50T84 72 36 262q0 108 51 199t145 146 218 54q96 0 179-34t134-108 51-181q0-75-25-133t-70-91-104-33q-40 0-64 13t-35 32q-5 5-6 5-2 0-7-6-24-27-57-42t-75-16q-44 0-79 21t-56 62-20 92q0 61 25 114t72 86 109 33q38 0 61-12t44-34q2-2 5-2 4 0 5 6l2 9q1 7 10 7h79q9 0 8-8l-35-209q-2-8-2-22 0-33 29-33 21 0 40 17t32 52 13 86q0 125-74 180t-189 56q-106 0-175-40T173 419t-33-155q0-139 82-215t224-77q58 0 94 12t77 40q7 4 12 4 6 0 9-5l36-49q3-3 3-7 0-6-10-13-36-28-99-47zM336 219l17-25 50-25q40 0 68 34t29 78q2 38-17 65t-52 27q-39 0-67-34t-28-83q0-37 17-62z"/><glyph unicode="A" glyph-name="A" horiz-adv-x="785" d="M37 0l-4 5-5 14q0 7 3 14l246 688q4 12 10 16t18 5h174q24 0 34-25L756 31q1-3 1-10 0-9-3-15t-11-6H570q-16 0-21 16l-44 130q-3 6-5 8t-10 3H263q-11 0-14-11L202 14q-5-14-22-14H45q-8 0-12 5zm408 309q10 0 10 10 0 6-1 9l-72 201q-1 6-6 6-4 0-6-6l-73-201q-2-4-2-10 0-9 12-9h138z"/><glyph unicode="B" glyph-name="B" horiz-adv-x="731" d="M72 0l-5 6-6 14v698q0 11 6 17t16 7h286q151 0 230-49t79-146q0-54-29-92t-102-70q-2-1-2-3t2-4q80-28 114-69t35-108q0-102-77-151T383 0H81q-9 0-14 6zm312 444q41 0 67 21t27 59q0 38-28 60t-74 23h-92q-12 0-16-4t-5-14V465q0-11 3-16t12-5h106zm-6-309q52 0 80 24t28 63q0 39-28 61t-74 23H284q-12 0-16-4t-5-16V155q0-11 3-15t12-5h100z"/><glyph unicode="C" glyph-name="C" horiz-adv-x="731" d="M463 752l66-29 108-80 54-116 2-17q0-8-3-10t-11-4l-156-11q-9 0-11 3t-6 15q-23 110-117 110-141 0-141-237 0-126 35-182t106-57q56 0 95 28t66 94q3 8 15 8 6 0 10-1l113-22q6-2 9-6t4-14q0-6-1-10-8-40-44-92T551 30 383-10q-104 0-182 49T80 177 37 379q0 113 42 197t121 130 184 46q79 0 145-29z"/><glyph unicode="D" glyph-name="D" horiz-adv-x="762" d="M192 742q109 0 138-1 197-7 295-103t99-265q0-112-44-196T546 47 328 0H87Q73 0 67 6t-6 21v692q0 13 5 18t19 5h107zm71-141V155q0-8 2-11t11-3h13q112 0 167 54t56 180q0 112-44 164t-135 59l-61 3q-9 0-9-14z"/><glyph unicode="E" glyph-name="E" horiz-adv-x="663" d="M61 742h540q16 0 16-19V619q0-11-6-17t-18-7H284q-21 0-21-18V464q0-9 4-14t12-5h195q19 0 19-18V316q0-15-16-15H278q-15 0-15-14V160q0-7 2-10t9-3h333q10 0 15-4t5-13V20q0-20-21-20H85Q72 0 67 5t-6 18v698q0 21 17 21z"/><glyph unicode="F" glyph-name="F" horiz-adv-x="641" d="M61 731l4 5 13 6h516q16 0 16-19l-1-104q0-24-22-24H284q-11 0-16-4t-5-14V455q0-19 16-19h199q19 0 19-18V309q0-15-17-15H278q-15 0-15-14V26q0-14-7-20t-23-6H85Q71 0 66 5t-5 18v698q0 10 4 15z"/><glyph unicode="G" glyph-name="G" horiz-adv-x="757" d="M277-10l-77 47L80 170 37 368q0 115 44 202t125 134 184 48q83 0 149-30t107-80 53-105l2-16q0-9-3-12t-12-4l-152-23q-10 0-13 3t-6 15q-8 49-41 81t-88 32q-68 0-103-56t-35-183q0-133 37-188t108-56q50 0 81 24t44 67l2 19q2 6 2 8 0 8-11 8H404q-10 0-14 4t-4 16v86q0 15 19 15l274-2q16 0 24-7t9-20V16q0-7-4-11t-12-5h-35q-19 0-29 18l-35 64q-2 4-4 4t-6-5q-38-41-84-66T379-10q-102 0-179 47z"/><glyph unicode="H" glyph-name="H" horiz-adv-x="757" d="M277 306q-6 0-10-3t-4-10V26q0-14-7-20t-23-6H85Q71 0 66 5t-5 18v698q0 10 4 15t13 6h168q8 0 12-5t5-14V479q0-19 16-19h199q16 0 16 19v244q0 9 4 14t13 5h168q8 0 12-5t5-16V23q0-12-5-17t-19-6H524q-16 0-23 6t-7 20v267q0 6-3 9t-11 4H277z"/><glyph unicode="I" glyph-name="I" horiz-adv-x="323" d="M246 742q17 0 17-19V27q0-15-7-21t-23-6H85Q71 0 66 5t-5 18v698q0 10 4 15t13 6h168z"/><glyph unicode="J" glyph-name="J" horiz-adv-x="458" d="M402 89l-54-49-169-50Q127-10 57 4 41 7 35 15t-5 27l9 103q2 23 22 20 6-1 23-5t37-4q40 0 59 22t20 74v469q0 21 18 21h167q17 0 17-19V203q0-114-54-163z"/><glyph unicode="K" glyph-name="K" horiz-adv-x="759" d="M732 21v-8q0-13-16-13H542q-24 0-32 18L369 313q-4 6-8 6t-13-10l-79-99q-6-7-6-21V26q0-14-7-20t-23-6H85Q71 0 66 5t-5 18v698q0 10 4 15t13 6h168q17 0 17-19V448q0-11 4-11t10 7l211 279q8 11 15 15t24 4h136q10 0 16-4t7-11q0-6-5-11L504 504q-6-9-6-15t4-14L728 28q4-7 4-15z"/><glyph unicode="L" glyph-name="L" horiz-adv-x="635" d="M61 731l4 5 13 6h168q17 0 17-19V160q0-7 2-10t9-3h310q21 0 21-17V20q0-9-6-14t-17-6H85Q71 0 66 5t-5 18v698q0 10 4 15z"/><glyph unicode="M" glyph-name="M" horiz-adv-x="964" d="M73 0l-6 7-6 19v695q0 11 4 16t15 5h245q12 0 17-3t9-14l126-366q3-8 7-8t7 8l117 357q8 26 25 26h253q17 0 17-19V26q0-14-6-20t-23-6H725q-14 0-19 5t-5 18v472q0 7-4 7t-7-8L532 17q-6-17-23-17h-94q-18 0-24 17L233 487q-3 9-6 9-4 0-4-10V20q0-12-4-16t-17-4H84Q73 0 67 7z"/><glyph unicode="N" glyph-name="N" horiz-adv-x="760" d="M685 742q15 0 15-16V17q0-8-6-12t-15-5H558q-8 0-13 2t-13 12L236 422q-4 6-7 6t-3-7V17q0-9-5-13t-17-4H83Q61 0 61 19v702q0 11 4 16t16 5h143q12 0 17-3t14-13l266-375q6-8 11-8t5 12v368q0 19 20 19h128z"/><glyph unicode="O" glyph-name="O" horiz-adv-x="777" d="M282-10l-79 46L80 167 37 369q0 116 43 202t123 134 186 47q105 0 184-47t123-133 44-203q0-115-43-200T575 37 389-10q-107 0-186 46zm181 140l32 55 33 181q0 130-33 188t-106 59q-73 0-106-58t-34-189q0-126 33-181t108-55q73 0 105 55z"/><glyph unicode="P" glyph-name="P" horiz-adv-x="723" d="M690 434l-34-52-96-80-143-28H274q-11 0-11-10V26q0-14-7-20t-23-6H84Q71 0 66 5t-5 18v698q0 21 17 21h316q84 0 151-26t106-80 39-130q0-72-34-124zM484 551l-28 24-74 24h-98q-12 0-16-4t-5-16V438q0-11 3-15t12-5h110q44 0 70 25t26 66q0 42-28 66z"/><glyph unicode="Q" glyph-name="Q" horiz-adv-x="779" d="M37 485l43 86 123 134 186 47q106 0 185-47t123-133 43-203q0-95-28-168T629 78q-3-3-3-9 0-14 31-32t66-22q16-2 16-16v-98q0-17-9-22t-32-6q-68 0-122 29T477-9q-4 6-15 4-30-5-73-5-107 0-186 46T80 167 37 369q0 116 43 202zm212-245l32-55 108-55q75 0 107 55t33 182q0 129-33 187t-107 59q-74 0-107-58t-33-188q0-127 32-182z"/><glyph unicode="R" glyph-name="R" horiz-adv-x="731" d="M689 22v-2q0-9-5-14t-14-6H499q-19 0-25 19L374 288q-3 8-9 11t-21 4h-69q-6 0-9-3t-3-8V27q0-15-7-21t-23-6H84Q71 0 66 5t-5 18v698q0 21 17 21h324q140 0 217-54t77-154q0-71-37-124t-97-74q-5-2-5-10 0-5 1-8L687 30q2-8 2-10zM437 437l25 22 25 62q0 42-27 65t-71 23H284q-12 0-16-4t-5-14V457q0-11 3-15t12-5h111q48 0 73 22z"/><glyph unicode="S" glyph-name="S" horiz-adv-x="690" d="M470 582l-30 15-84 16q-56 0-84-18t-29-47q0-19 16-36t56-27l162-44q90-24 135-80t45-134q0-72-37-125T512 19 348-10q-106 0-192 35T33 121q-5 10-5 15 0 8 11 16l90 62q11 7 19 7 10 0 16-8 36-46 72-65t97-19q61 0 96 18t36 52q0 46-73 66l-152 40q-88 23-138 81T52 521q0 65 37 117t104 83 157 31q86 0 160-29t110-77q7-12 7-17t-7-11l-98-71q-4-4-9-4-6 0-18 12-25 27-55 42z"/><glyph unicode="T" glyph-name="T" horiz-adv-x="693" d="M31 721q0 9 5 15t17 6h587q11 0 16-6t6-15V615q0-17-20-17H460q-11 0-11-10V20q0-20-18-20H263q-17 0-17 19v565q0 8-2 11t-8 3H52q-21 0-21 17v106z"/><glyph unicode="U" glyph-name="U" horiz-adv-x="724" d="M672 126l-80-68-230-68q-167 0-238 77T52 304v417q0 21 18 21h167q17 0 17-19V280q0-77 31-112t92-35q128 0 128 150v438q0 21 18 21h133q16 0 16-19V284q0-158-80-226z"/><glyph unicode="V" glyph-name="V" horiz-adv-x="743" d="M707 742l5-8 2-18L478 23q-7-23-34-23H299q-28 0-34 23L30 716q-2 6-2 9 0 7 5 12t14 5h170q17 0 23-19l148-471q3-7 6-7 2 0 5 8l142 470q1 9 7 14t16 5h132q11 0 16-8z"/><glyph unicode="W" glyph-name="W" horiz-adv-x="1097" d="M1053 742l7-6 8-18q0-4-2-12L863 23q-5-12-12-17t-22-6H706q-14 0-22 5t-12 18L558 416q-3 11-6 11-4 0-8-13L429 23q-6-23-33-23H268q-26 0-33 23L31 706q-1 4-1 11 0 12 7 18t21 7h146q13 0 19-4t10-15l117-411q3-12 7-12 3 0 5 8l116 415q2 10 9 14t21 5h124q13 0 19-4t10-15l121-419q2-7 5-8t6 6l114 421q3 19 29 19h103q14 0 21-6z"/><glyph unicode="X" glyph-name="X" horiz-adv-x="743" d="M716 26V15q0-15-25-15H531q-27 0-37 18L368 224q-8 14-13 14-7 0-14-13L218 18q-9-18-38-18H53Q28 0 28 15q0 10 13 30l203 313q7 10 7 17t-7 17L38 711q-5 8-5 14 0 7 5 12t14 5h169q14 0 21-4t14-15l107-181q5-8 11-8t11 8l107 181q5 10 12 14t22 5h140q17 0 17-13 0-8-6-16L482 415q-6-9-6-15 0-7 8-18L704 45q12-19 12-30z"/><glyph unicode="Y" glyph-name="Y" horiz-adv-x="755" d="M729 742v-11q0-5-4-10L490 339q-6-10-7-20t-2-40V27q0-15-7-21t-23-6H303q-13 0-18 5t-6 18v266q0 13-3 21t-10 20L31 716q-4 7-4 12 0 14 21 14h176q13 0 19-3t13-16l135-241q5-10 9-10 3 0 9 9l133 242q5 11 11 15t20 4h139q17 0 17-11z"/><glyph unicode="Z" glyph-name="Z" horiz-adv-x="698" d="M40 0l-5 4-5 19v40q0 14 3 21t16 26l323 469q4 5 4 10t-12 5H80q-12 0-16 5t-4 17v107q0 19 16 19h571q17 0 17-18v-46q0-10-3-17t-12-20L314 162q-2-4-2-6 0-7 13-7h314q20 0 20-17V20q0-9-5-14t-17-6H54Q40 0 35 4z"/><glyph unicode="[" glyph-name="bracketleft" horiz-adv-x="327" d="M54 733l5 4 19 5h220q14 0 14-12v-72q0-13-14-13h-78q-23 0-23-25V-49q0-12 4-15t15-4h79q17 0 17-15v-65q0-17-17-17H81q-13 0-20 6t-7 18v863q0 11 5 15z"/><glyph unicode="\" glyph-name="backslash" horiz-adv-x="373" d="M266-8l-7 5-12 18L5 712q-3 9-3 16 0 8 4 11t14 3h76q8 0 14-4t9-12L369 9q1-2 1-6 0-11-16-11h-75q-13 0-20 5z"/><glyph unicode="]" glyph-name="bracketright" horiz-adv-x="327" d="M273-141q0-11-7-17t-20-7H32q-17 0-17 17v65q0 15 17 15h79q11 0 15 3t4 16v669q0 25-23 25H29q-14 0-14 13v72q0 12 14 12h220q13 0 18-4t6-16v-863z"/><glyph unicode="^" glyph-name="asciicircum" horiz-adv-x="475" d="M247 339q-3 10-11 10-7 0-11-10l-84-208q-3-5-8-6t-16-2H41q-13 0-13 11 0 5 3 11l154 359q7 17 21 26t31 10q16 0 30-9t21-26l155-363q2-6 2-9 0-11-16-11h-72q-23 0-25 9l-85 208z"/><glyph unicode="_" glyph-name="underscore" horiz-adv-x="554" d="M509-127q0-13-7-19t-22-6H68q-13 0-18 5t-6 17v83q0 21 17 21h432q7 0 11-5t5-13v-83z"/><glyph unicode="`" glyph-name="grave" horiz-adv-x="313" d="M41 748l5 3h11l237-100q10-5 10-14l-2-8-14-39q-6-14-16-14-3 0-11 2L29 637q-19 4-19 19 0 6 2 10l26 74q3 8 8 11z"/><glyph unicode="a" glyph-name="a" horiz-adv-x="568" d="M269-10h-85q-74 0-118 41T22 136q0 57 36 100t103 68 160 25l20 1q16 0 16 14v19q0 33-18 51t-54 18q-28 0-51-12t-39-41q-3-6-6-8t-9-3q-6 0-10 1L54 393q-10 2-10 12 0 6 4 17 46 118 245 118 125 0 179-43t54-123V25q0-15-4-20t-17-5H384q-11 0-16 8t-8 23l-1 15q-1 9-7 9t-17-9q-66-56-151-56zm88 249l-3 4-12 4-16-1q-27-1-57-10t-52-29-22-47q0-26 18-41t50-15q37 0 66 23 28 24 28 44v59q0 9-3 13z"/><glyph unicode="b" glyph-name="b" horiz-adv-x="613" d="M73 0Q59 0 54 5t-6 18v698q0 21 18 21h143q17 0 17-20V494q0-13 7-13 4 0 11 5 57 54 133 54 98 0 153-73t55-198q0-129-59-204T358-10q-49 0-89 22t-69 60q-3 4-6 4-5 0-6-7l-14-47q-4-12-9-17t-16-5H73zm153 184q0-40 24-64t60-24q47 0 71 40t24 129q0 88-22 126t-69 39q-49 0-88-47V184z"/><glyph unicode="c" glyph-name="c" horiz-adv-x="553" d="M362 540l48-23 79-61 41-77q2-8 2-10 0-12-18-14l-121-8h-5q-8 0-11 12-11 32-26 49t-48 18q-46 0-71-40t-26-121q0-163 106-163 39 0 61 20t47 62q2 4 6 5t13 0l84-18q10-1 10-10 0-3-2-11-9-33-36-70t-77-63-120-27q-78 0-140 34t-97 97-35 142q0 81 35 144t98 98 139 35q64 0 112-23z"/><glyph unicode="d" glyph-name="d" horiz-adv-x="613" d="M390 0v45q0 4-2 6t-4 2q-3 0-9-4-30-29-63-44t-80-15q-92 0-148 70T28 262q0 82 29 145t78 98 107 35q38 0 68-12t59-40q6-6 12-6 7 0 7 14v227q0 19 16 19h143q18 0 18-21V23q0-12-5-17t-20-6H413q-23 0-23 21zm-23 407l-18 10-45 11q-45 0-70-39t-26-126q0-87 24-125t71-39q35 0 59 22t25 54v210q-20 22-38 32z"/><glyph unicode="e" glyph-name="e" horiz-adv-x="588" d="M209 166l33-28 84-29q31 0 58 14t60 47q4 4 9 4t10-2l82-34q9-4 9-11 0-4-5-11-50-72-106-99T302-10q-78 0-141 34t-99 94-36 139q0 83 37 147t99 100 137 36q78 0 138-33t94-98 34-152q0-14-2-19t-15-6H223q-14 0-14-16 0-50 33-78zm166 160q10 0 13 2t4 12q0 34-22 64t-63 30q-42 0-69-29t-26-78l163-1z"/><glyph unicode="f" glyph-name="f" horiz-adv-x="411" d="M380 530l5-5 6-15v-84q0-17-19-17h-72q-11 0-11-12V20q0-20-18-20H127q-16 0-16 19v380q0 10-8 10H39q-10 0-15 4t-5 13v84q0 20 22 20h57q7 0 10 3t3 13v57q0 65 40 102t111 37h108q13 0 19-6t7-17v-76q0-8-4-13t-12-5h-48q-20 0-34-16t-14-39v-28q0-12 12-12h73q11 0 16-5z"/><glyph unicode="g" glyph-name="g" horiz-adv-x="643" d="M613 558l5-6 6-18v-79q0-15-6-21t-19-4q-18 5-35 5-8 0-11-1-27-1-20-23 8-22 8-38 0-46-29-83t-85-59-136-22q-52 0-76-8t-24-22q0-12 12-16t40-7l148-9q104-7 155-45T597 0q0-52-33-91t-100-62-161-22q-152 0-227 31T1-49Q1-18 26 2t72 36q6 2 6 5t-6 6q-62 29-62 78 0 56 103 98 6 3 7 5t-5 7q-49 21-74 55t-26 80q0 76 67 121t194 45q54 0 96-12t68-33q6-5 14-5 9 0 15 7 19 25 52 44t57 19q9 0 14-6zM334 293l22 22 23 55q0 37-22 60t-68 23q-42 0-65-23t-24-60q0-33 24-55t65-22q45 0 67 22zM220 19q-31 2-52-11t-22-34q0-33 38-50t128-17q63 0 96 16t34 44q0 19-19 31t-54 14l-149 7z"/><glyph unicode="h" glyph-name="h" horiz-adv-x="601" d="M59 0l-5 5-5 18v698q0 21 17 21h141q17 0 17-19V470q0-7 4-7 3 0 8 3 44 40 83 57t82 17q75 0 116-42t41-121V27q0-27-28-27H401q-12 0-16 5t-5 18v332q0 27-16 42t-46 16q-27 0-48-13t-43-43V26q0-14-7-20t-23-6H72Q59 0 54 5z"/><glyph unicode="i" glyph-name="i" horiz-adv-x="274" d="M227 611q0-14-7-20t-24-7H71q-13 0-18 6t-6 18v112q0 10 5 16t13 6h144q8 0 13-5t5-15V611zm-1-584q0-15-7-21t-23-6H72Q58 0 53 5t-5 18v486q0 21 18 21h143q17 0 17-19V27z"/><glyph unicode="j" glyph-name="j" horiz-adv-x="275" d="M227 611q0-14-6-20t-23-7H73q-14 0-19 6t-6 18v112q0 10 5 16t14 6h143q17 0 17-20V611zm0-687l-48-47-149-47q-42 0-55 4t-13 19v91q0 8 4 15t14 9l38 5q15 3 23 14t8 38v484q0 21 18 21h143q17 0 17-19V18q0-94-48-141z"/><glyph unicode="k" glyph-name="k" horiz-adv-x="618" d="M602 18q0-7-5-12t-14-6H431q-20 0-30 23l-87 189q-4 10-10 10-4 0-10-6l-59-56q-8-8-8-27V27q0-15-6-21t-24-6H74Q60 0 55 5t-6 18v698q0 10 4 15t13 6h144q17 0 17-19V331q0-8 4-8 2 0 7 5l169 186q14 16 29 16h123q19 0 19-12 0-8-7-15L436 368q-7-9-7-15t6-17L600 26l2-8z"/><glyph unicode="l" glyph-name="l" horiz-adv-x="275" d="M227 27q0-15-7-21t-23-6H72Q58 0 53 5t-6 18l4 698q0 21 18 21h141q8 0 12-5t5-14V27z"/><glyph unicode="m" glyph-name="m" horiz-adv-x="924" d="M59 0l-5 5-6 18v486q0 10 4 15t13 6h141q17 0 17-18v-48q0-8 5-8 3 0 7 4 79 81 163 81 52 0 89-25t53-70q2-3 4-3 4 0 9 5 32 39 80 65t94 27q70 0 112-43t42-121V27q0-27-28-27H724q-11 0-16 5t-5 18v332q0 27-16 42t-44 16q-22 0-43-12t-38-32q-9-13-9-28V27q0-27-27-27H397q-11 0-16 5t-5 18v332q0 27-16 42t-44 16q-27 0-48-13t-42-43V26q0-14-7-20t-23-6H72Q59 0 54 5z"/><glyph unicode="n" glyph-name="n" horiz-adv-x="600" d="M59 0l-5 5-6 18v486q0 21 17 21h142q17 0 17-18v-48q0-8 5-8 3 0 7 4 78 80 164 80 71 0 114-43t44-117V27q0-27-28-27H401q-12 0-16 5t-5 18v332q0 27-17 42t-46 16q-27 0-48-13t-43-43V26q0-14-7-20t-23-6H72Q59 0 54 5z"/><glyph unicode="o" glyph-name="o" horiz-adv-x="600" d="M219-10l-62 34-96 97-35 141q0 81 35 144t98 99 141 35q81 0 143-35t96-99 35-144q0-78-35-140t-97-97-143-35q-80 0-142 34zm129 116l23 39 23 121q0 82-23 122t-71 40q-47 0-70-40t-24-122q0-81 23-120t71-40q48 0 71 39z"/><glyph unicode="p" glyph-name="p" horiz-adv-x="613" d="M216 530l5-5 5-17v-25q0-7 6-7 5 0 9 4 31 29 63 44t80 16q90 0 145-69t56-203q0-140-57-209T377-10q-38 0-70 12t-61 39q-12 10-15 10-5 0-5-15v-182q0-19-17-19H65q-17 0-17 20v651q0 13 5 18t20 6h130q13 0 18-5zm44-430h48q47 0 72 39t25 134q0 87-24 122t-72 35q-35 0-59-20t-24-47V145q34-45 82-45z"/><glyph unicode="q" glyph-name="q" horiz-adv-x="613" d="M540 530q14 0 19-6t6-18v-651q0-20-18-20H404q-17 0-17 19V29q0 16-6 16-5 0-11-6-63-49-129-49-99 0-156 72T28 265q0 83 27 145t77 97 119 34q100 0 166-82 5-5 7-5 3 0 6 8l14 46q6 22 23 22h73zM387 345q0 40-23 65t-60 26q-44 0-70-41t-26-129q0-88 24-127t69-40q50 0 86 39v207z"/><glyph unicode="r" glyph-name="r" horiz-adv-x="441" d="M58 0l-5 5-5 18v486q0 21 17 21h138q7 0 11-5t5-13v-58q0-9 7-9 5 0 9 6 27 38 69 63t78 26q37 0 37-19V387q0-18-18-15-40 10-78 10-36 0-66-24t-31-53V26q0-14-7-20t-23-6H72Q58 0 53 5z"/><glyph unicode="s" glyph-name="s" horiz-adv-x="536" d="M337 435h-68q-32 0-53-12t-22-33q0-11 9-19t38-16l110-25q84-19 122-62t39-103q0-82-67-128T266-10q-89 0-153 30T22 99q-5 8-5 15 0 8 7 12l78 40q8 4 15 4 8 0 13-6 24-30 52-46t81-17q40 0 65 12t26 34q0 14-12 24t-44 16l-102 20Q38 238 38 364q0 51 27 91t81 62 125 23q75 0 133-27t82-68q7-10 7-17t-7-10l-82-40q-6-3-10-3-9 0-17 10-40 50-108 50z"/><glyph unicode="t" glyph-name="t" horiz-adv-x="448" d="M299 409q-12 0-12-12V181q0-30 16-44t53-14h48q7 0 11-5t5-13l-1-72q0-21-26-26-45-7-127-7-72 0-114 34t-43 97v261q0 9-3 13t-11 4H41q-22 0-22 20v84q0 17 20 17h64q9 0 11 11l15 150q1 10 4 14t13 5h128q18 0 18-20V541q0-10 10-10h99q9 0 14-4t6-13v-85q0-20-23-20h-99z"/><glyph unicode="u" glyph-name="u" horiz-adv-x="597" d="M305 116l23 13 43 37v338q0 14 7 20t23 6h126q13 0 18-5t6-19l-4-486q0-20-17-20H391q-17 0-17 18v47q0 6-3 7t-8-3q-38-41-79-60t-90-19q-68 0-110 44T42 154v349q0 27 28 27h129q12 0 16-5t5-19V176q0-28 16-44t44-16q25 0 48 13z"/><glyph unicode="v" glyph-name="v" horiz-adv-x="583" d="M556 530l4-5 5-12q0-3-2-9L367 23q-5-12-13-17t-21-6h-83q-14 0-22 5t-13 18L19 504q-1 2-1 7 0 8 5 13t14 6h148q9 0 15-5t10-13l101-262q3-9 7-9t8 10l98 261q9 18 24 18h100q8 0 12-5z"/><glyph unicode="w" glyph-name="w" horiz-adv-x="825" d="M798 530l5-5 5-13-2-8L639 17q-3-9-8-13t-14-4h-94q-21 0-27 20l-75 241q-3 11-8 11-4 0-7-11L328 17q-3-9-8-13t-15-4h-97q-20 0-26 20L20 504l-2 8q0 8 5 13t14 5h137q8 0 15-5t9-13l79-247q2-10 7-10 3 0 8 11l75 246q2 8 8 13t15 5h98q7 0 14-5t9-13l74-247q2-10 7-10 3 0 8 11l77 246q9 18 24 18h89q8 0 13-5z"/><glyph unicode="x" glyph-name="x" horiz-adv-x="607" d="M592 19v-8q0-11-22-11H422q-27 0-38 18l-90 129q-9 13-13 13t-13-12L177 18Q166 0 139 0H45Q33 0 26 4t-8 12q0 11 15 30l156 204q8 10 8 15 0 7-8 18L31 499q-5 7-5 13 0 8 6 13t16 5h141q15 0 23-4t14-14l78-114q5-8 9-8t9 8l73 114q7 10 14 14t23 4h104q19 0 19-11 0-7-6-15L406 310q-7-8-7-15t8-18L578 39q14-20 14-28z"/><glyph unicode="y" glyph-name="y" horiz-adv-x="578" d="M69-165l-11 3-12 17v90q0 18 28 18h69q30 0 50 18t21 39q0 4-2 12L18 503q-1 3-1 8 0 8 5 13t14 6h148q9 0 15-5t10-13l97-268q3-10 8-10t9 10l97 268q9 18 24 18h100q9 0 13-5t5-13l-2-8L360 16q-31-76-64-114t-77-53-116-14q-34 0-45 3z"/><glyph unicode="z" glyph-name="z" horiz-adv-x="532" d="M31 0l-5 5-5 18v42q0 14 3 22t17 24l227 294q4 4 4 9 0 6-13 6H63q-11 0-15 4t-5 17v71q0 8 4 13t13 5h427q8 0 12-4t5-13v-48q0-11-3-18t-12-21L257 129q-5-7-5-10 0-7 12-7h222q20 0 20-17V20q0-9-5-14t-17-6H45Q31 0 26 5z"/><glyph unicode="{" glyph-name="braceleft" horiz-adv-x="387" d="M116 654l25 29 64 44 81 15h72q14 0 14-12v-72q0-13-14-13h-35q-41 0-52-13t-12-40V396q-1-47-34-70t-77-30q-6-1-6-3t6-3q109-9 111-106V-14q0-29 13-41t51-13h32q17 0 17-15v-65q0-17-17-17h-66q-43 0-83 14t-65 44-25 72v202q0 38-26 61t-79 23q-11 0-11 18v49q0 18 11 18 56 1 80 22t25 66v188q0 42 25 71z"/><glyph unicode="|" glyph-name="bar" horiz-adv-x="248" d="M86-165q-13 0-19 7t-6 22v960q0 13 5 18t17 5h84q21 0 21-18v-977q0-8-5-12t-14-5H86z"/><glyph unicode="}" glyph-name="braceright" horiz-adv-x="387" d="M271 424q0-45 24-66t81-22q11 0 11-18v-49q0-18-11-18-53 0-79-23t-26-61V-35q0-42-25-71t-65-44-83-15H32q-17 0-17 17v65q0 15 17 15h32q37 0 50 12t14 42v198q2 97 111 106 7 1 7 3t-7 3q-44 6-77 29t-34 71v196q0 26-11 39t-53 14H29q-14 0-14 13v72q0 12 14 12h72q41 0 80-14t65-44 25-72V424z"/><glyph unicode="~" glyph-name="asciitilde" horiz-adv-x="623" d="M539 330l-40-23-84-23q-29 0-53 9t-55 28q-29 16-47 23t-40 8q-31 0-55-17t-55-51q-5-5-10-5t-9 6l-37 61q-2 3-2 8 0 8 10 18 46 46 81 67t79 22q30 0 53-9t57-29q28-16 44-23t36-7q30 0 55 17t44 44q6 8 12 8 9 0 15-11l29-49q4-5 4-12t-6-17q-26-43-66-66z"/><glyph glyph-name="uni00A0" horiz-adv-x="211"/><glyph unicode="¡" glyph-name="exclamdown" horiz-adv-x="271" d="M231 349H58q-8 0-12 5t-5 15v138q0 12 5 17t20 6h134q17 0 24-6t7-21V368q0-19-17-19zm7-499q0-7-4-11t-12-4H53q-9 0-13 5t-4 16l44 402q2 12 6 17t18 5h61q15 0 21-5t9-20l43-401v-4z"/><glyph unicode="¢" glyph-name="cent" horiz-adv-x="558" d="M533 281v-9q0-3-2-11-13-46-56-92t-115-62V27q0-14-6-20t-22-7h-60q-14 0-19 6t-6 18v81q-65 10-115 46t-78 94-28 129q0 72 28 130t78 95 115 48v69q0 14 6 20t22 6h61q13 0 18-6t6-18v-74q68-15 112-58t58-96q2-8 2-10 0-12-18-14l-121-8h-5q-8 0-11 12-11 32-26 49t-48 18q-46 0-71-40t-26-121q0-163 106-163 39 0 61 20t47 62q2 4 6 5t13 0l84-18q10-1 10-10z"/><glyph unicode="£" glyph-name="sterling" horiz-adv-x="655" d="M12 0v132q0 14 14 14h19q85 0 85 88 0 36-7 101-1 10-12 10H27q-5 0-8 3t-4 10v70q0 11 12 11h63q12 0 11 13l-8 84q-1 7-1 22 0 62 33 105t89 66 122 23q78 0 147-37t102-111q1-2 1-6 0-8-12-11l-121-36q-3-1-8-1-10 0-14 8-23 55-68 55-29 0-46-19t-18-54q0-35 11-90 1-5 4-8t9-3h120q11 0 11-10v-73q0-11-11-11H336q-10 0-10-10 1-53-8-94-9-46-44-80-5-5-5-9 0-5 9-5h98q42 0 66 15t37 52q4 11 15 11 5 0 8-1l109-22q22-5 17-23-22-86-84-132T390 0H29Q12 0 12 18z"/><glyph unicode="¤" glyph-name="currency" horiz-adv-x="588" d="M231 137l-55 32q-5 3-9 3t-8-4l-54-54q-4-4-9-4t-12 5l-51 52q-4 4-4 9 0 6 4 10l54 54q4 4 4 9t-3 9q-15 30-22 56t-8 58q0 64 31 117 2 3 2 8t-4 9l-54 54q-4 6-4 9 0 4 4 10l52 53q6 6 11 6 4 0 9-5l55-55q4-3 8-3l8 2q59 32 116 32 64 0 124-33 7-5 11 1l53 52q5 7 10 0l60-61q5-6 0-12l-53-53q-4-3-1-10 34-56 34-120 0-71-35-122-2-4 0-6l55-54q6-7 0-13l-59-60q-6-6-12 0l-52 53q-5 4-11 0-60-34-120-34-65 0-120 32zm97 113l28 17 45 45 16 61q0 32-16 60t-44 46-63 17q-34 0-62-17t-45-45-16-61q0-32 16-60t44-46 63-17q34 0 62 17z"/><glyph unicode="¥" glyph-name="yen" horiz-adv-x="675" d="M692 742v-11q0-4-3-10L468 362h112q8 0 12-5t5-13v-49q0-13-7-19t-23-6H445v-74h135q8 0 12-5t5-13v-49q0-13-7-19t-23-6H445V27q0-15-7-21t-23-6H267q-13 0-18 5t-6 18v81H115q-13 0-18 5t-5 17v49q0 21 17 21h134v74H115q-13 0-18 5t-5 17v49q0 21 17 21h102L-5 716q-4 7-4 12 0 14 21 14h177q13 0 19-4t12-15l135-241q5-10 8-10 5 0 9 9l134 242q6 11 12 15t19 4h139q16 0 16-11z"/><glyph unicode="¦" glyph-name="brokenbar" horiz-adv-x="248" d="M86 426q-13 0-19 7t-6 22v369q0 13 5 18t17 5h84q21 0 21-18V442q0-7-5-11t-14-5H86zm0-591q-13 0-19 7t-6 22v369q0 13 5 18t17 5h84q21 0 21-18v-386q0-8-5-12t-14-5H86z"/><glyph unicode="§" glyph-name="section" horiz-adv-x="512" d="M450 197l21-31 21-74q0-79-61-127T259-83q-86 0-147 28T26 16q-6 12-6 17 0 6 6 10l83 40q6 2 9 2 7 0 17-10 24-25 51-39t69-14q37 0 58 12t22 35q0 18-15 32t-55 30l-74 27q-89 33-127 71T25 329q0 46 22 80t63 54q-41 26-58 56t-18 67q0 47 26 85t74 59 114 22q75 0 132-28t80-67q7-11 7-18t-7-9l-82-40q-4-3-9-3-7 0-17 10-24 23-47 36t-52 14q-29 0-46-11t-17-32q0-14 11-24t40-22l73-28q91-34 130-72t39-101q0-87-79-134 46-26 67-57zm-136 76l13 14 14 37q0 21-14 37t-59 34l-41 15q-30-2-45-17t-15-38q0-20 14-32t60-30l46-18q27-2 40 12z"/><glyph unicode="¨" glyph-name="dieresis" horiz-adv-x="397" d="M164 628q0-23-26-23H30q-11 0-15 5t-5 16v97q0 19 15 19h124q15 0 15-17v-97zm223 0q0-12-6-17t-21-6H253q-12 0-16 5t-5 16v97q0 19 15 19h125q15 0 15-17v-97z"/><glyph unicode="©" glyph-name="copyright" horiz-adv-x="830" d="M311-10l-87 51L85 179 34 371q0 103 51 190t138 139 192 52q103 0 190-51t139-139 52-191q0-104-51-191T606 41 415-10q-104 0-191 51zm186 93l63 35 98 101 35 152q0 86-35 151t-98 102-145 36q-83 0-146-36t-97-101-35-152q0-87 34-152t98-100 146-36q82 0 145 35zm-7 502l47-38 60-88q1-3 1-7 0-9-13-11l-94-7h-3q-4 0-6 2t-4 9q-7 23-19 37t-37 14q-34 0-53-30t-20-93q0-124 80-124 30 0 47 15t36 48q3 6 15 3l65-14q8-2 8-7l-2-8q-7-26-28-54t-59-50-93-21q-60 0-107 26t-75 75-27 109q0 62 27 111t74 76 108 27q72 0 119-38z"/><glyph unicode="ª" glyph-name="ordfeminine" horiz-adv-x="389" d="M271 751l33-26 34-78V475q0-19 8-45 5-16-29-16h-66q-9 0-11 3t-5 11l-2 9q-2 5-5 5t-11-5q-26-16-44-22t-42-7q-52 0-80 26t-29 69q0 50 45 80t133 36l20 1q12 2 12 11v10q0 41-45 41-39 0-55-32-2-5-5-6t-11 0l-74 15q-4 1-5 7t1 11q19 39 53 57t99 18q81-1 114-27zM132 494l11-9 33-9q25 0 43 15 13 10 13 24v37q0 12-12 11l-19-2q-27-2-48-16t-21-35q0-16 11-25z"/><glyph unicode="«" glyph-name="guillemotleft" horiz-adv-x="500" d="M247 74q1-1 1-4 0-8-16-8h-64q-12 0-15 10L54 237q-6 11-6 20t5 19l100 175q4 6 6 8t9 2h67q7 0 10-4t1-11l-65-177q-2-8-2-12t2-12l66-171zm202 0l1-4q0-8-15-8h-65q-10 0-15 10l-98 165q-6 11-6 20t5 19l99 175q4 6 7 8t9 2h66q7 0 10-4t1-11l-64-177q-2-8-2-12t2-12l65-171z"/><glyph unicode="¬" glyph-name="logicalnot" horiz-adv-x="592" d="M540 437l4-5 5-13V175q0-13-6-18t-20-6h-95q-12 0-17 5t-5 16v138H68q-13 0-18 5t-6 17v84q0 21 17 21h472q7 0 11-5z"/><glyph unicode="­" glyph-name="uni00AD" horiz-adv-x="380" d="M335 226q0-14-7-20t-23-6H69q-14 0-19 5t-5 18v83q0 20 17 20l257 1q7 0 11-5t5-14v-82z"/><glyph unicode="®" glyph-name="registered" horiz-adv-x="545" d="M208 275l-55 32-87 86-32 120q0 65 32 120t87 87 120 32q64 0 119-32t87-87 32-120q0-65-32-119t-86-87-120-32q-65 0-120 32zm140 66l45 46 46 126q0 78-45 125t-121 48q-76 0-121-47t-46-126q0-79 45-125t122-47q75 0 120 46zm31 59q0-6-6-6h-57q-6 0-9 6l-30 89q-1 2-3 3t-7 2h-23q-4 0-4-4v-88q0-8-10-8h-49q-7 0-7 7v222q0 7 5 7h108q45 0 70-17t25-48q0-21-12-37t-31-24q-2-1-2-5l41-96 1-3zm-82 138l8 6 8 18q0 11-8 17t-23 7h-35q-7 0-7-6v-35q0-7 5-7h39q13 0 21 6z"/><glyph unicode="¯" glyph-name="overscore" horiz-adv-x="409" d="M399 650q0-12-6-17t-20-5H30q-12 0-16 4t-4 16v73q0 18 14 18h361q14 0 14-16v-73z"/><glyph unicode="°" glyph-name="degree" horiz-adv-x="464" d="M410 628l-23-40-63-63-92-23q-51 0-91 22t-64 63-23 93q0 51 23 91t63 63 92 23q50 0 91-23t64-63 23-91q0-52-23-92zm-103 86l-21 22-56 22q-34 0-55-21t-21-56q0-37 20-60t57-23q34 0 55 22t21 59q0 35-21 57z"/><glyph unicode="±" glyph-name="plusminus" horiz-adv-x="592" d="M540 528l4-5 5-13v-83q0-13-7-19t-22-6H361V229q0-7-5-11t-13-5h-84q-13 0-19 7t-6 23v158H68q-13 0-18 5t-6 18v83q0 21 17 21h173v167q0 13 5 18t17 5h84q21 0 21-17V528h172q7 0 11-5zm0-377l4-5 5-13V50q0-26-29-26H68q-13 0-18 5t-6 18v83q0 21 17 21h472q7 0 11-5z"/><glyph unicode="²" glyph-name="uni00B2" horiz-adv-x="452" d="M183 588q43 37 63 57t27 34 8 32q0 25-17 40t-45 15q-25 0-45-15t-41-53q-3-5-9-5-4 0-10 3l-66 33q-8 5-8 12 0 6 3 10 34 54 78 80t105 26q81 0 129-39t49-106q0-38-19-69t-67-65l-113-83q-4-1-4-4t8-3h186q14 0 14-11v-80q0-5-3-9t-11-4H54q-8 0-11 3t-4 11v56q0 5 6 12t27 26l111 96z"/><glyph unicode="³" glyph-name="uni00B3" horiz-adv-x="467" d="M64 780v2q0 4 3 8 23 30 70 48t99 19q84 0 133-34t49-89q0-30-19-56t-53-38q-8-3-8-6t7-7q40-13 63-41t24-65q0-70-51-106t-153-37q-56 0-105 22t-76 59q-3 5-3 9 0 7 8 12l57 40q10 7 15 0 30-30 53-42t58-12q33 0 52 14t20 39q0 26-21 42t-55 17l-54 1q-12 0-12 10v68q0 8 12 10l43 2q34 1 54 17t20 40q0 19-17 32t-43 13q-28 0-50-10t-49-35q-5-5-8-5-1 0-7 4l-53 50q-3 5-3 7z"/><glyph unicode="´" glyph-name="acute" horiz-adv-x="313" d="M302 666q2-8 2-10 0-15-20-19L52 578q-8-2-10-2-11 0-17 14l-13 39q-2 3-2 9 0 9 9 13l237 100q2 1 6 1t8-3 5-9l27-74z"/><glyph unicode="¶" glyph-name="paragraph" horiz-adv-x="618" d="M522 644q-6 0-9-3t-3-10V-69q0-16-14-16h-75q-9 0-13 4t-5 12v702q0 11-12 11h-39q-5 0-8-4t-4-9V-70q0-15-14-15h-78q-14 0-14 15v369q0 8-10 9-85 9-141 64T26 523q0 62 28 111t82 79 130 29h296q13 0 13-12v-75q0-6-3-8t-10-3h-40z"/><glyph unicode="·" glyph-name="middot" horiz-adv-x="264" d="M216 315q0-13-6-18t-21-6H66q-12 0-17 4t-5 16v127q0 18 16 18h141q15 0 15-16V315z"/><glyph unicode="¸" glyph-name="cedilla" horiz-adv-x="274" d="M264-175l-37-23-91-24q-73 0-120 24-9 7-5 15l16 38q3 8 11 5 42-23 76-23 23 0 36 8t13 21q0 20-20 30T74-93q-8 0-10 2t0 9l38 87h75l-20-51-1-4q0-4 7-4 52-1 76-25t25-57q0-39-37-62z"/><glyph unicode="¹" glyph-name="uni00B9" horiz-adv-x="367" d="M316 472v-79q0-13-14-13H43q-13 0-13 12v70q0 6 3 8t9 2h61q2 0 4 1t3 5v236q0 9-10 8l-56-16h-3q-6 0-9 3t-3 11v47q0 7 2 10t8 7l110 55q8 4 15 6t14 2h49q4 0 7-3t3-9V479q0-7 6-7h60q13 0 13-10z"/><glyph unicode="º" glyph-name="ordmasculine" horiz-adv-x="395" d="M274 752l47-48 48-126q0-75-47-122t-125-48q-77 0-124 47T26 578q0 51 22 90t61 62 88 22q77 0 124-48zm-106-72l-14-24-14-75q0-51 14-75t43-25q58 0 58 100 0 99-58 99-29 0-43-24z"/><glyph unicode="»" glyph-name="guillemotright" horiz-adv-x="500" d="M119 249v8q0 8-2 12L52 446q-1 2-1 6 0 9 12 9h66q6 0 9-2t7-8l99-175q6-9 6-19t-7-20L145 72q-5-10-15-10H66q-19 0-15 12l66 171q2 4 2 12zm202 0v8q0 8-2 12l-65 177q-1 2-1 5 0 10 12 10h67q6 0 9-2t6-8l100-175q5-10 5-19t-6-20L348 72q-5-10-15-10h-65q-19 0-15 12l66 171q2 4 2 12z"/><glyph unicode="¼" glyph-name="onequarter" horiz-adv-x="957" d="M282 368v-79q0-13-14-13H9q-13 0-13 12v70q0 6 3 8t9 2h61q2 0 4 1t3 5v236q0 9-10 8l-56-16H7q-6 0-9 3t-3 11v47q0 7 2 10t8 7l110 55q8 4 15 6t14 2h49q4 0 7-3t3-9V375q0-7 6-7h60q13 0 13-10zM226 7q-5-6-11-8t-16-3l-47 1q-9 0-13 4t-5 12q0 7 5 15l472 710q5 8 11 10t15 2h60q12 0 12-8 0-4-3-10L226 7zm510 455l5 2 16 3h92q11 0 11-12V198q0-7 7-7h49q12 0 12-12v-61q0-13-14-13h-47q-7 0-7-8V16q0-9-4-12t-14-4h-96q-8 0-11 3t-4 11v85q0 6-8 6H539q-7 0-11 3t-4 10v59q0 6 5 14t14 20l185 242q8 9 13 11zm-9-271q6 0 6 4v138q0 9-2 9-3 0-7-7l-99-136q-3-3-3-5 0-3 8-3h97z"/><glyph unicode="½" glyph-name="onehalf" horiz-adv-x="1007" d="M282 368v-79q0-13-14-13H9q-13 0-13 12v70q0 6 3 8t9 2h61q2 0 4 1t3 5v236q0 9-10 8l-56-16H7q-6 0-9 3t-3 11v47q0 7 2 10t8 7l110 55q8 4 15 6t14 2h49q4 0 7-3t3-9V375q0-7 6-7h60q13 0 13-10zM296 7q-5-6-11-8t-16-3l-47 1q-9 0-13 4t-5 12q0 7 5 15l472 710q5 8 11 10t15 2h60q12 0 12-8 0-4-3-10L296 7zm440 197q43 37 63 57t27 34 8 32q0 25-17 40t-45 15q-25 0-45-15t-41-53q-3-5-9-5-4 0-10 3l-66 33q-8 5-8 12 0 6 3 10 34 54 78 80t105 26q81 0 129-39t49-106q0-38-19-69t-67-65l-113-83q-4-1-4-4t8-3h186q14 0 14-11V13q0-5-3-9t-11-4H607q-8 0-11 3t-4 11v56q0 5 6 12t27 26l111 96z"/><glyph unicode="¾" glyph-name="threequarters" horiz-adv-x="1038" d="M30 675v2q0 4 3 8 23 30 70 48t99 19q84 0 133-34t49-89q0-30-19-56t-53-38q-8-3-8-6t7-7q40-13 63-41t24-65q0-70-51-106t-153-37q-56 0-105 22t-76 59q-3 5-3 9 0 7 8 12l57 40q10 7 15 0 30-30 53-42t58-12q33 0 52 14t20 39q0 26-21 42t-55 17l-54 1q-12 0-12 10v68q0 8 12 10l43 2q34 1 54 17t20 40q0 19-17 32t-43 13q-28 0-50-10t-49-35q-5-5-8-5-1 0-7 4l-53 50q-3 5-3 7zM326 7q-5-6-11-8t-16-3l-47 1q-9 0-13 4t-5 12q0 7 5 15l472 710q5 8 11 10t15 2h60q12 0 12-8 0-4-3-10L326 7zm482 455l5 2 16 3h92q11 0 11-12V198q0-7 7-7h49q12 0 12-12v-61q0-13-14-13h-47q-7 0-7-8V16q0-9-4-12t-14-4h-96q-8 0-11 3t-4 11v85q0 6-8 6H611q-7 0-11 3t-4 10v59q0 6 5 14t14 20l185 242q8 9 13 11zm-9-271q6 0 6 4v138q0 9-2 9-3 0-7-7l-99-136q-3-3-3-5 0-3 8-3h97z"/><glyph unicode="¿" glyph-name="questiondown" horiz-adv-x="539" d="M193 503q0 15 7 21t23 6h136q13 0 18-5t6-18V369q0-20-18-20H210q-17 0-17 19v135zM538 6V-8q0-6-1-9-32-77-99-117t-163-41q-81 0-138 23T52-89 23-2q0 38 15 65t36 46 56 43q45 31 66 54t21 58q0 9 6 15t16 7h95q11 0 17-6t6-20q0-55-25-90t-71-74q-32-26-47-45T198 8q0-26 22-43t56-18q35 0 66 21t48 55q5 12 13 12l10-2L528 8q10-2 10-16z"/><glyph unicode="À" glyph-name="Agrave" horiz-adv-x="785" d="M37 0l-4 5-5 14q0 7 3 14l246 688q4 12 10 16t18 5h174q24 0 34-25L756 31q1-3 1-10 0-9-3-15t-11-6H570q-16 0-21 16l-44 130q-3 6-5 8t-10 3H263q-11 0-14-11L202 14q-5-14-22-14H45q-8 0-12 5zm408 309q10 0 10 10 0 6-1 9l-72 201q-1 6-6 6-4 0-6-6l-73-201q-2-4-2-10 0-9 12-9h138zM271 960l5 3h11l237-100q10-5 10-14l-2-8-14-39q-6-14-16-14-3 0-11 2l-232 59q-19 4-19 19 0 6 2 10l26 74q3 8 8 11z"/><glyph unicode="Á" glyph-name="Aacute" horiz-adv-x="785" d="M37 0l-4 5-5 14q0 7 3 14l246 688q4 12 10 16t18 5h174q24 0 34-25L756 31q1-3 1-10 0-9-3-15t-11-6H570q-16 0-21 16l-44 130q-3 6-5 8t-10 3H263q-11 0-14-11L202 14q-5-14-22-14H45q-8 0-12 5zm408 309q10 0 10 10 0 6-1 9l-72 201q-1 6-6 6-4 0-6-6l-73-201q-2-4-2-10 0-9 12-9h138zm89 569q2-8 2-10 0-15-20-19l-232-59q-8-2-10-2-11 0-17 14l-13 39q-2 3-2 9 0 9 9 13l237 100q2 1 6 1t8-3 5-9l27-74z"/><glyph unicode="Â" glyph-name="Acircumflex" horiz-adv-x="785" d="M37 0l-4 5-5 14q0 7 3 14l246 688q4 12 10 16t18 5h174q24 0 34-25L756 31q1-3 1-10 0-9-3-15t-11-6H570q-16 0-21 16l-44 130q-3 6-5 8t-10 3H263q-11 0-14-11L202 14q-5-14-22-14H45q-8 0-12 5zm408 309q10 0 10 10 0 6-1 9l-72 201q-1 6-6 6-4 0-6-6l-73-201q-2-4-2-10 0-9 12-9h138zm-41 567q-5 6-9 10t-7 4q-5 0-16-14l-49-54q-5-6-9-7t-15-1h-91q-9 0-9 5 0 3 7 12l110 118q6 8 13 11t21 3h85q16 0 26-12l109-120q8-10 8-13 0-4-9-4h-97q-10 0-15 1t-10 7l-43 54z"/><glyph unicode="Ã" glyph-name="Atilde" horiz-adv-x="785" d="M37 0l-4 5-5 14q0 7 3 14l246 688q4 12 10 16t18 5h174q24 0 34-25L756 31q1-3 1-10 0-9-3-15t-11-6H570q-16 0-21 16l-44 130q-3 6-5 8t-10 3H263q-11 0-14-11L202 14q-5-14-22-14H45q-8 0-12 5zm408 309q10 0 10 10 0 6-1 9l-72 201q-1 6-6 6-4 0-6-6l-73-201q-2-4-2-10 0-9 12-9h138zm103 537l-25-8-54-8q-19 0-40 4t-40 11q-45 15-75 15-20 0-35-5t-34-19q-7-5-11-5-7 0-10 12l-16 49q-2 8-2 10 0 8 9 18 23 19 43 29t51 10q34 0 90-18 47-15 70-15 34 0 73 26 5 4 11 4 8 0 11-12l14-59 1-6q0-11-14-21-17-12-42-20z"/><glyph unicode="Ä" glyph-name="Adieresis" horiz-adv-x="785" d="M37 0l-4 5-5 14q0 7 3 14l246 688q4 12 10 16t18 5h174q24 0 34-25L756 31q1-3 1-10 0-9-3-15t-11-6H570q-16 0-21 16l-44 130q-3 6-5 8t-10 3H263q-11 0-14-11L202 14q-5-14-22-14H45q-8 0-12 5zm408 309q10 0 10 10 0 6-1 9l-72 201q-1 6-6 6-4 0-6-6l-73-201q-2-4-2-10 0-9 12-9h138zm-91 531q0-23-26-23H220q-11 0-15 5t-5 16v97q0 19 15 19h124q15 0 15-17v-97zm223 0q0-12-6-17t-21-6H443q-12 0-16 5t-5 16v97q0 19 15 19h125q15 0 15-17v-97z"/><glyph unicode="Å" glyph-name="Aring" horiz-adv-x="785" d="M757 28v-7q0-9-3-15t-11-6H570q-16 0-21 16l-44 130q-3 6-5 8t-10 3H263q-11 0-14-11L202 14q-5-14-22-14H45q-8 0-12 5t-5 14q0 7 3 14l246 688q4 12 10 16t18 5h34q-30 14-48 42t-18 64q0 46 34 78t81 33q47 0 80-33t34-80q0-35-17-62t-48-42h42q24 0 34-25L756 31q1-3 1-10zM366 894l-15-14-15-35q0-20 15-35t36-15q20 0 34 15t15 35q0 21-14 35t-35 14q-21 0-36-14zm89-585v10q0 6-1 9l-72 201q-1 6-6 6-4 0-6-6l-73-201q-2-4-2-10 0-9 12-9h138q10 0 10 10z"/><glyph unicode="Æ" glyph-name="AE" horiz-adv-x="1105" d="M1059 147l5-4 5-13V20q0-20-22-20H531q-13 0-19 5t-6 18v121q0 13-12 13H286q-11 0-16-11L201 14q-7-14-24-14H43Q28 0 28 15q0 8 6 18l362 688q6 12 12 16t19 5h616q16 0 16-19l-1-104q0-24-23-24H730q-22 0-22-18V464q0-9 5-14t12-5h192q20 0 20-18V316q0-6-4-10t-13-5H724q-7 0-11-4t-5-10V160q0-7 2-10t10-3h329q10 0 15-4zM506 309v246q0 10-3 15t-10 6q-13 0-23-20L350 328q-4-7-4-12 0-7 10-7h133q17 0 17 19z"/><glyph unicode="Ç" glyph-name="Ccedilla" horiz-adv-x="731" d="M694 242l3-4 4-14q0-6-1-10-8-37-40-85t-93-89T420-8l-15-38-1-4q0-4 7-4 52-1 76-25t25-57q0-39-37-62t-91-24q-73 0-120 24-9 7-5 15l16 38q3 8 11 5 42-23 76-23 23 0 36 8t13 21q0 20-20 30t-69 11q-8 0-10 2t0 9l32 74q-93 9-162 60T75 188 37 379q0 113 42 197t121 130 184 46q79 0 145-29t108-80 54-116l2-17q0-8-3-10t-11-4l-156-11q-9 0-11 3t-6 15q-23 110-117 110-141 0-141-237 0-126 35-182t106-57q56 0 95 28t66 94q3 8 15 8 6 0 10-1l113-22q6-2 9-6z"/><glyph unicode="È" glyph-name="Egrave" horiz-adv-x="663" d="M61 742h540q16 0 16-19V619q0-11-6-17t-18-7H284q-21 0-21-18V464q0-9 4-14t12-5h195q19 0 19-18V316q0-15-16-15H278q-15 0-15-14V160q0-7 2-10t9-3h333q10 0 15-4t5-13V20q0-20-21-20H85Q72 0 67 5t-6 18v698q0 21 17 21zm158 218l5 3h11l237-100q10-5 10-14l-2-8-14-39q-6-14-16-14-3 0-11 2l-232 59q-19 4-19 19 0 6 2 10l26 74q3 8 8 11z"/><glyph unicode="É" glyph-name="Eacute" horiz-adv-x="663" d="M61 742h540q16 0 16-19V619q0-11-6-17t-18-7H284q-21 0-21-18V464q0-9 4-14t12-5h195q19 0 19-18V316q0-15-16-15H278q-15 0-15-14V160q0-7 2-10t9-3h333q10 0 15-4t5-13V20q0-20-21-20H85Q72 0 67 5t-6 18v698q0 21 17 21zm421 136q2-8 2-10 0-15-20-19l-232-59q-8-2-10-2-11 0-17 14l-13 39q-2 3-2 9 0 9 9 13l237 100q2 1 6 1t8-3 5-9l27-74z"/><glyph unicode="Ê" glyph-name="Ecircumflex" horiz-adv-x="663" d="M61 742h540q16 0 16-19V619q0-11-6-17t-18-7H284q-21 0-21-18V464q0-9 4-14t12-5h195q19 0 19-18V316q0-15-16-15H278q-15 0-15-14V160q0-7 2-10t9-3h333q10 0 15-4t5-13V20q0-20-21-20H85Q72 0 67 5t-6 18v698q0 21 17 21zm291 134q-5 6-9 10t-7 4q-5 0-16-14l-49-54q-5-6-9-7t-15-1h-91q-9 0-9 5 0 3 7 12l110 118q6 8 13 11t21 3h85q16 0 26-12l109-120q8-10 8-13 0-4-9-4h-97q-10 0-15 1t-10 7l-43 54z"/><glyph unicode="Ë" glyph-name="Edieresis" horiz-adv-x="663" d="M61 742h540q16 0 16-19V619q0-11-6-17t-18-7H284q-21 0-21-18V464q0-9 4-14t12-5h195q19 0 19-18V316q0-15-16-15H278q-15 0-15-14V160q0-7 2-10t9-3h333q10 0 15-4t5-13V20q0-20-21-20H85Q72 0 67 5t-6 18v698q0 21 17 21zm241 98q0-23-26-23H168q-11 0-15 5t-5 16v97q0 19 15 19h124q15 0 15-17v-97zm223 0q0-12-6-17t-21-6H391q-12 0-16 5t-5 16v97q0 19 15 19h125q15 0 15-17v-97z"/><glyph unicode="Ì" glyph-name="Igrave" horiz-adv-x="323" d="M246 742q17 0 17-19V27q0-15-7-21t-23-6H85Q71 0 66 5t-5 18v698q0 10 4 15t13 6h168zM44 960l5 3h11l237-100q10-5 10-14l-2-8-14-39q-6-14-16-14-3 0-11 2L32 849q-19 4-19 19 0 6 2 10l26 74q3 8 8 11z"/><glyph unicode="Í" glyph-name="Iacute" horiz-adv-x="323" d="M246 742q17 0 17-19V27q0-15-7-21t-23-6H85Q71 0 66 5t-5 18v698q0 10 4 15t13 6h168zm61 136q2-8 2-10 0-15-20-19L57 790q-8-2-10-2-11 0-17 14l-13 39q-2 3-2 9 0 9 9 13l237 100q2 1 6 1t8-3 5-9l27-74z"/><glyph unicode="Î" glyph-name="Icircumflex" horiz-adv-x="323" d="M246 742q17 0 17-19V27q0-15-7-21t-23-6H85Q71 0 66 5t-5 18v698q0 10 4 15t13 6h168zm-69 134q-5 6-9 10t-7 4q-5 0-16-14l-49-54q-5-6-9-7t-15-1h-91q-9 0-9 5 0 3 7 12L89 949q6 8 13 11t21 3h85q16 0 26-12l109-120q8-10 8-13 0-4-9-4h-97q-10 0-15 1t-10 7l-43 54z"/><glyph unicode="Ï" glyph-name="Idieresis" horiz-adv-x="323" d="M246 742q17 0 17-19V27q0-15-7-21t-23-6H85Q71 0 66 5t-5 18v698q0 10 4 15t13 6h168zm-119 98q0-23-26-23H-7q-11 0-15 5t-5 16v97q0 19 15 19h124q15 0 15-17v-97zm223 0q0-12-6-17t-21-6H216q-12 0-16 5t-5 16v97q0 19 15 19h125q15 0 15-17v-97z"/><glyph unicode="Ð" glyph-name="Eth" horiz-adv-x="779" d="M544 734l98-96 99-265q0-112-44-196T563 47 345 0H104Q90 0 84 6t-6 21v274H49q-13 0-18 5t-5 18v84q0 21 17 21h35v290q0 13 5 18t19 5h107q109 0 138-1 197-7 295-103zM418 141l55 54 56 180q0 112-44 164t-135 59l-61 3q-9 0-9-14V429h123q7 0 12-5t5-14v-83q0-26-31-26H280V155q0-8 2-11t11-3h13q112 0 167 54z"/><glyph unicode="Ñ" glyph-name="Ntilde" horiz-adv-x="760" d="M685 742q15 0 15-16V17q0-8-6-12t-15-5H558q-8 0-13 2t-13 12L236 422q-4 6-7 6t-3-7V17q0-9-5-13t-17-4H83Q61 0 61 19v702q0 11 4 16t16 5h143q12 0 17-3t14-13l266-375q6-8 11-8t5 12v368q0 19 20 19h128zM542 846l-25-8-54-8q-19 0-40 4t-40 11q-45 15-75 15-20 0-35-5t-34-19q-7-5-11-5-7 0-10 12l-16 49q-2 8-2 10 0 8 9 18 23 19 43 29t51 10q34 0 90-18 47-15 70-15 34 0 73 26 5 4 11 4 8 0 11-12l14-59 1-6q0-11-14-21-17-12-42-20z"/><glyph unicode="Ò" glyph-name="Ograve" horiz-adv-x="777" d="M282-10l-79 46L80 167 37 369q0 116 43 202t123 134 186 47q105 0 184-47t123-133 44-203q0-115-43-200T575 37 389-10q-107 0-186 46zm181 140l32 55 33 181q0 130-33 188t-106 59q-73 0-106-58t-34-189q0-126 33-181t108-55q73 0 105 55zM271 960l5 3h11l237-100q10-5 10-14l-2-8-14-39q-6-14-16-14-3 0-11 2l-232 59q-19 4-19 19 0 6 2 10l26 74q3 8 8 11z"/><glyph unicode="Ó" glyph-name="Oacute" horiz-adv-x="777" d="M282-10l-79 46L80 167 37 369q0 116 43 202t123 134 186 47q105 0 184-47t123-133 44-203q0-115-43-200T575 37 389-10q-107 0-186 46zm181 140l32 55 33 181q0 130-33 188t-106 59q-73 0-106-58t-34-189q0-126 33-181t108-55q73 0 105 55zm71 748q2-8 2-10 0-15-20-19l-232-59q-8-2-10-2-11 0-17 14l-13 39q-2 3-2 9 0 9 9 13l237 100q2 1 6 1t8-3 5-9l27-74z"/><glyph unicode="Ô" glyph-name="Ocircumflex" horiz-adv-x="777" d="M282-10l-79 46L80 167 37 369q0 116 43 202t123 134 186 47q105 0 184-47t123-133 44-203q0-115-43-200T575 37 389-10q-107 0-186 46zm181 140l32 55 33 181q0 130-33 188t-106 59q-73 0-106-58t-34-189q0-126 33-181t108-55q73 0 105 55zm-59 746q-5 6-9 10t-7 4q-5 0-16-14l-49-54q-5-6-9-7t-15-1h-91q-9 0-9 5 0 3 7 12l110 118q6 8 13 11t21 3h85q16 0 26-12l109-120q8-10 8-13 0-4-9-4h-97q-10 0-15 1t-10 7l-43 54z"/><glyph unicode="Õ" glyph-name="Otilde" horiz-adv-x="777" d="M282-10l-79 46L80 167 37 369q0 116 43 202t123 134 186 47q105 0 184-47t123-133 44-203q0-115-43-200T575 37 389-10q-107 0-186 46zm181 140l32 55 33 181q0 130-33 188t-106 59q-73 0-106-58t-34-189q0-126 33-181t108-55q73 0 105 55zm85 716l-25-8-54-8q-19 0-40 4t-40 11q-45 15-75 15-20 0-35-5t-34-19q-7-5-11-5-7 0-10 12l-16 49q-2 8-2 10 0 8 9 18 23 19 43 29t51 10q34 0 90-18 47-15 70-15 34 0 73 26 5 4 11 4 8 0 11-12l14-59 1-6q0-11-14-21-17-12-42-20z"/><glyph unicode="Ö" glyph-name="Odieresis" horiz-adv-x="777" d="M282-10l-79 46L80 167 37 369q0 116 43 202t123 134 186 47q105 0 184-47t123-133 44-203q0-115-43-200T575 37 389-10q-107 0-186 46zm181 140l32 55 33 181q0 130-33 188t-106 59q-73 0-106-58t-34-189q0-126 33-181t108-55q73 0 105 55zM354 840q0-23-26-23H220q-11 0-15 5t-5 16v97q0 19 15 19h124q15 0 15-17v-97zm223 0q0-12-6-17t-21-6H443q-12 0-16 5t-5 16v97q0 19 15 19h125q15 0 15-17v-97z"/><glyph unicode="×" glyph-name="multiply" horiz-adv-x="589" d="M530 228q5-5 5-12 0-6-6-12l-60-59q-9-9-17-9-10 0-21 12L295 284 150 139q-4-6-11-6t-13 6l-59 60q-9 9-9 17 0 10 12 22l135 135L64 514q-9 9-9 16t9 16l59 59q8 8 16 8 6 0 11-5l145-145 141 141q9 9 17 9 7 0 15-8l60-60q7-7 7-15 0-7-5-12L385 373l145-145z"/><glyph unicode="Ø" glyph-name="Oslash" horiz-adv-x="775" d="M769 686v-7q0-6-6-12l-77-77q53-94 53-221 0-115-43-200T574 37 389-10q-137 0-229 75L101 6Q90-5 81-5 71-5 61 5L25 42Q14 55 14 62q0 5 7 14l70 70q-54 93-54 223 0 116 43 202t123 134 186 47q136 0 229-80l67 66q9 9 18 9 6 0 10-4l50-51q6-6 6-13zM249 333l6-27 240 245q-32 62-106 62t-107-58-33-189q0-33 6-60zm277 73l-5 22-239-243q32-55 107-55 74 0 105 54t32 182q0 40-5 62z"/><glyph unicode="Ù" glyph-name="Ugrave" horiz-adv-x="724" d="M672 126l-80-68-230-68q-167 0-238 77T52 304v417q0 21 18 21h167q17 0 17-19V280q0-77 31-112t92-35q128 0 128 150v438q0 21 18 21h133q16 0 16-19V284q0-158-80-226zM259 960l5 3h11l237-100q10-5 10-14l-2-8-14-39q-6-14-16-14-3 0-11 2l-232 59q-19 4-19 19 0 6 2 10l26 74q3 8 8 11z"/><glyph unicode="Ú" glyph-name="Uacute" horiz-adv-x="724" d="M672 126l-80-68-230-68q-167 0-238 77T52 304v417q0 21 18 21h167q17 0 17-19V280q0-77 31-112t92-35q128 0 128 150v438q0 21 18 21h133q16 0 16-19V284q0-158-80-226zM522 878q2-8 2-10 0-15-20-19l-232-59q-8-2-10-2-11 0-17 14l-13 39q-2 3-2 9 0 9 9 13l237 100q2 1 6 1t8-3 5-9l27-74z"/><glyph unicode="Û" glyph-name="Ucircumflex" horiz-adv-x="724" d="M672 126l-80-68-230-68q-167 0-238 77T52 304v417q0 21 18 21h167q17 0 17-19V280q0-77 31-112t92-35q128 0 128 150v438q0 21 18 21h133q16 0 16-19V284q0-158-80-226zM392 876q-5 6-9 10t-7 4q-5 0-16-14l-49-54q-5-6-9-7t-15-1h-91q-9 0-9 5 0 3 7 12l110 118q6 8 13 11t21 3h85q16 0 26-12l109-120q8-10 8-13 0-4-9-4h-97q-10 0-15 1t-10 7l-43 54z"/><glyph unicode="Ü" glyph-name="Udieresis" horiz-adv-x="724" d="M672 126l-80-68-230-68q-167 0-238 77T52 304v417q0 21 18 21h167q17 0 17-19V280q0-77 31-112t92-35q128 0 128 150v438q0 21 18 21h133q16 0 16-19V284q0-158-80-226zM342 840q0-23-26-23H208q-11 0-15 5t-5 16v97q0 19 15 19h124q15 0 15-17v-97zm223 0q0-12-6-17t-21-6H431q-12 0-16 5t-5 16v97q0 19 15 19h125q15 0 15-17v-97z"/><glyph unicode="Ý" glyph-name="Yacute" horiz-adv-x="755" d="M729 742v-11q0-5-4-10L490 339q-6-10-7-20t-2-40V27q0-15-7-21t-23-6H303q-13 0-18 5t-6 18v266q0 13-3 21t-10 20L31 716q-4 7-4 12 0 14 21 14h176q13 0 19-3t13-16l135-241q5-10 9-10 3 0 9 9l133 242q5 11 11 15t20 4h139q17 0 17-11zM536 878q2-8 2-10 0-15-20-19l-232-59q-8-2-10-2-11 0-17 14l-13 39q-2 3-2 9 0 9 9 13l237 100q2 1 6 1t8-3 5-9l27-74z"/><glyph unicode="Þ" glyph-name="Thorn" horiz-adv-x="734" d="M702 303l-34-51-96-77-143-27H274q-11 0-11-11V26q0-14-7-20t-23-6H84Q71 0 66 5t-5 18v698q0 10 4 15t13 6h168q17 0 17-19V615q0-11 9-11h133q84 0 151-26t106-77 40-127q0-71-34-122zM495 416l-28 22-74 23H284q-12 0-16-4t-5-16V311q0-11 3-15t12-5h121q44 0 70 23t26 63q0 39-28 61z"/><glyph unicode="ß" glyph-name="germandbls" horiz-adv-x="663" d="M449 742l58-41 59-116q0-53-32-87t-107-66q-9-4-12-7t-4-10q0-5 3-8t14-7q72-31 113-55t70-66 29-103q0-90-60-138T415-10q-74 0-123 27-6 4-7 9t0 11l38 80q5 8 11 8 4 0 8-3 17-10 32-15t36-6q31 0 51 14t20 43q0 25-18 39t-69 34q-51 23-80 56t-30 85q0 37 15 63t44 51l15 14q24 22 35 37t12 37q0 24-18 39t-52 16q-43 0-66-26t-24-68V20q1-3 1-7 0-13-15-13H87Q71 0 71 18v351q0 10-8 10H32q-20 0-20 18v84q0 20 21 20h25q8 0 10 4t3 12q3 97 67 161t204 64q107 0 165-41z"/><glyph unicode="à" glyph-name="agrave" horiz-adv-x="568" d="M269-10h-85q-74 0-118 41T22 136q0 57 36 100t103 68 160 25l20 1q16 0 16 14v19q0 33-18 51t-54 18q-28 0-51-12t-39-41q-3-6-6-8t-9-3q-6 0-10 1L54 393q-10 2-10 12 0 6 4 17 46 118 245 118 125 0 179-43t54-123V25q0-15-4-20t-17-5H384q-11 0-16 8t-8 23l-1 15q-1 9-7 9t-17-9q-66-56-151-56zm88 249l-3 4-12 4-16-1q-27-1-57-10t-52-29-22-47q0-26 18-41t50-15q37 0 66 23 28 24 28 44v59q0 9-3 13zM175 748l5 3h11l237-100q10-5 10-14l-2-8-14-39q-6-14-16-14-3 0-11 2l-232 59q-19 4-19 19 0 6 2 10l26 74q3 8 8 11z"/><glyph unicode="á" glyph-name="aacute" horiz-adv-x="568" d="M269-10h-85q-74 0-118 41T22 136q0 57 36 100t103 68 160 25l20 1q16 0 16 14v19q0 33-18 51t-54 18q-28 0-51-12t-39-41q-3-6-6-8t-9-3q-6 0-10 1L54 393q-10 2-10 12 0 6 4 17 46 118 245 118 125 0 179-43t54-123V25q0-15-4-20t-17-5H384q-11 0-16 8t-8 23l-1 15q-1 9-7 9t-17-9q-66-56-151-56zm88 249l-3 4-12 4-16-1q-27-1-57-10t-52-29-22-47q0-26 18-41t50-15q37 0 66 23 28 24 28 44v59q0 9-3 13zm81 427q2-8 2-10 0-15-20-19l-232-59q-8-2-10-2-11 0-17 14l-13 39q-2 3-2 9 0 9 9 13l237 100q2 1 6 1t8-3 5-9l27-74z"/><glyph unicode="â" glyph-name="acircumflex" horiz-adv-x="568" d="M269-10h-85q-74 0-118 41T22 136q0 57 36 100t103 68 160 25l20 1q16 0 16 14v19q0 33-18 51t-54 18q-28 0-51-12t-39-41q-3-6-6-8t-9-3q-6 0-10 1L54 393q-10 2-10 12 0 6 4 17 46 118 245 118 125 0 179-43t54-123V25q0-15-4-20t-17-5H384q-11 0-16 8t-8 23l-1 15q-1 9-7 9t-17-9q-66-56-151-56zm88 249l-3 4-12 4-16-1q-27-1-57-10t-52-29-22-47q0-26 18-41t50-15q37 0 66 23 28 24 28 44v59q0 9-3 13zm-49 425q-5 6-9 10t-7 4q-5 0-16-14l-49-54q-5-6-9-7t-15-1h-91q-9 0-9 5 0 3 7 12l110 118q6 8 13 11t21 3h85q16 0 26-12l109-120q8-10 8-13 0-4-9-4h-97q-10 0-15 1t-10 7l-43 54z"/><glyph unicode="ã" glyph-name="atilde" horiz-adv-x="568" d="M269-10h-85q-74 0-118 41T22 136q0 57 36 100t103 68 160 25l20 1q16 0 16 14v19q0 33-18 51t-54 18q-28 0-51-12t-39-41q-3-6-6-8t-9-3q-6 0-10 1L54 393q-10 2-10 12 0 6 4 17 46 118 245 118 125 0 179-43t54-123V25q0-15-4-20t-17-5H384q-11 0-16 8t-8 23l-1 15q-1 9-7 9t-17-9q-66-56-151-56zm88 249l-3 4-12 4-16-1q-27-1-57-10t-52-29-22-47q0-26 18-41t50-15q37 0 66 23 28 24 28 44v59q0 9-3 13zm95 395l-25-8-54-8q-19 0-40 4t-40 11q-45 15-75 15-20 0-35-5t-34-19q-7-5-11-5-7 0-10 12l-16 49q-2 8-2 10 0 8 9 18 23 19 43 29t51 10q34 0 90-18 47-15 70-15 34 0 73 26 5 4 11 4 8 0 11-12l14-59 1-6q0-11-14-21-17-12-42-20z"/><glyph unicode="ä" glyph-name="adieresis" horiz-adv-x="568" d="M269-10h-85q-74 0-118 41T22 136q0 57 36 100t103 68 160 25l20 1q16 0 16 14v19q0 33-18 51t-54 18q-28 0-51-12t-39-41q-3-6-6-8t-9-3q-6 0-10 1L54 393q-10 2-10 12 0 6 4 17 46 118 245 118 125 0 179-43t54-123V25q0-15-4-20t-17-5H384q-11 0-16 8t-8 23l-1 15q-1 9-7 9t-17-9q-66-56-151-56zm88 249l-3 4-12 4-16-1q-27-1-57-10t-52-29-22-47q0-26 18-41t50-15q37 0 66 23 28 24 28 44v59q0 9-3 13zm-99 389q0-23-26-23H124q-11 0-15 5t-5 16v97q0 19 15 19h124q15 0 15-17v-97zm223 0q0-12-6-17t-21-6H347q-12 0-16 5t-5 16v97q0 19 15 19h125q15 0 15-17v-97z"/><glyph unicode="å" glyph-name="aring" horiz-adv-x="568" d="M269-10h-85q-74 0-118 41T22 136q0 57 36 100t103 68 160 25l20 1q16 0 16 14v19q0 33-18 51t-54 18q-28 0-51-12t-39-41q-3-6-6-8t-9-3q-6 0-10 1L54 393q-10 2-10 12 0 6 4 17 46 118 245 118 125 0 179-43t54-123V25q0-15-4-20t-17-5H384q-11 0-16 8t-8 23l-1 15q-1 9-7 9t-17-9q-66-56-151-56zm88 249l-3 4-12 4-16-1q-27-1-57-10t-52-29-22-47q0-26 18-41t50-15q37 0 66 23 28 24 28 44v59q0 9-3 13zm50 404l-33-33-81-34q-48 0-81 34t-34 83q0 46 34 78t81 33q47 0 80-33t34-80q0-48-33-81zm-66 68l-14 14-35 14q-21 0-36-14t-15-35q0-20 15-35t36-15q20 0 34 15t15 35q0 21-14 35z"/><glyph unicode="æ" glyph-name="ae" horiz-adv-x="917" d="M538 232v-18q0-48 33-76t83-29q32 0 59 14t60 47q4 4 8 4 6 0 11-2l82-34q8-3 8-11 0-6-5-11-48-70-104-98T631-10q-64 0-117 23t-91 63q-4 6-10 0-44-44-95-65T194-10q-82 0-127 41T22 142q0 81 71 130t210 56l36 2q18 0 18 14v19q0 33-18 51t-54 18q-28 0-51-12t-39-41q-3-6-6-8t-8-3q-6 0-11 1L54 393q-4 1-6 6t-2 11q0 9 2 12 31 61 85 89t157 29q131-1 184-51 66 51 154 51 77 0 137-33t95-98 34-152q0-14-3-19t-15-6H554q-16 0-16-18zm57 202l-27-28-27-79 163-1q10 0 13 3t4 12q0 20-10 41t-29 37-47 15q-40 0-67-28zM357 240h-18l-25-2q-45-3-82-25t-37-59q0-27 18-42t52-15q38 1 65 19t27 46v61q0 17-18 17z"/><glyph unicode="ç" glyph-name="ccedilla" horiz-adv-x="553" d="M533 170v-9q0-3-2-11-8-30-31-63t-66-61T334-8l-15-38-1-4q0-4 7-4 52-1 76-25t25-57q0-39-37-62t-91-24q-73 0-120 24-9 7-5 15l16 38q3 8 11 5 42-23 76-23 23 0 36 8t13 21q0 20-20 30t-69 11q-8 0-10 2t0 9l32 74q-68 8-120 44t-82 95-30 132q0 81 35 144t98 98 139 35q64 0 112-23t79-61 41-77q2-8 2-10 0-12-18-14l-121-8h-5q-8 0-11 12-11 32-26 49t-48 18q-46 0-71-40t-26-121q0-163 106-163 39 0 61 20t47 62q2 4 6 5t13 0l84-18q10-1 10-10z"/><glyph unicode="è" glyph-name="egrave" horiz-adv-x="588" d="M209 166l33-28 84-29q31 0 58 14t60 47q4 4 9 4t10-2l82-34q9-4 9-11 0-4-5-11-50-72-106-99T302-10q-78 0-141 34t-99 94-36 139q0 83 37 147t99 100 137 36q78 0 138-33t94-98 34-152q0-14-2-19t-15-6H223q-14 0-14-16 0-50 33-78zm166 160q10 0 13 2t4 12q0 34-22 64t-63 30q-42 0-69-29t-26-78l163-1zM182 748l5 3h11l237-100q10-5 10-14l-2-8-14-39q-6-14-16-14-3 0-11 2l-232 59q-19 4-19 19 0 6 2 10l26 74q3 8 8 11z"/><glyph unicode="é" glyph-name="eacute" horiz-adv-x="588" d="M209 166l33-28 84-29q31 0 58 14t60 47q4 4 9 4t10-2l82-34q9-4 9-11 0-4-5-11-50-72-106-99T302-10q-78 0-141 34t-99 94-36 139q0 83 37 147t99 100 137 36q78 0 138-33t94-98 34-152q0-14-2-19t-15-6H223q-14 0-14-16 0-50 33-78zm166 160q10 0 13 2t4 12q0 34-22 64t-63 30q-42 0-69-29t-26-78l163-1zm70 340q2-8 2-10 0-15-20-19l-232-59q-8-2-10-2-11 0-17 14l-13 39q-2 3-2 9 0 9 9 13l237 100q2 1 6 1t8-3 5-9l27-74z"/><glyph unicode="ê" glyph-name="ecircumflex" horiz-adv-x="588" d="M209 166l33-28 84-29q31 0 58 14t60 47q4 4 9 4t10-2l82-34q9-4 9-11 0-4-5-11-50-72-106-99T302-10q-78 0-141 34t-99 94-36 139q0 83 37 147t99 100 137 36q78 0 138-33t94-98 34-152q0-14-2-19t-15-6H223q-14 0-14-16 0-50 33-78zm166 160q10 0 13 2t4 12q0 34-22 64t-63 30q-42 0-69-29t-26-78l163-1zm-60 338q-5 6-9 10t-7 4q-5 0-16-14l-49-54q-5-6-9-7t-15-1h-91q-9 0-9 5 0 3 7 12l110 118q6 8 13 11t21 3h85q16 0 26-12l109-120q8-10 8-13 0-4-9-4h-97q-10 0-15 1t-10 7l-43 54z"/><glyph unicode="ë" glyph-name="edieresis" horiz-adv-x="588" d="M209 166l33-28 84-29q31 0 58 14t60 47q4 4 9 4t10-2l82-34q9-4 9-11 0-4-5-11-50-72-106-99T302-10q-78 0-141 34t-99 94-36 139q0 83 37 147t99 100 137 36q78 0 138-33t94-98 34-152q0-14-2-19t-15-6H223q-14 0-14-16 0-50 33-78zm166 160q10 0 13 2t4 12q0 34-22 64t-63 30q-42 0-69-29t-26-78l163-1zM265 628q0-23-26-23H131q-11 0-15 5t-5 16v97q0 19 15 19h124q15 0 15-17v-97zm223 0q0-12-6-17t-21-6H354q-12 0-16 5t-5 16v97q0 19 15 19h125q15 0 15-17v-97z"/><glyph unicode="ì" glyph-name="igrave" horiz-adv-x="274" d="M226 27q0-15-7-21t-23-6H72Q58 0 53 5t-5 18v486q0 21 18 21h143q17 0 17-19V27zM22 748l5 3h11l237-100q10-5 10-14l-2-8-14-39q-6-14-16-14-3 0-11 2L10 637q-19 4-19 19 0 6 2 10l26 74q3 8 8 11z"/><glyph unicode="í" glyph-name="iacute" horiz-adv-x="274" d="M226 27q0-15-7-21t-23-6H72Q58 0 53 5t-5 18v486q0 21 18 21h143q17 0 17-19V27zm59 639q2-8 2-10 0-15-20-19L35 578q-8-2-10-2-11 0-17 14l-13 39q-2 3-2 9 0 9 9 13l237 100q2 1 6 1t8-3 5-9l27-74z"/><glyph unicode="î" glyph-name="icircumflex" horiz-adv-x="274" d="M226 27q0-15-7-21t-23-6H72Q58 0 53 5t-5 18v486q0 21 18 21h143q17 0 17-19V27zm-71 637q-5 6-9 10t-7 4q-5 0-16-14l-49-54q-5-6-9-7t-15-1h-91q-9 0-9 5 0 3 7 12L67 737q6 8 13 11t21 3h85q16 0 26-12l109-120q8-10 8-13 0-4-9-4h-97q-10 0-15 1t-10 7l-43 54z"/><glyph unicode="ï" glyph-name="idieresis" horiz-adv-x="274" d="M226 27q0-15-7-21t-23-6H72Q58 0 53 5t-5 18v486q0 21 18 21h143q17 0 17-19V27zM105 628q0-23-26-23H-29q-11 0-15 5t-5 16v97q0 19 15 19H90q15 0 15-17v-97zm223 0q0-12-6-17t-21-6H194q-12 0-16 5t-5 16v97q0 19 15 19h125q15 0 15-17v-97z"/><glyph unicode="ð" glyph-name="eth" horiz-adv-x="600" d="M574 191l-34-65-96-100-145-36q-80 0-142 34t-96 94-35 134q0 77 35 138t98 95 140 35q18 0 25-5-31 48-80 83l-106-60q-4-3-9-3-7 0-14 10l-14 23q-4 5-4 11t6 9l83 46q-41 21-87 37-5 2-5 7 0 3 4 7l74 61q6 6 11 6 2 0 10-2 67-17 120-45l79 44q5 3 8 3 6 0 9-5l20-36q2-2 2-5t-6-8l-52-29q97-67 149-169t52-222q0-87-34-152zm-180-85v150q0 74-24 113t-70 39q-46 0-70-39t-24-113q0-74 23-112t71-38q94 0 94 150z"/><glyph unicode="ñ" glyph-name="ntilde" horiz-adv-x="600" d="M59 0l-5 5-6 18v486q0 21 17 21h142q17 0 17-18v-48q0-8 5-8 3 0 7 4 78 80 164 80 71 0 114-43t44-117V27q0-27-28-27H401q-12 0-16 5t-5 18v332q0 27-17 42t-46 16q-27 0-48-13t-43-43V26q0-14-7-20t-23-6H72Q59 0 54 5zm404 634l-25-8-54-8q-19 0-40 4t-40 11q-45 15-75 15-20 0-35-5t-34-19q-7-5-11-5-7 0-10 12l-16 49q-2 8-2 10 0 8 9 18 23 19 43 29t51 10q34 0 90-18 47-15 70-15 34 0 73 26 5 4 11 4 8 0 11-12l14-59 1-6q0-11-14-21-17-12-42-20z"/><glyph unicode="ò" glyph-name="ograve" horiz-adv-x="600" d="M219-10l-62 34-96 97-35 141q0 81 35 144t98 99 141 35q81 0 143-35t96-99 35-144q0-78-35-140t-97-97-143-35q-80 0-142 34zm129 116l23 39 23 121q0 82-23 122t-71 40q-47 0-70-40t-24-122q0-81 23-120t71-40q48 0 71 39zM182 748l5 3h11l237-100q10-5 10-14l-2-8-14-39q-6-14-16-14-3 0-11 2l-232 59q-19 4-19 19 0 6 2 10l26 74q3 8 8 11z"/><glyph unicode="ó" glyph-name="oacute" horiz-adv-x="600" d="M219-10l-62 34-96 97-35 141q0 81 35 144t98 99 141 35q81 0 143-35t96-99 35-144q0-78-35-140t-97-97-143-35q-80 0-142 34zm129 116l23 39 23 121q0 82-23 122t-71 40q-47 0-70-40t-24-122q0-81 23-120t71-40q48 0 71 39zm97 560q2-8 2-10 0-15-20-19l-232-59q-8-2-10-2-11 0-17 14l-13 39q-2 3-2 9 0 9 9 13l237 100q2 1 6 1t8-3 5-9l27-74z"/><glyph unicode="ô" glyph-name="ocircumflex" horiz-adv-x="600" d="M219-10l-62 34-96 97-35 141q0 81 35 144t98 99 141 35q81 0 143-35t96-99 35-144q0-78-35-140t-97-97-143-35q-80 0-142 34zm129 116l23 39 23 121q0 82-23 122t-71 40q-47 0-70-40t-24-122q0-81 23-120t71-40q48 0 71 39zm-33 558q-5 6-9 10t-7 4q-5 0-16-14l-49-54q-5-6-9-7t-15-1h-91q-9 0-9 5 0 3 7 12l110 118q6 8 13 11t21 3h85q16 0 26-12l109-120q8-10 8-13 0-4-9-4h-97q-10 0-15 1t-10 7l-43 54z"/><glyph unicode="õ" glyph-name="otilde" horiz-adv-x="600" d="M219-10l-62 34-96 97-35 141q0 81 35 144t98 99 141 35q81 0 143-35t96-99 35-144q0-78-35-140t-97-97-143-35q-80 0-142 34zm129 116l23 39 23 121q0 82-23 122t-71 40q-47 0-70-40t-24-122q0-81 23-120t71-40q48 0 71 39zm111 528l-25-8-54-8q-19 0-40 4t-40 11q-45 15-75 15-20 0-35-5t-34-19q-7-5-11-5-7 0-10 12l-16 49q-2 8-2 10 0 8 9 18 23 19 43 29t51 10q34 0 90-18 47-15 70-15 34 0 73 26 5 4 11 4 8 0 11-12l14-59 1-6q0-11-14-21-17-12-42-20z"/><glyph unicode="ö" glyph-name="odieresis" horiz-adv-x="600" d="M219-10l-62 34-96 97-35 141q0 81 35 144t98 99 141 35q81 0 143-35t96-99 35-144q0-78-35-140t-97-97-143-35q-80 0-142 34zm129 116l23 39 23 121q0 82-23 122t-71 40q-47 0-70-40t-24-122q0-81 23-120t71-40q48 0 71 39zm-83 522q0-23-26-23H131q-11 0-15 5t-5 16v97q0 19 15 19h124q15 0 15-17v-97zm223 0q0-12-6-17t-21-6H354q-12 0-16 5t-5 16v97q0 19 15 19h125q15 0 15-17v-97z"/><glyph unicode="÷" glyph-name="divide" horiz-adv-x="594" d="M385 526q0-13-6-18t-21-6H232q-12 0-17 5t-5 17v128q0 18 16 18h145q14 0 14-16V526zm164-191q0-13-7-19t-22-6H68q-13 0-18 5t-6 17v84q0 21 17 21h472q7 0 11-5t5-13v-84zM385 100q0-13-6-18t-21-5H232q-12 0-17 4t-5 16v129q0 18 16 18h145q14 0 14-16V100z"/><glyph unicode="ø" glyph-name="oslash" horiz-adv-x="600" d="M580 486v-7q0-6-6-12l-46-43q46-69 46-162 0-78-35-140t-97-97-143-35q-102 0-174 56L88 11Q77 0 68 0 58 0 49 11L31 30Q20 43 20 50q0 6 8 14l43 40q-45 68-45 158 0 81 35 144t98 99 141 35q101 0 174-57l40 38q9 9 18 9 6 0 11-5l31-33q6-6 6-13zM206 243l1-11 164 155q-22 41-71 41-47 0-70-40t-24-122q0-23 1-34zm188 44l-1 10-163-153q23-38 70-38 48 0 71 39t23 121q0 21-1 31z"/><glyph unicode="ù" glyph-name="ugrave" horiz-adv-x="597" d="M305 116l23 13 43 37v338q0 14 7 20t23 6h126q13 0 18-5t6-19l-4-486q0-20-17-20H391q-17 0-17 18v47q0 6-3 7t-8-3q-38-41-79-60t-90-19q-68 0-110 44T42 154v349q0 27 28 27h129q12 0 16-5t5-19V176q0-28 16-44t44-16q25 0 48 13zM177 748l5 3h11l237-100q10-5 10-14l-2-8-14-39q-6-14-16-14-3 0-11 2l-232 59q-19 4-19 19 0 6 2 10l26 74q3 8 8 11z"/><glyph unicode="ú" glyph-name="uacute" horiz-adv-x="597" d="M305 116l23 13 43 37v338q0 14 7 20t23 6h126q13 0 18-5t6-19l-4-486q0-20-17-20H391q-17 0-17 18v47q0 6-3 7t-8-3q-38-41-79-60t-90-19q-68 0-110 44T42 154v349q0 27 28 27h129q12 0 16-5t5-19V176q0-28 16-44t44-16q25 0 48 13zm135 550q2-8 2-10 0-15-20-19l-232-59q-8-2-10-2-11 0-17 14l-13 39q-2 3-2 9 0 9 9 13l237 100q2 1 6 1t8-3 5-9l27-74z"/><glyph unicode="û" glyph-name="ucircumflex" horiz-adv-x="597" d="M305 116l23 13 43 37v338q0 14 7 20t23 6h126q13 0 18-5t6-19l-4-486q0-20-17-20H391q-17 0-17 18v47q0 6-3 7t-8-3q-38-41-79-60t-90-19q-68 0-110 44T42 154v349q0 27 28 27h129q12 0 16-5t5-19V176q0-28 16-44t44-16q25 0 48 13zm5 548q-5 6-9 10t-7 4q-5 0-16-14l-49-54q-5-6-9-7t-15-1h-91q-9 0-9 5 0 3 7 12l110 118q6 8 13 11t21 3h85q16 0 26-12l109-120q8-10 8-13 0-4-9-4h-97q-10 0-15 1t-10 7l-43 54z"/><glyph unicode="ü" glyph-name="udieresis" horiz-adv-x="597" d="M305 116l23 13 43 37v338q0 14 7 20t23 6h126q13 0 18-5t6-19l-4-486q0-20-17-20H391q-17 0-17 18v47q0 6-3 7t-8-3q-38-41-79-60t-90-19q-68 0-110 44T42 154v349q0 27 28 27h129q12 0 16-5t5-19V176q0-28 16-44t44-16q25 0 48 13zm-45 512q0-23-26-23H126q-11 0-15 5t-5 16v97q0 19 15 19h124q15 0 15-17v-97zm223 0q0-12-6-17t-21-6H349q-12 0-16 5t-5 16v97q0 19 15 19h125q15 0 15-17v-97z"/><glyph unicode="ý" glyph-name="yacute" horiz-adv-x="578" d="M69-165l-11 3-12 17v90q0 18 28 18h69q30 0 50 18t21 39q0 4-2 12L18 503q-1 3-1 8 0 8 5 13t14 6h148q9 0 15-5t10-13l97-268q3-10 8-10t9 10l97 268q9 18 24 18h100q9 0 13-5t5-13l-2-8L360 16q-31-76-64-114t-77-53-116-14q-34 0-45 3zm392 831q2-8 2-10 0-15-20-19l-232-59q-8-2-10-2-11 0-17 14l-13 39q-2 3-2 9 0 9 9 13l237 100q2 1 6 1t8-3 5-9l27-74z"/><glyph unicode="þ" glyph-name="thorn" horiz-adv-x="610" d="M216 742l5-5 5-17V483q0-7 6-7 5 0 9 4 31 29 63 44t80 16q90 0 145-69t56-203q0-140-57-209T377-10q-38 0-70 12t-61 39q-12 10-15 10-5 0-5-15v-182q0-19-17-19H65q-17 0-17 20v863q0 13 5 18t20 6h130q13 0 18-5zm44-642h48q47 0 72 39t25 134q0 87-24 122t-72 35q-35 0-59-20t-24-47V145q34-45 82-45z"/><glyph unicode="ÿ" glyph-name="ydieresis" horiz-adv-x="578" d="M69-165l-11 3-12 17v90q0 18 28 18h69q30 0 50 18t21 39q0 4-2 12L18 503q-1 3-1 8 0 8 5 13t14 6h148q9 0 15-5t10-13l97-268q3-10 8-10t9 10l97 268q9 18 24 18h100q9 0 13-5t5-13l-2-8L360 16q-31-76-64-114t-77-53-116-14q-34 0-45 3zm212 793q0-23-26-23H147q-11 0-15 5t-5 16v97q0 19 15 19h124q15 0 15-17v-97zm223 0q0-12-6-17t-21-6H370q-12 0-16 5t-5 16v97q0 19 15 19h125q15 0 15-17v-97z"/><glyph unicode="–" glyph-name="endash" horiz-adv-x="594" d="M549 216q0-13-7-19t-22-6H68q-13 0-18 5t-6 17v83q0 21 17 21h472q7 0 11-5t5-13v-83z"/><glyph unicode="—" glyph-name="emdash" horiz-adv-x="919" d="M875 216q0-13-7-19t-23-6H68q-13 0-18 5t-6 17v83q0 21 17 21h797q8 0 12-5t5-13v-83z"/><glyph unicode="‘" glyph-name="quoteleft" horiz-adv-x="247" d="M196 742l3-6 2-14-43-100q-4-12-4-16 0-9 12-11l17-2q12-2 16-6t5-15V449q0-19-16-19H51q-15 0-15 16v118q0 4 3 13l96 147q6 9 16 13t21 5h16q8 0 11-6z"/><glyph unicode="’" glyph-name="quoteright" horiz-adv-x="247" d="M51 430l-3 6-2 14 43 100q4 12 4 16 0 10-12 11l-17 2q-12 2-16 6t-5 15v123q0 19 16 19h137q15 0 15-16V608q0-4-3-13l-96-147q-6-9-16-13t-21-5H59q-8 0-11 6z"/><glyph unicode="‚" glyph-name="quotesinglbase" horiz-adv-x="247" d="M51-149l-3 6-2 14L89-29q4 12 4 16 0 9-12 11L64 0Q52 2 48 6t-5 15v123q0 19 16 19h137q15 0 15-16V29q0-4-3-13l-96-147q-6-9-16-13t-21-5H59q-8 0-11 6z"/><glyph unicode="“" glyph-name="quotedblleft" horiz-adv-x="488" d="M36 430v134q0 7 4 13l95 146q6 9 16 14t21 5h16q8 0 11-6t2-14l-43-101q-3-9-3-15 0-9 12-12l16-1q12-2 17-6t5-15V449q0-19-17-19H51q-15 0-15 16zm241 0v134q0 4 3 13l96 146q6 9 16 14t21 5h16q8 0 11-6t2-14l-43-101q-4-12-4-15 0-9 12-12l17-1q12-1 16-5t5-16V449q0-19-16-19H292q-15 0-15 16z"/><glyph unicode="”" glyph-name="quotedblright" horiz-adv-x="492" d="M51 430l-3 6-2 14 43 100q4 12 4 16 0 10-12 11l-17 2q-12 2-16 6t-5 15v123q0 19 16 19h137q15 0 15-16V608q0-4-3-13l-96-147q-6-9-16-13t-21-5H59q-8 0-11 6zm241 0l-3 6-2 14 43 100q3 9 3 15 0 11-12 12l-16 2q-12 2-17 6t-5 15v123q0 19 17 19h137q15 0 15-16V608q0-7-4-13l-95-147q-6-9-16-13t-21-5h-16q-8 0-11 6z"/><glyph unicode="„" glyph-name="quotedblbase" horiz-adv-x="492" d="M292-149l-3 6-2 14 43 100q4 12 4 16 0 9-12 11l-17 2q-12 2-16 6t-5 15v123q0 19 16 19h137q15 0 15-16V29q0-4-3-13l-96-147q-6-9-16-13t-21-5h-16q-8 0-11 6zm-241 0l-3 6-2 14L89-29q4 12 4 16 0 9-12 11L64 0Q52 2 48 6t-5 15v123q0 19 16 19h137q15 0 15-16V29q0-4-3-13l-96-147q-6-9-16-13t-21-5H59q-8 0-11 6z"/><glyph unicode="•" glyph-name="bullet" horiz-adv-x="348" d="M133 234l-33 19-52 52-19 72q0 39 19 72t52 52 72 19q39 0 72-19t52-52 19-72q0-39-19-72t-52-52-72-19q-39 0-72 19z"/><glyph unicode="‹" glyph-name="guilsinglleft" horiz-adv-x="298" d="M247 74q1-1 1-4 0-8-16-8h-64q-12 0-15 10L54 237q-6 11-6 20t5 19l100 175q4 6 6 8t9 2h67q7 0 10-4t1-11l-65-177q-2-8-2-12t2-12l66-171z"/><glyph unicode="›" glyph-name="guilsinglright" horiz-adv-x="298" d="M119 249v8q0 8-2 12L52 446q-1 2-1 5 0 10 12 10h67q6 0 8-2t7-8l100-175q5-10 5-19t-6-20L145 72q-3-10-15-10H66q-19 0-15 12l66 171q2 4 2 12z"/></font>
</defs>
</svg>
