<svg xmlns="http://www.w3.org/2000/svg" viewBox="0 0 512 512"><rect x="70.72" y="70.58" width="372.64" height="372.64" rx="27.7" ry="27.7" transform="rotate(45 257.039 256.899)" fill="#64BFBD"/><path d="M352.38 242.44H161.7a13.1 13.1 0 110-26.2h190.68a13.1 13.1 0 110 26.2zm-21.83 56.43H185a13.1 13.1 0 010-26.2h145.55a13.1 13.1 0 110 26.2zm-23.29 56.43h-97.53a13.1 13.1 0 010-26.2h97.53a13.1 13.1 0 110 26.2zM284 411.73h-49.52a13.1 13.1 0 110-26.2H284a13.1 13.1 0 010 26.2zm-61.19-218.2a107 107 0 00-.67-19c-1.73-15-6.15-26.42-13.14-33.84a30.29 30.29 0 00-22.56-9.74 13.1 13.1 0 100 26.2 4.17 4.17 0 013.48 1.5c5.54 5.86 7.3 24.91 6.73 34.9zm72.89 0a109.18 109.18 0 01.67-19c1.73-15 6.15-26.42 13.14-33.84a30.29 30.29 0 0122.56-9.74 13.1 13.1 0 110 26.2 4.17 4.17 0 00-3.48 1.5c-5.54 5.86-7.29 24.91-6.73 34.9z" fill="#FFF"/></svg>