<svg xmlns="http://www.w3.org/2000/svg"><defs><font id="LibreFranklin" horiz-adv-x="616"><font-face font-family="Libre Franklin Black" panose-1="0 0 10 0 0 0 0 0 0 0" ascent="966" descent="-246" alphabetic="0"/><glyph glyph-name="space" horiz-adv-x="200"/><glyph unicode="!" glyph-name="exclam" horiz-adv-x="277" d="M202 294q-2-15-9-21t-24-7h-69q-14 0-19 5t-7 20L24 719v4q0 9 5 14t14 5h189q8 0 13-5t5-16l-48-427zm39-265q0-16-7-22t-26-7H58Q43 0 37 6t-6 19v150q0 11 5 16t14 6h173q18 0 18-20V29z"/><glyph unicode="&quot;" glyph-name="quotedbl" horiz-adv-x="509" d="M437 440q-2-16-9-22t-24-7h-42q-14 0-19 5t-8 20l-40 284v4q0 9 5 13t14 5h145q9 0 14-5t4-15l-40-282zm-256 0q-2-16-9-22t-24-7h-42q-14 0-19 5t-8 20L39 720v4q0 9 5 13t14 5h145q9 0 14-5t4-15l-40-282z"/><glyph unicode="#" glyph-name="numbersign" horiz-adv-x="603" d="M588 528l5-5 5-15v-48q0-15-8-21t-25-7h-93l-17-114h92q8 0 13-5t5-15v-48q0-15-8-21t-25-7h-90L414 31q-2-20-8-26t-24-5l-38 5q-18 3-24 7t-5 17l28 193H218L190 31q-2-20-8-26t-24-5l-38 5q-18 3-24 7t-5 17l28 193H31q-15 0-20 6t-6 19v48q0 23 19 23h109l17 114H64q-15 0-20 6t-6 19v48q0 23 19 23h107l28 190q5 25 19 24l61-6q20-2 17-20l-27-188h126l28 190q5 25 19 24l61-6q20-2 17-20l-27-188h94q8 0 13-5zm-214-96H248l-17-114h126l17 114z"/><glyph unicode="$" glyph-name="dollar" horiz-adv-x="687" d="M655 140l-62-64L424-1q-14-1-17-5t-4-16v-22q0-15-7-22t-24-7h-67q-15 0-21 6t-6 20v27q0 11-3 15t-15 4q-66 5-118 24T39 78q-20 14-20 26 0 7 6 13l77 87q10 11 19 11 6 0 16-8 55-52 125-69l7-1q6 0 8 2t3 10l1 123q0 9-2 12t-10 5q-122 18-176 78T38 515q0 80 56 138t163 81q9 2 16 7t8 14v31q0 8 4 12t11 4h85q11 0 16-5t6-17v-34q0-4 3-6t13-5q102-28 165-67 10-6 10-15 0-8-5-14l-66-88q-8-10-16-10-7 0-18 9-31 28-73 43-2 1-5 1-9 0-9-9V470q0-5 3-8t10-4l67-16q76-18 124-75t49-133q0-94-62-158zM281 586q0 17-14 14-34-9-50-25t-17-36q0-52 61-61h5q15 0 15 21v87zm121-452l15 3q35 7 54 24t20 39q0 27-19 45t-59 24h-4q-4 0-5-2t-2-9V144q0-10 15-7z"/><glyph unicode="%" glyph-name="percent" horiz-adv-x="963" d="M282 753l45-30 72-79 27-103q0-54-26-101t-71-77-100-29q-55 0-100 29t-72 76-27 102q0 54 27 103t72 79 100 30q53 0 98-30zM292 8q-4-7-11-9t-18-3l-52 1q-9 0-14 5t-6 12q0 10 6 17l469 706q6 9 12 11t16 2h66q14 0 14-9 0-6-4-11L292 8zm-34 424l11 26 12 82q0 59-12 87t-41 29q-29 0-41-28t-12-88q0-56 11-82t42-26q30 0 41 26zm531-23l45-30 72-79 27-103q0-54-26-101t-71-77-100-29q-55 0-100 29t-72 76-27 102q0 54 27 103t72 79 100 30q53 0 98-30zM765 88l11 26 12 82q0 59-12 87t-41 29q-29 0-41-28t-12-88q0-56 11-82t42-26q30 0 41 26z"/><glyph unicode="&amp;" glyph-name="ampersand" horiz-adv-x="878" d="M472 753l56-21 88-58 32-85q0-46-39-98t-97-81q-8-4-8-8t5-9l73-73q6-6 11-6 6 0 13 9 33 44 51 88 6 13 18 13 2 0 10-2l101-32q8-2 13-9t5-16q0-5-1-8-17-35-35-64t-53-76q-7-8-7-13 0-3 9-9 36-22 99-27 12-1 17-6t6-16V29q0-14-6-21t-18-8q-78 0-136 15T571 65q-9 6-15 6t-16-7q-51-36-109-52T298-5Q174-5 107 47T39 195q0 59 42 109t134 100q10 6 10 11t-8 14q-29 32-45 69t-16 72q0 52 31 94t87 65 126 24q72 0 128-21zm-88-115l-16-15-16-34q0-8 5-19t14-20l37-45q4-4 10-4 7 0 11 3 22 12 35 31t13 43q0 27-18 43t-49 17q-26 0-42-15zm-61-333h-6q-5 0-12-5-23-15-37-36t-14-43q0-31 26-56t63-25q20 0 44 7t39 20q9 7 9 13 0 5-6 12l-97 104q-9 9-15 9z"/><glyph unicode="'" glyph-name="quotesingle" horiz-adv-x="253" d="M181 440q-2-16-9-22t-24-7h-42q-14 0-19 5t-8 20L39 720v4q0 9 5 13t14 5h145q9 0 14-5t4-15l-40-282z"/><glyph unicode="(" glyph-name="parenleft" horiz-adv-x="332" d="M313 742l2-4v-11q-51-102-79-214t-29-229q0-109 26-212t82-220q2-4 2-7 0-4-3-7t-10-3H195q-7 0-11 3t-10 10Q104-32 70 67T35 285q0 120 36 232t101 211q11 14 28 14h105q8 0 10-4z"/><glyph unicode=")" glyph-name="parenright" horiz-adv-x="332" d="M132 742q17 0 28-14 65-98 101-210t36-233q0-119-34-218T158-152q-5-7-9-10t-12-3H28q-9 0-11 5t0 12Q72-31 98 72t27 212q0 116-28 228T17 727q-2 4-2 6 0 9 12 9h105z"/><glyph unicode="*" glyph-name="asterisk" horiz-adv-x="521" d="M267 421q-2 4-6 4t-6-4l-74-127q-5-7-14-7-8 0-14 5l-68 48q-9 8-9 13 0 4 5 11l94 109q2 4 2 6 0 7-8 8L36 523q-11 3-11 15 0 3 2 11l27 74q5 12 13 12l8-2 126-58 6-2q9 0 7 9l-12 144v2q0 5 4 9t11 5h90q8 0 12-5t3-11l-14-145v-3q0-9 10-5l129 58q6 2 9 2 12 0 16-15l23-73q1-3 1-8 0-13-14-16l-130-35q-6-1-6-7 0-3 4-7l90-105q4-4 4-11 0-10-13-19l-59-41q-9-6-18-6t-14 7l-73 124z"/><glyph unicode="+" glyph-name="plus" horiz-adv-x="600" d="M552 444l5-5 5-15v-93q0-15-8-21t-25-7H372V131q0-8-5-13t-15-5h-93q-15 0-21 8t-7 25v157H66q-15 0-20 6t-6 19v93q0 23 19 23h172v165q0 15 6 20t19 6h93q23 0 23-19V444h172q8 0 13-5z"/><glyph unicode="," glyph-name="comma" horiz-adv-x="279" d="M46-165l-5 8-1 17L90-32q5 13 5 19Q95 0 81 0H59Q44 0 38 6t-6 19v151q0 11 5 16t14 6h173q18 0 18-20V32q0-8-4-15L124-142q-8-11-21-17t-25-6H56q-10 0-15 8z"/><glyph unicode="-" glyph-name="hyphen" horiz-adv-x="380" d="M339 221q0-15-8-21t-25-7H67q-15 0-20 6t-6 19v92q0 23 19 23h261q8 0 13-5t5-15v-92z"/><glyph unicode="." glyph-name="period" horiz-adv-x="279" d="M242 29q0-16-7-22t-26-7H59Q44 0 38 6t-6 19v154q0 11 5 16t14 6h173q18 0 18-20V29z"/><glyph unicode="/" glyph-name="slash" horiz-adv-x="380" d="M-5 0l6 19 249 705q3 8 10 13t16 5h83q21 0 21-16 0-3-4-17L135 26q-5-14-13-20t-22-6H17Q-5 0 1 19z"/><glyph unicode="0" glyph-name="zero" horiz-adv-x="722" d="M456 753l75-50 117-137 43-197q0-109-42-195T533 40 362-8q-96 0-171 48T73 174 31 369q0 109 42 196t118 138 171 50q94 0 169-50zm-58-605l22 21 31 69 10 130q0 125-23 178t-77 53q-54 0-77-53t-23-178q0-81 10-129t31-69 59-22q37 0 59 21z"/><glyph unicode="1" glyph-name="one" horiz-adv-x="537" d="M509 164V22q0-10-6-16t-19-6H59Q35 0 35 21v124q0 19 22 19h89q5 0 8 2t4 7v334q0 9-3 12t-14 1l-80-18q-3-1-9-1-18 0-18 24v84q0 12 3 18t15 11l180 90q17 8 27 11t23 3h85q8 0 13-5t5-16V176q0-12 11-12h90q23 0 23-19z"/><glyph unicode="2" glyph-name="two" horiz-adv-x="673" d="M256 328q72 59 103 89t43 51 11 46q0 34-23 55t-64 22q-38 0-67-24t-62-86q-5-9-15-9-7 0-17 5L46 536q-14 7-14 22 0 9 5 17 56 91 128 134t173 43q90 0 156-29t103-83 36-124q0-59-30-106t-102-96L326 197q-7-5-7-8 0-4 13-4h285q23 0 23-19V22q0-10-6-16t-19-6H56Q41 0 35 5t-6 20v99q0 8 10 21t49 44l168 139z"/><glyph unicode="3" glyph-name="three" horiz-adv-x="685" d="M53 625v5q0 6 5 14 36 47 113 77t164 31q93 0 160-24t103-70 36-104q0-46-29-88t-83-58q-12-4-12-11t11-10q63-22 99-66t37-100q0-231-334-231-92 0-174 38T28 125q-5 8-5 16 0 14 13 21l101 70q11 6 17 6 5 0 10-5 48-49 83-68t88-19q46 0 72 19t27 52q0 35-29 58t-77 24l-84 2q-21 0-21 17v121q0 14 21 17l67 4q47 3 74 24t28 55q0 26-24 43t-58 18q-43 0-77-16t-75-55q-8-8-12-8-3 0-12 7l-97 90q-5 7-5 12z"/><glyph unicode="4" glyph-name="four" horiz-adv-x="716" d="M361 733l9 4 29 5h164q9 0 14-5t5-16V322q0-12 11-12h74q22 0 22-19V181q0-22-24-22h-71q-12 0-12-13V29q0-16-8-22t-25-7H378q-15 0-21 6t-6 19l1 124q0 10-14 10H53q-12 0-18 6t-7 16v104q0 11 7 23t26 37l287 372q13 16 22 20zm-15-423q4 0 6 2t3 5v193q0 15-3 15t-11-11L204 323q-4-6-4-8 0-5 11-5h135z"/><glyph unicode="5" glyph-name="five" horiz-adv-x="690" d="M573 742q21 0 26-5t4-24l-6-128q-1-13-7-18t-21-5H270q-20 0-21-18l-8-67v-4q0-7 4-9t12-1q45 12 71 16t57 5q81 0 143-29t98-83 36-130q0-78-38-135T514 20 349-10q-107 0-192 36T33 121q-10 16-10 24 0 11 12 18l108 73q6 5 15 5 11 0 18-9 37-44 68-65t81-21q54 0 84 25t30 64q0 38-28 64t-83 27q-23 0-44-6t-56-21q-8-4-14-4-4 0-16 6L79 365q-8 4-11 9t-3 15q0 9 1 14l29 309q2 18 10 24t35 6h433z"/><glyph unicode="6" glyph-name="six" horiz-adv-x="701" d="M444 750l58-25 94-63 42-72q1-3 1-9 0-14-13-18l-143-42q-2-1-5-1-9 0-13 6t-4 8q-20 32-38 47t-50 15q-53 0-85-39t-32-104q0-13 2-18t8-6q6 0 15 4 37 15 63 21t65 7q77 0 137-28t94-78 34-115q0-70-41-127T522 24 364-8Q263-8 188 37T72 163 31 352q0 122 43 212t120 138 179 48q71 0 129-25zM334 317l-26-8-40-18q-6-5-8-10t-2-18q0-59 27-93t71-34q40 0 67 27t27 68q0 41-27 63t-66 23q-23 0-49-8z"/><glyph unicode="7" glyph-name="seven" horiz-adv-x="632" d="M569 742q18 0 28-8t9-20l-4-67q-1-10-11-32t-21-37q-54-83-97-184t-69-197-29-164q-1-33-25-33H139q-22 0-22 19 0 2 2 10 36 120 87 229t162 286q4 8 4 11 0 7-13 7H54q-29 0-27 25l14 138q2 17 30 17h498z"/><glyph unicode="8" glyph-name="eight" horiz-adv-x="693" d="M421 752l67-27 106-75 39-106q0-39-24-71t-69-55q-9-5-9-9 0-5 8-11 73-44 100-84t27-95q0-72-42-123T507 17 333-10q-137 0-221 50T28 182q0 50 25 87t91 70q8 3 8 7t-6 8q-33 26-52 44t-32 48-14 69q0 64 35 118t101 87 155 32q82 0 149-27zM307 607l-24-17-24-46q0-20 12-35t36-23l64-22q8-2 13-2 24 0 42 24t19 50q0 29-27 50t-75 21q-36 0-60-17zm85-472l24 17 25 47q0 22-13 38t-52 30l-71 25q-9 3-17 3-27 0-48-22t-22-55q0-40 30-61t99-22q45 0 69 17z"/><glyph unicode="9" glyph-name="nine" horiz-adv-x="701" d="M257-8l-58 25-94 63-42 72q-1 3-1 9 0 14 13 18l143 42q2 1 5 1 9 0 13-6t4-8q20-32 38-47t50-15q53 0 85 39t32 104q0 13-2 18t-8 6q-6 0-15-4-37-15-63-21t-65-7q-77 0-137 28t-94 78-34 115q0 70 41 127t111 89 158 32q101 0 176-45t116-126 41-189q0-122-43-212T507 40 328-8q-71 0-129 25zm110 433l26 8 40 18q6 5 8 10t2 18q0 59-27 93t-71 34q-40 0-67-27t-27-68q0-41 27-63t66-23q23 0 49 8z"/><glyph unicode=":" glyph-name="colon" horiz-adv-x="279" d="M242 357q0-15-7-22t-26-7H59q-15 0-21 6t-6 20v149q0 11 5 16t14 6h173q18 0 18-20V357zm0-325q0-15-7-22t-26-7H59Q44 3 38 9t-6 20v149q0 11 5 16t14 6h173q18 0 18-20V32z"/><glyph unicode=";" glyph-name="semicolon" horiz-adv-x="279" d="M44 321l-6 6-6 19v154q0 11 5 16t14 6h173q18 0 18-20V350q0-16-7-22t-26-7H59q-15 0-21 6zm2-490l-5 8-1 17L90-32q5 13 5 20Q95 0 81 0H59Q44 0 38 6t-6 19v151q0 11 5 16t14 6h173q18 0 18-20V32q0-8-4-15L124-146q-8-11-21-17t-25-6H56q-10 0-15 8z"/><glyph unicode="&lt;" glyph-name="less" horiz-adv-x="599" d="M544 114q0-28-23-28-8 0-15 3L63 259q-28 11-28 34v111q0 26 28 36l444 171q4 2 11 2 11 0 18-8t8-19v-96q0-16-10-27t-35-20l-253-95 253-92q25-9 35-19t10-27v-96z"/><glyph unicode="=" glyph-name="equal" horiz-adv-x="600" d="M562 427q0-15-8-21t-25-7H66q-15 0-20 6t-6 19v93q0 23 19 23h485q8 0 13-5t5-15v-93zm0-241q0-15-8-21t-25-7H66q-15 0-20 6t-6 19v93q0 23 19 23h485q8 0 13-5t5-15v-93z"/><glyph unicode="&gt;" glyph-name="greater" horiz-adv-x="599" d="M55 227l10 10 35 19 253 92-253 95q-24 9-34 20t-11 27v96q0 11 7 19t19 8q7 0 11-2l444-171q28-10 28-36V293q0-23-28-34L93 89q-7-3-15-3-23 0-23 28v96q0 17 10 27z"/><glyph unicode="?" glyph-name="question" horiz-adv-x="546" d="M-6 564v13q0 3 2 11 32 81 100 122t168 42q75 0 134-23t91-63 33-86q0-36-14-63t-33-46-53-44q-31-25-49-41t-30-40-12-53q0-10-7-17t-18-7H201q-12 0-19 7t-7 22q0 46 14 81t35 59 51 54q28 27 40 42t12 35q0 23-19 38t-46 15q-32 0-59-20t-43-57q-3-7-6-10t-10-3q-6 0-10 1L6 561q-12 3-12 16zM357 29q0-16-8-22t-25-7H173q-15 0-20 6t-6 19v150q0 22 19 22h173q18 0 18-20V29z"/><glyph unicode="@" glyph-name="at" horiz-adv-x="834" d="M635-74l-64-19-143-20q-121 0-210 50T81 72 33 262q0 108 51 199t145 146 221 54q98 0 181-34t135-108 51-181q0-75-25-133t-70-91-105-33q-65 0-102 43-5 5-6 5-3 0-7-6-23-26-57-41t-73-15q-69 0-114 48t-45 127q0 61 25 114t73 86 111 33q37 0 58-10t45-32q2-2 5-2 4 0 5 6l1 5q1 7 11 7h87q9 0 8-8l-35-206q-2-14-2-18 0-32 26-32 19 0 36 16t29 49 12 82q0 123-71 175t-187 53q-156 0-230-82t-74-213q0-140 80-213t219-73q59 0 94 12t77 38q7 4 12 4 6 0 9-5l40-54q3-3 3-7 0-6-10-13-35-28-99-47zM345 225l16-23 47-24q38 0 63 32t26 73q0 33-17 57t-48 24q-34 0-60-31t-27-75q0-33 16-56z"/><glyph unicode="A" glyph-name="A" horiz-adv-x="799" d="M35 0l-5 5-5 16q0 7 3 16l242 682q5 13 11 18t19 5h197q12 0 21-7t15-20L773 34q2-8 2-12 0-9-4-15t-12-7H563q-17 0-22 17l-39 115q-3 7-5 9t-10 3H275q-12 0-15-11L219 15q-6-15-24-15H43q-8 0-13 5zm402 314q11 0 11 10 0 2-2 10l-60 171q-2 5-6 5t-6-5l-61-170q-2-4-2-10 0-11 12-11h114z"/><glyph unicode="B" glyph-name="B" horiz-adv-x="739" d="M65 0l-6 6-7 16v694q0 11 7 18t18 8h298q156 0 236-49t81-147q0-53-29-89t-102-71q-2-1-2-3t2-4q81-30 115-71t34-106q0-103-78-152T391 0H75Q65 0 59 6zm326 452q35 0 56 19t21 49q0 32-24 52t-60 20h-82q-13 0-18-4t-5-16v-98q0-12 4-17t13-5h95zm-5-302q41 0 64 23t24 54q0 31-23 51t-60 20h-89q-13 0-18-5t-5-16V172q0-12 4-17t13-5h90z"/><glyph unicode="C" glyph-name="C" horiz-adv-x="737" d="M468 752l67-29 110-82 56-119q3-12 3-19 0-9-3-12t-13-4l-175-11q-10 0-13 3t-6 16q-9 48-33 75t-70 28q-59 0-91-52t-32-169q0-121 29-172t93-51q53 0 90 27t63 90q3 9 17 9 7 0 11-1l125-25q15-5 15-23 0-28-34-86T569 38 383-10q-106 0-186 50T74 179 30 381q0 112 43 196t124 129 188 46q83 0 150-29z"/><glyph unicode="D" glyph-name="D" horiz-adv-x="771" d="M197 742q119 0 148-1 195-7 295-105t100-263q0-110-45-194T561 48 344 0H81Q66 0 59 7t-7 23v687q0 14 6 19t21 6h118zm87-157l-2-3-3-11V172q0-9 3-12t11-3h7q99 0 150 51t52 168q0 100-39 149t-114 56l-60 4q-5 0-7-3z"/><glyph unicode="E" glyph-name="E" horiz-adv-x="671" d="M52 742h559q18 0 18-21l-1-116q0-27-26-27H302q-23 0-23-19v-85q0-10 5-15t13-6h180q21 0 21-20V309q0-17-18-17H295q-7 0-11-4t-5-10V178q0-8 2-11t10-3h325q22 0 22-19V22q0-10-6-16t-18-6H79Q64 0 58 6t-6 19v694q0 23 19 23z"/><glyph unicode="F" glyph-name="F" horiz-adv-x="650" d="M52 730l5 6 14 6h533q18 0 18-21l-1-116q0-27-25-27H302q-23 0-23-19v-94q0-20 18-20h183q20 0 20-20V303q0-17-18-17H295q-7 0-11-4t-5-11V29q0-16-8-22t-25-7H79Q64 0 58 6t-6 19v694q0 11 5 17z"/><glyph unicode="G" glyph-name="G" horiz-adv-x="761" d="M276-10l-79 48L74 171 30 368q0 114 46 201t128 135 189 48q86 0 153-31t109-82 55-106q3-12 3-19 0-9-4-12t-13-4l-171-26q-11 0-14 4t-6 16q-8 46-37 75t-80 30q-59 0-89-50t-31-173q0-128 33-178t95-50q81 0 108 70l3 9 2 8q0 9-11 9h-94q-11 0-15 5t-5 17v96q0 17 21 17l280-2q18 0 28-8t10-23V17q0-7-5-12t-12-5h-38q-18 0-32 19l-40 58q-1 3-4 3-2 0-7-5-26-25-49-42T473 3t-93-13q-104 0-183 48z"/><glyph unicode="H" glyph-name="H" horiz-adv-x="762" d="M295 297q-7 0-11-4t-5-11V29q0-16-8-22t-25-7H79Q64 0 58 6t-6 19v694q0 11 5 17t14 6h190q8 0 13-5t5-16V489q0-20 18-20h168q18 0 18 20v232q0 10 5 15t13 6h190q9 0 14-6t5-17V25q0-13-6-19t-21-6H516q-17 0-25 6t-8 23v253q0 6-4 10t-12 5H295z"/><glyph unicode="I" glyph-name="I" horiz-adv-x="331" d="M261 742q18 0 18-21V29q0-16-8-22t-25-7H79Q64 0 58 6t-6 19v694q0 11 5 17t14 6h190z"/><glyph unicode="J" glyph-name="J" horiz-adv-x="467" d="M420 92l-58-51-180-51Q125-10 58 2 40 5 33 14t-6 31l9 114q2 23 20 23 12 0 24-3 22-4 35-4 38 0 58 22t20 71v451q0 11 5 17t15 6h189q18 0 18-21V212q0-120-58-171z"/><glyph unicode="K" glyph-name="K" horiz-adv-x="772" d="M749 23v-8q0-15-18-15H536q-27 0-36 20L378 298q-4 6-8 6-5 0-14-11l-71-91q-6-7-6-22V29q0-16-8-22t-25-7H79Q64 0 58 6t-6 19v694q0 11 5 17t14 6h190q18 0 18-21V468q0-12 5-12 4 0 10 7l184 258q9 12 17 16t26 5h152q12 0 19-4t7-13q0-7-5-12L530 512q-7-8-7-17 0-7 4-15L745 31q4-8 4-16z"/><glyph unicode="L" glyph-name="L" horiz-adv-x="643" d="M52 730l5 6 14 6h190q18 0 18-21V178q0-8 2-11t10-3h301q23 0 23-19V22q0-10-6-16t-19-6H79Q64 0 58 6t-6 19v694q0 11 5 17z"/><glyph unicode="M" glyph-name="M" horiz-adv-x="977" d="M66 0l-7 7-7 21v691q0 12 5 17t16 6h280q13 0 18-3t10-15l104-318q3-8 7-8 3 0 6 8l93 307q8 29 27 29h289q18 0 18-21V29q0-16-7-22t-25-7H724q-15 0-20 6t-6 19v449q0 8-4 8-5 0-8-9L542 18q-7-18-24-18H413q-18 0-24 18L245 465q-3 10-7 10-5 0-5-11V22q0-13-4-17t-18-5H78Q66 0 59 7z"/><glyph unicode="N" glyph-name="N" horiz-adv-x="761" d="M694 742q15 0 15-17V18q0-8-6-13t-17-5H549q-9 0-14 3t-13 12L247 388q-4 5-7 4t-3-6V22q1-12-4-17t-20-5H77Q52 0 52 20v699q0 23 22 23h163q13 0 19-3t15-15l240-334q6-9 11-9t5 13v327q0 21 22 21h145z"/><glyph unicode="O" glyph-name="O" horiz-adv-x="780" d="M282-10l-81 46L75 168 31 369q0 115 44 201t126 134 190 48q107 0 188-47t125-134 45-202q0-114-44-200T580 37 391-10q-109 0-190 46zm153 156l26 21 38 70 12 129q0 124-28 178t-92 54q-65 0-93-54t-29-178q0-81 12-129t38-69 72-22q44 0 70 21z"/><glyph unicode="P" glyph-name="P" horiz-adv-x="731" d="M703 429l-34-53-97-81-144-29H291q-12 0-12-11V29q0-16-8-22t-25-7H78Q63 0 58 6t-6 19v694q0 23 19 23h331q84 0 152-27t109-82 40-132q0-72-34-125zM471 539l-24 21-59 22h-86q-13 0-18-5t-5-16V448q0-12 4-17t13-5h98q35 0 56 22t21 56q0 35-24 56z"/><glyph unicode="Q" glyph-name="Q" horiz-adv-x="782" d="M31 484l44 86 126 134 190 48q107 0 188-47t126-134 45-202q0-89-27-161T645 86q-2-2-2-8 0-13 29-28t61-20q17-2 17-17V-97q0-18-9-24t-35-7q-73 0-129 30T477-10q-4 6-15 4-32-4-71-4-109 0-190 46T75 168 31 369q0 115 44 201zm238-198l12-48 38-70 72-22q45 0 71 22t38 70 12 129q0 124-28 177t-93 54q-65 0-93-53t-29-178q0-81 12-129z"/><glyph unicode="R" glyph-name="R" horiz-adv-x="739" d="M703 28v-7q0-9-5-15t-15-6H489q-21 0-27 21l-94 258q-3 8-10 12t-21 4h-46q-6 0-9-4t-3-7V29q0-16-8-22t-25-7H78Q63 0 58 6t-6 19v694q0 23 19 23h334q145 0 225-55t80-157q0-69-36-123t-95-76q-6-3-6-10 0-3 2-9L701 32q2-4 2-11zM434 444l20 19 21 53q0 37-24 57t-61 21h-88q-13 0-18-4t-5-16V465q0-11 3-16t14-5h100q38 0 58 19z"/><glyph unicode="S" glyph-name="S" horiz-adv-x="701" d="M470 569l-27 14-80 14q-52 0-77-15t-25-36q0-36 64-51l166-43q91-23 137-80t46-138q0-74-39-129T524 20 354-10q-110 0-200 36T28 122q-5 10-5 15 0 10 11 18l103 71q11 7 20 7 11 0 18-9 34-44 69-62t93-18q56 0 88 15t33 43q0 19-16 33t-47 21l-152 37q-90 22-143 82T47 515q0 65 38 119t108 86 162 32q90 0 167-29t111-79q7-9 7-17 0-7-7-13l-109-79q-5-4-11-4-7 0-19 12-24 26-51 40z"/><glyph unicode="T" glyph-name="T" horiz-adv-x="704" d="M28 719q0 10 6 16t19 7h598q12 0 18-6t7-17V600q0-19-22-19H477q-12 0-12-10V22q0-11-5-16t-14-6H256q-18 0-18 20v547q0 14-11 14H51q-23 0-23 19v119z"/><glyph unicode="U" glyph-name="U" horiz-adv-x="728" d="M684 129l-83-69-237-70q-173 0-246 80T44 313v406q0 11 5 17t14 6h190q18 0 18-21V289q0-74 28-107t82-33q52 0 84 33t32 110v427q0 23 19 23h150q18 0 18-21V293q0-164-83-233z"/><glyph unicode="V" glyph-name="V" horiz-adv-x="751" d="M716 742l5-5 6-15q0-6-1-9L494 25q-7-25-37-25H295q-30 0-37 25L26 713q-2 6-2 9 0 9 6 14t15 6h193q19 0 25-21l134-439q2-7 5-7 2 0 5 8l125 438q2 10 9 15t17 6h149q9 0 14-5z"/><glyph unicode="W" glyph-name="W" horiz-adv-x="1109" d="M1067 742l8-7 9-21q0-4-2-12L879 25q-5-13-13-19t-23-6H705q-29 0-36 25L565 377q-3 13-7 13-3 0-9-15L446 25q-4-13-12-19t-24-6H267q-15 0-23 6t-13 19L27 702q-2 8-2 12 0 13 8 20t24 8h165q15 0 22-5t10-16l106-371q3-12 7-12 3 0 5 8l105 375q5 21 32 21h140q15 0 22-5t10-16l110-380q2-6 6-7t5 5l102 382q5 21 32 21h116q15 0 23-7z"/><glyph unicode="X" glyph-name="X" horiz-adv-x="756" d="M733 30V17q0-17-28-17H525q-31 0-42 20L373 208q-9 15-14 15-6 0-14-14L237 20Q226 0 194 0H52Q24 0 24 16q0 11 15 35l197 305q7 10 7 18 0 7-7 18L34 707q-5 6-5 17 0 18 21 18h189q16 0 25-5t15-16l91-161q5-8 11-8t11 8l91 161q6 11 14 16t25 5h155q20 0 20-15 0-7-7-18L501 419q-6-9-6-16t8-20L719 51q14-21 14-34z"/><glyph unicode="Y" glyph-name="Y" horiz-adv-x="774" d="M751 742v-12q0-3-4-11L513 341q-7-10-8-22t-2-44V29q0-16-8-22t-25-7H302q-15 0-20 6t-6 19v263q0 14-3 22t-11 22L28 714q-4 7-4 13 0 15 22 15h201q14 0 20-4t14-17l123-222q5-10 8-10 5 0 9 9l121 223q6 13 13 17t21 4h157q18 0 18-12z"/><glyph unicode="Z" glyph-name="Z" horiz-adv-x="714" d="M37 0l-5 5-6 20v45q0 15 3 22t18 29l308 440q4 5 4 10 0 6-13 6H81q-13 0-17 5t-5 19v120q0 10 5 15t13 6h587q9 0 14-5t5-15v-51q0-11-3-19t-14-22L346 180q-2-3-2-6 0-8 14-8h297q22 0 22-19V22q0-10-6-16t-18-6H52Q37 0 32 5z"/><glyph unicode="[" glyph-name="bracketleft" horiz-adv-x="336" d="M46 731l6 5 20 6h234q15 0 15-13v-80q0-14-15-14h-76q-25 0-25-27V-37q0-13 4-17t17-4h77q18 0 18-16v-73q0-10-4-14t-14-4H75q-13 0-21 7t-8 19v859q0 11 6 16z"/><glyph unicode="\" glyph-name="backslash" horiz-adv-x="380" d="M266 0l-8 6-14 20L3 709q-4 14-4 17 0 16 21 16h83q9 0 16-5t10-13L378 19q1-3 1-7 0-12-17-12h-83q-13 0-21 6z"/><glyph unicode="]" glyph-name="bracketright" horiz-adv-x="336" d="M290-139q0-12-8-19t-21-7H33q-10 0-14 4t-4 14v73q0 16 18 16h77q12 0 16 4t5 17v645q0 27-25 27H30q-15 0-15 14v80q0 13 15 13h234q14 0 20-5t6-17v-859z"/><glyph unicode="^" glyph-name="asciicircum" horiz-adv-x="475" d="M248 319q-5 11-12 11t-12-11l-78-190q-3-6-8-7t-18-2H37q-14 0-14 13 0 5 3 11l156 360q7 17 22 26t34 10q16 0 31-9t22-26l156-364 2-9q0-12-17-12h-79q-12 0-18 1t-9 8l-78 190z"/><glyph unicode="_" glyph-name="underscore" horiz-adv-x="562" d="M522-132q0-15-8-21t-25-7H66q-15 0-20 6t-6 19v92q0 23 19 23h445q8 0 13-5t5-15v-92z"/><glyph unicode="`" glyph-name="grave" horiz-adv-x="320" d="M44 747l5 3 13 1 238-101q10-5 10-14 0-2-2-10l-15-43q-6-15-18-15-1 0-11 2L31 626q-21 6-21 21 0 7 2 11l29 81q3 8 8 11z"/><glyph unicode="a" glyph-name="a" horiz-adv-x="573" d="M261-10h-83q-73 0-116 41T18 136q0 58 37 102t107 69 163 25h7q15 0 15 14v17q0 58-59 58-24 0-45-11t-33-36q-3-7-6-9t-10-3q-7 0-11 1L52 389q-11 2-11 13 0 7 4 19 42 119 252 119 131 0 185-43t55-122V27q0-15-4-21t-19-6H377q-12 0-17 9t-9 26l-1 7q-1 10-8 10-8 0-19-10-62-52-145-52zm86 244l-3 4-12 4h-4q-19 0-46-9t-49-26-21-44q0-21 15-34t42-13q32 0 55 19t23 36v53q0 10-3 14z"/><glyph unicode="b" glyph-name="b" d="M68 0Q53 0 47 6t-6 19v694q0 11 5 17t14 6h163q18 0 18-21V496q0-13 8-13 4 0 11 5 29 28 60 40t67 12q97 0 151-72t55-199q0-129-59-204T366-10q-46 0-86 22t-70 61q-4 4-7 4t-6-7l-16-47q-7-23-26-23H68zm173 185q0-37 19-57t52-21q40 0 59 36t20 122q0 84-19 118t-57 35q-42 0-74-40V185z"/><glyph unicode="c" glyph-name="c" horiz-adv-x="556" d="M365 540l51-25 81-65 39-80q2-8 2-10 0-14-20-16l-137-7h-3q-7 0-9 3t-5 11q-4 27-16 45t-45 18q-80 0-80-149 0-80 23-115t68-36q26 0 43 9t29 25 27 45q3 6 12 6 5 0 8-1l94-18q11-1 11-12 0-1-2-11-6-32-33-71t-79-67-126-29q-79 0-142 34t-99 97-36 142q0 81 36 144t99 98 142 35q67 0 118-25z"/><glyph unicode="d" glyph-name="d" d="M392 0l-7 5-7 18v19q0 4-2 6t-4 2q-3 0-9-4-31-29-63-42t-77-14q-91 0-145 70T23 263q0 81 29 144t77 98 104 35q36 0 65-11t59-41q7-5 11-5 8 0 8 13v225q0 21 18 21h162q9 0 14-6t5-17V25q0-13-6-19t-21-6H403q-11 0-18 5zm-34 398l-15 9-38 9q-38 0-59-35t-21-117q0-83 20-118t60-36q30 0 50 18t20 48v202q-17 20-32 29z"/><glyph unicode="e" glyph-name="e" horiz-adv-x="590" d="M227 168l28-23 75-23q27 0 52 12t57 44q4 4 8 4t13-3l91-37q9-3 9-12 0-6-5-12-52-73-108-100T303-10q-79 0-143 34T58 118 21 256q0 83 38 147t102 101 138 36q79 0 140-34t97-98 35-154q0-14-3-19t-15-6H242q-15 0-15-17 0-44 28-67zm133 164q10 0 13 2t4 12q0 25-18 51t-51 26q-33 0-56-23t-22-67l130-1z"/><glyph unicode="f" glyph-name="f" horiz-adv-x="418" d="M387 530l6-6 7-16v-94q0-19-22-19h-62q-12 0-12-12V22q0-22-19-22H122q-18 0-18 20v365q0 10-8 10H40q-22 0-22 19v94q0 10 6 16t18 6h48q8 0 11 4t3 14v53q0 65 42 103t116 38h113q14 0 21-7t8-19l1-84q0-9-4-14t-14-6h-43q-18 0-31-15t-14-36v-18q0-13 13-13h63q12 0 18-6z"/><glyph unicode="g" glyph-name="g" horiz-adv-x="653" d="M635 562V447q0-27-18-27-5 0-8 1-23 7-44 7t-21-15q0-5 1-8 5-17 5-31 0-46-30-83t-88-60-139-22q-93 0-93-27 0-11 10-15t34-6l152-9q108-7 161-46T610 3q0-52-34-92t-103-63-166-23q-158 0-234 29T-4-53q0 31 25 49t72 32q7 1 7 5 0 3-7 6-66 32-66 83 0 57 109 103 6 3 8 5t-5 7q-50 21-77 56t-27 80q0 75 70 120t200 45q55 0 98-12t69-33q5-5 15-5 11 0 16 8 19 27 54 46t58 20q20 0 20-25zM330 300l19 20 20 50q0 33-19 54t-59 21q-36 0-57-21t-21-54q0-29 21-49t57-21q39 0 58 20zM226 8q-31 1-50-9t-19-26q0-30 35-44t125-15q57 0 88 14t32 37q0 15-17 25T371 2L226 8z"/><glyph unicode="h" glyph-name="h" horiz-adv-x="605" d="M54 0l-6 5-6 20v694q0 11 5 17t14 6h160q18 0 18-21V472q0-8 5-8 4 0 8 4 41 39 79 55t81 17q74 0 115-43t41-122V30q0-30-30-30H391q-13 0-18 5t-5 20v326q0 22-14 35t-38 13q-46 0-74-50V29q0-16-7-22t-26-7H68Q54 0 48 5z"/><glyph unicode="i" glyph-name="i" horiz-adv-x="282" d="M241 603q0-15-8-22t-25-7H67q-14 0-20 6t-6 20v119q0 23 19 23h163q8 0 13-5t5-16V603zm0-574q0-16-8-22t-25-7H67Q52 0 47 6t-6 19v482q0 23 19 23h163q8 0 13-5t5-15V29z"/><glyph unicode="j" glyph-name="j" horiz-adv-x="283" d="M242 603q0-15-7-22t-25-7H69q-15 0-21 6t-6 20v119q0 11 5 17t15 6h162q18 0 18-21V603zm0-773H32q-42 0-55 4t-13 21l-1 102q0 9 5 17t15 10l35 6Q30-6 36 3t6 33v471q0 11 5 17t15 6h162q18 0 18-20V29q0-199-210-199z"/><glyph unicode="k" glyph-name="k" horiz-adv-x="631" d="M617 20q0-8-5-14t-16-6H425q-22 0-33 26l-72 172q-5 11-11 11-4 0-10-6l-48-45q-9-7-9-28V29q0-16-7-22t-25-7H69Q54 0 48 6t-6 19v694q0 11 5 17t14 6h163q18 0 18-21V346q0-7 4-7t8 5l150 169q17 17 31 17h137q10 0 15-4t6-10q0-8-7-15L457 372q-8-10-8-17 0-6 6-18L615 28l2-8z"/><glyph unicode="l" glyph-name="l" horiz-adv-x="284" d="M242 29q0-16-8-22t-25-7H67Q52 0 46 6t-6 19l5 694q0 23 19 23h160q8 0 13-5t5-16V29z"/><glyph unicode="m" glyph-name="m" horiz-adv-x="928" d="M53 0l-6 5-6 20v482q0 10 5 16t14 7h160q18 0 18-20v-45q0-8 5-8 4 0 8 4 34 37 75 58t85 22q51 0 88-25t54-71q2-4 5-4 2 0 7 5 28 39 78 66t95 28q69 0 111-44t43-123V30q0-30-31-30H715q-13 0-18 5t-5 20v326q0 22-14 35t-38 13q-18 0-36-11t-30-28q-8-11-8-27V30q0-30-30-30H390q-12 0-17 5t-6 20v326q0 22-14 35t-38 13q-46 0-74-50V29q0-16-7-22t-26-7H67Q53 0 47 5z"/><glyph unicode="n" glyph-name="n" horiz-adv-x="604" d="M53 0l-6 5-6 20v482q0 11 5 17t14 6h161q18 0 18-20v-45q0-8 5-8 4 0 8 4 33 37 74 58t85 21q70 0 113-44t44-118V30q0-30-30-30H391q-13 0-18 5t-5 20v326q0 22-14 35t-39 13q-46 0-74-50V29q0-16-7-22t-26-7H67Q53 0 47 5z"/><glyph unicode="o" glyph-name="o" horiz-adv-x="600" d="M218-10l-63 35-98 96-36 141q0 82 36 145t100 98 143 35q82 0 145-35t99-99 35-144q0-78-35-140T444 25 299-10q-81 0-144 35zm122 128l18 35 19 113q0 79-18 114t-59 36q-40 0-58-36t-19-114q0-78 18-113t59-35q40 0 58 35z"/><glyph unicode="p" glyph-name="p" horiz-adv-x="617" d="M230 530l6-5 6-19v-21q0-6 6-6 5 0 9 4 31 29 63 43t77 14q88 0 142-69t54-204q0-143-56-210T390-10q-37 0-67 11t-61 40q-11 10-16 10t-5-15v-181q0-20-18-20H60q-9 0-14 5t-5 17v647q0 13 6 19t21 7h148q14 0 20-5zm39-419h42q40 0 60 35t20 127q0 83-19 114t-61 32q-29 0-49-16t-21-40V151q28-40 70-40z"/><glyph unicode="q" glyph-name="q" d="M548 530q15 0 21-6t6-20v-647q0-11-5-16t-14-6H393q-18 0-18 20V28q0 16-7 16-6 0-11-5-63-49-124-49-98 0-154 71T23 264q0 83 27 145t77 97 118 35q100 0 166-84 5-5 7-5 3 0 6 8l16 46q8 24 25 24h83zM375 344q0 37-19 59t-50 23q-81 0-81-161 0-84 19-119t58-36q42 0 73 33v201z"/><glyph unicode="r" glyph-name="r" horiz-adv-x="454" d="M52 0l-5 6-6 19v482q0 23 19 23h156q8 0 13-5t5-15v-56q0-9 7-9 5 0 10 6 24 37 67 63t78 26q37 0 37-20V368q0-10-5-14t-15-2q-43 11-86 11-33 0-59-21t-27-47V29q0-16-8-22t-25-7H67Q52 0 47 6z"/><glyph unicode="s" glyph-name="s" horiz-adv-x="541" d="M333 424h-60q-27 0-45-9t-19-26q0-8 8-14t32-12l106-22q88-18 128-63t40-108q0-85-69-132T270-10q-92 0-157 30T21 99q-5 10-5 17 0 8 7 12l87 44q9 5 17 5 7 0 14-7 16-18 29-29t36-19 58-9q37 0 59 9t23 27q0 11-10 18t-36 13l-102 18q-79 14-121 54T35 359q0 52 28 93t82 64 130 24q77 0 136-28t83-68q8-12 8-19t-8-11l-92-44q-6-3-10-3-8 0-19 11-40 46-100 46z"/><glyph unicode="t" glyph-name="t" horiz-adv-x="462" d="M318 395q-13 0-13-13V190q0-27 17-40t53-13h43q8 0 13-6t5-14l-1-80q0-24-29-30-51-7-135-7-74 0-120 35t-46 98v244q0 10-3 14t-12 4H42q-24 0-24 22v94q0 19 22 19h59q11 0 12 12l16 148q2 20 18 20h147q8 0 13-6t6-16V542q0-11 11-11h92q22 0 22-19v-95q0-10-6-16t-19-6h-93z"/><glyph unicode="u" glyph-name="u" horiz-adv-x="601" d="M306 130l20 11 34 30v330q0 15 8 22t25 7h143q14 0 20-6t6-20l-4-482q0-22-19-22H381q-18 0-18 20v44q0 8-5 8-3 0-7-4-34-40-74-59t-92-19q-66 0-107 44T36 157v343q0 30 31 30h146q13 0 18-6t5-20V179q0-23 13-36t36-13q21 0 41 11z"/><glyph unicode="v" glyph-name="v" horiz-adv-x="591" d="M566 530l5-5 5-14q0-4-2-10L379 25q-5-13-13-19t-24-6h-94q-15 0-23 6t-14 19L17 501q-1 3-1 8 0 9 5 15t15 6h169q9 0 16-5t10-15l88-231q3-9 7-9t8 10l85 230q9 20 26 20h112q9 0 14-5z"/><glyph unicode="w" glyph-name="w" horiz-adv-x="832" d="M807 530l5-5 5-14q0-4-2-10L645 18q-3-10-8-14t-15-4H518q-12 0-18 5t-11 17l-64 210q-3 11-8 11t-8-11L339 18q-3-10-8-14t-16-4H208q-11 0-17 5t-11 17L17 501q-1 3-1 8 0 9 5 15t15 6h155q9 0 16-6t10-14l69-214q3-9 7-9 5 0 8 10l65 213q2 8 9 14t17 6h109q8 0 15-6t10-14l63-214q3-9 7-9 5 0 8 10l68 213q9 20 26 20h100q9 0 14-5z"/><glyph unicode="x" glyph-name="x" horiz-adv-x="622" d="M609 22V12q0-12-24-12H419q-29 0-42 20l-78 114q-1 2-5 8t-9 7q-5 0-14-14L193 20Q180 0 151 0H46Q16 0 16 18q0 13 16 33l151 197q8 11 8 17 0 7-9 19L28 495q-5 8-5 15 0 9 6 14t18 6h159q17 0 25-4t16-16l65-98q5-8 9-8 5 0 9 8l60 98q7 11 15 15t26 5h116q21 0 21-12 0-6-7-17L425 315q-7-10-7-17 0-8 8-19L594 43q15-21 15-31z"/><glyph unicode="y" glyph-name="y" horiz-adv-x="589" d="M69-165l-11 4-12 18v102q0 7 6 13t22 6h71q29 0 48 13t19 30q0 4-2 10L16 501q-2 6-2 9 0 9 6 14t15 6h169q9 0 16-5t10-15l85-240q3-10 8-10t9 10l86 240q9 20 26 20h112q9 0 14-5t5-14q0-4-2-10L378 31q-35-84-69-125t-81-56-126-15q-33 0-44 4z"/><glyph unicode="z" glyph-name="z" horiz-adv-x="544" d="M30 0l-5 5-6 20v45q0 16 3 24t18 27l213 271q4 5 4 9 0 7-14 7H63q-13 0-17 5t-5 18v79q0 9 5 14t13 6h441q9 0 14-5t5-14v-52q0-11-3-19t-14-22L284 143q-5-8-5-11 0-8 13-8h205q23 0 23-19V22q0-10-6-16t-19-6H45Q30 0 25 5z"/><glyph unicode="{" glyph-name="braceleft" horiz-adv-x="406" d="M116 650l27 30 69 46 84 16h80q15 0 15-13v-80q0-14-15-14h-37q-30 0-44-7t-17-18-3-28V392q-2-46-35-67t-79-28q-6-1-6-3t6-3q111-10 114-104V-5q0-29 13-41t51-12h34q18 0 18-16v-73q0-10-4-14t-14-4h-74q-44 0-86 15t-69 45-28 76v197q0 38-25 59t-79 21q-12 0-12 20v53q0 20 12 20 56 0 80 19t24 65v181q0 44 27 74z"/><glyph unicode="|" glyph-name="bar" horiz-adv-x="245" d="M80-165q-15 0-21 8t-7 25v953q0 15 6 20t19 6h93q23 0 23-19v-975q0-8-5-13t-15-5H80z"/><glyph unicode="}" glyph-name="braceright" horiz-adv-x="406" d="M290 425q0-45 24-64t80-20q12 0 12-20v-53q0-20-12-20-53 0-78-21t-26-59V-29q0-45-27-75t-70-46-86-15H33q-10 0-14 4t-4 14v73q0 16 18 16h34q37 0 50 12t14 41v192q3 94 114 104 7 1 7 3t-7 3q-45 6-78 27t-36 68v190q0 17-3 27t-17 18-44 8H30q-15 0-15 14v80q0 13 15 13h80q42 0 83-15t69-46 28-75V425z"/><glyph unicode="~" glyph-name="asciitilde" horiz-adv-x="636" d="M551 325l-42-24-86-25q-29 0-53 10t-57 29q-27 17-46 25t-41 8q-31 0-54-18t-58-55q-5-5-10-5-6 0-10 6l-42 68q-2 3-2 8 0 9 11 20 49 49 86 72t82 24q32 0 56-10t55-30q26-16 43-23t36-8q29 0 55 18t46 47q6 9 13 9 9 0 16-12l33-54q4-5 4-14 0-8-6-18-29-48-71-72z"/><glyph glyph-name="uni00A0" horiz-adv-x="210"/><glyph unicode="¡" glyph-name="exclamdown" horiz-adv-x="277" d="M244 333H53q-9 0-14 5t-5 17v150q0 13 6 19t21 6h150q18 0 25-6t8-23V353q0-20-18-20zm9-481q0-7-5-12t-13-5H46q-9 0-14 6t-5 17l50 381q3 14 7 19t19 6h69q17 0 24-6t9-22l48-380v-4z"/><glyph unicode="¢" glyph-name="cent" horiz-adv-x="558" d="M538 290v-11q0-1-2-11-5-26-24-58t-55-60-88-41V29q0-15-7-22t-24-7h-67q-15 0-21 6t-6 20v79q-66 11-116 48t-79 94-28 127q0 72 28 129t79 95 116 48v67q0 15 7 22t24 7h67q15 0 21-6t6-20v-73q69-18 112-64t55-98q2-8 2-10 0-14-20-16l-137-7h-3q-7 0-9 3t-5 11q-4 27-16 45t-45 18q-80 0-80-149 0-80 23-115t68-36q26 0 43 9t29 25 27 45q3 6 12 6 5 0 8-1l94-18q11-1 11-12z"/><glyph unicode="£" glyph-name="sterling" horiz-adv-x="664" d="M12 0v148q0 15 15 15h17q83 0 83 74 0 30-7 95-1 11-13 11H25q-13 0-13 14v77q0 12 13 12h59q13 0 12 14l-6 86q-5 66 29 112t93 70 129 24q81 0 154-39t107-118q1-2 1-6 0-9-13-12l-137-40q-3-1-8-1-11 0-15 8-10 25-23 39t-35 15q-23 0-36-16t-13-46q0-25 9-78 2-12 14-12h112q12 0 12-11v-80q0-12-12-12h-98q-11 0-11-11 0-53-11-89-12-36-43-64-6-6-6-10 0-5 11-5h80q40 0 62 15t34 50q5 12 16 12 6 0 9-1l123-24q24-5 19-25-22-91-87-141T396 0H30Q12 0 12 20z"/><glyph unicode="¤" glyph-name="currency" horiz-adv-x="600" d="M235 126l-56 33q-3 2-8 2-6 0-10-4l-56-56q-4-4-9-4-6 0-12 6l-58 58q-4 4-4 9 0 6 4 10l57 57q4 4 4 9t-3 9q-16 31-23 57t-8 60q0 65 31 120 3 6 3 9 0 4-5 9l-56 56q-4 6-4 9 0 4 4 10l59 60q5 6 10 6t10-5l57-57q4-4 8-4 3 0 9 3 61 32 119 32 68 0 128-34 7-3 11 1l54 54q5 5 10 0l66-69q6-6 0-12l-54-53q-3-3 0-10 34-59 34-124 0-74-36-126-2-3 0-5l56-56q6-6 1-12l-66-67q-6-6-12 0l-54 54q-3 3-10 0-63-35-123-35-68 0-124 33zm99 124l28 17 45 45 16 61q0 32-16 60t-44 46-63 17q-34 0-62-17t-45-45-16-61q0-32 16-60t44-46 63-17q34 0 62 17z"/><glyph unicode="¥" glyph-name="yen" horiz-adv-x="690" d="M714 742v-12q0-3-4-11L491 366h107q8 0 13-5t5-15v-53q0-15-8-21t-25-7H466v-69h132q8 0 13-5t5-15v-53q0-15-8-21t-25-7H466V29q0-16-8-22t-25-7H265q-15 0-20 6t-6 19v70H115q-15 0-20 6t-6 19v53q0 23 19 23h131v69H115q-15 0-20 6t-6 19v53q0 23 19 23h96L-9 714q-4 7-4 13 0 15 22 15h201q14 0 20-4t14-17l123-222q5-10 8-10 5 0 9 9l121 223q6 13 13 17t21 4h157q18 0 18-12z"/><glyph unicode="¦" glyph-name="brokenbar" horiz-adv-x="245" d="M80 423q-15 0-21 8t-7 25v365q0 15 6 20t19 6h93q23 0 23-19V441q0-8-5-13t-15-5H80zm0-588q-15 0-21 8t-7 25v365q0 15 6 20t19 6h93q23 0 23-19v-387q0-8-5-13t-15-5H80z"/><glyph unicode="§" glyph-name="section" horiz-adv-x="517" d="M462 201l19-30 20-74q0-83-62-132T260-85q-90 0-152 28T23 11q-7 13-7 19t7 11l92 44q6 3 10 3 6 0 19-11 24-23 47-35t64-12q34 0 53 10t19 30q0 16-14 28t-49 25l-70 26q-94 35-134 74T20 325q0 47 21 81t60 54q-37 25-54 54t-17 66q0 49 26 88t77 61 117 23q77 0 136-28t82-68q7-13 7-19t-7-11l-92-44q-6-3-10-3-6 0-19 11-23 22-43 34t-49 13q-23 0-37-10t-14-26q0-12 9-20t34-17l70-26q94-35 134-74t40-102q0-88-75-135 46-26 65-56zm-128 79v45q0 17-13 32t-57 31l-37 14q-50-4-50-47 0-18 13-29t57-27l42-16q45-3 45 42z"/><glyph unicode="¨" glyph-name="dieresis" horiz-adv-x="431" d="M181 623q0-13-7-18t-22-6H32q-12 0-17 5t-5 17v101q0 20 16 20h139q7 0 11-5t5-13V623zm240 0q0-13-7-18t-22-6H272q-12 0-17 5t-5 17v101q0 20 16 20h139q7 0 11-5t5-13V623z"/><glyph unicode="©" glyph-name="copyright" horiz-adv-x="830" d="M311-10l-87 51L85 179 34 371q0 103 51 190t138 139 192 52q103 0 190-51t139-139 52-191q0-104-51-191T606 41 415-10q-104 0-191 51zM496 91l61 34 94 98 33 148q0 84-33 147t-94 99-142 35q-82 0-143-35t-93-98-33-148q0-85 32-148t94-97 143-35q81 0 142 34zm-26 493l39-19 62-50 30-62q1-3 1-8 0-10-15-12l-105-5h-3q-4 0-6 2t-4 9q-3 20-13 34t-34 14q-61 0-61-114 0-62 17-89t53-27q28 0 43 14t33 46q3 6 15 4l72-14q9-1 9-8 0-1-2-9-4-24-25-54t-61-53-97-22q-60 0-108 26t-76 75-28 109q0 62 27 110t76 76 109 27q52 0 91-19z"/><glyph unicode="ª" glyph-name="ordfeminine" horiz-adv-x="386" d="M274 751l34-25 34-77V475q0-18 7-43 6-18-32-18h-73q-9 0-12 3t-5 13l-1 4q-2 5-6 5-5 0-12-5-25-14-42-20t-40-6q-51 0-79 26t-29 70q0 51 46 81t135 36l13 1q12 0 12 11v8q0 36-37 36-35 0-49-29-2-6-5-7t-12 0l-82 16q-4 1-5 8t1 12q19 39 52 57t103 18q84-1 118-26zM139 498l10-8 28-8q22 0 37 12 10 8 10 20v35q0 13-12 12l-14-2q-21-2-40-15t-19-32q0-14 10-22z"/><glyph unicode="«" glyph-name="guillemotleft" horiz-adv-x="513" d="M254 73l1-4q0-9-17-9h-73q-11 0-16 10L57 235q-6 12-6 22 0 11 5 21l93 175q4 6 7 8t10 2h75q7 0 11-4t1-12l-57-177q-2-8-2-13 0-3 2-13l58-171zm208 0l1-4q0-9-17-9h-73q-11 0-16 10l-92 165q-6 12-6 22 0 11 5 21l93 175q4 6 7 8t10 2h75q7 0 11-4t1-12l-57-177q-2-8-2-13 0-3 2-13l58-171z"/><glyph unicode="¬" glyph-name="logicalnot" horiz-adv-x="600" d="M552 444l5-5 5-15V167q0-14-7-20t-23-6H426q-13 0-18 5t-6 18v139H66q-15 0-20 6t-6 19v93q0 23 19 23h485q8 0 13-5z"/><glyph unicode="­" glyph-name="uni00AD" horiz-adv-x="380" d="M339 221q0-15-8-21t-25-7H67q-15 0-20 6t-6 19v92q0 23 19 23h261q8 0 13-5t5-15v-92z"/><glyph unicode="®" glyph-name="registered" horiz-adv-x="545" d="M208 275l-55 32-87 86-32 120q0 65 32 120t87 87 120 32q64 0 119-32t87-87 32-120q0-65-32-119t-86-87-120-32q-65 0-120 32zm138 71l43 45 44 122q0 76-43 122t-117 46q-74 0-117-46t-44-122q0-77 43-122t118-45q73 0 116 45zm37 55q0-7-7-7h-62q-6 0-9 7l-29 86q-3 5-10 5h-18q-4 0-4-4v-85q0-9-11-9h-53q-8 0-8 8v221q0 7 6 7h109q46 0 72-17t26-49q0-21-11-37t-31-24q-2-1-2-6l41-93 1-3zm-87 138l7 6 7 16q0 10-8 16t-19 6h-32q-7 0-7-6v-31q0-7 5-7h35q12 0 19 6z"/><glyph unicode="¯" glyph-name="overscore" horiz-adv-x="431" d="M421 643q0-13-7-18t-22-6H32q-12 0-17 5t-5 17v81q0 20 16 20h379q7 0 11-5t5-13v-81z"/><glyph unicode="°" glyph-name="degree" horiz-adv-x="464" d="M414 622l-23-41-65-65-94-23q-52 0-93 23t-65 64-24 95q0 52 23 93t65 65 94 24q51 0 93-23t65-65 24-94q0-53-23-94zm-112 85l-19 20-53 21q-31 0-51-20t-20-52q0-34 19-55t53-22q32 0 51 21t20 54q0 33-19 53z"/><glyph unicode="±" glyph-name="plusminus" horiz-adv-x="600" d="M552 539l5-5 5-15v-93q0-15-8-21t-25-7H372V226q0-8-5-13t-15-5h-93q-15 0-21 8t-7 25v157H66q-15 0-20 6t-6 19v93q0 23 19 23h172v165q0 15 6 20t19 6h93q23 0 23-19V539h172q8 0 13-5zm0-383l5-5 5-15V43q0-15-8-21t-25-7H66q-15 0-20 6t-6 19v93q0 23 19 23h485q8 0 13-5z"/><glyph unicode="²" glyph-name="uni00B2" horiz-adv-x="452" d="M179 590q45 37 65 56t27 32 7 29q0 22-14 35t-41 14q-24 0-42-15t-39-54q-3-6-10-6-4 0-10 3l-75 37q-9 5-9 14 0 7 3 11 35 57 81 84t109 27q85 0 135-40t50-108q0-38-19-67t-64-60l-110-74q-4-3-4-5 0-3 8-3h179q15 0 15-12v-90q0-14-16-14H53q-9 0-13 3t-4 13v62q0 5 6 13t31 28l106 87z"/><glyph unicode="³" glyph-name="uni00B3" horiz-adv-x="467" d="M61 778v2q0 5 3 9 23 30 71 49t104 19q88 0 138-34t50-91q0-29-18-55t-53-36q-7-3-7-7t7-7q40-13 62-41t23-63q0-145-210-145-57 0-109 24t-76 61q-3 5-3 10 0 9 8 13l63 44q11 7 17 1 31-31 53-43t55-12q29 0 45 12t17 32q0 23-18 37t-49 15l-53 1q-13 0-13 11v76q0 9 13 11l43 2q29 2 46 15t18 35q0 16-15 27t-37 11q-27 0-48-10t-47-34q-5-5-8-5-4 0-8 4l-61 57q-3 5-3 7z"/><glyph unicode="´" glyph-name="acute" horiz-adv-x="320" d="M308 658q2-4 2-11 0-15-21-21L56 570q-10-2-11-2-12 0-18 15l-15 43q-2 8-2 10 0 9 10 14l238 101q2 1 6 1 10 0 15-13l29-81z"/><glyph unicode="¶" glyph-name="paragraph" horiz-adv-x="631" d="M542 633q-13 0-13-14V-67q0-18-15-18h-84q-9 0-14 5t-5 13v688q0 12-14 12h-39q-6 0-9-4t-4-10V-68q0-17-16-17h-86q-16 0-16 17v367q0 9-11 10-83 10-139 64T21 525q0 62 28 111t83 78 131 28h317q15 0 15-13v-83q0-13-15-13h-38z"/><glyph unicode="·" glyph-name="middot" horiz-adv-x="279" d="M230 310q0-14-6-20t-23-6H68q-13 0-18 5t-6 17v137q0 20 17 20h153q16 0 16-18V310z"/><glyph unicode="¸" glyph-name="cedilla" horiz-adv-x="287" d="M277-176l-39-24-94-25q-78 0-127 25-10 7-6 16l17 41q3 8 12 5 44-23 79-23 21 0 34 7t13 20q0 19-21 29T75-95q-8 0-10 2t0 10l38 88h81l-19-49q-1-2-1-5 0-4 7-4 54 0 80-25t26-59q0-39-39-63z"/><glyph unicode="¹" glyph-name="uni00B9" horiz-adv-x="367" d="M326 483v-89q0-14-16-14H43q-15 0-15 13v78q0 12 14 12h56q7 0 7 6v210q0 6-2 7t-8 1l-51-11q-2-1-6-1-11 0-11 15v53q0 8 2 11t10 7l113 57q9 4 16 6t15 3h54q11 0 11-13V491q0-8 7-8h57q14 0 14-12z"/><glyph unicode="º" glyph-name="ordmasculine" horiz-adv-x="391" d="M247 752l39-22 62-62 22-90q0-49-22-87t-62-61-91-22q-51 0-90 22t-62 60-22 88q0 51 23 90t62 62 89 22q52 0 91-22zm-77-78l-11-22-12-71q0-49 11-71t37-22q26 0 37 22t12 71q0 49-11 71t-38 22q-25 0-36-22z"/><glyph unicode="»" glyph-name="guillemotright" horiz-adv-x="513" d="M111 249v8q0 9-2 13L52 447q-1 2-1 6 0 10 13 10h75q7 0 10-2t7-8l93-175q6-9 6-21 0-11-7-22L156 70q-5-10-16-10H67q-20 0-16 13l58 171q2 5 2 13zm208 0v8q0 9-2 13l-57 177q-1 2-1 6 0 10 13 10h75q7 0 10-2t7-8l93-175q6-9 6-21 0-11-7-22L364 70q-5-10-16-10h-73q-20 0-16 13l58 171q2 5 2 13z"/><glyph unicode="¼" glyph-name="onequarter" horiz-adv-x="973" d="M292 379v-89q0-14-16-14H9q-15 0-15 13v78q0 12 14 12h56q7 0 7 6v210q0 6-2 7t-8 1l-51-11q-2-1-6-1-11 0-11 15v53q0 8 2 11t10 7l113 57q9 4 16 6t15 3h54q11 0 11-13V387q0-8 7-8h57q14 0 14-12zM231 8q-4-7-11-9t-18-3l-52 1q-9 0-14 5t-6 12q0 10 6 17l469 706q6 9 12 11t16 2h66q14 0 14-9 0-6-4-11L231 8zm506 453l5 3 18 3h103q12 0 12-13V203q0-8 7-8h47q13 0 13-12v-69q0-14-15-14h-44q-8 0-8-8V18q0-10-5-14t-16-4H747q-9 0-13 4t-4 12v78q0 6-8 6H542q-15 0-15 14v65q0 7 4 14t16 24l181 234q9 10 14 13zm-10-266q5 0 5 4v122q0 9-2 9-3 0-7-7l-86-120q-5-8 5-8h85z"/><glyph unicode="½" glyph-name="onehalf" horiz-adv-x="1020" d="M292 379v-89q0-14-16-14H9q-15 0-15 13v78q0 12 14 12h56q7 0 7 6v210q0 6-2 7t-8 1l-51-11q-2-1-6-1-11 0-11 15v53q0 8 2 11t10 7l113 57q9 4 16 6t15 3h54q11 0 11-13V387q0-8 7-8h57q14 0 14-12zM304 8q-4-7-11-9t-18-3l-52 1q-9 0-14 5t-6 12q0 10 6 17l469 706q6 9 12 11t16 2h66q14 0 14-9 0-6-4-11L304 8zm431 198q45 37 65 56t27 32 7 29q0 22-14 35t-41 14q-24 0-42-15t-39-54q-3-6-10-6-4 0-10 3l-75 37q-9 5-9 14 0 7 3 11 35 57 81 84t109 27q85 0 135-40t50-108q0-38-19-67t-64-60l-110-74q-4-3-4-5 0-3 8-3h179q15 0 15-12V14q0-14-16-14H609q-9 0-13 3t-4 13v62q0 5 6 13t31 28l106 87z"/><glyph unicode="¾" glyph-name="threequarters" horiz-adv-x="1063" d="M27 673v2q0 5 3 9 23 30 71 49t104 19q88 0 138-34t50-91q0-29-18-55t-53-36q-7-3-7-7t7-7q40-13 62-41t23-63q0-145-210-145-57 0-109 24t-76 61q-3 5-3 10 0 9 8 13l63 44q11 7 17 1 31-31 53-43t55-12q29 0 45 12t17 32q0 23-18 37t-49 15l-53 1q-13 0-13 11v76q0 9 13 11l43 2q29 2 46 15t18 35q0 16-15 27t-37 11q-27 0-48-10t-47-34q-5-5-8-5-4 0-8 4l-61 57q-3 5-3 7zM331 8q-4-7-11-9t-18-3l-52 1q-9 0-14 5t-6 12q0 10 6 17l469 706q6 9 12 11t16 2h66q14 0 14-9 0-6-4-11L331 8zm486 453l5 3 18 3h103q12 0 12-13V203q0-8 7-8h47q13 0 13-12v-69q0-14-15-14h-44q-8 0-8-8V18q0-10-5-14t-16-4H827q-9 0-13 4t-4 12v78q0 6-8 6H622q-15 0-15 14v65q0 7 4 14t16 24l181 234q9 10 14 13zm-10-266q5 0 5 4v122q0 9-2 9-3 0-7-7l-86-120q-5-8 5-8h85z"/><glyph unicode="¿" glyph-name="questiondown" horiz-adv-x="544" d="M187 501q0 16 8 22t25 7h151q15 0 20-6t6-19V355q0-22-19-22H205q-18 0-18 20v148zM550 13V0q0-3-2-11-32-81-100-122t-168-42q-84 0-142 23T51-89 22-3q0 38 15 65t37 46 57 40q42 28 62 48t20 51q0 10 7 17t18 7h105q12 0 19-7t7-22q0-37-13-65t-32-47-49-45q-30-24-44-40T217 8q0-20 19-34t46-14q32 0 59 19t43 53q6 13 15 13 3 0 11-2l128-27q12-3 12-16z"/><glyph unicode="À" glyph-name="Agrave" horiz-adv-x="799" d="M35 0l-5 5-5 16q0 7 3 16l242 682q5 13 11 18t19 5h197q12 0 21-7t15-20L773 34q2-8 2-12 0-9-4-15t-12-7H563q-17 0-22 17l-39 115q-3 7-5 9t-10 3H275q-12 0-15-11L219 15q-6-15-24-15H43q-8 0-13 5zm402 314q11 0 11 10 0 2-2 10l-60 171q-2 5-6 5t-6-5l-61-170q-2-4-2-10 0-11 12-11h114zM279 959l5 3 13 1 238-101q10-5 10-14 0-2-2-10l-15-43q-6-15-18-15-1 0-11 2l-233 56q-21 6-21 21 0 7 2 11l29 81q3 8 8 11z"/><glyph unicode="Á" glyph-name="Aacute" horiz-adv-x="799" d="M35 0l-5 5-5 16q0 7 3 16l242 682q5 13 11 18t19 5h197q12 0 21-7t15-20L773 34q2-8 2-12 0-9-4-15t-12-7H563q-17 0-22 17l-39 115q-3 7-5 9t-10 3H275q-12 0-15-11L219 15q-6-15-24-15H43q-8 0-13 5zm402 314q11 0 11 10 0 2-2 10l-60 171q-2 5-6 5t-6-5l-61-170q-2-4-2-10 0-11 12-11h114zm106 556q2-4 2-11 0-15-21-21l-233-56q-10-2-11-2-12 0-18 15l-15 43q-2 8-2 10 0 9 10 14l238 101q2 1 6 1 10 0 15-13l29-81z"/><glyph unicode="Â" glyph-name="Acircumflex" horiz-adv-x="799" d="M35 0l-5 5-5 16q0 7 3 16l242 682q5 13 11 18t19 5h197q12 0 21-7t15-20L773 34q2-8 2-12 0-9-4-15t-12-7H563q-17 0-22 17l-39 115q-3 7-5 9t-10 3H275q-12 0-15-11L219 15q-6-15-24-15H43q-8 0-13 5zm402 314q11 0 11 10 0 2-2 10l-60 171q-2 5-6 5t-6-5l-61-170q-2-4-2-10 0-11 12-11h114zm-27 557q-11 14-17 14t-17-14l-46-55q-5-7-9-8t-17-1h-99q-9 0-9 6 0 5 6 12l112 125q7 8 15 11t22 4h95q9 0 15-3t13-10l111-127q8-10 8-13 0-5-10-5H478q-11 0-16 1t-11 8l-41 55z"/><glyph unicode="Ã" glyph-name="Atilde" horiz-adv-x="799" d="M35 0l-5 5-5 16q0 7 3 16l242 682q5 13 11 18t19 5h197q12 0 21-7t15-20L773 34q2-8 2-12 0-9-4-15t-12-7H563q-17 0-22 17l-39 115q-3 7-5 9t-10 3H275q-12 0-15-11L219 15q-6-15-24-15H43q-8 0-13 5zm402 314q11 0 11 10 0 2-2 10l-60 171q-2 5-6 5t-6-5l-61-170q-2-4-2-10 0-11 12-11h114zm125 525l-27-9-56-9q-20 0-38 4t-44 12q-4 1-29 8t-51 7q-21 0-36-5t-35-20q-8-5-12-5-7 0-11 13l-17 54q-1 2-2 5t-1 7q0 8 11 19 21 20 43 30t55 11q23 0 44-5t51-14q19-6 37-10t34-5q38 0 77 28 5 4 11 4 10 0 13-13l14-65q1-3 1-8 0-11-15-22-17-12-44-21z"/><glyph unicode="Ä" glyph-name="Adieresis" horiz-adv-x="799" d="M35 0l-5 5-5 16q0 7 3 16l242 682q5 13 11 18t19 5h197q12 0 21-7t15-20L773 34q2-8 2-12 0-9-4-15t-12-7H563q-17 0-22 17l-39 115q-3 7-5 9t-10 3H275q-12 0-15-11L219 15q-6-15-24-15H43q-8 0-13 5zm402 314q11 0 11 10 0 2-2 10l-60 171q-2 5-6 5t-6-5l-61-170q-2-4-2-10 0-11 12-11h114zm-77 521q0-13-7-18t-22-6H211q-12 0-17 5t-5 17v101q0 20 16 20h139q7 0 11-5t5-13V835zm240 0q0-13-7-18t-22-6H451q-12 0-17 5t-5 17v101q0 20 16 20h139q7 0 11-5t5-13V835z"/><glyph unicode="Å" glyph-name="Aring" horiz-adv-x="799" d="M775 26v-4q0-9-4-15t-12-7H563q-17 0-22 17l-39 115q-3 7-5 9t-10 3H275q-12 0-15-11L219 15q-6-15-24-15H43q-8 0-13 5t-5 16q0 7 3 16l242 682q5 13 11 18t19 5h35q-27 15-42 42t-16 61q0 47 34 80t83 33q49 0 83-33t34-82q0-32-15-59t-42-42h43q12 0 21-7t15-20L773 34q2-8 2-12zM373 889l-14-13-15-34q0-19 15-34t34-15q20 0 34 14t14 35q0 20-14 33t-34 14q-20 0-34-13zm75-575v10q0 2-2 10l-60 171q-2 5-6 5t-6-5l-61-170q-2-4-2-10 0-11 12-11h114q11 0 11 10z"/><glyph unicode="Æ" glyph-name="AE" horiz-adv-x="1127" d="M1094 164V22q0-10-6-16t-18-6H535q-15 0-21 6t-6 19v105q0 14-13 14H294q-12 0-17-11L218 15q-7-15-26-15H40q-7 0-11 4t-4 12q0 9 6 21l354 682q6 12 13 17t20 6h649q18 0 18-21l-1-116q0-27-26-27H758q-23 0-23-19v-85q0-10 5-15t13-6h180q21 0 21-20V309q0-17-18-17H751q-7 0-11-4t-5-10V178q0-8 2-11t10-3h325q22 0 22-19zM508 314v221q0 11-4 17t-11 7q-13 0-25-22L366 335q-5-8-5-13 0-8 11-8h117q19 0 19 20z"/><glyph unicode="Ç" glyph-name="Ccedilla" horiz-adv-x="737" d="M711 249v-18q0-6-1-10-6-34-38-84t-95-93T423-8l-14-36q-1-2-1-5 0-4 7-4 54 0 80-25t26-59q0-39-39-63t-94-25q-78 0-127 25-10 7-6 16l17 41q3 8 12 5 44-23 79-23 21 0 34 7t13 20q0 19-21 29t-70 10q-8 0-10 2t0 10l32 75Q247 2 177 54T68 191 30 381q0 112 43 196t124 129 188 46q83 0 150-29t110-82 56-119q3-12 3-19 0-9-3-12t-13-4l-175-11q-10 0-13 3t-6 16q-9 48-33 75t-70 28q-59 0-91-52t-32-169q0-121 29-172t93-51q53 0 90 27t63 90q3 9 17 9 7 0 11-1l125-25q15-5 15-23z"/><glyph unicode="È" glyph-name="Egrave" horiz-adv-x="671" d="M52 742h559q18 0 18-21l-1-116q0-27-26-27H302q-23 0-23-19v-85q0-10 5-15t13-6h180q21 0 21-20V309q0-17-18-17H295q-7 0-11-4t-5-10V178q0-8 2-11t10-3h325q22 0 22-19V22q0-10-6-16t-18-6H79Q64 0 58 6t-6 19v694q0 23 19 23zm168 217l5 3 13 1 238-101q10-5 10-14 0-2-2-10l-15-43q-6-15-18-15-1 0-11 2l-233 56q-21 6-21 21 0 7 2 11l29 81q3 8 8 11z"/><glyph unicode="É" glyph-name="Eacute" horiz-adv-x="671" d="M52 742h559q18 0 18-21l-1-116q0-27-26-27H302q-23 0-23-19v-85q0-10 5-15t13-6h180q21 0 21-20V309q0-17-18-17H295q-7 0-11-4t-5-10V178q0-8 2-11t10-3h325q22 0 22-19V22q0-10-6-16t-18-6H79Q64 0 58 6t-6 19v694q0 23 19 23zm432 128q2-4 2-11 0-15-21-21l-233-56q-10-2-11-2-12 0-18 15l-15 43q-2 8-2 10 0 9 10 14l238 101q2 1 6 1 10 0 15-13l29-81z"/><glyph unicode="Ê" glyph-name="Ecircumflex" horiz-adv-x="671" d="M52 742h559q18 0 18-21l-1-116q0-27-26-27H302q-23 0-23-19v-85q0-10 5-15t13-6h180q21 0 21-20V309q0-17-18-17H295q-7 0-11-4t-5-10V178q0-8 2-11t10-3h325q22 0 22-19V22q0-10-6-16t-18-6H79Q64 0 58 6t-6 19v694q0 23 19 23zm299 129q-11 14-17 14t-17-14l-46-55q-5-7-9-8t-17-1h-99q-9 0-9 6 0 5 6 12l112 125q7 8 15 11t22 4h95q9 0 15-3t13-10l111-127q8-10 8-13 0-5-10-5H419q-11 0-16 1t-11 8l-41 55z"/><glyph unicode="Ë" glyph-name="Edieresis" horiz-adv-x="671" d="M52 742h559q18 0 18-21l-1-116q0-27-26-27H302q-23 0-23-19v-85q0-10 5-15t13-6h180q21 0 21-20V309q0-17-18-17H295q-7 0-11-4t-5-10V178q0-8 2-11t10-3h325q22 0 22-19V22q0-10-6-16t-18-6H79Q64 0 58 6t-6 19v694q0 23 19 23zm249 93q0-13-7-18t-22-6H152q-12 0-17 5t-5 17v101q0 20 16 20h139q7 0 11-5t5-13V835zm240 0q0-13-7-18t-22-6H392q-12 0-17 5t-5 17v101q0 20 16 20h139q7 0 11-5t5-13V835z"/><glyph unicode="Ì" glyph-name="Igrave" horiz-adv-x="331" d="M261 742q18 0 18-21V29q0-16-8-22t-25-7H79Q64 0 58 6t-6 19v694q0 11 5 17t14 6h190zM50 959l5 3 13 1 238-101q10-5 10-14 0-2-2-10l-15-43q-6-15-18-15-1 0-11 2L37 838q-21 6-21 21 0 7 2 11l29 81q3 8 8 11z"/><glyph unicode="Í" glyph-name="Iacute" horiz-adv-x="331" d="M261 742q18 0 18-21V29q0-16-8-22t-25-7H79Q64 0 58 6t-6 19v694q0 11 5 17t14 6h190zm53 128q2-4 2-11 0-15-21-21L62 782q-10-2-11-2-12 0-18 15l-15 43q-2 8-2 10 0 9 10 14l238 101q2 1 6 1 10 0 15-13l29-81z"/><glyph unicode="Î" glyph-name="Icircumflex" horiz-adv-x="331" d="M261 742q18 0 18-21V29q0-16-8-22t-25-7H79Q64 0 58 6t-6 19v694q0 11 5 17t14 6h190zm-80 129q-11 14-17 14t-17-14l-46-55q-5-7-9-8t-17-1h-99q-9 0-9 6 0 5 6 12L85 950q7 8 15 11t22 4h95q9 0 15-3t13-10l111-127q8-10 8-13 0-5-10-5H249q-11 0-16 1t-11 8l-41 55z"/><glyph unicode="Ï" glyph-name="Idieresis" horiz-adv-x="331" d="M261 742q18 0 18-21V29q0-16-8-22t-25-7H79Q64 0 58 6t-6 19v694q0 11 5 17t14 6h190zm-130 93q0-13-7-18t-22-6H-18q-12 0-17 5t-5 17v101q0 20 16 20h139q7 0 11-5t5-13V835zm240 0q0-13-7-18t-22-6H222q-12 0-17 5t-5 17v101q0 20 16 20h139q7 0 11-5t5-13V835z"/><glyph unicode="Ð" glyph-name="Eth" horiz-adv-x="791" d="M560 734l100-98 100-263q0-110-45-194T581 48 364 0H101Q86 0 79 7t-7 23v263H50q-15 0-20 6t-6 19v93q0 23 19 23h29v283q0 14 6 19t21 6h118q119 0 148-1 195-7 295-105zM419 157l51 51 52 168q0 100-39 149t-114 56l-60 4q-5 0-7-3t-3-11V434h115q8 0 13-5t5-15v-93q0-15-8-21t-25-7H299V172q0-9 3-12t11-3h7q99 0 150 51z"/><glyph unicode="Ñ" glyph-name="Ntilde" horiz-adv-x="761" d="M694 742q15 0 15-17V18q0-8-6-13t-17-5H549q-9 0-14 3t-13 12L247 388q-4 5-7 4t-3-6V22q1-12-4-17t-20-5H77Q52 0 52 20v699q0 23 22 23h163q13 0 19-3t15-15l240-334q6-9 11-9t5 13v327q0 21 22 21h145zm-146 97l-27-9-56-9q-20 0-38 4t-44 12q-4 1-29 8t-51 7q-21 0-36-5t-35-20q-8-5-12-5-7 0-11 13l-17 54q-1 2-2 5t-1 7q0 8 11 19 21 20 43 30t55 11q23 0 44-5t51-14q19-6 37-10t34-5q38 0 77 28 5 4 11 4 10 0 13-13l14-65q1-3 1-8 0-11-15-22-17-12-44-21z"/><glyph unicode="Ò" glyph-name="Ograve" horiz-adv-x="780" d="M282-10l-81 46L75 168 31 369q0 115 44 201t126 134 190 48q107 0 188-47t125-134 45-202q0-114-44-200T580 37 391-10q-109 0-190 46zm153 156l26 21 38 70 12 129q0 124-28 178t-92 54q-65 0-93-54t-29-178q0-81 12-129t38-69 72-22q44 0 70 21zM274 959l5 3 13 1 238-101q10-5 10-14 0-2-2-10l-15-43q-6-15-18-15-1 0-11 2l-233 56q-21 6-21 21 0 7 2 11l29 81q3 8 8 11z"/><glyph unicode="Ó" glyph-name="Oacute" horiz-adv-x="780" d="M282-10l-81 46L75 168 31 369q0 115 44 201t126 134 190 48q107 0 188-47t125-134 45-202q0-114-44-200T580 37 391-10q-109 0-190 46zm153 156l26 21 38 70 12 129q0 124-28 178t-92 54q-65 0-93-54t-29-178q0-81 12-129t38-69 72-22q44 0 70 21zm103 724q2-4 2-11 0-15-21-21l-233-56q-10-2-11-2-12 0-18 15l-15 43q-2 8-2 10 0 9 10 14l238 101q2 1 6 1 10 0 15-13l29-81z"/><glyph unicode="Ô" glyph-name="Ocircumflex" horiz-adv-x="780" d="M282-10l-81 46L75 168 31 369q0 115 44 201t126 134 190 48q107 0 188-47t125-134 45-202q0-114-44-200T580 37 391-10q-109 0-190 46zm153 156l26 21 38 70 12 129q0 124-28 178t-92 54q-65 0-93-54t-29-178q0-81 12-129t38-69 72-22q44 0 70 21zm-30 725q-11 14-17 14t-17-14l-46-55q-5-7-9-8t-17-1h-99q-9 0-9 6 0 5 6 12l112 125q7 8 15 11t22 4h95q9 0 15-3t13-10l111-127q8-10 8-13 0-5-10-5H473q-11 0-16 1t-11 8l-41 55z"/><glyph unicode="Õ" glyph-name="Otilde" horiz-adv-x="780" d="M282-10l-81 46L75 168 31 369q0 115 44 201t126 134 190 48q107 0 188-47t125-134 45-202q0-114-44-200T580 37 391-10q-109 0-190 46zm153 156l26 21 38 70 12 129q0 124-28 178t-92 54q-65 0-93-54t-29-178q0-81 12-129t38-69 72-22q44 0 70 21zm122 693l-27-9-56-9q-20 0-38 4t-44 12q-4 1-29 8t-51 7q-21 0-36-5t-35-20q-8-5-12-5-7 0-11 13l-17 54q-1 2-2 5t-1 7q0 8 11 19 21 20 43 30t55 11q23 0 44-5t51-14q19-6 37-10t34-5q38 0 77 28 5 4 11 4 10 0 13-13l14-65q1-3 1-8 0-11-15-22-17-12-44-21z"/><glyph unicode="Ö" glyph-name="Odieresis" horiz-adv-x="780" d="M282-10l-81 46L75 168 31 369q0 115 44 201t126 134 190 48q107 0 188-47t125-134 45-202q0-114-44-200T580 37 391-10q-109 0-190 46zm153 156l26 21 38 70 12 129q0 124-28 178t-92 54q-65 0-93-54t-29-178q0-81 12-129t38-69 72-22q44 0 70 21zm-80 689q0-13-7-18t-22-6H206q-12 0-17 5t-5 17v101q0 20 16 20h139q7 0 11-5t5-13V835zm240 0q0-13-7-18t-22-6H446q-12 0-17 5t-5 17v101q0 20 16 20h139q7 0 11-5t5-13V835z"/><glyph unicode="×" glyph-name="multiply" horiz-adv-x="600" d="M544 230q5-5 5-12 0-8-7-14l-66-66q-10-10-19-10-11 0-24 13L301 273 158 131q-6-6-12-6t-15 7l-65 66q-10 9-10 19 0 11 13 24l132 132L63 511q-10 10-10 18t10 18l65 66q9 9 17 9 7 0 13-6l143-143 138 138q10 10 19 10 8 0 17-9l66-66q8-8 8-17 0-8-5-13L401 373l143-143z"/><glyph unicode="Ø" glyph-name="Oslash" horiz-adv-x="786" d="M782 680v-7q0-7-7-14l-76-74q53-92 53-216 0-114-44-200T583 37 394-10q-137 0-230 73L107 7Q95-5 86-5 76-5 64 7L25 47Q13 59 13 68q0 8 8 16l67 66q-54 91-54 219 0 115 44 201t126 134 190 48q138 0 232-78l65 63q10 10 20 10 6 0 11-5l54-56q6-6 6-13zM272 342l1-13 215 210q-27 59-94 59-65 0-93-54t-29-178q0-24 1-37zm242 49l-1 13-213-209q27-49 94-49 44 0 70 21t38 70 12 129q0 25-1 38z"/><glyph unicode="Ù" glyph-name="Ugrave" horiz-adv-x="728" d="M684 129l-83-69-237-70q-173 0-246 80T44 313v406q0 11 5 17t14 6h190q18 0 18-21V289q0-74 28-107t82-33q52 0 84 33t32 110v427q0 23 19 23h150q18 0 18-21V293q0-164-83-233zM265 959l5 3 13 1 238-101q10-5 10-14 0-2-2-10l-15-43q-6-15-18-15-1 0-11 2l-233 56q-21 6-21 21 0 7 2 11l29 81q3 8 8 11z"/><glyph unicode="Ú" glyph-name="Uacute" horiz-adv-x="728" d="M684 129l-83-69-237-70q-173 0-246 80T44 313v406q0 11 5 17t14 6h190q18 0 18-21V289q0-74 28-107t82-33q52 0 84 33t32 110v427q0 23 19 23h150q18 0 18-21V293q0-164-83-233zM529 870q2-4 2-11 0-15-21-21l-233-56q-10-2-11-2-12 0-18 15l-15 43q-2 8-2 10 0 9 10 14l238 101q2 1 6 1 10 0 15-13l29-81z"/><glyph unicode="Û" glyph-name="Ucircumflex" horiz-adv-x="728" d="M684 129l-83-69-237-70q-173 0-246 80T44 313v406q0 11 5 17t14 6h190q18 0 18-21V289q0-74 28-107t82-33q52 0 84 33t32 110v427q0 23 19 23h150q18 0 18-21V293q0-164-83-233zM396 871q-11 14-17 14t-17-14l-46-55q-5-7-9-8t-17-1h-99q-9 0-9 6 0 5 6 12l112 125q7 8 15 11t22 4h95q9 0 15-3t13-10l111-127q8-10 8-13 0-5-10-5H464q-11 0-16 1t-11 8l-41 55z"/><glyph unicode="Ü" glyph-name="Udieresis" horiz-adv-x="728" d="M684 129l-83-69-237-70q-173 0-246 80T44 313v406q0 11 5 17t14 6h190q18 0 18-21V289q0-74 28-107t82-33q52 0 84 33t32 110v427q0 23 19 23h150q18 0 18-21V293q0-164-83-233zM346 835q0-13-7-18t-22-6H197q-12 0-17 5t-5 17v101q0 20 16 20h139q7 0 11-5t5-13V835zm240 0q0-13-7-18t-22-6H437q-12 0-17 5t-5 17v101q0 20 16 20h139q7 0 11-5t5-13V835z"/><glyph unicode="Ý" glyph-name="Yacute" horiz-adv-x="774" d="M751 742v-12q0-3-4-11L513 341q-7-10-8-22t-2-44V29q0-16-8-22t-25-7H302q-15 0-20 6t-6 19v263q0 14-3 22t-11 22L28 714q-4 7-4 13 0 15 22 15h201q14 0 20-4t14-17l123-222q5-10 8-10 5 0 9 9l121 223q6 13 13 17t21 4h157q18 0 18-12zM551 870q2-4 2-11 0-15-21-21l-233-56q-10-2-11-2-12 0-18 15l-15 43q-2 8-2 10 0 9 10 14l238 101q2 1 6 1 10 0 15-13l29-81z"/><glyph unicode="Þ" glyph-name="Thorn" horiz-adv-x="744" d="M716 302l-34-52-97-80-144-28H291q-12 0-12-11V29q0-16-8-22t-25-7H78Q63 0 58 6t-6 19v694q0 11 5 17t14 6h190q18 0 18-21V620q0-12 10-12h126q84 0 152-26t109-80 40-130q0-70-34-122zM484 408l-24 20-59 20h-99q-13 0-18-5t-5-16V324q0-12 4-17t13-5h111q35 0 56 21t21 52q0 33-24 53z"/><glyph unicode="ß" glyph-name="germandbls" horiz-adv-x="676" d="M458 742l62-41 62-120q0-53-32-89t-111-67q-5-2-5-7t7-8q74-33 116-58t72-68 29-105q0-91-61-140T427-10q-72 0-121 26-9 5-9 14 0 2 2 8l41 89q5 9 13 9 3 0 8-3 14-9 28-14t34-6q25 0 41 11t17 34q0 20-16 31t-61 32q-111 49-111 147 0 36 14 62t38 52l24 24q17 17 25 32t9 30q0 21-16 35t-47 14q-38 0-58-23t-21-59V22q1-3 1-8 0-14-16-14H83Q65 0 65 20v331q0 10-8 10H31q-22 0-22 19v94q0 10 6 16t18 6h18q9 0 11 4t3 14q4 97 69 162t213 66q111 0 173-41z"/><glyph unicode="à" glyph-name="agrave" horiz-adv-x="573" d="M261-10h-83q-73 0-116 41T18 136q0 58 37 102t107 69 163 25h7q15 0 15 14v17q0 58-59 58-24 0-45-11t-33-36q-3-7-6-9t-10-3q-7 0-11 1L52 389q-11 2-11 13 0 7 4 19 42 119 252 119 131 0 185-43t55-122V27q0-15-4-21t-19-6H377q-12 0-17 9t-9 26l-1 7q-1 10-8 10-8 0-19-10-62-52-145-52zm86 244l-3 4-12 4h-4q-19 0-46-9t-49-26-21-44q0-21 15-34t42-13q32 0 55 19t23 36v53q0 10-3 14zM181 747l5 3 13 1 238-101q10-5 10-14 0-2-2-10l-15-43q-6-15-18-15-1 0-11 2l-233 56q-21 6-21 21 0 7 2 11l29 81q3 8 8 11z"/><glyph unicode="á" glyph-name="aacute" horiz-adv-x="573" d="M261-10h-83q-73 0-116 41T18 136q0 58 37 102t107 69 163 25h7q15 0 15 14v17q0 58-59 58-24 0-45-11t-33-36q-3-7-6-9t-10-3q-7 0-11 1L52 389q-11 2-11 13 0 7 4 19 42 119 252 119 131 0 185-43t55-122V27q0-15-4-21t-19-6H377q-12 0-17 9t-9 26l-1 7q-1 10-8 10-8 0-19-10-62-52-145-52zm86 244l-3 4-12 4h-4q-19 0-46-9t-49-26-21-44q0-21 15-34t42-13q32 0 55 19t23 36v53q0 10-3 14zm98 424q2-4 2-11 0-15-21-21l-233-56q-10-2-11-2-12 0-18 15l-15 43q-2 8-2 10 0 9 10 14l238 101q2 1 6 1 10 0 15-13l29-81z"/><glyph unicode="â" glyph-name="acircumflex" horiz-adv-x="573" d="M261-10h-83q-73 0-116 41T18 136q0 58 37 102t107 69 163 25h7q15 0 15 14v17q0 58-59 58-24 0-45-11t-33-36q-3-7-6-9t-10-3q-7 0-11 1L52 389q-11 2-11 13 0 7 4 19 42 119 252 119 131 0 185-43t55-122V27q0-15-4-21t-19-6H377q-12 0-17 9t-9 26l-1 7q-1 10-8 10-8 0-19-10-62-52-145-52zm86 244l-3 4-12 4h-4q-19 0-46-9t-49-26-21-44q0-21 15-34t42-13q32 0 55 19t23 36v53q0 10-3 14zm-35 425q-11 14-17 14t-17-14l-46-55q-5-7-9-8t-17-1h-99q-9 0-9 6 0 5 6 12l112 125q7 8 15 11t22 4h95q9 0 15-3t13-10l111-127q8-10 8-13 0-5-10-5H380q-11 0-16 1t-11 8l-41 55z"/><glyph unicode="ã" glyph-name="atilde" horiz-adv-x="573" d="M261-10h-83q-73 0-116 41T18 136q0 58 37 102t107 69 163 25h7q15 0 15 14v17q0 58-59 58-24 0-45-11t-33-36q-3-7-6-9t-10-3q-7 0-11 1L52 389q-11 2-11 13 0 7 4 19 42 119 252 119 131 0 185-43t55-122V27q0-15-4-21t-19-6H377q-12 0-17 9t-9 26l-1 7q-1 10-8 10-8 0-19-10-62-52-145-52zm86 244l-3 4-12 4h-4q-19 0-46-9t-49-26-21-44q0-21 15-34t42-13q32 0 55 19t23 36v53q0 10-3 14zm117 393l-27-9-56-9q-20 0-38 4t-44 12q-4 1-29 8t-51 7q-21 0-36-5t-35-20q-8-5-12-5-7 0-11 13l-17 54q-1 2-2 5t-1 7q0 8 11 19 21 20 43 30t55 11q23 0 44-5t51-14q19-6 37-10t34-5q38 0 77 28 5 4 11 4 10 0 13-13l14-65q1-3 1-8 0-11-15-22-17-12-44-21z"/><glyph unicode="ä" glyph-name="adieresis" horiz-adv-x="573" d="M261-10h-83q-73 0-116 41T18 136q0 58 37 102t107 69 163 25h7q15 0 15 14v17q0 58-59 58-24 0-45-11t-33-36q-3-7-6-9t-10-3q-7 0-11 1L52 389q-11 2-11 13 0 7 4 19 42 119 252 119 131 0 185-43t55-122V27q0-15-4-21t-19-6H377q-12 0-17 9t-9 26l-1 7q-1 10-8 10-8 0-19-10-62-52-145-52zm86 244l-3 4-12 4h-4q-19 0-46-9t-49-26-21-44q0-21 15-34t42-13q32 0 55 19t23 36v53q0 10-3 14zm-85 389q0-13-7-18t-22-6H113q-12 0-17 5t-5 17v101q0 20 16 20h139q7 0 11-5t5-13V623zm240 0q0-13-7-18t-22-6H353q-12 0-17 5t-5 17v101q0 20 16 20h139q7 0 11-5t5-13V623z"/><glyph unicode="å" glyph-name="aring" horiz-adv-x="573" d="M261-10h-83q-73 0-116 41T18 136q0 58 37 102t107 69 163 25h7q15 0 15 14v17q0 58-59 58-24 0-45-11t-33-36q-3-7-6-9t-10-3q-7 0-11 1L52 389q-11 2-11 13 0 7 4 19 42 119 252 119 131 0 185-43t55-122V27q0-15-4-21t-19-6H377q-12 0-17 9t-9 26l-1 7q-1 10-8 10-8 0-19-10-62-52-145-52zm86 244l-3 4-12 4h-4q-19 0-46-9t-49-26-21-44q0-21 15-34t42-13q32 0 55 19t23 36v53q0 10-3 14zm67 407l-34-34-83-34q-49 0-83 34t-34 85q0 47 34 80t83 33q49 0 83-33t34-82q0-49-34-83zm-70 68l-14 13-34 14q-20 0-34-13t-15-34q0-19 14-34t35-15q20 0 34 14t14 35q0 20-14 33z"/><glyph unicode="æ" glyph-name="ae" horiz-adv-x="915" d="M552 229v-17q0-44 28-67t75-23q27 0 52 12t57 44q4 4 8 4t13-3l91-37q9-3 9-12 0-6-5-12-52-73-108-100T628-10q-62 0-116 21t-92 60q-5 6-11 0-45-44-96-62T191-10q-83 0-128 41T18 143q0 82 73 131t215 57l23 1q18 0 18 14v17q0 58-59 58-24 0-45-11t-33-36q-3-7-6-9t-8-3q-8 0-13 1L52 389q-9 2-9 20 0 8 2 12 20 41 49 67t76 39 123 13q127-1 186-40 66 40 145 40t140-34 97-98 35-154q0-14-3-19t-15-6H567q-15 0-15-17zm48 194l-23-23-22-67 130-1q10 0 13 2t4 12q0 25-18 51t-51 26q-33 0-56-23zM347 234h-18l-14-1q-35-3-69-23t-34-54q0-22 15-35t45-13q30 0 52 14t23 38v56q0 18-18 18z"/><glyph unicode="ç" glyph-name="ccedilla" horiz-adv-x="556" d="M538 179v-11q0-1-2-11-5-29-28-64t-66-64T337-8l-14-36q-1-2-1-5 0-4 7-4 54 0 80-25t26-59q0-39-39-63t-94-25q-78 0-127 25-10 7-6 16l17 41q3 8 12 5 44-23 79-23 21 0 34 7t13 20q0 19-21 29t-70 10q-8 0-10 2t0 10l33 76q-69 9-122 45t-83 94-30 131q0 81 36 144t99 98 142 35q67 0 118-25t81-65 39-80q2-8 2-10 0-14-20-16l-137-7h-3q-7 0-9 3t-5 11q-4 27-16 45t-45 18q-80 0-80-149 0-80 23-115t68-36q26 0 43 9t29 25 27 45q3 6 12 6 5 0 8-1l94-18q11-1 11-12z"/><glyph unicode="è" glyph-name="egrave" horiz-adv-x="590" d="M227 168l28-23 75-23q27 0 52 12t57 44q4 4 8 4t13-3l91-37q9-3 9-12 0-6-5-12-52-73-108-100T303-10q-79 0-143 34T58 118 21 256q0 83 38 147t102 101 138 36q79 0 140-34t97-98 35-154q0-14-3-19t-15-6H242q-15 0-15-17 0-44 28-67zm133 164q10 0 13 2t4 12q0 25-18 51t-51 26q-33 0-56-23t-22-67l130-1zM185 747l5 3 13 1 238-101q10-5 10-14 0-2-2-10l-15-43q-6-15-18-15-1 0-11 2l-233 56q-21 6-21 21 0 7 2 11l29 81q3 8 8 11z"/><glyph unicode="é" glyph-name="eacute" horiz-adv-x="590" d="M227 168l28-23 75-23q27 0 52 12t57 44q4 4 8 4t13-3l91-37q9-3 9-12 0-6-5-12-52-73-108-100T303-10q-79 0-143 34T58 118 21 256q0 83 38 147t102 101 138 36q79 0 140-34t97-98 35-154q0-14-3-19t-15-6H242q-15 0-15-17 0-44 28-67zm133 164q10 0 13 2t4 12q0 25-18 51t-51 26q-33 0-56-23t-22-67l130-1zm89 326q2-4 2-11 0-15-21-21l-233-56q-10-2-11-2-12 0-18 15l-15 43q-2 8-2 10 0 9 10 14l238 101q2 1 6 1 10 0 15-13l29-81z"/><glyph unicode="ê" glyph-name="ecircumflex" horiz-adv-x="590" d="M227 168l28-23 75-23q27 0 52 12t57 44q4 4 8 4t13-3l91-37q9-3 9-12 0-6-5-12-52-73-108-100T303-10q-79 0-143 34T58 118 21 256q0 83 38 147t102 101 138 36q79 0 140-34t97-98 35-154q0-14-3-19t-15-6H242q-15 0-15-17 0-44 28-67zm133 164q10 0 13 2t4 12q0 25-18 51t-51 26q-33 0-56-23t-22-67l130-1zm-44 327q-11 14-17 14t-17-14l-46-55q-5-7-9-8t-17-1h-99q-9 0-9 6 0 5 6 12l112 125q7 8 15 11t22 4h95q9 0 15-3t13-10l111-127q8-10 8-13 0-5-10-5H384q-11 0-16 1t-11 8l-41 55z"/><glyph unicode="ë" glyph-name="edieresis" horiz-adv-x="590" d="M227 168l28-23 75-23q27 0 52 12t57 44q4 4 8 4t13-3l91-37q9-3 9-12 0-6-5-12-52-73-108-100T303-10q-79 0-143 34T58 118 21 256q0 83 38 147t102 101 138 36q79 0 140-34t97-98 35-154q0-14-3-19t-15-6H242q-15 0-15-17 0-44 28-67zm133 164q10 0 13 2t4 12q0 25-18 51t-51 26q-33 0-56-23t-22-67l130-1zm-94 291q0-13-7-18t-22-6H117q-12 0-17 5t-5 17v101q0 20 16 20h139q7 0 11-5t5-13V623zm240 0q0-13-7-18t-22-6H357q-12 0-17 5t-5 17v101q0 20 16 20h139q7 0 11-5t5-13V623z"/><glyph unicode="ì" glyph-name="igrave" horiz-adv-x="282" d="M241 29q0-16-8-22t-25-7H67Q52 0 47 6t-6 19v482q0 23 19 23h163q8 0 13-5t5-15V29zM29 747l5 3 13 1 238-101q10-5 10-14 0-2-2-10l-15-43q-6-15-18-15-1 0-11 2L16 626q-21 6-21 21 0 7 2 11l29 81q3 8 8 11z"/><glyph unicode="í" glyph-name="iacute" horiz-adv-x="282" d="M241 29q0-16-8-22t-25-7H67Q52 0 47 6t-6 19v482q0 23 19 23h163q8 0 13-5t5-15V29zm52 629q2-4 2-11 0-15-21-21L41 570q-10-2-11-2-12 0-18 15l-15 43q-2 8-2 10 0 9 10 14l238 101q2 1 6 1 10 0 15-13l29-81z"/><glyph unicode="î" glyph-name="icircumflex" horiz-adv-x="282" d="M241 29q0-16-8-22t-25-7H67Q52 0 47 6t-6 19v482q0 23 19 23h163q8 0 13-5t5-15V29zm-81 630q-11 14-17 14t-17-14l-46-55q-5-7-9-8t-17-1h-99q-9 0-9 6 0 5 6 12L64 738q7 8 15 11t22 4h95q9 0 15-3t13-10l111-127q8-10 8-13 0-5-10-5H228q-11 0-16 1t-11 8l-41 55z"/><glyph unicode="ï" glyph-name="idieresis" horiz-adv-x="282" d="M241 29q0-16-8-22t-25-7H67Q52 0 47 6t-6 19v482q0 23 19 23h163q8 0 13-5t5-15V29zM110 623q0-13-7-18t-22-6H-39q-12 0-17 5t-5 17v101q0 20 16 20H94q7 0 11-5t5-13V623zm240 0q0-13-7-18t-22-6H201q-12 0-17 5t-5 17v101q0 20 16 20h139q7 0 11-5t5-13V623z"/><glyph unicode="ð" glyph-name="eth" horiz-adv-x="600" d="M579 193l-35-66-98-101-147-36q-81 0-144 34t-98 94-36 134q0 77 36 138t101 95 142 35q5 0 2 5-25 34-66 65l-96-54q-6-3-10-3-8 0-14 10l-15 24q-5 8-5 12 0 7 7 10l71 39q-41 21-82 35-6 2-6 7 0 4 4 7l84 69q6 6 11 6 2 0 10-2 68-16 121-43l75 42q4 3 8 3 7 0 10-5l21-38 2-5q0-4-6-9l-46-26q94-66 146-167t53-220q0-89-35-155zm-239-75l18 34 19 104q0 72-18 106t-59 34q-40 0-58-34t-19-106q0-71 18-104t59-34q40 0 58 34z"/><glyph unicode="ñ" glyph-name="ntilde" horiz-adv-x="604" d="M53 0l-6 5-6 20v482q0 11 5 17t14 6h161q18 0 18-20v-45q0-8 5-8 4 0 8 4 33 37 74 58t85 21q70 0 113-44t44-118V30q0-30-30-30H391q-13 0-18 5t-5 20v326q0 22-14 35t-39 13q-46 0-74-50V29q0-16-7-22t-26-7H67Q53 0 47 5zm418 627l-27-9-56-9q-20 0-38 4t-44 12q-4 1-29 8t-51 7q-21 0-36-5t-35-20q-8-5-12-5-7 0-11 13l-17 54q-1 2-2 5t-1 7q0 8 11 19 21 20 43 30t55 11q23 0 44-5t51-14q19-6 37-10t34-5q38 0 77 28 5 4 11 4 10 0 13-13l14-65q1-3 1-8 0-11-15-22-17-12-44-21z"/><glyph unicode="ò" glyph-name="ograve" horiz-adv-x="600" d="M218-10l-63 35-98 96-36 141q0 82 36 145t100 98 143 35q82 0 145-35t99-99 35-144q0-78-35-140T444 25 299-10q-81 0-144 35zm122 128l18 35 19 113q0 79-18 114t-59 36q-40 0-58-36t-19-114q0-78 18-113t59-35q40 0 58 35zM184 747l5 3 13 1 238-101q10-5 10-14 0-2-2-10l-15-43q-6-15-18-15-1 0-11 2l-233 56q-21 6-21 21 0 7 2 11l29 81q3 8 8 11z"/><glyph unicode="ó" glyph-name="oacute" horiz-adv-x="600" d="M218-10l-63 35-98 96-36 141q0 82 36 145t100 98 143 35q82 0 145-35t99-99 35-144q0-78-35-140T444 25 299-10q-81 0-144 35zm122 128l18 35 19 113q0 79-18 114t-59 36q-40 0-58-36t-19-114q0-78 18-113t59-35q40 0 58 35zm108 540q2-4 2-11 0-15-21-21l-233-56q-10-2-11-2-12 0-18 15l-15 43q-2 8-2 10 0 9 10 14l238 101q2 1 6 1 10 0 15-13l29-81z"/><glyph unicode="ô" glyph-name="ocircumflex" horiz-adv-x="600" d="M218-10l-63 35-98 96-36 141q0 82 36 145t100 98 143 35q82 0 145-35t99-99 35-144q0-78-35-140T444 25 299-10q-81 0-144 35zm122 128l18 35 19 113q0 79-18 114t-59 36q-40 0-58-36t-19-114q0-78 18-113t59-35q40 0 58 35zm-25 541q-11 14-17 14t-17-14l-46-55q-5-7-9-8t-17-1h-99q-9 0-9 6 0 5 6 12l112 125q7 8 15 11t22 4h95q9 0 15-3t13-10l111-127q8-10 8-13 0-5-10-5H383q-11 0-16 1t-11 8l-41 55z"/><glyph unicode="õ" glyph-name="otilde" horiz-adv-x="600" d="M218-10l-63 35-98 96-36 141q0 82 36 145t100 98 143 35q82 0 145-35t99-99 35-144q0-78-35-140T444 25 299-10q-81 0-144 35zm122 128l18 35 19 113q0 79-18 114t-59 36q-40 0-58-36t-19-114q0-78 18-113t59-35q40 0 58 35zm127 509l-27-9-56-9q-20 0-38 4t-44 12q-4 1-29 8t-51 7q-21 0-36-5t-35-20q-8-5-12-5-7 0-11 13l-17 54q-1 2-2 5t-1 7q0 8 11 19 21 20 43 30t55 11q23 0 44-5t51-14q19-6 37-10t34-5q38 0 77 28 5 4 11 4 10 0 13-13l14-65q1-3 1-8 0-11-15-22-17-12-44-21z"/><glyph unicode="ö" glyph-name="odieresis" horiz-adv-x="600" d="M218-10l-63 35-98 96-36 141q0 82 36 145t100 98 143 35q82 0 145-35t99-99 35-144q0-78-35-140T444 25 299-10q-81 0-144 35zm122 128l18 35 19 113q0 79-18 114t-59 36q-40 0-58-36t-19-114q0-78 18-113t59-35q40 0 58 35zm-75 505q0-13-7-18t-22-6H116q-12 0-17 5t-5 17v101q0 20 16 20h139q7 0 11-5t5-13V623zm240 0q0-13-7-18t-22-6H356q-12 0-17 5t-5 17v101q0 20 16 20h139q7 0 11-5t5-13V623z"/><glyph unicode="÷" glyph-name="divide" horiz-adv-x="602" d="M397 530q0-14-7-20t-23-6H231q-13 0-18 5t-6 18v139q0 20 17 20h157q16 0 16-18V530zm165-199q0-15-8-21t-25-7H66q-15 0-20 6t-6 19v93q0 23 19 23h485q8 0 13-5t5-15v-93zM397 87q0-14-7-20t-23-6H231q-13 0-18 5t-6 17v140q0 20 17 20h157q16 0 16-18V87z"/><glyph unicode="ø" glyph-name="oslash" horiz-adv-x="604" d="M534 422q45-68 45-160 0-78-35-140T444 25 299-10q-100 0-172 52L94 12Q82 0 72 0 61 0 51 12L32 32Q20 44 20 54q0 7 8 15l39 36q-46 66-46 157 0 82 36 145t100 98 143 35q103 0 175-55l38 35q10 10 20 10 6 0 11-5l34-36q6-6 6-13t-7-14l-43-40zM223 251l137 127q-18 38-60 38-40 0-58-36t-19-114v-15zm154 25L243 151q19-33 57-33 40 0 58 35t19 113v10z"/><glyph unicode="ù" glyph-name="ugrave" horiz-adv-x="601" d="M306 130l20 11 34 30v330q0 15 8 22t25 7h143q14 0 20-6t6-20l-4-482q0-22-19-22H381q-18 0-18 20v44q0 8-5 8-3 0-7-4-34-40-74-59t-92-19q-66 0-107 44T36 157v343q0 30 31 30h146q13 0 18-6t5-20V179q0-23 13-36t36-13q21 0 41 11zM183 747l5 3 13 1 238-101q10-5 10-14 0-2-2-10l-15-43q-6-15-18-15-1 0-11 2l-233 56q-21 6-21 21 0 7 2 11l29 81q3 8 8 11z"/><glyph unicode="ú" glyph-name="uacute" horiz-adv-x="601" d="M306 130l20 11 34 30v330q0 15 8 22t25 7h143q14 0 20-6t6-20l-4-482q0-22-19-22H381q-18 0-18 20v44q0 8-5 8-3 0-7-4-34-40-74-59t-92-19q-66 0-107 44T36 157v343q0 30 31 30h146q13 0 18-6t5-20V179q0-23 13-36t36-13q21 0 41 11zm141 528q2-4 2-11 0-15-21-21l-233-56q-10-2-11-2-12 0-18 15l-15 43q-2 8-2 10 0 9 10 14l238 101q2 1 6 1 10 0 15-13l29-81z"/><glyph unicode="û" glyph-name="ucircumflex" horiz-adv-x="601" d="M306 130l20 11 34 30v330q0 15 8 22t25 7h143q14 0 20-6t6-20l-4-482q0-22-19-22H381q-18 0-18 20v44q0 8-5 8-3 0-7-4-34-40-74-59t-92-19q-66 0-107 44T36 157v343q0 30 31 30h146q13 0 18-6t5-20V179q0-23 13-36t36-13q21 0 41 11zm8 529q-11 14-17 14t-17-14l-46-55q-5-7-9-8t-17-1h-99q-9 0-9 6 0 5 6 12l112 125q7 8 15 11t22 4h95q9 0 15-3t13-10l111-127q8-10 8-13 0-5-10-5H382q-11 0-16 1t-11 8l-41 55z"/><glyph unicode="ü" glyph-name="udieresis" horiz-adv-x="601" d="M306 130l20 11 34 30v330q0 15 8 22t25 7h143q14 0 20-6t6-20l-4-482q0-22-19-22H381q-18 0-18 20v44q0 8-5 8-3 0-7-4-34-40-74-59t-92-19q-66 0-107 44T36 157v343q0 30 31 30h146q13 0 18-6t5-20V179q0-23 13-36t36-13q21 0 41 11zm-42 493q0-13-7-18t-22-6H115q-12 0-17 5t-5 17v101q0 20 16 20h139q7 0 11-5t5-13V623zm240 0q0-13-7-18t-22-6H355q-12 0-17 5t-5 17v101q0 20 16 20h139q7 0 11-5t5-13V623z"/><glyph unicode="ý" glyph-name="yacute" horiz-adv-x="589" d="M69-165l-11 4-12 18v102q0 7 6 13t22 6h71q29 0 48 13t19 30q0 4-2 10L16 501q-2 6-2 9 0 9 6 14t15 6h169q9 0 16-5t10-15l85-240q3-10 8-10t9 10l86 240q9 20 26 20h112q9 0 14-5t5-14q0-4-2-10L378 31q-35-84-69-125t-81-56-126-15q-33 0-44 4zm405 823q2-4 2-11 0-15-21-21l-233-56q-10-2-11-2-12 0-18 15l-15 43q-2 8-2 10 0 9 10 14l238 101q2 1 6 1 10 0 15-13l29-81z"/><glyph unicode="þ" glyph-name="thorn" horiz-adv-x="614" d="M230 742l6-5 6-19V485q0-6 6-6 5 0 9 4 31 29 63 43t77 14q88 0 142-69t54-204q0-143-56-210T390-10q-37 0-67 11t-61 40q-11 10-16 10t-5-15v-181q0-20-18-20H60q-9 0-14 5t-5 17v859q0 13 6 19t21 7h148q14 0 20-5zm39-631h42q40 0 60 35t20 127q0 83-19 114t-61 32q-29 0-49-16t-21-40V151q28-40 70-40z"/><glyph unicode="ÿ" glyph-name="ydieresis" horiz-adv-x="589" d="M69-165l-11 4-12 18v102q0 7 6 13t22 6h71q29 0 48 13t19 30q0 4-2 10L16 501q-2 6-2 9 0 9 6 14t15 6h169q9 0 16-5t10-15l85-240q3-10 8-10t9 10l86 240q9 20 26 20h112q9 0 14-5t5-14q0-4-2-10L378 31q-35-84-69-125t-81-56-126-15q-33 0-44 4zm222 788q0-13-7-18t-22-6H142q-12 0-17 5t-5 17v101q0 20 16 20h139q7 0 11-5t5-13V623zm240 0q0-13-7-18t-22-6H382q-12 0-17 5t-5 17v101q0 20 16 20h139q7 0 11-5t5-13V623z"/><glyph unicode="–" glyph-name="endash" horiz-adv-x="602" d="M562 211q0-15-8-21t-25-7H66q-15 0-20 6t-6 19v92q0 23 19 23h485q8 0 13-5t5-15v-92z"/><glyph unicode="—" glyph-name="emdash" horiz-adv-x="928" d="M888 211q0-15-8-21t-25-7H66q-15 0-20 6t-6 19v92q0 23 19 23h811q8 0 13-5t5-15v-92z"/><glyph unicode="‘" glyph-name="quoteleft" horiz-adv-x="253" d="M202 742l4-7 1-15-42-102q-4-9-4-17 0-9 13-12l16-2q14-2 19-6t5-17V432q0-21-18-21H49q-17 0-17 18v127q0 8 4 14l100 151q6 10 18 15t23 6h16q9 0 13-7z"/><glyph unicode="’" glyph-name="quoteright" horiz-adv-x="253" d="M51 411l-4 7-1 15 42 102q4 9 4 17 0 9-13 12l-16 2q-14 2-19 6t-5 17v132q0 21 18 21h147q17 0 17-18V597q0-8-4-14L117 432q-6-10-18-15t-23-6H60q-9 0-13 7z"/><glyph unicode="‚" glyph-name="quotesinglbase" horiz-adv-x="253" d="M51-155l-4 7-1 15L88-31q4 9 4 17 0 9-13 12L63 0Q49 2 44 6t-5 17v132q0 21 18 21h147q17 0 17-18V31q0-8-4-14L117-134q-6-10-18-15t-23-6H60q-9 0-13 7z"/><glyph unicode="“" glyph-name="quotedblleft" horiz-adv-x="509" d="M32 411v145q0 8 4 14l100 151q6 10 18 15t23 6h16q9 0 13-7t1-15l-42-102q-4-9-4-17 0-9 13-12l16-2q14-2 19-6t5-17V432q0-21-18-21H49q-17 0-17 18zm256 0v145q0 8 4 14l100 151q6 10 18 15t23 6h16q9 0 13-7t1-15l-42-102q-4-9-4-17 0-9 13-12l16-2q14-2 19-6t5-17V432q0-21-18-21H305q-17 0-17 18z"/><glyph unicode="”" glyph-name="quotedblright" horiz-adv-x="514" d="M51 411l-4 7-1 15 42 102q4 9 4 17 0 9-13 12l-16 2q-14 2-19 6t-5 17v132q0 21 18 21h147q17 0 17-18V597q0-8-4-14L117 432q-6-10-18-15t-23-6H60q-9 0-13 7zm256 0l-4 7-1 15 42 102q4 9 4 17 0 9-13 12l-16 2q-14 2-19 6t-5 17v132q0 21 18 21h147q17 0 17-18V597q0-8-4-14L373 432q-6-10-18-15t-23-6h-16q-9 0-13 7z"/><glyph unicode="„" glyph-name="quotedblbase" horiz-adv-x="514" d="M307-155l-4 7-1 15 42 102q4 9 4 17 0 9-13 12l-16 2q-14 2-19 6t-5 17v132q0 21 18 21h147q17 0 17-18V31q0-8-4-14L373-134q-6-10-18-15t-23-6h-16q-9 0-13 7zm-256 0l-4 7-1 15L88-31q4 9 4 17 0 9-13 12L63 0Q49 2 44 6t-5 17v132q0 21 18 21h147q17 0 17-18V31q0-8-4-14L117-134q-6-10-18-15t-23-6H60q-9 0-13 7z"/><glyph unicode="•" glyph-name="bullet" horiz-adv-x="357" d="M134 223l-35 20-56 56-21 78q0 42 20 77t56 56 78 21q42 0 77-20t56-56 21-78q0-42-20-77t-56-56-78-21q-42 0-77 20z"/><glyph unicode="‹" glyph-name="guilsinglleft" horiz-adv-x="305" d="M254 73l1-4q0-9-17-9h-73q-11 0-16 10L57 235q-6 12-6 22 0 11 5 21l93 175q4 6 7 8t10 2h75q7 0 11-4t1-12l-57-177q-2-8-2-13 0-3 2-13l58-171z"/><glyph unicode="›" glyph-name="guilsinglright" horiz-adv-x="305" d="M111 249v8q0 9-2 13L52 447q-1 2-1 6 0 10 13 10h75q7 0 10-2t7-8l93-175q6-9 6-21 0-11-7-22L156 70q-5-10-16-10H67q-20 0-16 13l58 171q2 5 2 13z"/></font>
</defs>
</svg>
