<svg xmlns="http://www.w3.org/2000/svg"><defs><font id="RobotoSlab" horiz-adv-x="1239"><font-face font-family="Roboto Slab ExtraLight" units-per-em="2048" ascent="2146" descent="-555" alphabetic="0"/><glyph horiz-adv-x="494"/><glyph unicode="!" horiz-adv-x="448" d="M158 478v978h87V478h-87zM143 0v150h119V0H143z"/><glyph unicode="&quot;" horiz-adv-x="641" d="M166 1107l12 274v179h78v-181l-29-272h-61zm211 0l12 274v179h78v-181l-29-272h-61z"/><glyph unicode="#" horiz-adv-x="1246" d="M250 0l76 410H63v72h277l89 484H139v74h304l76 416h78l-77-416h340l77 416h78l-78-416h242v-74H924l-90-484h270v-72H821L744 0h-77l76 410H404L328 0h-78zm168 482h338l90 484H506l-88-484z"/><glyph unicode="$" horiz-adv-x="1092" d="M509-208v188q-123 6-221 53T135 173 83 408l2 6h79q0-126 51-204T353 95t189-37q104 0 180 39t118 105 43 149q0 81-32 138T742 594t-208 94q-141 46-231 99T170 916t-44 187q0 161 102 261t277 111v195h79v-195q178-13 276-126t97-307l-5-4h-78q0 159-87 259t-245 101q-161 0-245-84t-84-209q0-82 29-140t106-105 215-93q139-48 229-101t134-127 44-186q0-163-104-261T588-19v-189h-79z"/><glyph unicode="%" horiz-adv-x="1458" d="M396 126l-60 39 711 1138 60-39L396 126zm705-147q-84 0-147 40t-98 108-35 152v78q0 83 35 151t97 108 146 41q82 0 145-40t98-108 36-152v-78q0-84-35-152t-97-108-145-40zm0 70q96 0 148 67t53 163v78q0 99-52 164t-151 66q-96 0-149-66t-53-164v-78q0-95 52-162t152-68zM357 800q-83 0-146 40t-99 107-35 152v77q0 84 35 152t98 109 145 40q82 0 145-40t98-108 36-153v-77q0-84-35-151t-98-108-144-40zm0 70q96 0 148 67t53 162v77q0 94-53 162t-150 69q-96 0-149-69t-53-162v-77q0-94 53-161t151-68z"/><glyph unicode="&amp;" horiz-adv-x="1261" d="M517-21q-137 0-236 47T128 159 74 361q0 116 67 211t192 195q11 9 21 17t21 16q-81 102-120 185t-39 172q0 103 39 174t110 109 170 37q93 0 158-34t101-96 36-143q0-87-42-148T669 933L488 791l444-510q51 74 80 165t29 195h83q0-126-36-230T986 219L1171 5l-2-5h-99L930 160Q853 85 754 32T517-21zm0 77q101 0 195 42t167 121L424 741l-49-39Q248 596 205 515t-44-154q0-129 92-217t264-88zm-76 791l192 150q60 47 86 98t26 109q0 86-54 141t-156 55q-111 0-171-69t-60-172q0-73 33-150t104-162z"/><glyph unicode="'" horiz-adv-x="430" d="M166 1107l12 274v179h78v-181l-29-272h-61z"/><glyph unicode="(" horiz-adv-x="626" d="M544-463q-86 52-163 151T243-77t-94 300-35 347v17q0 176 34 339t95 303 137 240 164 152l6-1 21-54q-75-52-141-149t-118-228-81-284-30-314v-23q0-163 29-315t81-284 118-229 142-150l-21-53h-6z"/><glyph unicode=")" horiz-adv-x="619" d="M32-463l-21 53q74 51 141 148T270-33t81 285 30 316v23q0 161-30 313t-81 285-119 229-140 150l21 53h6q85-50 162-151t137-241 96-302 35-340v-17q0-182-35-346T339-77 202-312 38-463h-6z"/><glyph unicode="*" horiz-adv-x="950" d="M697 651L469 965 253 650l-65 46 226 313-348 116 25 77 347-128-2 382h81l-8-384 338 135 27-77-347-125 236-307-66-47z"/><glyph unicode="+" horiz-adv-x="1145" d="M521 146v493H73v82h448v485h88V721h462v-82H609V146h-88z"/><glyph unicode="," horiz-adv-x="388" d="M130-268l-54 42q46 63 68 124t22 137v138h87V37q0-90-32-168t-91-137z"/><glyph unicode="-" horiz-adv-x="791" d="M154 585v77h474v-77H154z"/><glyph unicode="." horiz-adv-x="455" d="M145 0v147h112V0H145z"/><glyph unicode="/" horiz-adv-x="787" d="M0-125l608 1581h84L84-125H0z"/><glyph unicode="0" horiz-adv-x="1154" d="M570-21q-211 0-330 154T121 570v316q0 283 118 437t329 154q212 0 330-154t119-437V570q0-284-117-437T570-21zm0 77q176 0 268 133t92 373v334q0 239-92 371t-270 133q-176 0-268-132t-92-372V562q0-238 93-372T570 56z"/><glyph unicode="1" horiz-adv-x="826" d="M111 0v71l277 6v1292l-313-60v67l400 86V77l277-6V0H111z"/><glyph unicode="2" horiz-adv-x="1110" d="M104 0v73l477 545q90 103 145 183t80 148 26 132q0 147-83 233t-241 86q-167 0-259-98t-92-260H78l-2 6q-3 119 49 216t152 155 233 58q125 0 217-47t142-136 51-211q0-81-34-162T786 750 627 553L218 82l2-5h688l3 222h81V0H104z"/><glyph unicode="3" horiz-adv-x="1100" d="M537-21q-125 0-232 49T135 170 75 394l2 6h79q0-101 49-178t135-122 197-44q167 0 260 87t94 244q0 162-102 239t-286 77H378v79h125q114 0 194 39t122 106 42 155q0 142-84 230t-247 88q-101 0-179-40t-124-114-45-171h-79l-2 6q-3 116 52 205t154 140 223 51q191 0 304-106t114-293q0-110-68-200T692 745q139-36 212-128t74-226q0-129-56-221T767 29 537-21z"/><glyph unicode="4" horiz-adv-x="1174" d="M594 0v71l163 6v306H63v49l683 1024h98V460h240v-77H844V77l163-6V0H594zM176 460h581v873l-6 2-65-112-510-763z"/><glyph unicode="5" horiz-adv-x="1066" d="M507-21q-119 0-213 45T147 157 97 377l2 6h77q0-160 90-243t241-84q178 0 264 102t86 304q0 174-86 276T531 840q-149 0-231-49T180 645l-69 16 79 795h716v-213h-75l-5 132H267l-58-570q39 38 82 63t101 40 145 17q120 2 212-54t143-160 52-247q0-148-47-257T752 39 507-21z"/><glyph unicode="6" horiz-adv-x="1116" d="M569-21q-132 0-233 68T178 244t-57 313v297q0 204 61 342t168 210 245 71q75 0 148-16t133-52l-25-73q-61 35-117 49t-139 15q-170 0-277-130T209 876l1-136q49 96 147 157t225 62q131 0 226-61t146-173 51-258q0-141-56-251T795 43 569-21zm0 76q104 0 182 55t123 150 44 207q0 189-90 303T567 884q-94 0-174-41T264 733t-56-152v-29q0-237 99-367T569 55z"/><glyph unicode="7" horiz-adv-x="1110" d="M379 0l8 106q29 256 98 479t180 420 259 374H160l-4-223H76v300h942v-77q-113-133-204-273T655 812 541 483t-67-377L466 0h-87z"/><glyph unicode="8" horiz-adv-x="1125" d="M559-21q-138 0-243 46T151 162 92 382q0 131 82 228t219 136q-119 38-189 127t-71 211q0 124 54 212t150 134 220 47q123 0 219-47t152-135 55-211q0-120-72-210T720 746q136-39 220-136t84-228q0-129-59-219T800 26 559-21zm0 77q109 0 194 39t135 111 49 174q0 97-50 171T751 666t-194 41q-109 0-194-41T228 551t-49-171q0-153 106-238t274-86zm0 729q97 0 173 37t120 105 44 160q0 89-45 160t-122 112-172 41q-148 0-242-85t-95-228q0-138 95-220t244-82z"/><glyph unicode="9" horiz-adv-x="1132" d="M503-21q-77 0-155 15T194 41l19 78q72-33 139-48t151-15q178 0 278 131t101 394l-1 96q-52-100-147-156t-215-56q-129 0-227 64T139 705 84 958q0 145 57 263t156 187 226 69q138 0 240-61t158-184 56-311V596q0-205-58-342T755 48 503-21zm16 563q139 0 232 76t133 186v121q0 241-96 358t-260 117q-103 0-182-61t-124-161-45-220q0-116 42-210t119-150 181-56z"/><glyph unicode=":" horiz-adv-x="377" d="M380 0v147h112V0H380zM124 933v147h112V933H124z"/><glyph unicode=";" horiz-adv-x="378" d="M130 935v147h112V935H130zM381-268l-54 42q46 63 68 124t22 137v138h87V37q0-90-32-168t-91-137z"/><glyph unicode="&lt;" horiz-adv-x="1025" d="M908 129L76 508v73l832 378v-91L271 577l-111-32v-6l111-32 637-286v-92z"/><glyph unicode="=" horiz-adv-x="1127" d="M147 838v80h834v-80H147zm0-409v80h834v-80H147z"/><glyph unicode="&gt;" horiz-adv-x="1054" d="M125 125v91l646 291 110 32v6l-110 33-646 288v89l840-378v-73L125 125z"/><glyph unicode="?" horiz-adv-x="913" d="M362 402q0 63 4 103t17 71 39 61 70 70q79 74 126 132t69 121 22 147q0 137-73 214t-207 77q-130 0-205-76t-77-206H68l-3 6q-1 112 45 191t129 122 190 42q171 0 269-101t98-269q0-92-27-166t-84-144-143-149q-41-38-61-69t-26-71-6-106h-87zM358 0v130h110V0H358z"/><glyph unicode="@" horiz-adv-x="1804" d="M858-453q-249 0-426 113T165-19 86 478q12 283 123 493t302 328 442 117q260 0 434-107t259-308 73-483q-6-145-55-268T1523 53t-223-74q-81 0-133 56t-65 157Q995-21 780-21 647-21 580 98t-50 318q16 168 75 293t152 194 206 70q88 0 142-27t121-82l-1-22-48-549q-7-95 11-148t51-74 73-22q150 0 236 130t97 339q19 393-155 610t-541 218q-226 0-398-108T277 934 162 478q-13-256 65-450t239-302 398-109q96 0 183 21t150 57l27-59q-63-40-165-64t-201-25zM792 54q98 0 176 57t134 210v15q0 7 2 17l41 478q-32 33-76 51t-100 18q-138 0-235-122T613 416q-18-161 28-261T792 54z"/><glyph unicode="A" horiz-adv-x="1486" d="M58 0v71l108 3 520 1382h90L1295 74l107-3V0h-334v71l135 4-132 355H389L257 75l135-4V0H58zm361 510h623l-284 767-24 71h-6l-24-71-285-767z"/><glyph unicode="B" horiz-adv-x="1264" d="M73 0v71l163 6v1302l-163 6v71h565q227 0 352-94t126-284q0-122-65-208T868 758q90-13 160-64t112-126 41-165q0-193-125-298T723 0H73zm250 77h400q173 0 271 85t99 239q0 89-41 158T932 670t-194 41H323V77zm0 711h342q178 0 271 73t93 221q0 147-99 222t-292 75H323V788z"/><glyph unicode="C" horiz-adv-x="1335" d="M781-21q-213 0-361 94T195 333t-77 386v18q0 219 79 385t223 261 337 94q154 0 258-41t191-117v-270h-78l-5 233q-49 38-100 63t-115 39-152 14q-165 0-289-83t-192-231-69-345v-20q0-200 68-348t197-231 310-83q100 0 194 25t159 70l5 227h78V99q-91-60-202-90T781-21z"/><glyph unicode="D" horiz-adv-x="1379" d="M73 0v71l163 6v1302l-163 6v71h561q182 0 322-92t221-254 81-372v-21q0-208-79-370T959 93 636 0H73zm250 77h311q157 0 278 84t190 229 69 327v24q0 183-69 327t-190 227-278 84H323V77z"/><glyph unicode="E" horiz-adv-x="1278" d="M73 0v71l163 6v1302l-163 6v71h1033v-306h-78l-5 229H323V796h609v-77H323V76h730l5 230h78V0H73z"/><glyph unicode="F" horiz-adv-x="1248" d="M73 0v71l163 6v1302l-163 6v71h1072v-306h-78l-5 229H323V778h620v-79H323V77l163-6V0H73z"/><glyph unicode="G" horiz-adv-x="1401" d="M763-21q-200 0-344 93T196 333t-78 386v35q0 214 81 377t222 254 320 92q158 0 268-41t199-110v-262h-79l-5 221q-68 52-155 82t-223 31q-154 0-276-81t-193-226-71-335v-37q0-196 65-345t190-232 300-84q126 0 225 29t170 68v405l-307 3v75h394V117q-85-56-201-97T763-21z"/><glyph unicode="H" horiz-adv-x="1523" d="M73 0v71l163 6v1302l-163 6v71h413v-71l-163-6V760h876v619l-163 6v71h413v-71l-163-6V77l163-6V0h-413v71l163 6v606H323V77l163-6V0H73z"/><glyph unicode="I" horiz-adv-x="560" d="M73 0v71l163 6v1302l-163 6v71h413v-71l-163-6V77l163-6V0H73z"/><glyph unicode="J" horiz-adv-x="1144" d="M478-21q-130 0-227 47T101 167 49 400l2 6h79q1-171 90-260t258-89q97 0 171 44t116 127 41 192v959l-188 6v71h438v-71l-163-6V420q0-134-51-233T697 34 478-21z"/><glyph unicode="K" horiz-adv-x="1414" d="M306 398l-39 76 806 903-1 5-154 3v71h385v-71l-120-6-877-981zM73 0v71l163 6v1302l-163 6v71h413v-71l-163-6V77l163-6V0H73zm888 0v71l153 3 2 5-510 700 64 58 559-761 122-5V0H961z"/><glyph unicode="L" horiz-adv-x="1172" d="M73 0v71l163 6v1302l-163 6v71h414v-71l-163-6V76h652l5 237h77V0H73z"/><glyph unicode="M" horiz-adv-x="1860" d="M76 0v71l163 6v1302l-163 6v71h283L926 147h6l565 1309h287v-71l-163-6V77l163-6V0h-413v71l165 6v1244l-6 2L961 12h-63L327 1317l-5-2 1-511V77l166-6V0H76z"/><glyph unicode="N" horiz-adv-x="1534" d="M74 0v71l163 6v1302l-163 6v71h251l883-1303 6 2v1224l-166 6v71h413v-71l-163-6V0h-84L327 1306l-6-2V77l167-6V0H74z"/><glyph unicode="O" horiz-adv-x="1456" d="M725-21q-137 0-249 53T284 182 160 416t-44 303v18q0 167 43 303t123 233 192 151 249 53q139 0 251-53t192-150 124-234 43-303v-18q0-167-43-303t-122-234T976 32 725-21zm0 79q163 0 279 82t179 231 62 348v20q0 198-62 346t-180 230-280 82q-159 0-275-82t-180-230-64-346v-20q0-199 63-347t181-231 277-83z"/><glyph unicode="P" horiz-adv-x="1265" d="M73 0v71l163 6v1302l-163 6v71h592q152 0 258-52t161-146 56-222q0-128-55-222T923 668t-258-52H323V77l163-6V0H73zm250 693h342q193 0 290 97t98 244q0 150-97 247t-291 98H323V693z"/><glyph unicode="Q" horiz-adv-x="1454" d="M1292-215L957 25Q903 2 845-9T725-21q-137 0-249 53T284 182 160 416t-44 303v18q0 167 43 302t123 234 192 151 249 53q138 0 250-53t193-151 123-233 43-303v-18q0-224-75-393T1038 67l306-217-52-65zM725 58q162 0 278 82t179 231 63 348v20q0 198-62 346t-180 230-280 82q-159 0-275-82t-180-230-64-346v-20q0-199 63-347t180-231 278-83z"/><glyph unicode="R" horiz-adv-x="1369" d="M73-1v71l163 6v1302l-163 6v71h600q155 0 262-45t163-132 56-216q0-124-59-210T929 722t-250-45l-356-2V76l163-6V-1H73zm988 0L752 720l87 1 283-646 125-4V-1h-186zM323 753h342q208 0 305 86t97 223q0 152-98 234t-296 82H323V753z"/><glyph unicode="S" horiz-adv-x="1188" d="M593-21q-121 0-246 37T103 134v270h77l8-227q98-62 201-91t204-29q121 0 213 37t145 105 52 156q0 87-41 151T829 619t-250 92q-162 44-261 97T174 936t-45 181q0 107 57 187t160 127 240 46q143 0 257-43t198-113v-247h-77l-7 205q-71 58-164 89t-207 31q-117 0-200-38t-126-101-44-140q0-78 32-137t118-105 241-87q239-63 361-163t123-271q0-115-64-200T850 26 593-21z"/><glyph unicode="T" horiz-adv-x="1307" d="M445 0v71l163 6v1303H166l-7-230H84v306h1136v-306h-75l-7 230H695V77l163-6V0H445z"/><glyph unicode="U" horiz-adv-x="1460" d="M729-21q-149 0-262 57T289 202t-64 267v910l-163 6v71h413v-71l-163-6V469q0-131 53-223t147-140 218-49q122 0 216 48t148 141 53 223v910l-163 6v71h413v-71l-163-6V469q0-159-63-268T993 36 729-21z"/><glyph unicode="V" horiz-adv-x="1451" d="M682 0L166 1381l-109 4v71h352v-71l-149-5L696 197l28-87h6l29 87 438 1184-151 4v71h351v-71l-109-4L772 0h-90z"/><glyph unicode="W" horiz-adv-x="2030" d="M521 0L167 1382l-107 3v71h356v-71l-158-5L508 370l59-219h6l62 219 347 1086h87l346-1086 61-222h6l62 222 248 1010-160 5v71h353v-71l-105-3L1530 0h-90l-366 1166-46 146h-6l-45-146L609 0h-88z"/><glyph unicode="X" horiz-adv-x="1417" d="M62 0v71l118 5 478 666-455 638-118 5v71h377v-71l-160-3 407-578 404 578-160 3v71h377v-71l-119-5-449-638 475-666 118-5V0H978v71l159 3-428 606L281 74l157-3V0H62z"/><glyph unicode="Y" horiz-adv-x="1436" d="M513 0v71l163 6v471l-499 833-120 4v71h367v-71l-147-4 417-713 25-47 1 2 24 45 422 713-148 4v71h364v-71l-121-4-497-830V77l163-6V0H513z"/><glyph unicode="Z" horiz-adv-x="1215" d="M92 0v68l889 1312H208l-4-228h-78v304h965v-63L200 77h841l4 231h78V0H92z"/><glyph unicode="[" horiz-adv-x="538" d="M157-312v1976h306v-77H244V-235h219v-77H157z"/><glyph unicode="\" horiz-adv-x="797" d="M644-125L36 1456h88L732-125h-88z"/><glyph unicode="]" horiz-adv-x="516" d="M23-312v77h219v1822H23v77h307V-312H23z"/><glyph unicode="^" horiz-adv-x="836" d="M71 729l299 727h71l299-727h-89l-209 514-35 104h-6l-37-104-206-514H71z"/><glyph unicode="_" horiz-adv-x="1142" d="M119-77V0h864v-77H119z"/><glyph unicode="`" horiz-adv-x="365" d="M325 1320l-3-4h-67L40 1555l2 5h102l181-240z"/><glyph unicode="a" horiz-adv-x="1120" d="M419-21q-149 0-235 81T98 279q0 98 58 173t165 117 252 42h236v131q0 126-74 204t-227 79q-83 0-151-29t-117-72l-4-171h-77v216q68 61 154 97t196 36q190 0 288-96t99-266V218q0-37 2-73t10-72l140-2V0H831q-12 65-17 102t-5 85Q749 95 648 37T419-21zm6 79q118 0 225 64t159 173v243H573q-178 0-283-75T185 275q0-94 66-155t174-62z"/><glyph unicode="b" horiz-adv-x="1101" d="M594-21q-123 0-214 49T237 165L227 0h-74v1483l-163 6v71h250V901q53 94 141 147t211 54q129 0 221-69t141-197 50-299v-21q0-164-49-284T815 45 594-21zm-10 78q163 0 247 124t84 335v21q0 144-37 253T766 962t-184 62q-143 0-224-72T240 772V280q39-101 125-162t219-61z"/><glyph unicode="c" horiz-adv-x="1079" d="M545-21q-129 0-230 68T156 236 98 520v42q0 160 56 281t156 190 234 69q124 0 221-49t164-124l1-239h-77l-8 207q-57 60-131 94t-168 34q-108 0-189-60T230 801t-45-239v-42q0-138 45-242t126-163 191-59q130 0 218 67t106 204h76l2-6q-11-107-63-184T748 20 545-21z"/><glyph unicode="d" horiz-adv-x="1208" d="M507-21q-128 0-219 66T147 231 98 516v21q0 172 49 299t141 196 221 70q121 0 209-53t142-147v581l-163 6v71h250V77l163-6V0H867l-5 163Q809 77 719 28T507-21zm11 78q129 0 215 58t127 159v505q-39 105-120 175t-220 70q-110 0-184-62T225 791t-38-254v-21q0-210 83-334T518 57z"/><glyph unicode="e" horiz-adv-x="1078" d="M565-21q-135 0-239 67T163 231t-60 274v59q0 155 58 276t160 192 227 70q127 0 220-56t144-157 50-239v-92H192l-1-60q1-127 48-227t131-157 195-58q102 0 180 34t140 92l40-62Q860 58 773 19T565-21zM202 635h673v32q0 102-39 183T723 978t-175 47q-94 0-169-50T256 837t-57-196l3-6z"/><glyph unicode="f" horiz-adv-x="723" d="M104 0v71l163 6v929H83v76h184v169q0 157 78 243t219 87q33 0 67-4t67-14l-12-75q-29 8-54 11t-62 3q-103 0-159-66t-57-185v-169h274v-76H354V77l168-6V0H104z"/><glyph unicode="g" horiz-adv-x="1155" d="M530-437q-79 0-166 17t-152 49l24 77q69-31 138-47t154-17q163 0 247 99t85 273v145Q807 75 718 27T509-21q-128 0-220 66T147 232 98 516v21q0 173 49 299t141 196 223 70q122 0 211-54t142-151l11 185h73V14q0-138-50-239T755-382t-225-55zM519 57q132 0 217 60t124 163v493q-38 107-117 179t-222 72q-109 0-184-62T224 791t-38-254v-21q0-210 84-334T519 57zm407 946l-23 79h186v-71l-163-8z"/><glyph unicode="h" horiz-adv-x="1287" d="M59 0v71l163 6v1406l-163 6v71h250V873q51 109 144 169t225 60q170 0 259-106t90-333V77l163-6V0H776v71l163 6v588q0 194-73 276t-202 83q-153 0-240-89T309 704V77l163-6V0H59z"/><glyph unicode="i" horiz-adv-x="619" d="M84 0v71l163 6v928l-163 6v71h250V77l163-6V0H84zm147 1404v156h103v-156H231z"/><glyph unicode="j" horiz-adv-x="554" d="M96-437q-30 0-56 5t-56 15l13 74q17-6 46-11t53-6q98 0 152 71t55 200v1094l-163 6v71h250V-89q0-167-77-257T96-437zm186 1841v156h103v-156H282z"/><glyph unicode="k" horiz-adv-x="1185" d="M62 0v71l163 6v1406l-163 6v71h250V77l163-6V0H62zm699 0v71l122 3 1 4-379 521 52 63L994 76l126-5V0H761zM302 338l-31 78 560 586-1 6-118 3v71h355v-71l-126-6-639-667z"/><glyph unicode="l" horiz-adv-x="598" d="M78 0v71l163 6v1406l-163 6v71h250V77l163-6V0H78z"/><glyph unicode="m" horiz-adv-x="1979" d="M86 0v71l163 6v928l-163 6v71h240l8-204q50 106 139 165t216 59q133 0 218-66t120-205q45 128 139 200t233 72q176 0 269-116t94-362V78l163-7V1h-414v70l163 7v549q0 217-77 307t-210 90q-156 0-238-96t-100-245V77l163-6V0H798v71l163 6v549q0 217-77 307t-211 91q-150 0-230-84T336 719V77l163-6V0H86z"/><glyph unicode="n" horiz-adv-x="1325" d="M86 0v71l163 6v928l-163 6v71h239l8-209q50 109 141 169t222 60q176 0 266-109t91-345V77l163-6V0H803v71l163 6v571q0 206-75 291t-208 85q-154 0-238-90T336 702V77l163-6V0H86z"/><glyph unicode="o" horiz-adv-x="1148" d="M575-21q-143 0-250 69T158 240 98 522v37q0 160 60 282t166 191 249 70q143 0 250-69t167-192 60-282v-37q0-159-60-282T824 48 575-21zm0 77q120 0 207 62t134 168 47 236v37q0 129-47 234T781 962t-208 63q-119 0-206-63T232 794t-47-235v-37q0-131 47-236t134-168 209-62z"/><glyph unicode="p" horiz-adv-x="1169" d="M60-416v71l161 6v1344l-163 6v71h234l13-180q54 94 143 147t212 53q128 0 220-69t142-197 49-299v-21q0-164-49-284T882 45 662-21q-121 0-211 47T308 155v-494l165-6v-71H60zM649 56q163 0 248 125t86 335v21q0 144-38 253T831 962t-184 62q-141 0-221-70T308 781V270q39-99 125-156t216-58z"/><glyph unicode="q" horiz-adv-x="1137" d="M694-416v71l163 6v493Q804 73 715 26T507-21q-128 0-219 66T147 231 98 516v21q0 172 49 299t141 196 221 70q120 0 208-52t143-146l7 178h77V-339l161-6v-71H694zM518 56q129 0 214 58t125 159v506q-38 102-119 174t-218 72q-110 0-184-62T225 791t-38-254v-21q0-210 83-335T518 56z"/><glyph unicode="r" horiz-adv-x="830" d="M85 0v71l163 6v928l-163 6v71h238l11-176 1-33q45 108 129 168t204 61q25 0 55-4t44-9l-10-79-101 7q-130 1-211-80T335 722V77l163-6V0H85z"/><glyph unicode="s" horiz-adv-x="1012" d="M493-21q-116 0-214 34t-175 97l-1 208h76l9-162q58-53 137-77t168-24q143 0 222 64t80 151q0 81-68 145T485 518q-192 41-276 108t-84 192q0 81 44 145t125 101 193 38q118 0 206-37t150-100l2-212h-75l-8 168q-48 50-113 77t-162 27q-134 0-204-62t-71-142q0-53 23-93t86-72 185-60q192-43 284-119t92-204q0-130-103-212T493-21z"/><glyph unicode="t" horiz-adv-x="722" d="M480-20q-112 0-171 71t-60 228v727H56v76h193v285h88v-285h258v-76H337V279q0-120 41-172t111-52q33 0 62 3t68 8l14-68q-33-9-71-13t-82-5z"/><glyph unicode="u" horiz-adv-x="1212" d="M537-21Q370-21 277 96t-93 364v545l-138 6v71h225V458q0-209 71-305t201-96q154 0 235 74t110 197v677l-159 6v71h246V77l154-6V0H900l-9 186Q840 87 753 33T537-21z"/><glyph unicode="v" horiz-adv-x="1174" d="M558 0L163 1008l-117 3v71h349v-71l-141-4 296-757 45-133h6l48 133 291 757-142 4v71h349v-71l-117-3L638 0h-80z"/><glyph unicode="w" horiz-adv-x="1795" d="M484 0L174 1008l-122 3v71h359v-71l-145-5 201-674 58-200 6-1 64 201 252 750h81l254-750 69-206h6l63 206 201 674-146 5v71h357v-71l-122-4L1300 0h-85L947 775l-57 180h-6l-54-180L565 0h-81z"/><glyph unicode="x" horiz-adv-x="1195" d="M73 0v71l124 5 353 477-336 453-121 5v71h342v-71l-120-3 287-391 286 392-123 2v71h341v-71l-122-5-330-452 355-478 123-5V0H782v71l126 2-307 416L296 73l123-2V0H73z"/><glyph unicode="y" horiz-adv-x="1187" d="M289-437q-20 0-46 4t-39 8l11 75q12-3 36-5t36-3q85 0 134 52t87 154l61 162-404 997-117 4v71h350v-71l-139-4 306-765 42-116h6l334 881-141 4v71h349v-71l-117-4L586-177q-29-76-65-135t-92-92-140-33z"/><glyph unicode="z" horiz-adv-x="1067" d="M113 0v66l682 939H198l-6-225h-76v302h792v-68L224 76h657l6 226h75V0H113z"/><glyph unicode="{" horiz-adv-x="695" d="M632-423q-178 55-253 173T303 39v235q0 128-58 198T63 543v85q123 0 181 69t59 197v238q0 171 75 290t254 175l21-62q-136-43-199-148t-64-255V894q0-116-49-197T189 585q102-30 151-112t50-199V39q0-149 65-251t201-149l-24-62z"/><glyph unicode="|" horiz-adv-x="416" d="M150-270v1726h78V-270h-78z"/><glyph unicode="}" horiz-adv-x="694" d="M51-423l-24 62q135 46 200 148t65 252v235q0 117 50 199t155 112q-105 29-155 110t-50 199v238q0 150-63 255T31 1535l20 62q177-55 252-174t76-291V894q0-127 58-196t183-70v-85q-124 0-182-71t-59-198V39q0-171-75-289T51-423z"/><glyph unicode="~" horiz-adv-x="1372" d="M952 433q-87 0-159 37T631 588q-66 56-123 84t-116 29q-83 0-138-64t-55-176l-78 13q0 86 35 155t96 111 140 41q87 0 160-38t163-117q66-60 121-87t116-27q81 0 137 67t57 175l79-14q0-83-35-153t-98-112-140-42z"/><glyph unicode="¡" horiz-adv-x="448" d="M201 604v-978h87v978h-87zm-15 478V932h119v150H186z"/><glyph unicode="¢" horiz-adv-x="1076" d="M551-245v227q-133 7-226 76T182 246t-50 274v42q0 153 50 271t143 188 226 78v219h88v-218q105-11 193-58t147-121l2-234h-78l-10 202q-52 62-131 99t-179 37q-122 0-202-59T260 802t-41-240v-42q0-136 40-241t122-164 203-59q85 0 159 32t120 95 45 152h77l2-6q3-93-44-167T816 41 639-17v-228h-88z"/><glyph unicode="£" horiz-adv-x="1157" d="M132 0v77h10q53 11 88 71t52 146 18 172l-7 189H68v77h222l-11 308q0 204 103 320t277 117q181 0 268-102t85-280l-2-5h-80q0 163-71 236t-200 74q-136 0-214-94t-79-266l11-308h464v-77H379l8-189q0-117-31-221T267 77h708l3 222h81V0H132z"/><glyph unicode="¤" horiz-adv-x="1461" d="M1296-27l-169 172q-81-79-184-122T725-20q-116 0-219 42T322 143L157-26 94 36l170 172q-65 82-100 184t-35 216q0 117 37 222t107 189L94 1202l63 62 177-181q79 72 179 111t212 40q110 0 210-40t181-113l180 184 64-63-183-186q67-84 104-188t38-220q0-113-34-214t-98-182l173-176-64-63zM725 61q105 0 197 42t162 118 111 175 40 212q0 113-40 211t-110 174-163 117-197 43q-105 0-198-42T364 993 253 820t-40-212q0-113 40-212t110-174 164-118 198-43z"/><glyph unicode="¥" horiz-adv-x="1382" d="M484 0v71l163 6v249H214v70h433v224H214v70h395l-425 690-125 5v71h344v-71l-119-3 382-622 23-49 5 2 23 47 381 622-119 3v71h344v-71l-125-4-427-691h399v-70H734V396h436v-70H734V77l163-6V0H484z"/><glyph unicode="¦" horiz-adv-x="447" d="M150-270v761h87v-761h-87zm0 968v758h87V698h-87z"/><glyph unicode="§" horiz-adv-x="1205" d="M578-495q-139 0-250 45T152-311 90-69l2 5 79 2q0-124 55-202t148-116 204-38q174 0 273 76t99 196q0 75-33 128T802 75t-231 82q-162 39-269 89T143 370 90 551q0 104 69 175t193 96q-109 49-163 121t-54 182q0 107 57 186t160 122 244 44q218 0 340-111t118-314l-3-6h-78q0 101-45 181t-130 127-202 46q-185 0-279-76t-95-196q0-80 31-133t115-94 238-85q167-44 272-91t154-117 50-177q0-102-74-173t-203-96q117-50 175-121t58-185q0-164-124-257t-336-94zm115 701q140 6 221 68t81 154q0 77-38 131t-132 98-257 91q-34 8-64 16t-57 19q-134-9-202-72t-68-158q0-82 34-135t127-95 264-90q25-7 47-13t44-14z"/><glyph unicode="¨" horiz-adv-x="527" d="M384 1405v155h103v-155H384zm-344 0v155h104v-155H40z"/><glyph unicode="©" horiz-adv-x="1596" d="M802-21q-147 0-276 57T300 196 147 434 92 729q0 158 55 293t152 238 226 159 277 57q147 0 276-57t226-159 153-237 55-294q0-158-55-294t-152-239-227-159-276-58zm0 70q132 0 247 52t204 146 138 216 50 266q0 141-50 264t-138 215-203 145-248 53q-132 0-248-52t-204-145-137-216-50-264q0-142 49-265t137-217 204-145 249-53zm-9 233q-147 0-236 107t-90 280v119q0 172 89 279t237 108q144 0 225-79t77-228l-2-6h-68q0 121-59 181t-173 61q-116 0-182-89t-67-226V669q0-139 66-227t183-88q113 0 172 59t59 183h68l2-6q4-150-76-229t-225-79z"/><glyph unicode="ª" horiz-adv-x="868" d="M355 692q-119 0-184 61t-65 167q0 103 76 160t222 57h202v65q0 95-46 147t-135 53q-103 0-158-42t-56-124l-73 7-2 6q-5 98 75 163t214 65q120 0 191-71t72-205V887q0-49 6-93t20-88h-85q-10 26-15 55t-7 59q-38-55-102-91t-150-37zm10 74q53 0 103 20t88 52 50 68v162H405q-104 0-161-41t-57-103q0-75 44-116t134-42z"/><glyph unicode="«" horiz-adv-x="912" d="M389 395L94 770v19l295 374h88L192 779l285-384h-88zm298-256L392 514v19l295 374h88L490 523l285-384h-88z"/><glyph unicode="¬" horiz-adv-x="1108" d="M836 391v294H121v79h802V391h-87z"/><glyph unicode="­" horiz-adv-x="791" d="M154 585v77h474v-77H154z"/><glyph unicode="®" horiz-adv-x="1595" d="M802-21q-148 0-277 57T299 196 147 434 92 729q0 158 55 293t152 238 226 159 277 57q147 0 276-57t226-159 153-237 55-294q0-158-55-294t-152-239-227-159-276-58zm0 70q132 0 247 52t204 146 138 216 50 266q0 141-50 264t-138 215-203 145-248 53q-132 0-248-52t-205-145-137-216-50-264q0-142 49-265t138-217 204-145 249-53zM556 316v850h248q145 0 221-62t76-182q0-70-38-121t-109-81q69-22 99-75t31-130v-56q0-39 4-72t13-55v-16h-80q-10 21-12 61t-2 83v54q0 89-40 127t-135 39H632V316h-76zm76 437h193q85 0 142 44t58 125q0 90-49 131t-172 41H632V753z"/><glyph unicode="¯" horiz-adv-x="729" d="M40 1404v74h649v-74H40z"/><glyph unicode="°" horiz-adv-x="743" d="M365 991q-67 0-121 32t-87 86-33 123q0 67 33 122t87 89 120 34q65 0 119-34t86-89 32-122q0-68-32-122t-86-87-118-32zm-1 73q71 0 117 47t47 122q0 73-46 122t-118 49q-72 0-120-49t-48-123q0-73 48-120t120-48z"/><glyph unicode="±" horiz-adv-x="1093" d="M517 289v451H89v77h428v450h83V817h405v-77H600V289h-83zM131 69v77h835V69H131z"/><glyph unicode="²" horiz-adv-x="812" d="M670 667v72H221l-2 6 240 212q64 62 107 110t64 91 22 92q0 111-68 170t-189 59q-85 0-148-31t-96-85-31-117l3-6h74q0 73 51 119t147 47q87 0 130-42t44-113q0-50-29-97t-109-123L110 739v-72h560z"/><glyph unicode="³" horiz-adv-x="834" d="M387 1111H269v-72h118q102 0 153-37t51-118q0-73-54-115t-153-42q-92 0-149 45t-57 116h-74l-2-6q-3-73 34-124t103-77 145-26q128 0 208 61t81 169q0 147-150 191 65 25 100 72t36 107q0 107-74 165t-201 58q-117 0-195-60t-73-154l2-6h72q0 66 55 106t139 41q96 0 144-41t49-107q0-146-190-146z"/><glyph unicode="´" horiz-adv-x="365" d="M40 1320l181 240h102l2-5-215-239H44l-4 4z"/><glyph unicode="µ" horiz-adv-x="1290" d="M229-416v1421l-163 6v71h248V445q0-216 78-302t207-87q164 0 242 80t100 227v642l-163 6v71h250V77l163-6V0H956l-11 183Q898 84 814 32T607-21q-96 0-171 38T314 142v-558h-85z"/><glyph unicode="¶" horiz-adv-x="1055" d="M522 0v71l163 6v443H570q-156 0-266 59T136 743 78 988q0 138 58 243t169 165 265 60h365v-71l-163-6V77l163-6V0H522z"/><glyph unicode="·" horiz-adv-x="488" d="M172 635v147h112V635H172z"/><glyph unicode="¸" horiz-adv-x="470" d="M47-435l-7 63q97 0 166 33t69 97q0 60-43 83T77-126L105 7h74l-13-79q85-8 135-46t51-123q0-89-79-141T47-435z"/><glyph unicode="¹" horiz-adv-x="489" d="M328 665v812l-238-23v-74l157 11V665h81z"/><glyph unicode="º" horiz-adv-x="913" d="M436 691q-145 0-230 92t-85 242v117q0 148 84 241t229 94q145 0 230-93t85-242v-117q0-149-84-241t-229-93zm0 74q112 0 172 72t60 188v117q0 113-60 186t-174 74q-112 0-172-73t-60-187v-117q0-116 58-188t176-72z"/><glyph unicode="»" horiz-adv-x="906" d="M105 167l284 383-284 392h88l294-382v-19L193 167h-88zm303 0l284 383-284 392h88l294-382v-19L496 167h-88z"/><glyph unicode="¼" horiz-adv-x="1512" d="M315 664v726l-157-11v74l239 23V664h-82zm44-530l-60 39 711 1138 60-39L359 134zM1195 0v178H759l-2 51 432 572h88V250h164v-72h-164V0h-82zM863 250h332v442l-6 2-31-51-295-393z"/><glyph unicode="½" horiz-adv-x="1455" d="M372 134l-60 39 711 1138 60-39L372 134zm-57 530v726l-157-11v74l239 23V664h-82zM898 0v72l321 292q80 75 109 122t29 98q0 71-43 113t-131 42q-95 0-146-46t-52-120h-74l-3 6q-3 64 30 117t97 84 148 32q120 0 188-59t69-170q0-49-21-92t-65-91-107-110L1007 78l2-6h449V0H898z"/><glyph unicode="¾" horiz-adv-x="1662" d="M577 134l-60 39 711 1138 60-39L577 134zM1411 0v178H975l-2 51 432 572h88V250h164v-72h-164V0h-82zm-332 250h332v442l-6 2-31-51-295-393zM412 656q-79 0-144 26t-103 77-35 124l2 6h74q0-71 57-116t149-45q98 0 152 42t55 115q0 80-51 117t-153 38H297v72h118q190 0 190 146 0 66-48 107t-145 41q-84 0-139-40t-55-107h-72l-2 6q-6 94 72 154t196 60q127 0 201-58t74-165q0-59-35-106t-101-73q150-44 150-191 0-108-80-169t-209-61z"/><glyph unicode="¿" horiz-adv-x="851" d="M492 681q0-63-4-103t-17-71-39-61-70-70q-79-74-126-132t-69-121-22-147q0-137 73-214t207-77q130 0 205 76t77 206h79l3-6q1-112-45-191T615-352t-190-42q-171 0-269 101T58-24q0 92 27 166t84 144 143 149q41 38 61 69t26 71 6 106h87zm4 402V953H386v130h110z"/><glyph unicode="À" horiz-adv-x="1486" d="M58 0v71l108 3 520 1382h90L1295 74l107-3V0h-334v71l135 4-132 355H389L257 75l135-4V0H58zm361 510h623l-284 767-24 71h-6l-24-71-285-767zm386 1080l-3-4h-67l-215 239 2 5h102l181-240z"/><glyph unicode="Á" horiz-adv-x="1486" d="M58 0v71l108 3 520 1382h90L1295 74l107-3V0h-334v71l135 4-132 355H389L257 75l135-4V0H58zm361 510h623l-284 767-24 71h-6l-24-71-285-767zm238 1080l181 240h102l2-5-215-239h-66l-4 4z"/><glyph unicode="Â" horiz-adv-x="1486" d="M58 0v71l108 3 520 1382h90L1295 74l107-3V0h-334v71l135 4-132 355H389L257 75l135-4V0H58zm361 510h623l-284 767-24 71h-6l-24-71-285-767zm47 1088v19l224 213h78l227-216v-16h-83l-184 177-180-177h-82z"/><glyph unicode="Ã" horiz-adv-x="1486" d="M58 0v71l108 3 520 1382h90L1295 74l107-3V0h-334v71l135 4-132 355H389L257 75l135-4V0H58zm361 510h623l-284 767-24 71h-6l-24-71-285-767zm51 1117l-65 5q0 57 24 100t63 68 88 26q55 0 108-29t103-60 92-30q41 0 74 34t34 92l65-6q0-56-23-100t-62-70-86-25q-55 0-108 30t-104 60-94 30q-43 0-76-33t-33-92z"/><glyph unicode="Ä" horiz-adv-x="1486" d="M58 0v71l108 3 520 1382h90L1295 74l107-3V0h-334v71l135 4-132 355H389L257 75l135-4V0H58zm361 510h623l-284 767-24 71h-6l-24-71-285-767zm432 1165v155h103v-155H851zm-344 0v155h104v-155H507z"/><glyph unicode="Å" horiz-adv-x="1486" d="M58 0v71l108 3 520 1382h90L1295 74l107-3V0h-334v71l135 4-132 355H389L257 75l135-4V0H58zm361 510h623l-284 767-24 71h-6l-24-71-285-767zm312 975q-76 0-128 50t-52 126q0 76 52 127t128 52q74 0 126-51t52-128q0-76-52-126t-126-50zm0 62q48 0 80 31t33 83q0 51-32 84t-81 33q-50 0-82-33t-33-84q0-50 32-82t83-32z"/><glyph unicode="Æ" horiz-adv-x="2042" d="M51 0v71l124 4 836 1381h820v-300h-80l-4 223h-611l25-582h588v-77h-585l27-643h618l3 222h80V0H944v71l160 6-14 331H479L279 74l120-3V0H51zm476 490h560l-37 874-5 2-46-84-472-792z"/><glyph unicode="Ç" horiz-adv-x="1335" d="M781-21q-213 0-361 94T195 333t-77 386v18q0 219 79 385t223 261 337 94q154 0 258-41t191-117v-270h-78l-5 233q-49 38-100 63t-115 39-152 14q-165 0-289-83t-192-231-69-345v-20q0-200 68-348t197-231 310-83q100 0 194 25t159 70l5 227h78V99q-91-60-202-90T781-21zM626-435l-7 63q97 0 166 33t69 97q0 60-43 83t-155 33L684 7h74l-13-79q85-8 135-46t51-123q0-89-79-141t-226-53z"/><glyph unicode="È" horiz-adv-x="1278" d="M73 0v71l163 6v1302l-163 6v71h1033v-306h-78l-5 229H323V796h609v-77H323V76h730l5 230h78V0H73zm640 1590l-3-4h-67l-215 239 2 5h102l181-240z"/><glyph unicode="É" horiz-adv-x="1278" d="M73 0v71l163 6v1302l-163 6v71h1033v-306h-78l-5 229H323V796h609v-77H323V76h730l5 230h78V0H73zm492 1590l181 240h102l2-5-215-239h-66l-4 4z"/><glyph unicode="Ê" horiz-adv-x="1278" d="M73 0v71l163 6v1302l-163 6v71h1033v-306h-78l-5 229H323V796h609v-77H323V76h730l5 230h78V0H73zm301 1598v19l224 213h78l227-216v-16h-83l-184 177-180-177h-82z"/><glyph unicode="Ë" horiz-adv-x="1278" d="M73 0v71l163 6v1302l-163 6v71h1033v-306h-78l-5 229H323V796h609v-77H323V76h730l5 230h78V0H73zm686 1675v155h103v-155H759zm-344 0v155h104v-155H415z"/><glyph unicode="Ì" horiz-adv-x="560" d="M73 0v71l163 6v1302l-163 6v71h413v-71l-163-6V77l163-6V0H73zm281 1590l-3-4h-67L69 1825l2 5h102l181-240z"/><glyph unicode="Í" horiz-adv-x="560" d="M73 0v71l163 6v1302l-163 6v71h413v-71l-163-6V77l163-6V0H73zm133 1590l181 240h102l2-5-215-239h-66l-4 4z"/><glyph unicode="Î" horiz-adv-x="560" d="M73 0v71l163 6v1302l-163 6v71h413v-71l-163-6V77l163-6V0H73zM15 1598v19l224 213h78l227-216v-16h-83l-184 177-180-177H15z"/><glyph unicode="Ï" horiz-adv-x="560" d="M73 0v71l163 6v1302l-163 6v71h413v-71l-163-6V77l163-6V0H73zm326 1675v155h103v-155H399zm-344 0v155h104v-155H55z"/><glyph unicode="Ð" horiz-adv-x="1379" d="M73 0v71l163 6v1302l-163 6v71h561q182 0 322-92t221-254 81-372v-21q0-208-79-370T959 93 636 0H73zm250 77h311q157 0 278 84t190 229 69 327v24q0 183-69 327t-190 227-278 84H323V77zM73 958v77h540v-77H73z"/><glyph unicode="Ñ" horiz-adv-x="1534" d="M74 0v71l163 6v1302l-163 6v71h251l883-1303 6 2v1224l-166 6v71h413v-71l-163-6V0h-84L327 1306l-6-2V77l167-6V0H74zm432 1627l-65 5q0 57 24 100t63 68 88 26q55 0 108-29t103-60 92-30q41 0 74 34t34 92l65-6q0-56-23-100t-62-70-86-25q-55 0-108 30t-104 60-94 30q-43 0-76-33t-33-92z"/><glyph unicode="Ò" horiz-adv-x="1456" d="M725-21q-137 0-249 53T284 182 160 416t-44 303v18q0 167 43 303t123 233 192 151 249 53q139 0 251-53t192-150 124-234 43-303v-18q0-167-43-303t-122-234T976 32 725-21zm0 79q163 0 279 82t179 231 62 348v20q0 198-62 346t-180 230-280 82q-159 0-275-82t-180-230-64-346v-20q0-199 63-347t181-231 277-83zm73 1532l-3-4h-67l-215 239 2 5h102l181-240z"/><glyph unicode="Ó" horiz-adv-x="1456" d="M725-21q-137 0-249 53T284 182 160 416t-44 303v18q0 167 43 303t123 233 192 151 249 53q139 0 251-53t192-150 124-234 43-303v-18q0-167-43-303t-122-234T976 32 725-21zm0 79q163 0 279 82t179 231 62 348v20q0 198-62 346t-180 230-280 82q-159 0-275-82t-180-230-64-346v-20q0-199 63-347t181-231 277-83zm-75 1532l181 240h102l2-5-215-239h-66l-4 4z"/><glyph unicode="Ô" horiz-adv-x="1456" d="M725-21q-137 0-249 53T284 182 160 416t-44 303v18q0 167 43 303t123 233 192 151 249 53q139 0 251-53t192-150 124-234 43-303v-18q0-167-43-303t-122-234T976 32 725-21zm0 79q163 0 279 82t179 231 62 348v20q0 198-62 346t-180 230-280 82q-159 0-275-82t-180-230-64-346v-20q0-199 63-347t181-231 277-83zM459 1598v19l224 213h78l227-216v-16h-83l-184 177-180-177h-82z"/><glyph unicode="Õ" horiz-adv-x="1456" d="M725-21q-137 0-249 53T284 182 160 416t-44 303v18q0 167 43 303t123 233 192 151 249 53q139 0 251-53t192-150 124-234 43-303v-18q0-167-43-303t-122-234T976 32 725-21zm0 79q163 0 279 82t179 231 62 348v20q0 198-62 346t-180 230-280 82q-159 0-275-82t-180-230-64-346v-20q0-199 63-347t181-231 277-83zM462 1627l-65 5q0 57 24 100t63 68 88 26q55 0 108-29t103-60 92-30q41 0 74 34t34 92l65-6q0-56-23-100t-62-70-86-25q-55 0-108 30t-104 60-94 30q-43 0-76-33t-33-92z"/><glyph unicode="Ö" horiz-adv-x="1456" d="M725-21q-137 0-249 53T284 182 160 416t-44 303v18q0 167 43 303t123 233 192 151 249 53q139 0 251-53t192-150 124-234 43-303v-18q0-167-43-303t-122-234T976 32 725-21zm0 79q163 0 279 82t179 231 62 348v20q0 198-62 346t-180 230-280 82q-159 0-275-82t-180-230-64-346v-20q0-199 63-347t181-231 277-83zm118 1617v155h103v-155H843zm-344 0v155h104v-155H499z"/><glyph unicode="×" horiz-adv-x="1050" d="M138 246l-59 57 371 380-350 357 59 59 349-357 350 357 59-59-350-357 372-380-59-57-371 377-371-377z"/><glyph unicode="Ø" horiz-adv-x="1456" d="M725-21q-137 0-249 53T284 182 160 416t-44 303v18q0 167 43 303t123 233 192 151 249 53q139 0 251-53t192-150 124-234 43-303v-18q0-167-43-303t-122-234T976 32 725-21zm0 79q163 0 279 82t179 231 62 348v20q0 198-62 346t-180 230-280 82q-159 0-275-82t-180-230-64-346v-20q0-199 63-347t181-231 277-83zM191-65l988 1579h85L276-65h-85z"/><glyph unicode="Ù" horiz-adv-x="1460" d="M729-21q-149 0-262 57T289 202t-64 267v910l-163 6v71h413v-71l-163-6V469q0-131 53-223t147-140 218-49q122 0 216 48t148 141 53 223v910l-163 6v71h413v-71l-163-6V469q0-159-63-268T993 36 729-21zm75 1611l-3-4h-67l-215 239 2 5h102l181-240z"/><glyph unicode="Ú" horiz-adv-x="1460" d="M729-21q-149 0-262 57T289 202t-64 267v910l-163 6v71h413v-71l-163-6V469q0-131 53-223t147-140 218-49q122 0 216 48t148 141 53 223v910l-163 6v71h413v-71l-163-6V469q0-159-63-268T993 36 729-21zm-73 1611l181 240h102l2-5-215-239h-66l-4 4z"/><glyph unicode="Û" horiz-adv-x="1460" d="M729-21q-149 0-262 57T289 202t-64 267v910l-163 6v71h413v-71l-163-6V469q0-131 53-223t147-140 218-49q122 0 216 48t148 141 53 223v910l-163 6v71h413v-71l-163-6V469q0-159-63-268T993 36 729-21zM466 1598v19l224 213h78l227-216v-16h-83l-184 177-180-177h-82z"/><glyph unicode="Ü" horiz-adv-x="1460" d="M729-21q-149 0-262 57T289 202t-64 267v910l-163 6v71h413v-71l-163-6V469q0-131 53-223t147-140 218-49q122 0 216 48t148 141 53 223v910l-163 6v71h413v-71l-163-6V469q0-159-63-268T993 36 729-21zm121 1696v155h103v-155H850zm-344 0v155h104v-155H506z"/><glyph unicode="Ý" horiz-adv-x="1436" d="M513 0v71l163 6v471l-499 833-120 4v71h367v-71l-147-4 417-713 25-47 1 2 24 45 422 713-148 4v71h364v-71l-121-4-497-830V77l163-6V0H513zm132 1590l181 240h102l2-5-215-239h-66l-4 4z"/><glyph unicode="Þ" horiz-adv-x="1249" d="M70 0v71l163 6v1302l-163 6v71h413v-71l-163-6v-231h347q217 0 338-114t122-296q0-182-121-295T667 329H320V77l163-6V0H70zm250 406h347q123 0 205 45t125 121 43 164q0 91-42 167t-125 122-206 46H320V406z"/><glyph unicode="ß" horiz-adv-x="1253" d="M790-21q-58 0-119 11T559 21t-78 43l29 74q42-32 119-57t150-26q124 0 198 66t75 170q0 70-38 125t-94 105-112 99-95 109-38 135q0 49 19 103t43 110 43 112 19 109q0 89-60 147t-166 59q-121 0-194-85t-74-245V0H55v71l163 6v1097q0 130 43 221t121 138 188 48q90 0 161-34t111-97 41-152q0-65-18-124t-42-113-42-103-19-95q0-62 38-112t94-98 112-98 95-116 38-148q0-99-48-169T963 16 790-21z"/><glyph unicode="à" horiz-adv-x="1120" d="M419-21q-149 0-235 81T98 279q0 98 58 173t165 117 252 42h236v131q0 126-74 204t-227 79q-83 0-151-29t-117-72l-4-171h-77v216q68 61 154 97t196 36q190 0 288-96t99-266V218q0-37 2-73t10-72l140-2V0H831q-12 65-17 102t-5 85Q749 95 648 37T419-21zm6 79q118 0 225 64t159 173v243H573q-178 0-283-75T185 275q0-94 66-155t174-62zm168 1262l-3-4h-67l-215 239 2 5h102l181-240z"/><glyph unicode="á" horiz-adv-x="1120" d="M419-21q-149 0-235 81T98 279q0 98 58 173t165 117 252 42h236v131q0 126-74 204t-227 79q-83 0-151-29t-117-72l-4-171h-77v216q68 61 154 97t196 36q190 0 288-96t99-266V218q0-37 2-73t10-72l140-2V0H831q-12 65-17 102t-5 85Q749 95 648 37T419-21zm6 79q118 0 225 64t159 173v243H573q-178 0-283-75T185 275q0-94 66-155t174-62zm20 1262l181 240h102l2-5-215-239h-66l-4 4z"/><glyph unicode="â" horiz-adv-x="1120" d="M419-21q-149 0-235 81T98 279q0 98 58 173t165 117 252 42h236v131q0 126-74 204t-227 79q-83 0-151-29t-117-72l-4-171h-77v216q68 61 154 97t196 36q190 0 288-96t99-266V218q0-37 2-73t10-72l140-2V0H831q-12 65-17 102t-5 85Q749 95 648 37T419-21zm6 79q118 0 225 64t159 173v243H573q-178 0-283-75T185 275q0-94 66-155t174-62zM255 1328v19l224 213h78l227-216v-16h-83l-184 177-180-177h-82z"/><glyph unicode="ã" horiz-adv-x="1120" d="M419-21q-149 0-235 81T98 279q0 98 58 173t165 117 252 42h236v131q0 126-74 204t-227 79q-83 0-151-29t-117-72l-4-171h-77v216q68 61 154 97t196 36q190 0 288-96t99-266V218q0-37 2-73t10-72l140-2V0H831q-12 65-17 102t-5 85Q749 95 648 37T419-21zm6 79q118 0 225 64t159 173v243H573q-178 0-283-75T185 275q0-94 66-155t174-62zM258 1357l-65 5q0 57 24 100t63 68 88 26q55 0 108-29t103-60 92-30q41 0 74 34t34 92l65-6q0-56-23-100t-62-70-86-25q-55 0-108 30t-104 60-94 30q-43 0-76-33t-33-92z"/><glyph unicode="ä" horiz-adv-x="1120" d="M419-21q-149 0-235 81T98 279q0 98 58 173t165 117 252 42h236v131q0 126-74 204t-227 79q-83 0-151-29t-117-72l-4-171h-77v216q68 61 154 97t196 36q190 0 288-96t99-266V218q0-37 2-73t10-72l140-2V0H831q-12 65-17 102t-5 85Q749 95 648 37T419-21zm6 79q118 0 225 64t159 173v243H573q-178 0-283-75T185 275q0-94 66-155t174-62zm214 1347v155h103v-155H639zm-344 0v155h104v-155H295z"/><glyph unicode="å" horiz-adv-x="1120" d="M419-21q-149 0-235 81T98 279q0 98 58 173t165 117 252 42h236v131q0 126-74 204t-227 79q-83 0-151-29t-117-72l-4-171h-77v216q68 61 154 97t196 36q190 0 288-96t99-266V218q0-37 2-73t10-72l140-2V0H831q-12 65-17 102t-5 85Q749 95 648 37T419-21zm6 79q118 0 225 64t159 173v243H573q-178 0-283-75T185 275q0-94 66-155t174-62zm95 1157q-76 0-128 50t-52 126q0 76 52 127t128 52q74 0 126-51t52-128q0-76-52-126t-126-50zm0 62q48 0 80 31t33 83q0 51-32 84t-81 33q-50 0-82-33t-33-84q0-50 32-82t83-32z"/><glyph unicode="æ" horiz-adv-x="1782" d="M421-21q-149 0-236 85T98 291q0 102 58 179t165 121 252 43h236v108q0 126-73 204t-228 79q-83 0-151-29t-116-72l-5-171h-77v216q69 61 154 97t197 36q154 0 245-65t118-183q31 74 88 129t133 87 158 32q130 0 222-54t142-156 50-243v-91H896v-60q0-197 94-319t284-123q103 0 183 33t145 92l39-64q-63-61-149-99t-218-39q-285 0-413 256-70-117-183-186T421-21zm5 79q80 0 157 31t141 90 99 138q-7 47-10 92t-4 93v58H574q-179 0-284-77T185 287q0-97 66-163t175-66zm472 576h681v32q0 157-84 258t-243 101q-100 0-177-50T951 838t-55-199l2-5z"/><glyph unicode="ç" horiz-adv-x="1079" d="M545-21q-129 0-230 68T156 236 98 520v42q0 160 56 281t156 190 234 69q124 0 221-49t164-124l1-239h-77l-8 207q-57 60-131 94t-168 34q-108 0-189-60T230 801t-45-239v-42q0-138 45-242t126-163 191-59q130 0 218 67t106 204h76l2-6q-11-107-63-184T748 20 545-21zM432-435l-7 63q97 0 166 33t69 97q0 60-43 83t-155 33L490 7h74l-13-79q85-8 135-46t51-123q0-89-79-141t-226-53z"/><glyph unicode="è" horiz-adv-x="1078" d="M565-21q-135 0-239 67T163 231t-60 274v59q0 155 58 276t160 192 227 70q127 0 220-56t144-157 50-239v-92H192l-1-60q1-127 48-227t131-157 195-58q102 0 180 34t140 92l40-62Q860 58 773 19T565-21zM202 635h673v32q0 102-39 183T723 978t-175 47q-94 0-169-50T256 837t-57-196l3-6zm421 685l-3-4h-67l-215 239 2 5h102l181-240z"/><glyph unicode="é" horiz-adv-x="1078" d="M565-21q-135 0-239 67T163 231t-60 274v59q0 155 58 276t160 192 227 70q127 0 220-56t144-157 50-239v-92H192l-1-60q1-127 48-227t131-157 195-58q102 0 180 34t140 92l40-62Q860 58 773 19T565-21zM202 635h673v32q0 102-39 183T723 978t-175 47q-94 0-169-50T256 837t-57-196l3-6zm273 685l181 240h102l2-5-215-239h-66l-4 4z"/><glyph unicode="ê" horiz-adv-x="1078" d="M565-21q-135 0-239 67T163 231t-60 274v59q0 155 58 276t160 192 227 70q127 0 220-56t144-157 50-239v-92H192l-1-60q1-127 48-227t131-157 195-58q102 0 180 34t140 92l40-62Q860 58 773 19T565-21zM202 635h673v32q0 102-39 183T723 978t-175 47q-94 0-169-50T256 837t-57-196l3-6zm82 693v19l224 213h78l227-216v-16h-83l-184 177-180-177h-82z"/><glyph unicode="ë" horiz-adv-x="1078" d="M565-21q-135 0-239 67T163 231t-60 274v59q0 155 58 276t160 192 227 70q127 0 220-56t144-157 50-239v-92H192l-1-60q1-127 48-227t131-157 195-58q102 0 180 34t140 92l40-62Q860 58 773 19T565-21zM202 635h673v32q0 102-39 183T723 978t-175 47q-94 0-169-50T256 837t-57-196l3-6zm467 770v155h103v-155H669zm-344 0v155h104v-155H325z"/><glyph unicode="ì" horiz-adv-x="619" d="M84 0v71l163 6v928l-163 6v71h250V77l163-6V0H84zm273 1320l-3-4h-67L72 1555l2 5h102l181-240z"/><glyph unicode="í" horiz-adv-x="619" d="M84 0v71l163 6v928l-163 6v71h250V77l163-6V0H84zm125 1320l181 240h102l2-5-215-239h-66l-4 4z"/><glyph unicode="î" horiz-adv-x="619" d="M84 0v71l163 6v928l-163 6v71h250V77l163-6V0H84zm191 1328v19l224 213h78l227-216v-16h-83l-184 177-180-177h-82z"/><glyph unicode="ï" horiz-adv-x="619" d="M84 0v71l163 6v928l-163 6v71h250V77l163-6V0H84zm319 1405v155h103v-155H403zm-344 0v155h104v-155H59z"/><glyph unicode="ð" horiz-adv-x="1175" d="M543-21q-135 0-240 62T138 210 78 451q0 159 57 272t163 175 253 61q115 0 210-43t148-118l4 4q-16 148-70 261t-137 198l-323-184-39 60 305 175q-47 36-100 68t-116 61l29 76q77-34 143-73t123-87l269 154 40-60-254-146q116-122 174-289t58-397v-84q0-163-61-288T786 50 543-21zm4 80q113 0 198 61t134 168 49 247v143q-39 84-134 142t-243 58q-127 0-212-54T210 673t-44-222q0-105 46-194t133-143 202-55z"/><glyph unicode="ñ" horiz-adv-x="1325" d="M86 0v71l163 6v928l-163 6v71h239l8-209q50 109 141 169t222 60q176 0 266-109t91-345V77l163-6V0H803v71l163 6v571q0 206-75 291t-208 85q-154 0-238-90T336 702V77l163-6V0H86zm316 1357l-65 5q0 57 24 100t63 68 88 26q55 0 108-29t103-60 92-30q41 0 74 34t34 92l65-6q0-56-23-100t-62-70-86-25q-55 0-108 30t-104 60-94 30q-43 0-76-33t-33-92z"/><glyph unicode="ò" horiz-adv-x="1148" d="M575-21q-143 0-250 69T158 240 98 522v37q0 160 60 282t166 191 249 70q143 0 250-69t167-192 60-282v-37q0-159-60-282T824 48 575-21zm0 77q120 0 207 62t134 168 47 236v37q0 129-47 234T781 962t-208 63q-119 0-206-63T232 794t-47-235v-37q0-131 47-236t134-168 209-62zm73 1264l-3-4h-67l-215 239 2 5h102l181-240z"/><glyph unicode="ó" horiz-adv-x="1148" d="M575-21q-143 0-250 69T158 240 98 522v37q0 160 60 282t166 191 249 70q143 0 250-69t167-192 60-282v-37q0-159-60-282T824 48 575-21zm0 77q120 0 207 62t134 168 47 236v37q0 129-47 234T781 962t-208 63q-119 0-206-63T232 794t-47-235v-37q0-131 47-236t134-168 209-62zm-75 1264l181 240h102l2-5-215-239h-66l-4 4z"/><glyph unicode="ô" horiz-adv-x="1148" d="M575-21q-143 0-250 69T158 240 98 522v37q0 160 60 282t166 191 249 70q143 0 250-69t167-192 60-282v-37q0-159-60-282T824 48 575-21zm0 77q120 0 207 62t134 168 47 236v37q0 129-47 234T781 962t-208 63q-119 0-206-63T232 794t-47-235v-37q0-131 47-236t134-168 209-62zM310 1328v19l224 213h78l227-216v-16h-83l-184 177-180-177h-82z"/><glyph unicode="õ" horiz-adv-x="1148" d="M575-21q-143 0-250 69T158 240 98 522v37q0 160 60 282t166 191 249 70q143 0 250-69t167-192 60-282v-37q0-159-60-282T824 48 575-21zm0 77q120 0 207 62t134 168 47 236v37q0 129-47 234T781 962t-208 63q-119 0-206-63T232 794t-47-235v-37q0-131 47-236t134-168 209-62zM313 1357l-65 5q0 57 24 100t63 68 88 26q55 0 108-29t103-60 92-30q41 0 74 34t34 92l65-6q0-56-23-100t-62-70-86-25q-55 0-108 30t-104 60-94 30q-43 0-76-33t-33-92z"/><glyph unicode="ö" horiz-adv-x="1148" d="M575-21q-143 0-250 69T158 240 98 522v37q0 160 60 282t166 191 249 70q143 0 250-69t167-192 60-282v-37q0-159-60-282T824 48 575-21zm0 77q120 0 207 62t134 168 47 236v37q0 129-47 234T781 962t-208 63q-119 0-206-63T232 794t-47-235v-37q0-131 47-236t134-168 209-62zm119 1349v155h103v-155H694zm-344 0v155h104v-155H350z"/><glyph unicode="÷" horiz-adv-x="1148" d="M74 665v84h998v-84H74zm448-438v141h119V227H522zm0 788v141h119v-141H522z"/><glyph unicode="ø" horiz-adv-x="1148" d="M575-21q-143 0-250 69T158 240 98 522v37q0 160 60 282t166 191 249 70q143 0 250-69t167-192 60-282v-37q0-159-60-282T824 48 575-21zm0 77q120 0 207 62t134 168 47 236v37q0 129-47 234T781 962t-208 63q-119 0-206-63T232 794t-47-235v-37q0-131 47-236t134-168 209-62zM180-139l709 1360h79L258-139h-78z"/><glyph unicode="ù" horiz-adv-x="1212" d="M537-21Q370-21 277 96t-93 364v545l-138 6v71h225V458q0-209 71-305t201-96q154 0 235 74t110 197v677l-159 6v71h246V77l154-6V0H900l-9 186Q840 87 753 33T537-21zm139 1341l-3-4h-67l-215 239 2 5h102l181-240z"/><glyph unicode="ú" horiz-adv-x="1212" d="M537-21Q370-21 277 96t-93 364v545l-138 6v71h225V458q0-209 71-305t201-96q154 0 235 74t110 197v677l-159 6v71h246V77l154-6V0H900l-9 186Q840 87 753 33T537-21zm-9 1341l181 240h102l2-5-215-239h-66l-4 4z"/><glyph unicode="û" horiz-adv-x="1212" d="M537-21Q370-21 277 96t-93 364v545l-138 6v71h225V458q0-209 71-305t201-96q154 0 235 74t110 197v677l-159 6v71h246V77l154-6V0H900l-9 186Q840 87 753 33T537-21zM337 1328v19l224 213h78l227-216v-16h-83l-184 177-180-177h-82z"/><glyph unicode="ü" horiz-adv-x="1212" d="M537-21Q370-21 277 96t-93 364v545l-138 6v71h225V458q0-209 71-305t201-96q154 0 235 74t110 197v677l-159 6v71h246V77l154-6V0H900l-9 186Q840 87 753 33T537-21zm185 1426v155h103v-155H722zm-344 0v155h104v-155H378z"/><glyph unicode="ý" horiz-adv-x="1187" d="M289-437q-20 0-46 4t-39 8l11 75q12-3 36-5t36-3q85 0 134 52t87 154l61 162-404 997-117 4v71h350v-71l-139-4 306-765 42-116h6l334 881-141 4v71h349v-71l-117-4L586-177q-29-76-65-135t-92-92-140-33zm231 1757l181 240h102l2-5-215-239h-66l-4 4z"/><glyph unicode="þ" horiz-adv-x="1167" d="M56-416v71l163 6v1822l-163 6v71h250V906q54 92 142 144t210 52q128 0 220-69t142-197 49-299v-21q0-164-49-284T880 45 660-21q-121 0-211 47T306 155v-494l163-6v-71H56zM647 56q164 0 249 125t85 335v21q0 144-38 253T829 962t-184 62q-141 0-221-70T306 780V270q39-98 125-156t216-58z"/><glyph unicode="ÿ" horiz-adv-x="1187" d="M289-437q-20 0-46 4t-39 8l11 75q12-3 36-5t36-3q85 0 134 52t87 154l61 162-404 997-117 4v71h350v-71l-139-4 306-765 42-116h6l334 881-141 4v71h349v-71l-117-4L586-177q-29-76-65-135t-92-92-140-33zm424 1842v155h103v-155H713zm-344 0v155h104v-155H369z"/><glyph unicode="–" horiz-adv-x="1409" d="M417 704v77h1086v-77H417z"/><glyph unicode="—" horiz-adv-x="1659" d="M165 704v77h1336v-77H165z"/><glyph unicode="‘" horiz-adv-x="343" d="M100 1103v170q0 61 14 116t42 103 67 86l54-41q-47-64-68-124t-22-138v-172h-87z"/><glyph unicode="’" horiz-adv-x="343" d="M124 1084l-54 41q46 63 68 123t22 139v173h87v-171q0-61-14-116t-43-104-66-85z"/><glyph unicode="‚" horiz-adv-x="388" d="M130-268l-54 42q46 63 68 124t22 137v138h87V37q0-90-32-168t-91-137z"/><glyph unicode="“" horiz-adv-x="556" d="M100 1103v170q0 61 14 116t42 103 67 86l54-41q-47-64-68-124t-22-138v-172h-87zm214 0v170q0 61 14 116t42 103 67 86l54-41q-47-64-68-124t-22-138v-172h-87z"/><glyph unicode="”" horiz-adv-x="560" d="M127 1084l-54 41q46 63 68 123t22 139v173h87v-171q0-61-14-116t-43-104-66-85zm213 0l-54 41q46 63 68 123t22 139v173h87v-171q0-61-14-116t-43-104-66-85z"/><glyph unicode="„" horiz-adv-x="590" d="M130-268l-54 42q46 63 68 124t22 137v138h87V37q0-90-32-168t-91-137zm202 0l-54 42q46 63 68 124t22 137v138h87V37q0-90-32-168t-91-137z"/><glyph unicode="•" horiz-adv-x="663" d="M311 543q-81 0-128 46t-48 121v68q0 74 47 121t128 48q81 0 129-48t48-121v-68q0-74-48-120t-128-47z"/><glyph unicode="‹" horiz-adv-x="567" d="M363 174L68 549v19l295 374h88L166 558l285-384h-88z"/><glyph unicode="›" horiz-adv-x="565" d="M83 167l284 383L83 942h88l294-382v-19L171 167H83z"/></font>
</defs>
</svg>
