<svg xmlns="http://www.w3.org/2000/svg"><defs><font id="RobotoSlab" horiz-adv-x="1239"><font-face font-family="Roboto Slab ExtraBold" units-per-em="2048" ascent="2146" descent="-555" alphabetic="0"/><glyph horiz-adv-x="500"/><glyph unicode="!" horiz-adv-x="515" d="M111 510v946h322V510H111zm0-510v272h322V0H111z"/><glyph unicode="&quot;" horiz-adv-x="791" d="M130 1024v536h235v-265l-96-271H130zm346 0v536h235v-265l-96-271H476z"/><glyph unicode="#" horiz-adv-x="1183" d="M186 0l70 410H31v178h255l45 272H107v180h254l72 416h193l-70-416h173l69 416h195l-71-416h225V860H891l-47-272h228V410H816L746 0H553l70 410H451L381 0H186zm293 588h172l47 272H526l-47-272z"/><glyph unicode="$" horiz-adv-x="1106" d="M489-216v199Q361-4 261 51T104 207 49 457l2 5h314q0-85 26-138t71-77 105-25q53 0 89 20t54 57 18 86q0 53-17 90t-58 67-110 58q-151 58-250 119T147 863t-48 206q0 169 111 277t298 128v213h160v-218q178-26 281-146t100-312v-6H733q0 112-44 170t-119 58q-77 0-114-46t-37-121q0-47 16-82t58-65 112-59q151-62 249-125t147-145 49-203q0-173-108-278T649-15v-201H489z"/><glyph unicode="%" horiz-adv-x="1420" d="M428 108l-151 78 711 1138 151-78L428 108zm630-127q-102 0-174 39T772 127t-39 154v76q0 86 38 154t110 107 175 39q102 0 174-38t110-107 38-155v-76q0-87-37-155T1232 20t-174-39zm0 173q62 0 86 34t24 93v76q0 52-28 88t-84 37q-56 0-84-36t-29-89v-76q0-52 32-89t83-38zM364 800q-103 0-175 38T79 944t-38 155v77q0 87 37 155t109 107 175 39q103 0 174-39t109-107 38-155v-77q0-87-37-154T537 839t-173-39zm0 175q52 0 82 36t30 88v77q0 53-30 89t-84 37q-55 0-84-36t-29-90v-77q0-53 29-88t86-36z"/><glyph unicode="&amp;" horiz-adv-x="1274" d="M512-21q-145 0-252 52T95 176 36 392q0 111 57 192t176 167q6 5 12 9t13 10q-66 90-97 165t-32 154q0 116 50 203t142 136 214 49q106 0 187-46t126-125 45-175q0-98-47-182T755 809l-88-61 256-295q33 58 52 125t20 142h231q0-140-32-257t-101-208L1307 5l-2-5H952l-75 85Q791 31 703 5T512-21zm21 245q47 0 94 10t93 32L438 587l-12-8q-38-42-53-82t-15-86q0-80 49-133t126-54zm-8 693l69 44q56 36 75 72t20 77q0 48-33 84t-87 37q-60 0-92-39t-32-101q0-40 19-81t61-93z"/><glyph unicode="'" horiz-adv-x="445" d="M130 1024v536h235v-265l-96-271H130z"/><glyph unicode="(" horiz-adv-x="692" d="M578-446q-98 39-187 128T231-98 121 202 81 567v26q0 195 40 363t110 300 159 221 188 127l6 1 58-156q-64-47-118-123t-95-183-63-244-23-304v-30q0-169 22-305t63-243 95-184 119-125l-58-154h-6z"/><glyph unicode=")" horiz-adv-x="730" d="M136-446L76-292q64 48 118 125t96 183 63 244 23 305v30q0 167-23 303t-63 244-95 184-119 126l60 152h6q100-37 192-128t165-226 115-301 43-356v-26q0-190-42-357T500-91 335-316 142-446h-6z"/><glyph unicode="*" horiz-adv-x="901" d="M620 571L447 861 275 579 117 689l211 272-304 89 59 184 298-126-20 348h196l-24-354 291 122 58-187-306-89 202-264-158-113z"/><glyph unicode="+" horiz-adv-x="1084" d="M392 146v400H41v275h351v385h302V821h345V546H694V146H392z"/><glyph unicode="," horiz-adv-x="533" d="M223-381L69-301q37 69 56 143t20 170v238h282V29q0-124-60-230T223-381z"/><glyph unicode="-" horiz-adv-x="820" d="M124 502v247h587V502H124z"/><glyph unicode="." horiz-adv-x="531" d="M124 0v273h320V0H124z"/><glyph unicode="/" horiz-adv-x="787" d="M-30-125l598 1581h301L270-125H-30z"/><glyph unicode="0" horiz-adv-x="1170" d="M593-21q-233 0-368 150T89 570v315q0 291 135 441t367 151q230 0 365-150t136-442V570q0-292-134-441T593-21zm0 245q87 0 133 75t47 248v363q0 169-47 245t-135 76q-89 0-135-75t-47-246V547q0-172 46-247t138-76z"/><glyph unicode="1" horiz-adv-x="924" d="M47 0v190l253 31v953l-255 2v180l576 100V221l252-31V0H47z"/><glyph unicode="2" horiz-adv-x="1137" d="M71 0v208l471 501q67 76 106 133t56 105 17 94q0 79-43 133t-129 54q-91 0-137-62t-46-169H52l-2 6q-3 133 57 240t175 171 269 63q154 0 264-54t169-151 59-227q0-88-30-164t-99-161-178-202L485 250l2-5h333l15 129h245V0H71z"/><glyph unicode="3" horiz-adv-x="1114" d="M562-21q-142 0-259 49T118 172 52 403l1 6h312q0-52 24-94t68-66 105-25q93 0 147 53t55 144q0 93-56 147t-168 55H386v239h162q64 0 107 23t64 64 22 99q0 82-46 132t-133 51q-52 0-91-20t-62-57-23-85H74l-2 6q-4 118 58 209t173 142 255 51q228 0 366-107t139-305q0-105-57-185T836 747q118-43 183-131t66-208q0-133-68-229T831 31 562-21z"/><glyph unicode="4" horiz-adv-x="1149" d="M472 0v190l154 31v130H51L32 504l594 952h321V558h153V351H947V221l152-31V0H472zM325 558h301v476l-6 2-25-39-270-439z"/><glyph unicode="5" horiz-adv-x="1096" d="M556-21q-136 0-251 50T122 173 57 394l2 4 313 19q0-91 50-142t134-51q95 0 137 69t43 173q0 121-46 193t-144 72q-72 0-114-29t-59-77L85 642l84 814h859v-345H838l-27 92H432l-40-312q27 19 61 33t76 24 85 9q142 3 241-54t150-168 51-267q0-138-57-249T829 44 556-21z"/><glyph unicode="6" horiz-adv-x="1144" d="M610-21q-157 0-276 70T148 252 81 568v275q0 198 76 340t211 218 311 76q84 0 152-15t145-47l-55-233q-56 18-115 30t-118 13q-141 0-210-89t-69-259l3-4q46 50 120 78t164 29q131 0 225-63t143-176 49-257q0-145-64-259T871 45 610-21zm-7 245q57 0 99 36t66 96 24 134q0 109-53 177t-152 69q-38 0-73-9t-63-28-49-43v-91q0-164 55-252t146-89z"/><glyph unicode="7" horiz-adv-x="1101" d="M321 0l14 145q22 210 77 399t146 356 218 310H292l-10-137H40v383h1043v-246q-112-131-186-252T776 712t-74-262-45-305L643 0H321z"/><glyph unicode="8" horiz-adv-x="1110" d="M564-21q-150 0-263 48T123 170 59 399q0 117 64 206t178 140q-100 48-155 131t-56 192q0 130 59 221t165 140 248 48q141 0 247-48t166-139 60-222q0-108-56-191T823 745q114-51 178-140t64-206q0-134-63-228T826 28 564-21zm0 245q54 0 94 24t63 70 23 106q0 61-23 105t-64 69-95 24q-55 0-95-24t-64-68-23-106q0-93 50-146t134-54zm0 645q47 0 80 22t51 64 18 98q0 54-18 94t-51 62-82 22q-72 0-111-47t-39-131q0-86 39-135t113-49z"/><glyph unicode="9" horiz-adv-x="1137" d="M498-21q-76 0-157 15T190 40l34 231q64-22 131-34t127-13q122 0 192 81t72 246l-1 28q-52-62-119-93t-148-31q-125 0-220 60T110 688 57 956q0 147 64 264t177 187 260 70q148 0 261-71t178-203 65-317V553q0-176-73-305T789 49 498-21zm63 707q54 0 101 21t79 60v157q0 150-50 228t-133 79q-54 0-94-38t-63-100-23-137q0-82 20-143t60-94 103-33z"/><glyph unicode=":" horiz-adv-x="466" d="M330 0v273h320V0H330zM74 808v273h320V808H74z"/><glyph unicode=";" horiz-adv-x="462" d="M72 808v273h320V808H72zM431-381l-154 80q37 69 56 143t20 170v238h282V29q0-124-60-230T431-381z"/><glyph unicode="&lt;" horiz-adv-x="1011" d="M928 57L53 421v250l875 363V740L417 558l-44-12v-6l44-10 511-179V57z"/><glyph unicode="=" horiz-adv-x="1122" d="M115 745v248h916V745H115zm0-437v250h916V308H115z"/><glyph unicode="&gt;" horiz-adv-x="1022" d="M98 51v293l500 183 55 13v6l-55 15L98 737v292l876-363V415L98 51z"/><glyph unicode="?" horiz-adv-x="996" d="M325 416q0 73 10 123t32 89 63 77 103 86q46 35 79 77t51 88 18 97q0 80-44 125t-125 46q-67 0-114-36t-49-113H36l-2 6q-2 127 58 215t168 135 251 46q231 0 361-112t130-303q0-88-34-162t-94-139-133-124q-40-30-60-60t-27-68-8-93H325zm0-416v271h319V0H325z"/><glyph unicode="@" horiz-adv-x="1802" d="M878-453q-266 0-453 112T144-20 61 478q12 286 124 496t308 325 459 115q257 0 436-108t271-306 81-471q-6-152-61-277T1522 53t-251-74q-98 0-159 44t-86 126Q940-17 771-17q-147 0-224 120t-57 324q17 163 71 285t151 192 240 69q90 0 162-25t162-81l2-4-51-570q-3-59 4-93t27-49 50-15q98 0 164 109t74 284q16 336-136 527t-462 191q-202 0-349-93T367 887t-94-409q-12-232 57-400t210-259 342-91q84 0 175 19t157 49l37-160q-66-42-169-65t-204-24zm-31 621q45 0 86 27t76 99q1 5 2 12t2 24l40 440q-20 8-42 12t-48 5q-104 0-159-92t-73-279q-11-122 18-185t98-63z"/><glyph unicode="A" horiz-adv-x="1506" d="M32 0v190l103 15 449 1251h339l448-1251 103-15V0H954v190l98 18-54 179H508l-53-179 97-18V0H32zm547 618h346l-155 470-16 47h-6l-16-52-153-465z"/><glyph unicode="B" horiz-adv-x="1351" d="M48 0v190l153 31v1013l-153 31v191h653q266 0 415-100t149-300q0-102-51-182t-153-122q87-19 143-66t84-113 28-145q0-211-140-319T773 0H48zm475 245h250q110 0 166 46t57 137q0 68-21 113t-66 68-117 23H523V245zm0 604h176q120 0 182 44t63 131q0 96-61 141t-182 45H523V849z"/><glyph unicode="C" horiz-adv-x="1330" d="M752-21q-210 0-370 86T133 312 44 698v59q0 210 83 372t240 255 370 93q150 0 283-41t245-134V939h-237l-32 218q-34 23-72 40t-82 26-95 9q-117 0-203-57t-132-162-47-254v-61q0-143 48-250t136-166 208-59q61 0 123 13t116 36l33 205h236V120q-86-58-217-99T752-21z"/><glyph unicode="D" horiz-adv-x="1448" d="M48 0v190l155 35v1004l-155 36v191h660q197 0 347-91t235-253 85-372v-25q0-209-84-370T1057 92 710 0H48zm476 245h170q116 0 195 59t121 166 42 245v26q0 140-41 245t-121 165-196 59H524V245z"/><glyph unicode="E" horiz-adv-x="1308" d="M48 0v190l153 31v1013l-153 31v191h1147v-407H950l-11 160H523V876h478V629H523V247h438l11 166h241V0H48z"/><glyph unicode="F" horiz-adv-x="1268" d="M48 0v190l153 31v1013l-153 31v191h1179v-414H982l-9 166H523V839h502V593H523V221l153-31V0H48z"/><glyph unicode="G" horiz-adv-x="1382" d="M732-21q-222 0-377 89T119 315 37 682v58q0 218 81 383t232 260 362 94q153 0 297-44t252-136V965h-233l-47 190q-37 34-101 56t-146 22q-121 0-205-62T400 999t-44-257v-60q0-140 45-243t131-160 211-57q70 0 133 14t102 32v218l-186 18v223h508V131q-107-73-249-112T732-21z"/><glyph unicode="H" horiz-adv-x="1606" d="M48 0v190l153 31v1013l-153 31v191h628v-191l-153-31V840h561v394l-153 31v191h627v-191l-153-31V221l153-31V0H931v190l153 31v372H523V221l153-31V0H48z"/><glyph unicode="I" horiz-adv-x="723" d="M48 0v190l153 31v1013l-153 31v191h627v-191l-153-31V221l153-31V0H48z"/><glyph unicode="J" horiz-adv-x="1212" d="M568-21q-161 0-280 53T101 193 27 470l2 6h300q9-142 63-194t140-53q52 0 95 23t71 71 27 122v789l-198 32v190h672v-191l-154-31V445q0-144-56-248T827 36 568-21z"/><glyph unicode="K" horiz-adv-x="1559" d="M446 337L282 526l719 725 1 3-154 11v191h639v-191l-137-28-904-900zM48 0v190l153 31v1013l-153 31v191h617v-191l-142-31V221l142-31V0H48zm832 0v190l141 11 1 1-360 494 219 205 513-686 146-25V0H880z"/><glyph unicode="L" horiz-adv-x="1197" d="M48 0v190l153 31v1013l-153 31v191h655v-191l-180-31V246h378l11 209h245V0H48z"/><glyph unicode="M" horiz-adv-x="2092" d="M44 0v190l152 31v1013l-152 31v191h637l374-987h6l364 987h633v-191l-154-31V221l154-31V0h-628v190l160 31v235l7 670-6 1L1167 10H919L488 1116l-7-1 21-621V221l170-31V0H44z"/><glyph unicode="N" horiz-adv-x="1607" d="M47 0v190l153 31v1013l-153 31v191h480l609-971 6 1v748l-189 31v191h628v-191l-153-31V0h-315L492 956l-6-1V221l190-31V0H47z"/><glyph unicode="O" horiz-adv-x="1476" d="M738-21q-149 0-272 55T252 189 113 423 64 717v23q0 158 48 292t139 234 213 155 272 56q149 0 273-55t216-156 142-234 51-292v-23q0-159-50-293t-142-235-216-155-272-55zm0 246q117 0 197 61t121 172 42 259v25q0 145-42 254t-122 172-198 62q-119 0-197-61T423 999t-38-257v-25q0-147 38-258t117-172 198-62z"/><glyph unicode="P" horiz-adv-x="1333" d="M48 0v190l153 31v1013l-153 31v191h700q171 0 295-60t192-166 68-248q0-142-67-248t-192-165-296-59H523V221l153-31V0H48zm475 757h225q115 0 174 62t59 161q0 100-59 165t-174 65H523V757z"/><glyph unicode="Q" horiz-adv-x="1471" d="M1311-292L881-8q-35-6-70-9t-70-4q-150 0-274 55T254 188 115 422 66 717v23q0 158 49 292t138 235 213 155 273 55q148 0 272-55t217-155 142-234 50-293v-23q0-187-75-344t-196-256l315-190-153-219zM741 225q118 0 198 61t121 172 41 259v25q0 145-42 254t-122 172-198 62q-120 0-198-61T425 999t-38-257v-25q0-147 39-258t118-172 197-62z"/><glyph unicode="R" horiz-adv-x="1415" d="M48 0v190l153 31v1013l-153 31v192h703q170 0 294-54t190-153 67-236q0-128-67-234t-184-168-269-62l-259 1V221l153-31V0H48zm929 0L757 598l284 85 195-462 131-31V0H977zM523 799h227q114 0 173 50t59 146q0 98-59 156t-172 59H523V799z"/><glyph unicode="S" horiz-adv-x="1259" d="M663-21q-169 0-304 35T92 140v366h248l31-201q38-37 118-61t174-24q74 0 123 19t75 55 26 87q0 48-23 85t-77 69-145 64q-180 55-297 116T171 861t-58 207q0 120 67 210t186 143 272 54q174 4 307-37t233-118V980H938l-39 198q-36 20-100 36t-140 16q-66 0-116-18t-80-55-29-89q0-43 24-77t86-65 169-70q244-70 371-180t127-293q0-127-69-217T950 27 663-21z"/><glyph unicode="T" horiz-adv-x="1384" d="M376 0v190l154 31v987H285l-13-166H30v414h1325v-414h-244l-13 166H852V221l154-31V0H376z"/><glyph unicode="U" horiz-adv-x="1565" d="M782-21q-180 0-315 60T257 215t-75 281v738l-152 31v191h627v-191l-153-31V496q0-92 33-152t95-90 149-30q90 0 152 29t96 90 33 153v738l-152 31v191h627v-191l-153-31V496q0-164-76-280T1097 40 782-21z"/><glyph unicode="V" horiz-adv-x="1544" d="M620 0L158 1249l-133 16v191h616v-191l-131-20 273-839 18-68h6l18 66 269 841-154 20v191h581v-191l-138-16L960 0H620z"/><glyph unicode="W" horiz-adv-x="2224" d="M516 0L180 1250l-157 15v191h621v-191l-160-23 165-680 27-111 6-1 31 113 286 893h229l299-926 28-89h6l24 89 173 712-166 23v191h610v-191l-148-15L1708 0h-289l-263 802-33 112h-6l-39-117L811 0H516z"/><glyph unicode="X" horiz-adv-x="1510" d="M22 0v190l128 25 399 501-379 523-115 26v191h599v-191l-139-13 228-320 232 320-135 13v191h588v-191l-128-26-365-489 412-534 141-26V0H872v190l121 12-247 338-254-338 118-12V0H22z"/><glyph unicode="Y" horiz-adv-x="1522" d="M447 0v190l153 31v269l-427 755-146 20v191h605v-191l-104-16 221-433 22-48h8l23 46 251 435-155 16v191h593v-191l-148-20-423-730V221l154-31V0H447z"/><glyph unicode="Z" horiz-adv-x="1235" d="M69 0v206l696 1003H359l-24-186H92l15 433h1058v-198L467 246h471l27 179h241L1183 0H69z"/><glyph unicode="[" horiz-adv-x="604" d="M134-344v2044h447v-235H455V-108h126v-236H134z"/><glyph unicode="\" horiz-adv-x="858" d="M612-125L4 1456h320L932-125H612z"/><glyph unicode="]" horiz-adv-x="588" d="M21-344v236h129v1573H21v235h448V-344H21z"/><glyph unicode="^" horiz-adv-x="890" d="M37 729l299 727h236l300-727H625l-165 411-5 23h-6l-4-23-162-411H37z"/><glyph unicode="_" horiz-adv-x="1071" d="M83-196V0h907v-196H83z"/><glyph unicode="`" horiz-adv-x="619" d="M579 1287H318L40 1554l2 6h333l204-273z"/><glyph unicode="a" horiz-adv-x="1160" d="M426-21q-160 0-256 88T73 303q0 101 54 179t164 122 271 44h129v72q0 71-41 118t-127 48q-41 0-74-10t-61-29l-23-140H136l-4 290q88 45 188 75t223 30q216 0 342-100t127-286V250q0-21 5-42l114-18V0H746q-12 23-25 54t-19 62Q652 53 586 16T426-21zm92 232q50 0 96 21t77 60v164H564q-83 0-127-37t-45-95q0-53 34-83t92-30z"/><glyph unicode="b" horiz-adv-x="1192" d="M711-21q-98 0-167 39T428 131L406 0H128v1338l-152 31v191h473V971q45 63 112 97t155 34q130 0 220-69t138-197 47-300v-21q0-163-47-283T936 45 711-21zM611 227q104 0 147 73t43 215v21q0 99-19 170t-60 110-107 38q-57 0-99-27t-67-74V310q28-42 69-62t93-21z"/><glyph unicode="c" horiz-adv-x="1087" d="M574-21q-158 0-272 70T125 243 63 526v27q0 161 63 285t178 194 268 70q150 0 258-46t173-102l-4-326H759l-41 195q-20 21-52 33t-62 13q-78 0-126-36t-70-106-23-174v-27q0-109 27-175t71-96 94-31q70 0 111 36t59 104h271l4-6q-20-122-71-206T809 23 574-21z"/><glyph unicode="d" horiz-adv-x="1210" d="M473-21q-128 0-220 66T112 233 63 515v21q0 170 49 297t141 198 217 71q88 0 152-35t113-101v372l-154 31v191h476V221l133-31V0H778l-24 133Q704 57 636 18T473-21zm98 248q52 0 94 21t70 63v447q-27 46-68 71t-94 25q-67 0-108-40t-61-111-19-167v-21q0-136 42-212t144-76z"/><glyph unicode="e" horiz-adv-x="1084" d="M586-21q-158 0-275 68T130 235 65 507v38q0 163 59 289t170 197 266 71q147 0 248-57t153-166 53-267V442H398l-1-7q7-61 35-108t78-75 124-28q74 0 141 18t138 55l79-196q-70-52-173-87T586-21zM400 647h318v26q0 61-15 104t-48 67-88 23q-56 0-91-28t-54-76-26-111l4-5z"/><glyph unicode="f" horiz-adv-x="822" d="M82 0v190l134 31v637H58v224h158v114q0 185 109 285t305 100q50 0 106-8t92-18l-26-238q-26 7-56 11t-65 4q-72 0-107-35t-36-101v-114h248V858H538V221l192-31V0H82z"/><glyph unicode="g" horiz-adv-x="1211" d="M538-437q-84 0-189 21t-186 61l55 225q74-31 153-48t147-17q112 0 165 62t53 172v61q-47-58-109-89T484-21q-132 0-226 66T113 233 63 515v21q0 170 49 297t142 198 221 71q96 0 164-41t116-115l21 136h282V37q0-143-63-249T816-378t-278-59zm39 664q52 0 92 19t67 59v461q-25 42-66 65t-93 23q-69 0-111-40t-61-111-20-167v-21q0-136 43-212t149-76zm442 629l-142 226h306V891l-164-35z"/><glyph unicode="h" horiz-adv-x="1298" d="M47 0v190l133 31v1117l-154 31v191h474V946q50 74 123 115t170 41q160 0 255-110t95-340V221l133-31V0H707v190l114 31v433q0 111-39 155t-116 45q-53 0-95-20t-71-62V221l115-31V0H47z"/><glyph unicode="i" horiz-adv-x="664" d="M50 0v190l134 31v639L31 891v191h474V221l134-31V0H50zm124 1299v261h332v-261H174z"/><glyph unicode="j" horiz-adv-x="624" d="M121-437q-44 0-80 3t-74 13l15 243q24-5 46-9t51-4q57 0 88 43t32 123v885L44 891v191h474V-25q0-198-104-305T121-437zm63 1736v261h332v-261H184z"/><glyph unicode="k" horiz-adv-x="1325" d="M41 0v190l135 31v1117l-154 31v191h474V221l114-31V0H41zm687 0v179l75 21-2 4-184 256 212 201 329-437 128-34V0H728zM460 290L299 456l470 419 1 2-110 17v188h593V891l-139-38-654-563z"/><glyph unicode="l" horiz-adv-x="653" d="M41 0v190l135 31v1117l-154 31v191h476V221l133-31V0H41z"/><glyph unicode="m" horiz-adv-x="1899" d="M45 0v190l135 31v639L25 891v191h454l12-143q53 77 130 120t179 43q102 0 175-44t111-137q50 86 128 133t185 48q159 0 250-107t91-329V221l135-31V0h-570v190l114 31v445q0 107-34 147t-100 41q-57 0-99-28t-66-76V221l104-31V0H696v190l104 31v445q0 106-34 147t-102 41q-54 0-95-21t-70-62V221l115-31V0H45z"/><glyph unicode="n" horiz-adv-x="1296" d="M45 0v190l133 31v639L25 891v191h455l12-153q54 82 133 127t180 46q157 0 246-103t90-325V221l133-31V0H705v190l114 31v453q0 98-39 139t-114 41q-56 0-97-22t-70-64V221l104-31V0H45z"/><glyph unicode="o" horiz-adv-x="1164" d="M584-21q-164 0-280 69T125 242 63 531v20q0 162 62 286t178 194 279 71q164 0 279-70t178-194 62-287v-20q0-163-62-287T862 49 584-21zm0 245q70 0 113 38t63 107 21 162v20q0 91-20 159t-64 107-115 39q-70 0-113-38t-64-107-20-160v-20q0-94 20-163t63-106 116-38z"/><glyph unicode="p" horiz-adv-x="1254" d="M59-416v191l138 31V860L43 891v191h452l14-124q45 69 110 106t158 38q129 0 221-71t142-198 50-297v-21q0-161-49-282T998 46 773-21q-84 0-147 30t-109 91v-294l131-31v-191H59zm618 640q104 0 147 77t44 214v21q0 95-19 166t-62 112-112 40q-52 0-93-23t-65-69V305q24-40 65-60t95-21z"/><glyph unicode="q" horiz-adv-x="1162" d="M561-416v186l174 36v294Q688 39 626 9T478-21q-130 0-223 66T113 233 63 515v21q0 170 49 297t142 198 222 71q96 0 162-40t114-114l25 134h279V-194l124-30v-192H561zm13 640q52 0 93 20t68 60v461q-26 45-66 68t-93 23q-68 0-110-40t-62-112-19-168v-21q0-137 42-214t147-77z"/><glyph unicode="r" horiz-adv-x="896" d="M89 0v190l133 31v639L70 891v191h453l10-133 2-26q38 91 94 135t138 44q23 0 53-4t59-12l-33-295-148 7q-57 2-91-16t-63-57V221l133-31V0H89z"/><glyph unicode="s" horiz-adv-x="1037" d="M531-21Q407-21 300 2T100 67l-4 322h220l39-157q28-14 65-24t86-10q91 0 127 27t36 69q0 40-39 71t-163 56q-191 38-281 125T95 766q0 90 43 165t139 122 247 47q122 0 228-22t177-58l1-311H710l-30 141q-25 18-57 27t-74 9q-72 0-108-27t-36-71q0-25 14-48t55-44 121-39q193-43 285-117t93-219q0-155-112-248T531-21z"/><glyph unicode="t" horiz-adv-x="736" d="M498-22q-160 0-245 86t-85 276v518H26v224h142v266h319v-266h189V858H487V340q0-57 25-81t70-24q21 0 44 2t42 7L693 7q-46-13-95-21t-100-8z"/><glyph unicode="u" horiz-adv-x="1284" d="M513-21Q343-21 247 86t-97 333v441L33 891v191h439V417q0-98 36-144t112-46q52 0 96 20t75 58v555l-123 31v191h445V221l133-31V0H832l-21 130Q759 57 684 18T513-21z"/><glyph unicode="v" horiz-adv-x="1259" d="M449 0L140 872 21 891v191h547V892l-105-20 139-452 23-83h6l28 83 165 451-129 21v190h546V891l-122-22L783 0H449z"/><glyph unicode="w" horiz-adv-x="1821" d="M404 0L162 863 27 891v191h546V892l-108-22 86-384 15-69h6l22 69 217 596h206l213-608 21-67h6l19 67 108 395-123 23v190h535V891l-128-27L1395 0h-264L939 500l-30 102h-6l-29-102L691 0H404z"/><glyph unicode="x" horiz-adv-x="1355" d="M27 0v190l144 16 306 335-286 334-138 16v191h570V902l-76-14 137-184 138 183-86 15v180h548V891l-123-16-272-319 299-350 140-16V0H744v179l82 15-145 180-143-182 85-13V0H27z"/><glyph unicode="y" horiz-adv-x="1314" d="M379-437q-41 0-86 7t-88 20l38 232q19-4 40-6t39-3q64 0 111 28t65 84l17 53-355 893-139 20v191h612V891l-133-20 157-458 12-33h6l186 494-127 17v191h563V891l-125-17L763-160q-29-73-76-136T564-398t-185-39z"/><glyph unicode="z" horiz-adv-x="1131" d="M88 0v182l555 680H386l-36-186H116v406h910V878L514 228h258l49 204h223V0H88z"/><glyph unicode="{" horiz-adv-x="664" d="M560-359q-195 56-277 175t-83 291v203q0 95-41 147T31 510v218q87 0 128 52t41 150v202q0 171 82 290t278 175l61-170q-78-29-109-105t-31-190V930q0-103-45-184T297 620q93-48 138-128t46-182V107q0-113 31-189t109-107l-61-170z"/><glyph unicode="|" horiz-adv-x="421" d="M127-270v1726h180V-270H127z"/><glyph unicode="}" horiz-adv-x="672" d="M103-359L42-189q77 31 108 107t31 189v203q0 103 46 183t141 125q-94 47-140 127t-47 185v202q0 114-31 190T42 1427l61 170q194-55 277-174t84-291V930q0-98 40-150t127-52V510q-86 0-126-52t-41-148V107q0-171-83-290T103-359z"/><glyph unicode="~" horiz-adv-x="1304" d="M879 371q-78 0-148 31t-147 99q-47 44-81 62t-73 19q-50 0-83-50t-34-120L94 440q0 114 39 202t110 139 166 51q79 0 154-33t148-99q46-43 80-61t71-19q50 0 84 51t34 123l220-31q0-112-40-200t-113-140-168-52z"/><glyph unicode="¡" horiz-adv-x="515" d="M81 572v-946h322v946H81zm0 510V810h322v272H81z"/><glyph unicode="¢" horiz-adv-x="1084" d="M467-245v235Q340 13 252 86T118 273 72 526v27q0 137 46 248t134 186 215 102v229h201v-218q108-10 194-47t147-97l3-304H751l-50 169q-18 14-44 24t-65 11q-71 0-115-38t-63-106-20-159v-27q0-92 17-159t59-105 113-38q48 0 81 19t50 53 17 82h292l4-6q2-99-43-181T857 55 668-13v-232H467z"/><glyph unicode="£" horiz-adv-x="1177" d="M103 0v245h10q36 9 59 47t36 94 12 112l-4 81H53v248h155l-8 196q0 212 123 333t330 121q220 0 341-113t117-301l-2-6H795q0 90-40 132t-103 42q-63 0-97-54t-34-154l10-196h336V579H543l2-64q0-74-29-143t-85-127h438l10 137h241V0H103z"/><glyph unicode="¤" horiz-adv-x="1423" d="M1201-27l-131 133q-77-60-169-93T709-20q-101 0-193 32t-167 93L220-26 79 120l134 136q-50 76-74 165t-25 187q0 101 27 193t80 171L79 1119l141 145 142-144q74 55 161 84t186 30q95 0 184-30t164-86l144 147 144-146-148-151q50-78 78-169t29-191q0-97-25-185t-73-163l139-140-144-147zM709 174q85 0 158 33t130 92 87 138 32 171q0 91-31 170t-88 138-129 92-159 33q-86 0-160-33t-131-92-87-138-32-170q0-92 31-170t88-138 130-93 161-33z"/><glyph unicode="¥" horiz-adv-x="1405" d="M390 0v190l152 31v66H215v177h327v101H215v178h253l-258 500-174 22v191h564v-191l-61-12 155-362 9-24 7-3 7 19 160 370-63 12v191h565v-191l-174-23-258-499h223V565H864V464h306V287H864v-66l133-31V0H390z"/><glyph unicode="¦" horiz-adv-x="519" d="M129-270v796h281v-796H129zm0 968v758h281V698H129z"/><glyph unicode="§" horiz-adv-x="1246" d="M634-451q-157 0-281 43T159-273 91-36l2 6 311 1q0-63 30-101t82-55 118-18q98 0 151 36t54 96q0 40-24 69t-83 55-165 57q-165 42-272 96T136 339 84 532q0 87 40 155t119 114q-70 50-105 121t-35 169q0 117 65 203t184 135 280 48q248 0 387-110t133-311l-1-6H840q0 52-24 93t-71 64-113 24q-104 0-154-38t-51-100q0-45 21-74t79-53 169-55q165-41 272-96t160-133 52-194q0-90-39-157t-117-111q67-51 102-122t35-169q0-178-143-279T634-451zm170 778q28 22 44 55t16 75q0 43-24 75t-85 62-167 61q-37 10-68 20t-62 20q-27-23-40-55t-13-75q0-50 20-82t79-58 169-60q29-9 62-18t69-20z"/><glyph unicode="¨" horiz-adv-x="844" d="M500 1299v261h304v-261H500zm-460 0v261h304v-261H40z"/><glyph unicode="©" horiz-adv-x="1557" d="M779-21q-148 0-277 57T276 196 124 435 69 729q0 158 55 293t152 238 226 159 277 57q147 0 276-57t226-159 152-237 55-294q0-158-55-294t-152-238-226-160-276-58zm0 126q122 0 228 47t186 133 126 198 46 246q0 132-45 245t-126 197-187 132-228 47q-123 0-229-47t-188-132-126-198-45-244q0-132 45-245t126-199 187-132 230-48zm-14 177q-160 0-254 106t-95 281v119q0 173 94 280t255 107q157 0 245-80t85-229l-3-6H944q0 95-44 137t-135 42q-95 0-144-68t-49-182V669q0-115 49-183t144-68q90 0 134 41t44 137h148l2-6q5-151-83-229t-245-79z"/><glyph unicode="ª" horiz-adv-x="858" d="M340 692q-119 0-184 61T91 920q0 112 84 172t246 60h138v50q0 62-30 94t-87 32q-65 0-101-25t-36-73l-165 13-1 6q-7 98 78 163t225 65q135 0 213-71t79-205V887q0-51 6-95t20-86H583q-8 21-13 44t-8 49q-33-46-89-76t-133-31zm42 145q34 0 70 14t66 36 41 45v102H422q-73 0-114-32t-42-78q0-43 29-65t87-22z"/><glyph unicode="«" horiz-adv-x="958" d="M518 371L242 762v19l276 391h199L481 771l236-400H518zm158-256L400 506v19l276 391h199L639 515l236-400H676z"/><glyph unicode="¬" horiz-adv-x="1090" d="M746 373v260H112v173h835V373H746z"/><glyph unicode="­" horiz-adv-x="820" d="M124 502v247h587V502H124z"/><glyph unicode="®" horiz-adv-x="1557" d="M779-21q-148 0-277 57T276 196 124 435 69 729q0 158 55 293t152 238 226 159 277 57q147 0 276-57t226-159 152-237 55-294q0-158-55-294t-152-238-226-160-276-58zm0 126q122 0 228 47t186 133 126 198 46 246q0 132-45 245t-126 197-187 132-228 47q-123 0-229-47t-188-132-126-198-45-244q0-132 45-245t126-199 187-132 230-48zM483 316v850h282q150 0 237-68t87-195q0-57-27-99t-82-74q55-32 80-86t26-129v-56q0-41 3-73t14-54v-16H948q-9 21-11 61t-2 83v54q0 71-33 104t-109 34H634V316H483zm151 472h132q72-1 122 29t51 85q0 73-39 101t-135 29H634V788z"/><glyph unicode="¯" horiz-adv-x="814" d="M40 1300v185h734v-185H40z"/><glyph unicode="°" horiz-adv-x="742" d="M378 923q-77 0-140 37t-100 100-37 139q0 76 37 139t100 101 140 38q74 0 135-38t99-101 38-139q0-77-36-139t-99-100-137-37zm0 153q52 0 86 35t35 88q0 53-35 90t-86 38q-53 0-89-37t-37-91q0-53 36-88t90-35z"/><glyph unicode="±" horiz-adv-x="1034" d="M381 346v373H63v257h318v348h281V976h317V719H662V346H381zM118 0v251h833V0H118z"/><glyph unicode="²" horiz-adv-x="822" d="M733 667v163H393l-2 6 94 79q85 69 137 119t77 96 25 100q0 119-79 184t-225 65q-100 0-174-35t-114-94-36-133l2-6h213q0 47 25 76t77 29q47 0 68-24t22-61q0-40-16-72t-74-81L101 830V667h632z"/><glyph unicode="³" horiz-adv-x="830" d="M394 1139H289v-134h105q64 0 98-27t35-73q0-42-31-64t-84-23q-58 0-88 21t-30 64H83l-2-6q-4-76 38-130t119-83 178-29q155 0 244 62t89 175q0 138-146 187 61 24 96 69t36 101q0 110-90 169t-243 60q-136 0-225-62t-83-166l2-6h211q0 29 26 50t76 21q51 0 77-24t26-60q0-92-118-92z"/><glyph unicode="´" horiz-adv-x="619" d="M40 1287l203 273h334l2-6-278-267H40z"/><glyph unicode="µ" horiz-adv-x="1357" d="M206-416V860L51 891v191h475V462q0-136 41-185t127-49q69 0 116 25t74 73v534l-154 31v191h474V221l134-31V0H904l-6 82q-40-52-94-77T679-21q-41 0-80 9t-73 26v-430H206z"/><glyph unicode="¶" horiz-adv-x="1139" d="M467 0v190l154 31v299h-83q-155 0-265 59T105 743 46 988q0 138 58 243t169 165 265 60h557v-191l-152-31V221l152-31V0H467z"/><glyph unicode="·" horiz-adv-x="565" d="M141 552v273h320V552H141z"/><glyph unicode="¸" horiz-adv-x="510" d="M67-467l-7 176q56 0 88 18t33 57q0 41-34 57T40-139L72 14h239l-12-69q67-11 112-50t46-117q0-111-102-178T67-467z"/><glyph unicode="¹" horiz-adv-x="532" d="M453 665v812l-349-23v-167h127V665h222z"/><glyph unicode="º" horiz-adv-x="905" d="M453 691q-159 0-253 92t-94 242v117q0 148 94 241t251 94q158 0 253-93t95-242v-117q0-149-94-241t-252-93zm0 147q83 0 127 51t44 136v117q0 83-44 134t-129 52q-84 0-127-51t-43-135v-117q0-84 44-135t128-52z"/><glyph unicode="»" horiz-adv-x="984" d="M308 150l233 400-233 401h199l274-391v-19L507 150H308zm169 0l233 400-233 401h199l274-391v-19L676 150H477z"/><glyph unicode="¼" horiz-adv-x="1403" d="M224 664v622H97v167l347 23V664H224zm143-548l-151 78 711 1138 151-78L367 116zM1102 0v135H693l-14 134 423 532h223V301h94V135h-94V0h-223zM904 301h198v240l-6 2-13-19-179-223z"/><glyph unicode="½" horiz-adv-x="1450" d="M359 116l-151 78 711 1138 151-78L359 116zM205 664v622H78v167l347 23V664H205zM797 0v163l313 248q57 48 73 82t16 65q0 40-22 65t-69 26q-50 0-76-29t-26-76H793l-2 6q-4 73 36 132t114 94 174 36q147 0 226-64t80-177q0-59-25-106t-77-97-137-120l-96-79 2-6h342V0H797z"/><glyph unicode="¾" horiz-adv-x="1618" d="M593 116l-151 78 711 1138 151-78L593 116zM1288 0v135H879l-14 134 423 532h223V301h94V135h-94V0h-223zm-198 301h198v240l-6 2-13-19-179-223zM399 656q-101 0-178 29t-119 83-38 130l2 6h211q0-42 30-63t84-22q57 0 88 22t31 64q0 47-34 74t-99 27H272v134h105q118 0 118 89 0 38-25 62t-79 25q-48 0-74-21t-27-50H79l-2 6q-6 104 84 166t235 62q145 0 233-58t89-162q0-62-35-108t-97-71q146-49 146-191 0-110-89-171t-244-62z"/><glyph unicode="¿" horiz-adv-x="962" d="M728 667q0-73-10-123t-32-89-63-77-103-86q-46-35-79-77t-51-88-18-97q0-80 44-125t125-46q67 0 114 36T704 8h313l2-6q2-127-58-215T793-348t-251-46q-231 0-361 112T51 21q0 88 34 162t94 139 133 124q40 30 60 60t27 68 8 93h321zm0 416V812H409v271h319z"/><glyph unicode="À" horiz-adv-x="1506" d="M32 0v190l103 15 449 1251h339l448-1251 103-15V0H954v190l98 18-54 179H508l-53-179 97-18V0H32zm547 618h346l-155 470-16 47h-6l-16-52-153-465zm366 947H684l-278 267 2 6h333l204-273z"/><glyph unicode="Á" horiz-adv-x="1506" d="M32 0v190l103 15 449 1251h339l448-1251 103-15V0H954v190l98 18-54 179H508l-53-179 97-18V0H32zm547 618h346l-155 470-16 47h-6l-16-52-153-465zm-17 947l203 273h334l2-6-278-267H562z"/><glyph unicode="Â" horiz-adv-x="1506" d="M32 0v190l103 15 449 1251h339l448-1251 103-15V0H954v190l98 18-54 179H508l-53-179 97-18V0H32zm547 618h346l-155 470-16 47h-6l-16-52-153-465zm-204 949v26l257 245h246l255-249v-22H884l-130 143-134-143H375z"/><glyph unicode="Ã" horiz-adv-x="1506" d="M32 0v190l103 15 449 1251h339l448-1251 103-15V0H954v190l98 18-54 179H508l-53-179 97-18V0H32zm547 618h346l-155 470-16 47h-6l-16-52-153-465zm-44 937l-165 44q0 69 33 127t86 94 115 35q50 0 102-23t99-48 81-25q41 2 63 32t23 77l165-47q0-71-32-129t-86-92-117-35q-53 0-105 24t-98 48-79 25q-41 0-63-32t-22-75z"/><glyph unicode="Ä" horiz-adv-x="1506" d="M32 0v190l103 15 449 1251h339l448-1251 103-15V0H954v190l98 18-54 179H508l-53-179 97-18V0H32zm547 618h346l-155 470-16 47h-6l-16-52-153-465zm253 959v261h304v-261H832zm-460 0v261h304v-261H372z"/><glyph unicode="Å" horiz-adv-x="1506" d="M32 0v190l103 15 449 1251h339l448-1251 103-15V0H954v190l98 18-54 179H508l-53-179 97-18V0H32zm547 618h346l-155 470-16 47h-6l-16-52-153-465zm177 889q-104 0-173 62t-70 159q0 95 70 159t173 65q101 0 170-65t69-159q0-97-69-159t-170-62zm0 126q41 0 65 25t25 70q0 43-24 69t-66 27q-41 0-68-26t-27-70q0-43 26-69t69-26z"/><glyph unicode="Æ" horiz-adv-x="2091" d="M70 0v190l139 20 672 1246h1056v-383h-241l-11 133h-339l15-335h493V621h-483l16-372h361l11 133h240V0H920v190l148 28-6 137H647l-76-151 87-14V0H70zm697 599h284l-22 505h-5l-11-23-246-482z"/><glyph unicode="Ç" horiz-adv-x="1330" d="M752-21q-210 0-370 86T133 312 44 698v59q0 210 83 372t240 255 370 93q150 0 283-41t245-134V939h-237l-32 218q-34 23-72 40t-82 26-95 9q-117 0-203-57t-132-162-47-254v-61q0-143 48-250t136-166 208-59q61 0 123 13t116 36l33 205h236V120q-86-58-217-99T752-21zM596-467l-7 176q56 0 88 18t33 57q0 41-34 57t-107 20l32 153h239l-12-69q67-11 112-50t46-117q0-111-102-178t-288-67z"/><glyph unicode="È" horiz-adv-x="1308" d="M48 0v190l153 31v1013l-153 31v191h1147v-407H950l-11 160H523V876h478V629H523V247h438l11 166h241V0H48zm798 1565H585l-278 267 2 6h333l204-273z"/><glyph unicode="É" horiz-adv-x="1308" d="M48 0v190l153 31v1013l-153 31v191h1147v-407H950l-11 160H523V876h478V629H523V247h438l11 166h241V0H48zm415 1565l203 273h334l2-6-278-267H463z"/><glyph unicode="Ê" horiz-adv-x="1308" d="M48 0v190l153 31v1013l-153 31v191h1147v-407H950l-11 160H523V876h478V629H523V247h438l11 166h241V0H48zm228 1567v26l257 245h246l255-249v-22H785l-130 143-134-143H276z"/><glyph unicode="Ë" horiz-adv-x="1308" d="M48 0v190l153 31v1013l-153 31v191h1147v-407H950l-11 160H523V876h478V629H523V247h438l11 166h241V0H48zm685 1577v261h304v-261H733zm-460 0v261h304v-261H273z"/><glyph unicode="Ì" horiz-adv-x="723" d="M48 0v190l153 31v1013l-153 31v191h627v-191l-153-31V221l153-31V0H48zm506 1565H293L15 1832l2 6h333l204-273z"/><glyph unicode="Í" horiz-adv-x="723" d="M48 0v190l153 31v1013l-153 31v191h627v-191l-153-31V221l153-31V0H48zm123 1565l203 273h334l2-6-278-267H171z"/><glyph unicode="Î" horiz-adv-x="723" d="M48 0v190l153 31v1013l-153 31v191h627v-191l-153-31V221l153-31V0H48zm-65 1567v26l257 245h246l255-249v-22H492l-130 143-134-143H-17z"/><glyph unicode="Ï" horiz-adv-x="723" d="M48 0v190l153 31v1013l-153 31v191h627v-191l-153-31V221l153-31V0H48zm392 1577v261h304v-261H440zm-460 0v261h304v-261H-20z"/><glyph unicode="Ð" horiz-adv-x="1448" d="M48 0v190l155 35v1004l-155 36v191h660q197 0 347-91t235-253 85-372v-25q0-209-84-370T1057 92 710 0H48zm476 245h170q116 0 195 59t121 166 42 245v26q0 140-41 245t-121 165-196 59H524V245zM290 918v155h677V918H290z"/><glyph unicode="Ñ" horiz-adv-x="1607" d="M47 0v190l153 31v1013l-153 31v191h480l609-971 6 1v748l-189 31v191h628v-191l-153-31V0h-315L492 956l-6-1V221l190-31V0H47zm539 1555l-165 44q0 69 33 127t86 94 115 35q50 0 102-23t99-48 81-25q41 2 63 32t23 77l165-47q0-71-32-129t-86-92-117-35q-53 0-105 24t-98 48-79 25q-41 0-63-32t-22-75z"/><glyph unicode="Ò" horiz-adv-x="1476" d="M738-21q-149 0-272 55T252 189 113 423 64 717v23q0 158 48 292t139 234 213 155 272 56q149 0 273-55t216-156 142-234 51-292v-23q0-159-50-293t-142-235-216-155-272-55zm0 246q117 0 197 61t121 172 42 259v25q0 145-42 254t-122 172-198 62q-119 0-197-61T423 999t-38-257v-25q0-147 38-258t117-172 198-62zm192 1340H669l-278 267 2 6h333l204-273z"/><glyph unicode="Ó" horiz-adv-x="1476" d="M738-21q-149 0-272 55T252 189 113 423 64 717v23q0 158 48 292t139 234 213 155 272 56q149 0 273-55t216-156 142-234 51-292v-23q0-159-50-293t-142-235-216-155-272-55zm0 246q117 0 197 61t121 172 42 259v25q0 145-42 254t-122 172-198 62q-119 0-197-61T423 999t-38-257v-25q0-147 38-258t117-172 198-62zM547 1565l203 273h334l2-6-278-267H547z"/><glyph unicode="Ô" horiz-adv-x="1476" d="M738-21q-149 0-272 55T252 189 113 423 64 717v23q0 158 48 292t139 234 213 155 272 56q149 0 273-55t216-156 142-234 51-292v-23q0-159-50-293t-142-235-216-155-272-55zm0 246q117 0 197 61t121 172 42 259v25q0 145-42 254t-122 172-198 62q-119 0-197-61T423 999t-38-257v-25q0-147 38-258t117-172 198-62zM359 1567v26l257 245h246l255-249v-22H868l-130 143-134-143H359z"/><glyph unicode="Õ" horiz-adv-x="1476" d="M738-21q-149 0-272 55T252 189 113 423 64 717v23q0 158 48 292t139 234 213 155 272 56q149 0 273-55t216-156 142-234 51-292v-23q0-159-50-293t-142-235-216-155-272-55zm0 246q117 0 197 61t121 172 42 259v25q0 145-42 254t-122 172-198 62q-119 0-197-61T423 999t-38-257v-25q0-147 38-258t117-172 198-62zM520 1555l-165 44q0 69 33 127t86 94 115 35q50 0 102-23t99-48 81-25q41 2 63 32t23 77l165-47q0-71-32-129t-86-92-117-35q-53 0-105 24t-98 48-79 25q-41 0-63-32t-22-75z"/><glyph unicode="Ö" horiz-adv-x="1476" d="M738-21q-149 0-272 55T252 189 113 423 64 717v23q0 158 48 292t139 234 213 155 272 56q149 0 273-55t216-156 142-234 51-292v-23q0-159-50-293t-142-235-216-155-272-55zm0 246q117 0 197 61t121 172 42 259v25q0 145-42 254t-122 172-198 62q-119 0-197-61T423 999t-38-257v-25q0-147 38-258t117-172 198-62zm78 1352v261h304v-261H816zm-460 0v261h304v-261H356z"/><glyph unicode="×" horiz-adv-x="1068" d="M241 202L56 377l303 310L56 996l185 175 296-302 298 302 185-175-303-309 303-310-185-175-298 302-296-302z"/><glyph unicode="Ø" horiz-adv-x="1476" d="M738-21q-149 0-272 55T252 189 113 423 64 717v23q0 158 48 292t139 234 213 155 272 56q149 0 273-55t216-156 142-234 51-292v-23q0-159-50-293t-142-235-216-155-272-55zm0 246q117 0 197 61t121 172 42 259v25q0 145-42 254t-122 172-198 62q-119 0-197-61T423 999t-38-257v-25q0-147 38-258t117-172 198-62zM176-83l935 1615h188L364-83H176z"/><glyph unicode="Ù" horiz-adv-x="1565" d="M782-21q-180 0-315 60T257 215t-75 281v738l-152 31v191h627v-191l-153-31V496q0-92 33-152t95-90 149-30q90 0 152 29t96 90 33 153v738l-152 31v191h627v-191l-153-31V496q0-164-76-280T1097 40 782-21zm192 1586H713l-278 267 2 6h333l204-273z"/><glyph unicode="Ú" horiz-adv-x="1565" d="M782-21q-180 0-315 60T257 215t-75 281v738l-152 31v191h627v-191l-153-31V496q0-92 33-152t95-90 149-30q90 0 152 29t96 90 33 153v738l-152 31v191h627v-191l-153-31V496q0-164-76-280T1097 40 782-21zM591 1565l203 273h334l2-6-278-267H591z"/><glyph unicode="Û" horiz-adv-x="1565" d="M782-21q-180 0-315 60T257 215t-75 281v738l-152 31v191h627v-191l-153-31V496q0-92 33-152t95-90 149-30q90 0 152 29t96 90 33 153v738l-152 31v191h627v-191l-153-31V496q0-164-76-280T1097 40 782-21zM404 1567v26l257 245h246l255-249v-22H913l-130 143-134-143H404z"/><glyph unicode="Ü" horiz-adv-x="1565" d="M782-21q-180 0-315 60T257 215t-75 281v738l-152 31v191h627v-191l-153-31V496q0-92 33-152t95-90 149-30q90 0 152 29t96 90 33 153v738l-152 31v191h627v-191l-153-31V496q0-164-76-280T1097 40 782-21zm79 1598v261h304v-261H861zm-460 0v261h304v-261H401z"/><glyph unicode="Ý" horiz-adv-x="1522" d="M447 0v190l153 31v269l-427 755-146 20v191h605v-191l-104-16 221-433 22-48h8l23 46 251 435-155 16v191h593v-191l-148-20-423-730V221l154-31V0H447zm123 1565l203 273h334l2-6-278-267H570z"/><glyph unicode="Þ" horiz-adv-x="1296" d="M66 0v190l154 31v1013l-154 31v191h629v-191l-153-31v-74h189q256 0 398-117t142-306q0-190-142-307T731 313H542v-92l153-31V0H66zm476 552h189q73 0 121 24t73 65 24 94q0 53-24 95t-72 66-122 25H542V552z"/><glyph unicode="ß" horiz-adv-x="1331" d="M842-21q-49 0-98 6T655 2t-66 29l58 242q34-20 84-34t110-15q66 0 106 36t40 96q0 45-28 88t-71 88-85 91-72 100-29 115q0 45 15 91t35 92 35 91 15 87q0 58-34 97t-97 40q-76 0-119-59t-43-160V0H34v190l152 31v894q0 150 59 254t169 158 259 54q132 0 233-45t159-130 58-198q0-55-15-103t-35-91-35-82-15-74q0-47 28-86t71-79 85-85 71-107 29-145q0-124-52-208T1099 22 842-21z"/><glyph unicode="à" horiz-adv-x="1160" d="M426-21q-160 0-256 88T73 303q0 101 54 179t164 122 271 44h129v72q0 71-41 118t-127 48q-41 0-74-10t-61-29l-23-140H136l-4 290q88 45 188 75t223 30q216 0 342-100t127-286V250q0-21 5-42l114-18V0H746q-12 23-25 54t-19 62Q652 53 586 16T426-21zm92 232q50 0 96 21t77 60v164H564q-83 0-127-37t-45-95q0-53 34-83t92-30zm224 1076H481l-278 267 2 6h333l204-273z"/><glyph unicode="á" horiz-adv-x="1160" d="M426-21q-160 0-256 88T73 303q0 101 54 179t164 122 271 44h129v72q0 71-41 118t-127 48q-41 0-74-10t-61-29l-23-140H136l-4 290q88 45 188 75t223 30q216 0 342-100t127-286V250q0-21 5-42l114-18V0H746q-12 23-25 54t-19 62Q652 53 586 16T426-21zm92 232q50 0 96 21t77 60v164H564q-83 0-127-37t-45-95q0-53 34-83t92-30zM360 1287l203 273h334l2-6-278-267H360z"/><glyph unicode="â" horiz-adv-x="1160" d="M426-21q-160 0-256 88T73 303q0 101 54 179t164 122 271 44h129v72q0 71-41 118t-127 48q-41 0-74-10t-61-29l-23-140H136l-4 290q88 45 188 75t223 30q216 0 342-100t127-286V250q0-21 5-42l114-18V0H746q-12 23-25 54t-19 62Q652 53 586 16T426-21zm92 232q50 0 96 21t77 60v164H564q-83 0-127-37t-45-95q0-53 34-83t92-30zM172 1289v26l257 245h246l255-249v-22H681l-130 143-134-143H172z"/><glyph unicode="ã" horiz-adv-x="1160" d="M426-21q-160 0-256 88T73 303q0 101 54 179t164 122 271 44h129v72q0 71-41 118t-127 48q-41 0-74-10t-61-29l-23-140H136l-4 290q88 45 188 75t223 30q216 0 342-100t127-286V250q0-21 5-42l114-18V0H746q-12 23-25 54t-19 62Q652 53 586 16T426-21zm92 232q50 0 96 21t77 60v164H564q-83 0-127-37t-45-95q0-53 34-83t92-30zM333 1277l-165 44q0 69 33 127t86 94 115 35q50 0 102-23t99-48 81-25q41 2 63 32t23 77l165-47q0-71-32-129t-86-92-117-35q-53 0-105 24t-98 48-79 25q-41 0-63-32t-22-75z"/><glyph unicode="ä" horiz-adv-x="1160" d="M426-21q-160 0-256 88T73 303q0 101 54 179t164 122 271 44h129v72q0 71-41 118t-127 48q-41 0-74-10t-61-29l-23-140H136l-4 290q88 45 188 75t223 30q216 0 342-100t127-286V250q0-21 5-42l114-18V0H746q-12 23-25 54t-19 62Q652 53 586 16T426-21zm92 232q50 0 96 21t77 60v164H564q-83 0-127-37t-45-95q0-53 34-83t92-30zm111 1088v261h304v-261H629zm-460 0v261h304v-261H169z"/><glyph unicode="å" horiz-adv-x="1160" d="M426-21q-160 0-256 88T73 303q0 101 54 179t164 122 271 44h129v72q0 71-41 118t-127 48q-41 0-74-10t-61-29l-23-140H136l-4 290q88 45 188 75t223 30q216 0 342-100t127-286V250q0-21 5-42l114-18V0H746q-12 23-25 54t-19 62Q652 53 586 16T426-21zm92 232q50 0 96 21t77 60v164H564q-83 0-127-37t-45-95q0-53 34-83t92-30zm35 1018q-104 0-173 62t-70 159q0 95 70 159t173 65q101 0 170-65t69-159q0-97-69-159t-170-62zm0 126q41 0 65 25t25 70q0 43-24 69t-66 27q-41 0-68-26t-27-70q0-43 26-69t69-26z"/><glyph unicode="æ" horiz-adv-x="1715" d="M452-21q-178 0-278 88T73 304q0 102 54 179t164 122 271 44h129v71q0 71-41 118t-127 48q-41 0-74-10t-61-29l-23-140H136l-4 290q88 45 188 75t223 30q106 0 190-32t139-97q42 44 91 72t105 43 121 14q141 0 243-60t158-170 55-260V442h-632l-2-7q6-97 63-154t176-57q85 0 145 18t138 56l80-199q-65-48-176-84t-233-36q-244 0-378 150-72-71-163-110T452-21zm67 232q36 0 72 11t67 33 53 52q-11 35-15 72t-5 68v9H564q-83 0-127-37t-45-94q0-52 34-83t93-31zm495 434h318v28q0 85-41 134t-113 49q-48 0-84-25t-57-70-25-111l2-5z"/><glyph unicode="ç" horiz-adv-x="1087" d="M574-21q-158 0-272 70T125 243 63 526v27q0 161 63 285t178 194 268 70q150 0 258-46t173-102l-4-326H759l-41 195q-20 21-52 33t-62 13q-78 0-126-36t-70-106-23-174v-27q0-109 27-175t71-96 94-31q70 0 111 36t59 104h271l4-6q-20-122-71-206T809 23 574-21zM428-467l-7 176q56 0 88 18t33 57q0 41-34 57t-107 20l32 153h239l-12-69q67-11 112-50t46-117q0-111-102-178t-288-67z"/><glyph unicode="è" horiz-adv-x="1084" d="M586-21q-158 0-275 68T130 235 65 507v38q0 163 59 289t170 197 266 71q147 0 248-57t153-166 53-267V442H398l-1-7q7-61 35-108t78-75 124-28q74 0 141 18t138 55l79-196q-70-52-173-87T586-21zM400 647h318v26q0 61-15 104t-48 67-88 23q-56 0-91-28t-54-76-26-111l4-5zm345 640H484l-278 267 2 6h333l204-273z"/><glyph unicode="é" horiz-adv-x="1084" d="M586-21q-158 0-275 68T130 235 65 507v38q0 163 59 289t170 197 266 71q147 0 248-57t153-166 53-267V442H398l-1-7q7-61 35-108t78-75 124-28q74 0 141 18t138 55l79-196q-70-52-173-87T586-21zM400 647h318v26q0 61-15 104t-48 67-88 23q-56 0-91-28t-54-76-26-111l4-5zm-38 640l203 273h334l2-6-278-267H362z"/><glyph unicode="ê" horiz-adv-x="1084" d="M586-21q-158 0-275 68T130 235 65 507v38q0 163 59 289t170 197 266 71q147 0 248-57t153-166 53-267V442H398l-1-7q7-61 35-108t78-75 124-28q74 0 141 18t138 55l79-196q-70-52-173-87T586-21zM400 647h318v26q0 61-15 104t-48 67-88 23q-56 0-91-28t-54-76-26-111l4-5zm-225 642v26l257 245h246l255-249v-22H684l-130 143-134-143H175z"/><glyph unicode="ë" horiz-adv-x="1084" d="M586-21q-158 0-275 68T130 235 65 507v38q0 163 59 289t170 197 266 71q147 0 248-57t153-166 53-267V442H398l-1-7q7-61 35-108t78-75 124-28q74 0 141 18t138 55l79-196q-70-52-173-87T586-21zM400 647h318v26q0 61-15 104t-48 67-88 23q-56 0-91-28t-54-76-26-111l4-5zm232 652v261h304v-261H632zm-460 0v261h304v-261H172z"/><glyph unicode="ì" horiz-adv-x="664" d="M50 0v190l134 31v639L31 891v191h474V221l134-31V0H50zm738 1287H527l-278 267 2 6h333l204-273z"/><glyph unicode="í" horiz-adv-x="664" d="M50 0v190l134 31v639L31 891v191h474V221l134-31V0H50zm99 1287l203 273h334l2-6-278-267H149z"/><glyph unicode="î" horiz-adv-x="664" d="M50 0v190l134 31v639L31 891v191h474V221l134-31V0H50zm167 1289v26l257 245h246l255-249v-22H726l-130 143-134-143H217z"/><glyph unicode="ï" horiz-adv-x="664" d="M50 0v190l134 31v639L31 891v191h474V221l134-31V0H50zm624 1299v261h304v-261H674zm-460 0v261h304v-261H214z"/><glyph unicode="ð" horiz-adv-x="1225" d="M605-21q-163 0-287 65T125 222 55 481q0 144 59 253t170 169 266 60q77 0 144-18t117-54l4 3q-20 69-58 128t-90 111l-218-121-79 117 174 95q-35 18-71 32t-72 26l103 235q88-20 169-55t152-86l199 112 77-117-164-90q111-116 171-271t61-341v-69q0-182-74-322T894 59 605-21zm-4 245q79 0 134 48t84 133 29 195v56q-33 34-92 56t-135 22q-80 0-135-32t-84-89-28-136q0-73 29-130t80-90 118-33z"/><glyph unicode="ñ" horiz-adv-x="1296" d="M45 0v190l133 31v639L25 891v191h455l12-153q54 82 133 127t180 46q157 0 246-103t90-325V221l133-31V0H705v190l114 31v453q0 98-39 139t-114 41q-56 0-97-22t-70-64V221l104-31V0H45zm386 1277l-165 44q0 69 33 127t86 94 115 35q50 0 102-23t99-48 81-25q41 2 63 32t23 77l165-47q0-71-32-129t-86-92-117-35q-53 0-105 24t-98 48-79 25q-41 0-63-32t-22-75z"/><glyph unicode="ò" horiz-adv-x="1164" d="M584-21q-164 0-280 69T125 242 63 531v20q0 162 62 286t178 194 279 71q164 0 279-70t178-194 62-287v-20q0-163-62-287T862 49 584-21zm0 245q70 0 113 38t63 107 21 162v20q0 91-20 159t-64 107-115 39q-70 0-113-38t-64-107-20-160v-20q0-94 20-163t63-106 116-38zm190 1063H513l-278 267 2 6h333l204-273z"/><glyph unicode="ó" horiz-adv-x="1164" d="M584-21q-164 0-280 69T125 242 63 531v20q0 162 62 286t178 194 279 71q164 0 279-70t178-194 62-287v-20q0-163-62-287T862 49 584-21zm0 245q70 0 113 38t63 107 21 162v20q0 91-20 159t-64 107-115 39q-70 0-113-38t-64-107-20-160v-20q0-94 20-163t63-106 116-38zM392 1287l203 273h334l2-6-278-267H392z"/><glyph unicode="ô" horiz-adv-x="1164" d="M584-21q-164 0-280 69T125 242 63 531v20q0 162 62 286t178 194 279 71q164 0 279-70t178-194 62-287v-20q0-163-62-287T862 49 584-21zm0 245q70 0 113 38t63 107 21 162v20q0 91-20 159t-64 107-115 39q-70 0-113-38t-64-107-20-160v-20q0-94 20-163t63-106 116-38zM204 1289v26l257 245h246l255-249v-22H713l-130 143-134-143H204z"/><glyph unicode="õ" horiz-adv-x="1164" d="M584-21q-164 0-280 69T125 242 63 531v20q0 162 62 286t178 194 279 71q164 0 279-70t178-194 62-287v-20q0-163-62-287T862 49 584-21zm0 245q70 0 113 38t63 107 21 162v20q0 91-20 159t-64 107-115 39q-70 0-113-38t-64-107-20-160v-20q0-94 20-163t63-106 116-38zM365 1277l-165 44q0 69 33 127t86 94 115 35q50 0 102-23t99-48 81-25q41 2 63 32t23 77l165-47q0-71-32-129t-86-92-117-35q-53 0-105 24t-98 48-79 25q-41 0-63-32t-22-75z"/><glyph unicode="ö" horiz-adv-x="1164" d="M584-21q-164 0-280 69T125 242 63 531v20q0 162 62 286t178 194 279 71q164 0 279-70t178-194 62-287v-20q0-163-62-287T862 49 584-21zm0 245q70 0 113 38t63 107 21 162v20q0 91-20 159t-64 107-115 39q-70 0-113-38t-64-107-20-160v-20q0-94 20-163t63-106 116-38zm77 1075v261h304v-261H661zm-460 0v261h304v-261H201z"/><glyph unicode="÷" horiz-adv-x="1129" d="M51 565v239h1036V565H51zm359-406v243h320V159H410zm0 806v242h320V965H410z"/><glyph unicode="ø" horiz-adv-x="1164" d="M584-21q-164 0-280 69T125 242 63 531v20q0 162 62 286t178 194 279 71q164 0 279-70t178-194 62-287v-20q0-163-62-287T862 49 584-21zm0 245q70 0 113 38t63 107 21 162v20q0 91-20 159t-64 107-115 39q-70 0-113-38t-64-107-20-160v-20q0-94 20-163t63-106 116-38zM165-139l663 1360h172L338-139H165z"/><glyph unicode="ù" horiz-adv-x="1284" d="M513-21Q343-21 247 86t-97 333v441L33 891v191h439V417q0-98 36-144t112-46q52 0 96 20t75 58v555l-123 31v191h445V221l133-31V0H832l-21 130Q759 57 684 18T513-21zm315 1308H567l-278 267 2 6h333l204-273z"/><glyph unicode="ú" horiz-adv-x="1284" d="M513-21Q343-21 247 86t-97 333v441L33 891v191h439V417q0-98 36-144t112-46q52 0 96 20t75 58v555l-123 31v191h445V221l133-31V0H832l-21 130Q759 57 684 18T513-21zm-68 1308l203 273h334l2-6-278-267H445z"/><glyph unicode="û" horiz-adv-x="1284" d="M513-21Q343-21 247 86t-97 333v441L33 891v191h439V417q0-98 36-144t112-46q52 0 96 20t75 58v555l-123 31v191h445V221l133-31V0H832l-21 130Q759 57 684 18T513-21zM258 1289v26l257 245h246l255-249v-22H767l-130 143-134-143H258z"/><glyph unicode="ü" horiz-adv-x="1284" d="M513-21Q343-21 247 86t-97 333v441L33 891v191h439V417q0-98 36-144t112-46q52 0 96 20t75 58v555l-123 31v191h445V221l133-31V0H832l-21 130Q759 57 684 18T513-21zm202 1320v261h304v-261H715zm-460 0v261h304v-261H255z"/><glyph unicode="ý" horiz-adv-x="1314" d="M379-437q-41 0-86 7t-88 20l38 232q19-4 40-6t39-3q64 0 111 28t65 84l17 53-355 893-139 20v191h612V891l-133-20 157-458 12-33h6l186 494-127 17v191h563V891l-125-17L763-160q-29-73-76-136T564-398t-185-39zm92 1724l203 273h334l2-6-278-267H471z"/><glyph unicode="þ" horiz-adv-x="1247" d="M57-416v191l133 31v1532l-153 31v191h474V971q45 63 108 97t151 34q130 0 222-71t142-198 50-297v-21q0-161-50-282T991 46 767-21q-84 0-147 30t-109 91v-294l134-31v-191H57zm612 640q105 0 149 77t44 214v21q0 95-20 166t-63 112-112 40q-51 0-92-23t-64-69V304q23-39 64-59t94-21z"/><glyph unicode="ÿ" horiz-adv-x="1314" d="M379-437q-41 0-86 7t-88 20l38 232q19-4 40-6t39-3q64 0 111 28t65 84l17 53-355 893-139 20v191h612V891l-133-20 157-458 12-33h6l186 494-127 17v191h563V891l-125-17L763-160q-29-73-76-136T564-398t-185-39zm361 1736v261h304v-261H740zm-460 0v261h304v-261H280z"/><glyph unicode="–" horiz-adv-x="1364" d="M423 587v250h1084V587H423z"/><glyph unicode="—" horiz-adv-x="1590" d="M167 587v250h1335V587H167z"/><glyph unicode="‘" horiz-adv-x="500" d="M96 1005v199q0 66 24 138t67 140 93 114l154-79q-37-69-57-143t-20-171v-198H96z"/><glyph unicode="’" horiz-adv-x="488" d="M218 974l-154 80q36 69 56 143t20 171v192h260v-193q0-67-25-140t-66-140-91-113z"/><glyph unicode="‚" horiz-adv-x="533" d="M223-381L69-301q37 69 56 143t20 170v238h282V29q0-124-60-230T223-381z"/><glyph unicode="“" horiz-adv-x="860" d="M102 1005v199q0 66 24 138t67 140 93 114l154-79q-37-69-57-143t-20-171v-198H102zm341 0v199q0 66 24 138t67 140 93 114l154-79q-37-69-57-143t-20-171v-198H443z"/><glyph unicode="”" horiz-adv-x="868" d="M233 974l-154 80q36 69 56 143t20 171v192h260v-193q0-67-25-140t-66-140-91-113zm346 0l-154 80q36 69 56 143t20 171v192h260v-193q0-67-25-140t-66-140-91-113z"/><glyph unicode="„" horiz-adv-x="894" d="M223-381L69-301q37 69 56 143t20 170v238h282V29q0-124-60-230T223-381zm360 0l-154 80q37 69 56 143t20 170v238h282V29q0-124-60-230T583-381z"/><glyph unicode="•" horiz-adv-x="706" d="M363 478q-114 0-180 64t-67 168v100q0 103 66 169t180 67q114 0 181-65t67-171V710q0-104-66-168t-181-64z"/><glyph unicode="‹" horiz-adv-x="563" d="M312 150L36 541v19l276 391h199L275 550l236-400H312z"/><glyph unicode="›" horiz-adv-x="570" d="M68 150l233 400L68 951h199l274-391v-19L267 150H68z"/></font>
</defs>
</svg>
