<svg xmlns="http://www.w3.org/2000/svg" viewBox="0 0 512 512">
    <rect x="70.72" y="70.58" width="372.64" height="372.64" rx="27.7" ry="27.7" transform="translate(256.94 -106.51) rotate(45)" fill="#64BFBD"/>
    <g>
        <path d="M352.38,242.44H161.7a13.1,13.1,0,1,1,0-26.2H352.38a13.1,13.1,0,1,1,0,26.2Z" fill="#FFF"/>
        <path d="M330.55,298.87H185a13.1,13.1,0,0,1,0-26.2H330.55a13.1,13.1,0,1,1,0,26.2Z" fill="#FFF"/>
        <path d="M307.26,355.3H209.73a13.1,13.1,0,0,1,0-26.2h97.53a13.1,13.1,0,1,1,0,26.2Z" fill="#FFF"/>
        <path d="M284,411.73H234.48a13.1,13.1,0,1,1,0-26.2H284a13.1,13.1,0,0,1,0,26.2Z" fill="#FFF"/>
    </g>
    <path d="M222.81,193.53a107,107,0,0,0-.67-19c-1.73-15-6.15-26.42-13.14-33.84a30.29,30.29,0,0,0-22.56-9.74,13.1,13.1,0,1,0,0,26.2,4.17,4.17,0,0,1,3.48,1.5c5.54,5.86,7.3,24.91,6.73,34.9Z"
          fill="#FFF"/>
    <path d="M295.7,193.53a109.18,109.18,0,0,1,.67-19c1.73-15,6.15-26.42,13.14-33.84a30.29,30.29,0,0,1,22.56-9.74,13.1,13.1,0,1,1,0,26.2,4.17,4.17,0,0,0-3.48,1.5c-5.54,5.86-7.29,24.91-6.73,34.9Z"
          fill="#FFF"/>
</svg>