<svg xmlns="http://www.w3.org/2000/svg" viewBox="0 0 512 512"><path d="M257.04 4.854a27.613 27.613 0 00-19.589 8.136L13.13 237.314a27.64 27.64 0 000 39.174l224.32 224.323a27.64 27.64 0 0039.174 0l224.324-224.323a27.64 27.64 0 000-39.174L276.625 12.99c-5.426-5.425-12.505-8.136-19.586-8.136zm-70.6 126.095a30.29 30.29 0 0122.56 9.74c6.99 7.42 11.41 18.84 13.14 33.84a107 107 0 01.67 19l-26.16.022c.57-9.99-1.19-29.04-6.73-34.9a4.17 4.17 0 00-3.48-1.5 13.1 13.1 0 010-26.202zm145.63 0a13.1 13.1 0 010 26.201 4.17 4.17 0 00-3.48 1.5c-5.54 5.86-7.29 24.91-6.73 34.9l-26.16-.02a109.18 109.18 0 01.67-19c1.73-15 6.15-26.42 13.14-33.84a30.29 30.29 0 0122.56-9.74zM161.7 216.24h190.68a13.1 13.1 0 110 26.2H161.7a13.1 13.1 0 110-26.2zm23.3 56.43h145.55a13.1 13.1 0 110 26.2H185a13.1 13.1 0 010-26.2zm24.73 56.43h97.53a13.1 13.1 0 110 26.2h-97.53a13.1 13.1 0 010-26.2zm24.75 56.43H284a13.1 13.1 0 010 26.2h-49.52a13.1 13.1 0 110-26.2z"/></svg>